<mxfile host="app.diagrams.net" modified="2022-06-07T08:47:14.740Z" agent="5.0 (Macintosh; Intel Mac OS X 10_15_7) AppleWebKit/537.36 (KHTML, like Gecko) Chrome/102.0.5005.61 Safari/537.36" etag="peS1lDTi0UKFvHXihN0s" version="18.1.3" type="github" pages="2">
  <diagram id="vEbCwwD9yIvgbhlJWlyM" name="C.5_raw">
    <mxGraphModel dx="1186" dy="764" grid="1" gridSize="10" guides="1" tooltips="1" connect="1" arrows="1" fold="1" page="1" pageScale="1" pageWidth="850" pageHeight="1100" math="0" shadow="0">
      <root>
        <mxCell id="0" />
        <mxCell id="1" parent="0" />
        <mxCell id="T7lK6e2hjob1D5qVPRZN-1" value="" style="shape=image;verticalLabelPosition=bottom;labelBackgroundColor=default;verticalAlign=top;aspect=fixed;imageAspect=0;image=data:image/png,iVBORw0KGgoAAAANSUhEUgAAAmoAAAKiCAYAAABmafCmAAAEDmlDQ1BrQ0dDb2xvclNwYWNlR2VuZXJpY1JHQgAAOI2NVV1oHFUUPpu5syskzoPUpqaSDv41lLRsUtGE2uj+ZbNt3CyTbLRBkMns3Z1pJjPj/KRpKT4UQRDBqOCT4P9bwSchaqvtiy2itFCiBIMo+ND6R6HSFwnruTOzu5O4a73L3PnmnO9+595z7t4LkLgsW5beJQIsGq4t5dPis8fmxMQ6dMF90A190C0rjpUqlSYBG+PCv9rt7yDG3tf2t/f/Z+uuUEcBiN2F2Kw4yiLiZQD+FcWyXYAEQfvICddi+AnEO2ycIOISw7UAVxieD/Cyz5mRMohfRSwoqoz+xNuIB+cj9loEB3Pw2448NaitKSLLRck2q5pOI9O9g/t/tkXda8Tbg0+PszB9FN8DuPaXKnKW4YcQn1Xk3HSIry5ps8UQ/2W5aQnxIwBdu7yFcgrxPsRjVXu8HOh0qao30cArp9SZZxDfg3h1wTzKxu5E/LUxX5wKdX5SnAzmDx4A4OIqLbB69yMesE1pKojLjVdoNsfyiPi45hZmAn3uLWdpOtfQOaVmikEs7ovj8hFWpz7EV6mel0L9Xy23FMYlPYZenAx0yDB1/PX6dledmQjikjkXCxqMJS9WtfFCyH9XtSekEF+2dH+P4tzITduTygGfv58a5VCTH5PtXD7EFZiNyUDBhHnsFTBgE0SQIA9pfFtgo6cKGuhooeilaKH41eDs38Ip+f4At1Rq/sjr6NEwQqb/I/DQqsLvaFUjvAx+eWirddAJZnAj1DFJL0mSg/gcIpPkMBkhoyCSJ8lTZIxk0TpKDjXHliJzZPO50dR5ASNSnzeLvIvod0HG/mdkmOC0z8VKnzcQ2M/Yz2vKldduXjp9bleLu0ZWn7vWc+l0JGcaai10yNrUnXLP/8Jf59ewX+c3Wgz+B34Df+vbVrc16zTMVgp9um9bxEfzPU5kPqUtVWxhs6OiWTVW+gIfywB9uXi7CGcGW/zk98k/kmvJ95IfJn/j3uQ+4c5zn3Kfcd+AyF3gLnJfcl9xH3OfR2rUee80a+6vo7EK5mmXUdyfQlrYLTwoZIU9wsPCZEtP6BWGhAlhL3p2N6sTjRdduwbHsG9kq32sgBepc+xurLPW4T9URpYGJ3ym4+8zA05u44QjST8ZIoVtu3qE7fWmdn5LPdqvgcZz8Ww8BWJ8X3w0PhQ/wnCDGd+LvlHs8dRy6bLLDuKMaZ20tZrqisPJ5ONiCq8yKhYM5cCgKOu66Lsc0aYOtZdo5QCwezI4wm9J/v0X23mlZXOfBjj8Jzv3WrY5D+CsA9D7aMs2gGfjve8ArD6mePZSeCfEYt8CONWDw8FXTxrPqx/r9Vt4biXeANh8vV7/+/16ffMD1N8AuKD/A/8leAvFY9bLAAAAbGVYSWZNTQAqAAAACAAEARoABQAAAAEAAAA+ARsABQAAAAEAAABGASgAAwAAAAEAAgAAh2kABAAAAAEAAABOAAAAAAAB3ccAAAakAAGTwwAABZwAAqACAAQAAAABAAACaqADAAQAAAABAAACogAAAADAzF0GAAAACXBIWXMAAAsRAAALEgFUSQxSAABAAElEQVR4AeydB1wVR9fGD70oSi+KFHsXsXeNLSbGJG+a6T0xyZvevlRTjYkxvZpu8iYxXWPvvSt2BQUVpAlSFQUp3zyDe70gHS/C9Zn84O7ulJ39zzX7cM6ZGZvk5OSiCbO95MsbbKWosFCYSIAESIAESIAESIAE6gcB+0IlzooKisTD2Ub1yK5+9Iq9IAESIAESIAESIAESEFswKCrMJwoSIAESIAESIAESIIF6RsC2qKhIiooo1OrZuLA7JEACJEACJEACJFBsUZMikiABEiABEiABEiABEqhvBLTrs751iv0hARIgARIgARIgARKQMxY1kiABEiABEiABEiABEqh3BGhRq3dDwg6RAAmQAAmQAAmQQDEBCjV+E0iABEiABEiABEignhKgUKunA8NukQAJkAAJkAAJkACFGr8DJEACJEACJEACJFBPCVCo1dOBYbdIgARIgARIgARIgEKN3wESIAESIAESIAESqKcEKNTq6cCwWyRAAiRAAiRAAiRAocbvAAmQAAmQAAmQAAnUUwIUavV0YNgtEiABEiABEiABEqBQ43eABEiABEiABEiABOopAQq1ejow7BYJkAAJkAAJkAAJUKjxO0ACJEACJEACJEAC9ZQAhVo9HRh2iwRIgARIgARIgAQo1PgdIAESIAESIAESIIF6SoBCrZ4ODLtFAiRAAiRAAiRAAvaWRpCalibRBw6ecxt7e3tp1txfAvz8zsnjBRIgARIgARIgARIgARGLC7V1azfJxFcnl8t61Kjh8urLz4iTk2O5ZZhBAiRAAiRAAiRAAhcjgTp1fQYE+EtgYHPBp5EWLlwin3/1g3HKTxIgARIgARIgARIggTMELG5RMyf9v+lfiLt7U30JLtFRo6/Rx6tWrZXH/nuvPi4qKpLlK9bIzt17xd7OXjp36iADB/YRWxsbU1N79kXJipVrJTMzSzp17CA9e3Y1uVAPHY6Tbdt3iaeHh4R17yQrlq+VuCMJEt69i/Tt09PUBg6yjmfLwgUrZH90jDgoV2ybNi1lzKXDxdHBQZdLTE6WzZt3iJOjo/Tp3V1Wrt4gcXFHZNDAvqpf7cXGrE/oM+6L/vcID9P3btLYzXS/2j6XqSEekAAJkAAJkAAJXDQE6lSomVP19vSU0JYhcjDmkDg7Oeus06fz5b+P/p9s2rTFvKgMGTJA3p70sjgqwbRo8XJ59rlXzfL/1sdPPvmw3Dz+P0pYbZdJk6eKs4uzFlxZWdmmsv+56gp58YUn9PmBAzH6XkePppjycfDTz7/LZx+9LT4+3rJrV6RMfGWSzvf19RGj7NffTJdevXrIF59O0WJt8pSP5LffivuBwj/+NEPX+eG7z6RL5w5yPp5LN8hfJEACJEACJEACFxWBOnV9zl+4VP6ds0j+mTVP3pz8vhZpoA0LFRJEkiHS/nP1OMEP0gplrfplxt9SqKxVH3/6tb52+WWjZco7r0nPHt31+Vdffa+tWfpE/Tp18pTYO9jLZZeN0qIN1//651/ZsLFYBL4+6T2T8Lpy3GUyYsRQFFETH2Lk/Y+m6WPzXxCJd9xxk0CwIaGfsUeOSGJiskmkPf7YQ/LqxP8zuXa/n/6LLns+n0s3yF8kQAIkQAIkQAIXBYE6tai9oyxPpdPAAf3krjtv0pfnL1iqP/v36yMTJtyuj2Nj42TzlgiZPXehXHfdODlyJF5fj9ofrd2Pd99zq9x04zVia2unhFqhzjN+ffHJu9K6dUs5+tC9cunl1+nLq9duFP8AX9m5c7c+h7i69eZr9fEbylUJMTd//iJ55eWnjWb051vKotepQ1sZMXyI3HLr/fpaUuJRUTc2ldsasU0LvpdffEpyc09L48auOu98PJeNjZ3pPjwgARIgARIgARK4OAjUqVCDC9NBxX9lZx2X7Tt3aavX6jXrJDLygHYRxikLFdLadRtM8WvGMMTHJ4irs4tcfvlomTNngezff0DenvKhzu7Qob088t97tFgzyjdp4qZFGs59fb2llRJssJYlJCbK4UPFYg95iD0zUu/ePbRQw3msinUzT+3attSncNkaCXFnvXuEaQtaYmKStvzB+oeE2awPTrhDH5/P59IN8hcJkAAJkAAJkMBFQaBOhdrEF582TSbYr0TTDTferSFv3rJNCzUE8cNl2b59Wxk0qF+JAbBTwf5Ir058Vvr27SmLFi6TjZu36vJ79+6Tx596UZYtmlmijvlJenq6PnVr1Fi5Qp1MWenpGWbHxWVwoVGjRqbrOMDEhrISJjn8/us38tsfs/QEh+3bd+pimM2Ktr/87F0dK1fb5+LyJWXR5zUSIAESIAESsG4CZ/12dfycbZSFCwH/SElJyoWoUquWxVartLR0uV+5NB+47w7xULNEce6kRNyOnXvkltsmyP/+97s8+/Qjsnr5bJn48rO6LoTQJiX4jIRJBCtXrdenmJGZdqxYhAUHtxDc20j/zlkoeadPy4kTObJw0XJ9Gf3y9/c1ilT4+auaRHDP/Y/Lhg1b5LuvP5LVq+YKJi0gIY7t5Knc8/pcFXaGmSRAAiRAAiRAAlZFoGwzUR09oquri7aI5eSc1He89ZbrJGLbdh3kf9U1t4uDo4NpwsHzzz0pAc38ZJ9amgPpxlvuFbgqj6ilN5Dg6gwP7yJz5yzR5/j12BPP6eB/Y7YmBNhVV16mxd8114yTP/+cJXNV7Nvq1eu0WIPYQ7r/3jtKLL2hL5bzy09NLjD6dPm4G6Vbty6ydWuxYOzbt5e4ODvJ+Xiucm7PyyRAAiRAAiRAAlZMwOIWNRuzYPvSHP18i7ePWrJsheTl5clQFcP27NOPaksbJg1g6Q6ke++5XVmpxoiPl5e89+4bar2z1gKL2WK1VAdEEkTaC88/pWPYdAX1C6JswIC+ppmdKDP1nde1SEOZpx5/yGT5QluGSLvn7ttMkwtsbc+u3Wa0a/5pY2cnw4YOlAcm3COeXh5qBmiSnogAYQjL3dNPPKSLn8/nMr8/j0mABEiABEiABKybgE1CQkLRhH/c5M/7GtebJ4VoizkYKwWFhdIyNFhbpUp37tChWElWgsjL00OCggL1Gmso88efs/U6ahBmy5fMkoyMTP0TFNS8xGQDoz24PGMOHhY7eztpFRpS462ssHTI7t37lKvzlPj5eUuLwMASi/TifrV5LqO//CQBEiABEiABErh4CFxQ12d5mLFmWft2rcvL1tdDQoIEP5Ul7IRg7IZQVtlGjVz1RIay8qpzDZMKsLhtRel8PldF92EeCZAACZAACZCAdRCwuOvTOjDxKUiABEiABEiABEig7gnUS4tabTAMG9ZfWrcJ1eu11aYd1iUBEiABEiABEiCBC03A6oSal1qQFj9MJEACJEACJEACJNDQCdD12dBHkP0nARIgARIgARKwWgIUalY7tHwwEiABEiABEiCBhk6AQq2hjyD7TwIkQAIkQAIkYLUEKNSsdmj5YCRAAiRAAiRAAg2dAIVaQx9B9p8ESIAESIAESMBqCVCoWe3Q8sFIgARIgARIgAQaOgEKtYY+guw/CZAACZAACZCA1RKgULPaoeWDkQAJkAAJkAAJNHQCFGoNfQTZfxIgARIgARIgAaslQKFmtUPLByMBEiABEiABEmjoBCjUGvoIsv8kQAIkQAIkQAJWS4BCzWqHlg9GAiRAAiRAAiTQ0AlQqDX0EWT/SYAESIAESIAErJYAhZrVDi0fjARIgARIgARIoKEToFBr6CPI/pMACZAACZAACVgtAQo1qx1aPhgJkAAJkAAJkEBDJ1As1Gwa+mOw/yRAAiRAAiRAAiRgfQTsbWxsxMbGTmKPZsrp03lSWFBofU/JJyIBEiABEiABEiCBBkjAHn22sbUXJycbsXewlyLqtAY4jOwyCZAACZAACZCANRKwt7W1VRY1W3FwUD/qPykqssbn5DORAAmQAAmQAAmQQIMjoC1qYmsjtnacV9DgRo8dJgESIAESIAESsGoCVGdWPbx8OBIgARIgARIggYZMgEKtIY8e+04CJEACJEACJGDVBCjUrHp4+XAkQAIkQAIkQAINmQCFWkMePfadBEiABEiABEjAqglQqFn18PLhSIAESIAESIAEGjIBCrWGPHrsOwmQAAmQAAmQgFUToFCz6uHlw5EACZAACZAACTRkAhRqDXn02HcSIAESIAESIAGrJkChZtXDy4cjARIgARIgARJoyAQo1Bry6LHvJEACJEACJEACVk2AQs2qh5cPRwIkQAIkQAIk0JAJUKg15NFj30mABEiABEiABKyaAIWaVQ8vH44ESIAESIAESKAhE6BQa8ijx76TAAmQAAmQAAlYNQEKNaseXj4cCZAACZAACZBAQyZAodaQR499JwESIAESIAESsGoCFGpWPbx8OBIgARIgARIggYZMgEKtIY8e+04CJEACJEACJGDVBCjUrHp4+XAkQAIkQAIkQAINmQCFWkMePfadBEiABEiABEjAqglQqFn18PLhSIAESIAESIAEGjIBCrWGPHrsOwmQAAmQAAmQgFUToFCz6uHlw5EACZAACZAACTRkAhRqDXn02HcSIAESIAESIAGrJkChZtXDy4cjARIgARIgARJoyAQo1Bry6LHvJEACJEACJEACVk2AQs2qh5cPRwIkQAIkQAIk0JAJUKg15NFj30mABEiABEiABKyaAIWaVQ8vH44ESIAESIAESKAhE6BQa8ijx76TAAmQAAmQAAlYNQH7uni6oqIi+XfWHFm/eq2kpKZIcEiI9OgRLmPGjqnV7adMniI5OSfl/55/RpycnWvVFiuTAAmQAAmQAAmQQH0jUCdC7YVnXpD169aZnj16/wFZumixbNmyVV54+XmxsbEx5VXnYOnipZJ76pQ89cyT4lSdiixLAiRAAiRAAiRAAg2AgMVdnwvnLzKJtOdeekF+/eNXuf+hCRoNxNr2bTsEFreYAwclJjrGhCztWJq+lpGRqa8hP/ZwrC67a/tOMa6bKvCABEiABEiABEiABKyMgMUtavPnztPIBg0ZJCNHj9DHN9x4gxJcInt375bkpCQpKOgk99xxl85bvGKx2NrZyW+//ia//TJD7rr3Hrnl9pt1PtybcJtG7dsn7338gZUNBR+HBEiABEiABEiABEoSsLhQiz9yRN+xe3h4iTuPv+kG03l+fr7puKIDuDkh0lq1aS1NmrhVVJR5JEACJEACJEACJNDgCVhcqGVlZWtIQUFB5wUW3KeGZe68NMhGSIAESIAESIAESKCeErB4jJp/gL9+9OTk5BIIdqjYtNlqJuieXXtKXDdOCgsKjcMSn4MGDyhxzhMSIAESIAESIAESsFYCFhdqnbt01ux+m/GbHE0qFmvHUlPlpedflPfeeVfn2amYNCNlZWbrCQPRZhMLjDx8Ojo6mp/ymARIgARIgARIgASsloDFXZ+33Xm7zJk1Ww4fPCTjrx0vXbp1k53bt2ugffr1lY6dO+rj0FYt5aASZ/994L/i4uoiWMKDiQRIgARIgARIgAQuZgIWt6j5+HjLl99OkxZBLTRnQ6R17tJFHn38ERP7e+69Vy9amxAfL0eVm7RbWJjOq+ESa6Z2eUACJEACJEACJEACDZWAjYodK5ow21umjbe4ZpNjqcckMT5BfP18xdff7xxmhQUFkpKSKp5eXuLgYHFj3zn35wUSIAESIAESIAESqE8E6lQNeXl7CX7KS1g/za8MAVdeeV4nARIgARIgARIgAWsmYHkzmjXT47ORAAmQAAmQAAmQgAUJUKhZEC6bJgESIAESIAESIIHaEKBQqw091iUBEiABEiABEiABCxKgULMgXDZNAiRAAiRAAiRAArUhQKFWG3qsSwIkQAIkQAIkQAIWJEChZkG4bJoESIAESIAESIAEakOAQq029FiXBEiABEiABEiABCxIoE7WUcvJyZEPp7whq1csk4z0NAs+DpsmARIgARIgARIgAeshYHGhBpF2363XycEY7t1pPV8bPgkJkAAJkAAJkEBdELC46xOWNIq0uhhK3oMESIAESIAESMDaCFhcqMHdyUQCJEACJEACJEACJFB9AhYXaoxJq/6gsAYJkAAJkAAJkAAJgIDFhRoxkwAJkAAJkAAJkAAJ1IwAhVrNuLEWCZAACZAACZAACVicAIWaxRHzBiRAAiRAAiRAAiRQMwIUajXjxlokQAIkQAIkQAIkYHECFl9HzeJPUMYNbG1tZejQoXL99deLg4ODnDp1Sr777jvZunWrFBYWllGjepfQZosWLcTGxkaOHDkiubm5+tjb21s8PT0lJSVF0tIqX9jXuamz9Lg7XHw7ekv85kSJmL5NTuecLtEZF1UmqH+QuHi7SG5mriRsSZCsxGzB9Ua+jcTG1sZUvqigSE4cPSH2zg7i7O4kcjbLVKbgdKFkxWfJ6ZOnxSPIXXo91FNcPVxk79+Rsn/hASksKJ+Ph4eHDB48WOLj42Xbtm2Sn59vapcHJEACJEACJEAC55+AVQo1A5OdnZ0EBgZKs2bN5N9//zUu1/oT7d56661y7bXXygsvvCCzZ88WLy8vef/998XX11cefPDBKgm1QiWa3Jo1lqBBLZR4ypaiwiJT3yDAgpVAGz55mDT2aWS6HjX7gCx5eZmEXhIql7wxVGzNhFpBfqEsfW6ZBPQIkM7jO5rqmB8cV0Ju1t2zJSUqVQpVed9OPuLRykP2L4iWoqKz9zevYxyfPHlSOnToII8++qg88MADEhkZaWTxkwRIgARIgARIwAIErFKowWq2dOlSWbZsmbYATZ069byig4VuxowZMmzYMLnlllu0pW7AgAESFhYmb7/9thw6dKhK9ys4XSAZhzJ02fSDGVo4GRU9W3rKkJcHCaxkf94yUxIiEqRJgJs0bdHUVA7Cbv3Hm+XwisNaZMEaBovakU3xsmvGbrFzspee94dLs57+suK11ZJ2IE0K8gokU1nUkHJP5MnxhONKLLpJNoRiJUINz/3bb7/p577pppv0s2LnCSYSIAESIAESIAHLELjgQs3R0VF69eqlRY6Tk5PExMTIxo0bBVYrXI+IiNDCB27GTp06SevWrWX1aiU6lGsRwiggIECXad++vfTr10+7HWfOnClJSUmWIXam1ejoaC1aHnnkEXniiSeka9eusnv3blmwYEGVXYIQVrCknT6ZL9kJZy1qdg520mpES3ELdJNlL62QhK0J2iWZEZcp+DHcnRBxGTEZkrz3aAlrHLoI96i9s72cSD4hecqdmrovVVvRzKHk5+ZLZlyWeLbzlJxUJbgqNqjpqrGxsdqN/NRTT2khvHLlyvPiTjbvF49JgARIgARIgASKCVxQoda0aVMtcsaPH19iPD744APtVnv++eflxRdflMOHDysXn60MHDhQbr/9djlw4IBkZGRoy84dd9whWVlZ2vWIRk6cOCFbtmyxuFA7ffq0dqeOGTNGLr/8csnLyxNY7lJTU0s8S0UnsIhBQEXOjJK06HST2HJwdRD/7n5yPP64JG5LqjBurKL2K8uDdS1u3REpyC2QnGNVs4whLm3RokUyYsQIue+++2Tv3r2SnJxc2a2YTwIkQAIkQAIkUAMCF2zWp729vYwbN04H/H/88cfSrVs3Hf+ESQALFy6sspUGgf0QTXfffbc8+eSTWjDVgEONqiQmJmqrGlyGmzdvlnXr1lW538YNj+5NkSUTl8mx6GPGJXFwcZDGfo21G/NUximxVy5Mr1Ze4tvBR5o2b2KyqNk62Eq/J/vI1d+Mk6u/HSfDXhoirp6upnYqO4BQPLA4Wla+s1py0k9WVtyUn56eLt9++620adNGxo4dqydsmDJ5QAIkQAIkQAIkcN4IXDCLWqNGjWTIkCECF+I///yjZ2biqSB+4ObEJICqJMRIvfbaa1okde/eXVasWCHZ2dlVqVphGX9/f3nmmWckNDTUVA6C8Ouvv5bFixdrQQZXbceOHXV/27Ztq2eCZmZmVhrrZWqwkgM7R3stytxUbNoVX1wmTYOaiDGZoHRVMMNPXSTEAGIGLVzMt912m2YPy1plMW510TfegwRIgARIgASsicAFE2qwhDVu3FggbDCbsKYJS2FA7BUUFGirFixb5yOhPbj0YPkzEtx+RvA8XLEQhiNHjtQWPSzNARfupEmTtPvVqFOTTyydkaMmBXi28RQs4ZF5JFNWvrlaRrw1rERzmDW6buoGiVq43+Q2LVHAgieYWPDrr7/KoEGDBO5niOXjx49b8I5smgRIgARIgAQuPgJnVUgdPztiuuBC69y5s/j4+MixY2ddf+ZdMYQShBBEQV1ZjSAAMYOzvIQ1xbBEB8QJlqvA7M/Ro0fLvHnzZO3atdV2gZrfB2upJUYkSQu1bEdAd39JP5gu6Wp2aN7xkmusmde5EMeY3Tp9+nTtckbc2pIlS2r13BfiGXhPEiABEiABEqjPBC5YjBoEzpw5c8Td3V1eeukl6d+/v3YjwkLVt29fk5UNMz8h0N59913p0aNHjVjC+tWyZUvBzFA/Pz89MaFGDZ2phPbQJ/QZVqVNmzbJjz/+qHNvvvlmcXNzq03zgmU7DiyKkSw1I7PPo70kdEiIilOzO6dNGzsbcW/pLr7tfXT8Gj5dvVSMWt14QPXs1vnz58vOnTvl3nvv1WzP6SQvkAAJkAAJkAAJ1JjABRNqiHNCrNfnn3+ul9nAzgF///23fPLJJ/r84MGDepkOuBOnTZsmwcHBsmvXrhrFQWGpD1i90D6sYDivTUL8GtrBUiJY7BbWwe3bt+ulOTAzFSIOYq42KS0mTa19tko3MfbzMXLTrBt0jJp5m1imo68ScuP/vk5u/Od6uXHm9dLu8rZ1ZnVEX2AV/eabb7QQvuqqqzixwHyAeEwCJEACJEACtSRgo+KwiibM9pZp42snLMrrx4Du7crL0tchaOD6DA8PFxcXtZWRCkqHSEMMFGLYevbsqcsheB3B+7DAYQsj5KMeyhjnZd0I1i3sTABxBnEIYQG3Jo5rmow2sUSIeVtYbgQiDtZCTIqozT2Mvrm4O6sdCoL1FlKGSzTtYJreQgozQ4011VAewfzYeSAnrXhNNOS5qTIOjRxN20YZ7Z7PT2dnZ72GHSaInK/JHOezf2yLBEiABEiABBoqgQsu1BoqOPabBEiABEiABEiABCxNwDJmNEv3mu2TAAmQAAmQAAmQwEVAgELtIhhkPiIJkAAJkAAJkEDDJECh1jDHjb0mARIgARIgARK4CAhQqF0Eg8xHJAESIAESIAESaJgELtiCt+cDF2Y1BvZsLt3u6CpF+UWy5autkrRLbRBeJOLT1lvC7+ku+2ZGSuy6uDpfub8mz+fm7yZBA1rIsX3HJHnv0XP6bOSfSDohLYeHStOQJiJq8mryzqOy5dsIyc3Orcltq1wHvFsODZVON3QUO7XP6OlT+RLx7XZJ2Jpg6mtD4G7nYCfNezQTz1aecirzlMSujSueKXuGBHaDaNE7UBr5NtKzZY9sipe8E3kmTrXNNzWkDsAUzHw7+0qc+p5mxmeZZ9fqGG0H9Wsh7a9sJ1u/jpCUqNRatVeVymDb4cr20npUS8lOOi4bP9usPive0g0zv7HXL5bgWbVqVbmLX1fl/ixDAiRAAtZGoEELNWNvyRZ9AqUwv0C2fhWhRRoGyUm9bEOHh8iRDfHljpl7YFPp9UBPSdiSIPv+jdILzZoXrizfvGxtjx1cHaTnveESpHYjmP3gPJPwMdo1z1/8/DJ92c7RTvy6qgV8HW3FbnrdGUdt1Z6iTdTm8I2bNZb9sw4YXdSfVeFeokINTmozLo5qqZJBzwyQzuM7mu58bH+azHlovqQfTpcmal/V0e+OlGY9A0z5saviZOFzS+REyola55saPXPQ2LexDH1lsJxMPyXRi6NLZ9f6vLF/Y/3vYPfve2vdVlUaKCosEnxXg4cESfIOtQxOQeXL4ODfMfbRffzxx/V6fJ9++qnk5lr2j46qPAvLkAAJkEB9IFB3b3dLPK2ynJ1IzZGTGSclJ1X9pKv1w6qR8EJpMShQPFp6llmrsvwyK9XgorYM9mgubce21haq9EPpJVopnZ+4LVGWvrZcC7rYNXHaqlaigoVO8BKOXhoj/9z/r6yctFoK8gosdKeKm63xuKgdG7zbeUvrS1vK2vc3yOfhX8nSl1eIe6i7NO/dTBxc7KXrzV3Er7ufrHxrjUzr/Y1s+myrFs8drm4vjo0da5UPa5N5wjkWKHYPbipbv9kmJ5V1r6EniC7sqJGfW6D3qMXaf5Ul1ImMjJRffvlFrr32Wr2tXF1tFVdZ35hPAiRAAheaQIO2qAEe3H05Sqzl5+SrvTDPuqcMsLb2tuLXyVdChgSrsnmyf/4BOZ5cu83Dbe1sJSAsQJq2aKIsdke0C80/zE+O7kqR2PVxkq9cgkbCorR4GafsSRG40MqyMGDbp/B7w+TozhQ5sDBaWQdLWiEqyzfuZf4Jcefd2kta9G+hNnZ30n07vC5WzF+c9o720rxXM72fqJ06To9J18+TBVeVEsFwc8JyJkrOo08JmxMk9UDZe7Ka3xvHFXE3XI/Yx7RQvaTjNyZI0o4k03O7erio8QpRfQ+U3KxcObo7RQ6vjtUWrdL3Ke+8PO5Obo5iqwQSvi/Y1P6UsmThEyK0kXcjCRqsLEERyRKpLKxg6NvJW98iVH1/4tfF1yp/z597JefYmT8mIBrbeEnX2zrL7t/3Kfd1scu+wnFTdTxCPKRZeIAkbksSF3dwCtZuaPT36L4U/RzgFzQgSFy8XCSwb/MSO1WgffcW7rqei4ezHNkYL/FqXLFtmfG9btLMTbuzfdSWZBiD48qSuO+fSO3CrGxswBGWx9M5eUqwZVdZzMOiNmvWLBk+fLjcddddcuDAAcnMzCxveHmdBEiABC4aAlYh1KIXHpSCUwXq5XBWIGEE8Vd5rwd7iKuPq9qZoNh42GpEqCx+cZl0vKq9ds808mskna5Ve4B29tFCIX5zouz5a690vbFzufk7ftkpocNCJOzOrnJcxeE0DVRi5kxa9/5G2fLNVv3is7O3k07/6SB9H+stKXuPyb8T5pwTr4MybS9royw9XjL/8UXaOmi0hc/K8s3LGscQSe2VOBz66hBtJTKuR87aryxhq5Tl8aTe2aD/k/2ks4o3M0/rP9gom1Wsn5tymV3x5WWmrEL1Al764nI5Fp1W6TZe5XGf+9gCyT+ZL30e6iVh93RT+k8pD5UKlHts3dQNsv2nHeKorJwjJg+X0KHBpnsXKJG46MklAqEZfkdYueMSMX2bFqLlclfiM2VfqhyLOib9n+qr4sJ8pHnfZpIWrQTquiPiqmLSmih37h4lnCC2O13TUVlcW+h+uAW6Kcure63yIXIMoebU2Em63xmmhGie7Pljj7JA5WtxW9G4weLm285Hu0pPZaidO1R/jZSdeFyORqaIfxc/ufS9USW2G8s7UWzVgkgLHRwio6aOECdlHUTCv48NH2+WzV9vkaKCItP3Ok8JZBdPF10G9RO3JEmB6mN5YxO1cL/JXY/YNHzXIOzL+sNEN1rGr6SkJL0d2RtvvCGXXHKJFm4FBRfGaltG93iJBEiABC4IgQYv1PBChTAqLyEgfOuXERLx43YJv7O7ik3qcEZY2SiLiZnnVx1ik/OzqbJ8iChbcVIxT3MfXiBpyho1+r2R0u6KNhI5O1K5fbL0FlJHNiVIZmyWHF5+WAeun22/+MizlYeEqckQ+2ZGSUJEoullZ5SrLN8oZ/7pHuQuvR7qqQXJgicWyfHUE9LjrnDp/XBPSYxIkt1/7VEB5u2l43Ud9Esa/CAU3HzdxL6Rvdg72+vYvZWT1ihrzx5tdbv0/VHmt6j0uCzu6Bese11u7ix7ZuyV1VPWKmuQnVzyxlB1v3AV03RUi4GAbn6y85fdsnLyat0vVw+10byyvMFagx3nKx43Zf1T24OVx/340eOy4aNNctnHlyoGbVVs2ElZ+eZqyUzKEvcQdyWW7JRYPiVeaqIBhPiB+dGqTwVaOCL+rjb5Di4OmhsEU8iAYAm5JFhWvr7KNIGgsnHb9ftuU31MaFj+6ir1B0CqXPrBSH3d1dNVBj7TX2A1xHfy4MpD2po76PkBOh/j2/vhXpKdcFx+f2yhChs4IcNeGaI5RM3br76nxRYsfK/zlYVt5t2zxUWJy8EvFNdvqmI6Kx4bfRvd7gr1B0F1E8ZtzZo1ehuyu+++WyIiIuTQoUPVbYblSYAESMCqCJgpFat6LtPD7Pltr2yatkW/kLMTsvVLviCvUNZ+uE4WPbNYTiSfkN1/7JN/7v5X/rpzpmz8YpPaL/N4hfmG+zBfxWitfHONHFBB4JlHMiVxU6KyQjiLcxNnfX8Ii/jN8fL9yB9lzQfr5PTJkvE6CGwPu62btt7s/HV3tfNND2l2ABGAWYSNAxpL1OwDAjcmxCxcvnj+Zj0CRLuvlIsvIyZDubT26fuir1lKrKQpixlcX4jdg6su7+S57mSz25V7WBZ3e2c7FaTfTFtuombvl9zjudqCuFdZsOB69e3kI6eUJSdb7Vfa5cZOMvajMRI6METylBsNVkC4uSsaN2NcKuLexK+J9Hmkl9ipvmQcztRCpP/jfaSJn5vpWVyVJamHmthRqL4nmKCSp1zm5qm2+U3U7N7uytUdt+aIHFx2SFudqjJuENBIeL4tX25V39s9kqPcjLEr4yRL/WHg29FHfLv4KsvkTolZpqzM5jGE6m8Qrzaeyk3vod2SwWr8OyirMoQzrMqYRHHGwKm+D/my8tXVerZ0VmK2HFoZK7nKmgdRW97YmPOpzTH2yf3+++8F++becMMNgn1kmUiABEjgYibQ4C1qFQ0egpSTdiSrZSSKBRKsRrh2vhJeXKmRqfrFCXcfLCawRJSOMSvrfngxB/ZqLq1UYPvqyWuVaMgoUayy/BKFS53AKoaElyte6kgQMXBhQUhik3YHNweB+yyvlHjEyxrWMMQ/Gdx0A9X4VR53PBOsPQV5Z+IJVddQ9pQSYIgTg6stWwkDWAF7K4tg68taaTdn+sEMWfzcMkncfq7FsRrd0ta7Ljd11mJmhbJGQbz2ur+HWsYlTAvmmCWHtEWv621dNLflE1dqaxf6dVp9dxDPBvdfTfMh1GFBxHIZcLHCkncy6+wEgsrGDUuiIEGAJe86qr5r+ZKh/kBY/NJSHU/X5frO+jNVLe9S2uWovp5qJrSTis+zFcwEDVFCzUiI/8szC/o/oYQyXNxoA39o4AcJ42epsTH6gu/Dvn379MSCO++8U1vXNmzYcF7/3Rr34icJkAAJNAQCVm9Rq2gQEPsEgWCrXJ4QWqVTZfnm5V1V4LZ3Z2/JUm5OzEStLGFZhp4TwiVJxf7ELI4558VaWX5F7Z9KUy9/JYJclaUEa1QhOTdxEmd3JzmeeEJPujipyjQJUktsmMU5lW5TURFHF0dpeUmo2KsZkbVNEI0INLdXghYTJCAK8fJvrIL4ISCy1BpiELnH1ISFeU8skO+H/Khds27KwgdWzm5OugvVGRfzPjs2chC/Lj46Ju2wshKdUiJpx887JTUqTYk3H215PH40RzGzkUPKVR29KFpz81ETCrKPZEvGoQxlba15PmYn+3bwkc43d5Jdv+5RkySO6nEy+ljZuGEmZaVJMUWMHhIYt7+irf5u4+8TTLqBG3fXL3tk5n2ztQUZVuTZD87VkwfwnakoYfwqG5uK6lc1DxMLZs6cKXFxcQKx5uHhUdWqLEcCJEACVkfgohZqsDLlZuZKM7U0Q9OgpuKhYqjajm4jjXyKg7TLz1ciQyUEvmO5h+Zq0d1Bzw/UbqV9/0SZYtEgQloODZUJW+6V4a8OE7g6kYxlGTzUshBbv90mOeoFbp4qyzcvi2MnZSXzbu8tXmqWp72TvY5bwtpgXVUsGBbQxUxBLP6LeKPDq9TsSRWbtH/OASXcnGXIi4MkuH+Q+HX0lTYjW0tQnxY64B0LwUKgDX1xsF5zDOIFbZsniFt3FWDvq2YHYjFePG9FqVAFq8epmZOwSvW4v7v4dfAV/85+2g0I6+RRtXAv+jDgyf7i38lPC6mYJTE6dsqYDIL2yx+X4nErjztc3jnHTkpTNZPVT7kIMevVW7mJ3ZR1C3FbmXEZcnhFrFpDWLmsVWwhhGRHNRmkaWhT7f47djCtVvkQS93vChOIZExYgYXXSBBBiDeraNzMyxv1jE9YojLjMvUfHh2vby+thrWUUW8Nl8B+zYuLqHunqkkUSVuT9ExTTCpwUePfrHszGfCE4q0mIVSUwLTdpW0rHZuK2qhOXmJionz77bfSu3dvGTFihNjbl/zuVactliUBEiCBhkzgov6/HywMu2bskSEvD5Jb5ozX44jA/5n3ztaWn/LyZz8wV5d1UhaeUe8O18ew8mxUs+ci50SZrGOwZnmomCDMsPNR8UNY/wvxVnpZhts7y96/IiVBrYlWwpKhxEGF+WV823zUjNGrvx+nrD0nZJYKAMcSGnCrjZx8iYybdnlx/5Qba/OnWyRm+UFttYpWAsj9i6bS86EectV3V5haxazPiB+2y66fd6uA+9E6Xmnv35HSckSIdplhCYcCtbgwEmaX9n20l/7Z8tU2WffhelM7ZR4osYBlOFYpV+/QiYNl/N/X6WKIPVvy/HItJDxaeigx00163tfd1ARctpgAABcpUnnjYoxbmdzVzgKIt8MkheZ9mslln4w2tZ+lYve2T9+h3ZA7/rdDLVfiJ4OfG6B/UAgL3kJYYfmXmubvVbGAwQOCJHhQkCx/pdilaurAmYPso9kVjpvhxi5dT59rtskSPT9GOlzTTgt0LKsRt/aI+KnJGUhYZ3Ddhxtk9NSRcvlnl+pr+JWtlqs5MP+A6by8Axt7m0rHpry61b2OiQUrV67UOxVgYsGWLVskOjq6us2wPAmQAAk0eAI2ycnJRRNme8u08ZYxrg3o3u6CQIL1CkHxeKkjEB0JQfSu3q6CF7OxJRAsBe7BasHTHs20dS1ebYdkLKGAOmXlY22vfo/21TNIV7y2WtIOpOm1plCv9MsU9wweGKzXKMO2UEgB3QL0Ug+HVh4+Z20w3K+ifN3AmV8QTXhGCEYkxC5hCyJj0oKLmhkIi5+Tcnsilg555v3DveBibdY9QOxd7SUVFp2YNO0ChPssdGiIXq8LQf+Y8ZevYv3ADm1gwoSbmrCAPsCag5X1MQkDcXqVcTfu66OsgHB1YsmME8dOmAQr+u2prIOerT0kTy1fgdmwaLt03ysat9LczetivbRgZWnELE7EnR1eG1tizPUWUWq3CwTZY/HWMreQqmY+4r1guYS19NCqw1qwnxnGcz4qGjfkIYbwuJoEA9dt6YQJB37KSok/DhIVN7Au/Z3Hvw2MOZ4P25VhzPGdMcYF+Znxmfp7ULr9qoxN6To1PYfFNigoSFvVdu/erWPXIOCYSIAESOBiImC1Qs2Sg4iXLYRa23Gt5d975tTJHoqWfB62TQIkQAIkQAIkUD8JWMaMVj+flb0iARIgARIgARIggQZF4KKOUavpSGG7ndXvrtE/NW2D9UiABEiABEiABEigMgK0qFVGiPkkQAIkQAIkQAIkcIEIUKhdIPC8LQmQAAmQAAmQAAlURsBqXZ+enp7i5eUlR48elczM4j0My7pWESBMGuig9sRsPaql2kz9uGz8bPM5m6pXVJ951SOAddq63tRFz8hUO7bLiaQcxXyTXn3fvCXMTsQ6YK0vbSVbv4nQy5GUWOLEvLAFjjGzsvN1nfSesZu+3CI5aZUvcFzTbuBZsSWYb2dftQZdnJ65q9tSy7j4d/TTuyTsU8unxG08UmJWbE3vV1k9/puojBDzSYAESOD8ErBKixrW0Ro2bJj88ccf0q9fP706f1nXKkOJJR2w9lnwkCDxUSvKl96Wp7L6FzIfL9ROarHWkW8OF3e1tEZDSViSwcZOiZMO3hI4sLnmX7rvWBIkIDxA2lzWWi+tgjrnK0EYYQHjS98dpT9xXjo5qiVIWl4SIi1Hheptr0rnn89zLJ8y9JXBEjpc7Xmq1oIzEp4Zy5e0vaKN+Kg9UvH9rovUkP9N1AUf3oMESIAEzjcBq7WonQ9QWB8M62hh6x5suo4V8RtS8mjpqTdX36YWsG0ICSvvb/l2q2ybvl16qk3RO93YscxuYzLHxs83qcVrd6p16M5du67MStW4iC2tQpUQO7j4UJm1sC7fvMcWiJ2yAGKXB0sliO12l7dVYrSprHl3vZxUu0UYCYIpcu5+vYPCCWXRMxYhNvIt9dnQ/01YigvbJQESIAFLEaBQq4AsXobYm/K02k0gKy5bLyhrXhzWFmzP1LxnM/XSLt5fMUftBWm+oGmTADcJHhwsnmrF/ezE45KyJ0US1er8+afy9QKj2H4psG+gNFaLj2LzcSxSekwtoAvrHax5LXoHausRNis/uOyQdr3C9RYyIFh3JVntFxnYu7k0CWwisatjJWlXcpVdYFjUNqif2mJK7Z6wb1ZktVx4WDQ2qD8WjS1ebBciFs+NxVKxeHDitiS1RZNqX23+naPEFLaCgtDQvMrLV5vEV5TAG7z8w/y11Q0MsSVWdlL2OdUq4o7n9lNbJsFqB+ud2jNK72EZvyWhQnYQTi3UQrdYaBeuWSyWe3D5IcGCwOYJ22mFqDHHwr8ZalsnjBvco06NnfQiwliEOUuNJxYUxmLFBxYc0Jug4/tmSqpbeoeK2zrL7t/3SfLOZJ3lEeqhx9tOsUXCgsEJmxNM7l8sOIzvA+7voPY2TVbbch3ZEC9palFbtI9nwPgEdPeXQvWHSPzGBL1bBNpBv7HlWMruFL2QcciwYMnNztOb1x9XuxcgVfZvQhfiLxIgARIggfNGgEKtEpSITYuctV+/DM1dn3jhdby6gwx+caDaA7P4pYmmknekCHY3OK1W8Q/q20KGTx4mbn6NTXcxtqjKViv8d7quowx8tn+J+jFLD8miZ5fojeKHqH02245tbarb/c5uMve/87V47HZ7F/Ht5Cunc09LI2xwrlL4PWGy8MnFSjjk6a1+mqmXsaOHk4xQW0mdUiIo7/hp2fLVVi3mENMFcYfts9yC3PTK9Lt+312hUME9tGuwR3MZNXV4iedC+2kH0gUCacjEQSq+7IQ0bt5YjD06oxeHyNIXl4lvO59y85c8v7SE1Qj3K52aKVE8+IUB+jK2lso4lFlCqKF/FXE/mXZSLVbcR7re0rlE09gkHfuA9lB7ojbrEaAEp4P0e7KPdLqhg94/E9toQYh2uLq9aUzwvAmbE88KNSWuArr4q23FRmgrmHGDlL3HZMGTi+S06i82l3f1dhE7tc8o7oGEe8y+f64k7yneuQLXIOq63xkmuWpnhj1/7NH7gmqhCn5qzOzU9l1IhUp8LX1xuRZ6+E72ureH9FLbghmpw9Xt1JgXb+9l52wnfR7qJWH3dFM6U3VWpQL1B8G6qRtk+087pGmLportQCXOcsXVx9U0dq1GhMpcZUE0duwo79+EcU9+kgAJkAAJnD8CVi3UHB0d5cMPPyxB6/Tp6rkv4dpaMWlViTbwjvPv5i/9n+ijNtJO0S9K7LM5cvJwgaUJCdaUAf/XX/Jz8uWXq36To/tS9KbmXsodiQ3IYdHop+ofVlawZS+v0C40bM/TRG0YDtdemzHtpNWYlrLmnfWy/ecd2goy5sPR0kpNbNj1+x59D8fGDjq4HC95bHt06YejlIhoI9hX0jxuy0bFL+nYr1KxXLDsHF4ZK4H9m+sN0eHWqixBdA5Uz4X2Zt07R2+vFH5HmITd3tVUFYKisdroHPtzRs2KUs/ZV7sSEecHdhXlx26IM7VT+gDWnIjp22TbT9sl7JZu0vex3qWLVMg9V1n02oxpLZ1v6qTEzz5Z+/56cVRbLV351diz7RTrl7PnZ47wvBDf855cIItfWiojXr9EvNt7lSiHbbV6PtBDWckc5c9bZmrraOiQEBk5Zbj0UHuXbvkqQnNzUduKQZCvfHOV2gzdX4a/NUy81H6t+I7gGcEHFtOQS4Jl5eurTBMIkBc5P0r/gCMmVFz6/ihTH2DdDFJ7iSZtT5Y5StBj2y1YOPGMGFtY2rrc3Fn2zNgrq6es1da1S94YKr0eCFd/YJwVidiiauuXERLx43YJv7O7dLy2nRbghlAr89+EqRc8IAESIAESOJ8EGqxQc3V1lQkTJsjAgQP1yw9Q8DJauHCh/PDDDyZG8+bNk4iICH3et29fXd6UWcMDYx9MW2XBwCbm2ATd2c3Z1Bpe6j7KRecR4i7r3tsgqfuP6X0s4aqD1US70JS7E+V2TFdxVtjnUiW4BvEDd1iwchkW5RepfR1dpdO1HbXVrEiZwbw7eouDio1CgmVjyf8tFewhCoGIPUcb+zeSo8q9OufheaZtrhY9s7jMba7gslv2+grdVlV+QUBgH1Kvtp7aChO7tmxRBUGx88ddEvH9Nu0ujl0TpwUmBECBivcrLx/uXzCpaUL/KuKO/T/bXt5a0qPTZdMXm7U4hogxEuIQFz23RNqOaiOXTBqqnzFq4f5KrYxGfYhYn07eErvmiBxVLmnEjR3ZHK/jyPzUrE0IKXxHIaRWvLZSuz8bK3djUUGRHnOjnSbqWvd7wyROtQO3qbkl1yhT1ifcz+kH06X9lW3lqm+vkIjvtkvM4hi1L+hx/Z2DNRL3ipq9X1sBwXqvcqsGDwxS1lkf/UcH2t3z217ZNG2LFqaw/ML6Z69cqkwkQAIkQAJ1T6DBCjW88NLS0uTIkSMlqKWnp+uXIS7m5eXJ/PnztXjD+fHjx6V///44rFVCjJh7y6baBZl1JMu0mbipUaU1HJVVBemUsp5BmJgnxEVho/QCFTyPDd5LLy0BIeesXuoo5xfmq4UR6h9VVo+0fSrW6ExzmYeV20/FOqE+ZkLaOzlIbq6K8yp1P/N71+YYMwvhJsXL/ljUMeU2K1DusbNuX6PtwtOF2kKDTeKRsOwGLECFucUbapeXX3Am32inJp8VcYcAbuzfWFLVRuQ5ygV6vhOe00GJGsSuGeIK1tHczFxxaO8gDup7g5SqXKGYkIBUqIRroSpjJIx9+yuVBUtZJFe+uVpOlrHxulG29Cdmha5+Z60cTzguYXd1kxGThkne8wNlxesrJXrxQW3pK8jLVy5wNXtUfWfwb+iUcnNiPFw8XbQlTwvJHclapKF9TPDANSYSIAESIIELQ6DBCrWTJ0/K999/r39Ko6urpQpgwdEWICVCPFt7SkCYn2QdUUHX6r2GlzWSd3tvsZt/QL/wjH5C6MDt6KjEmoeaZGC4vIx8vBxPJOdIdny2LFIWM1hJzBMsQyWSuj9mBjZp4aasIUfUMg7F7t185arTfUTA/HlMuk317Eiw5CHoHEKsrITg9oBwfzmlLIXpseni3kIF4pulEvmHlciGyKzFShMVcTdua2Ovxk3131bFecEdiFg68wT+GEOUq07KVUIJP3D7Itgf7cD6CSvnSRX/hhjBCpO6na9yD3e+uZMgZg5WOfSjOgluyTUfrFOzZyMEsWV9Hu0tvVVcGqysmBgDy5grYhrVvfDdxQxXWwdbyYrPOucPiurcl2VJgARIgAQsQ6DBCjXL4Khaq3BhZsRkSuiwEBW/01ELqb6P99ZWieNqhiNEQJKapZesXFyICcpJPSlH1h8RO2VRadqiiRxeEyuHVhzWsVL9n+6rb5oeky7OHs7ahXpw1SGJXhgjLUeGSq8JPWTDhxu1eIGocPFwlf1qWQYkJ3dnLQRhyRnwdD8pVBas/QuiJf90vl5XC0tXIB6qea/myv11QrzaeOp68WqWICw+iIkb9upQadY7QOY9vFBNgoivUBgUFhZKdmy2tvR1vrGTwLIYrlx0/t38tAgxZr5CALm3dBf/zn7K5dlK2qgJEXCnpR/K0EKt3PzDGbp/xi+IHO923lpUHFduXvPlKVAG7WAtMcSeZSqhAYtSRdwhfNBOYJ/m0ubS1uLi5SK9H+ypg+btXexNFiXcp6ioUIIGtpAjG+OVGHUVNxVzeHhtbIklWhxUjCDi1Owb2UtmbKZuO359gl7brP24dnJIzQhtM6aNBKjJCdu+2yEnMyq24jljAsFdYXIy7ZTs+WtvCXFvMKno06+jr3aTR6sZtsm7jqrvWZxaAzBY/Lr6KhEmasHceOl2axfpcX93PTEA/OBiRcwkvquOyuLIRAIkQAIkUL8IUKjVYDzgzkLAfujwYOmpXnpIiRFJkhGthIgSKE4q7ik1+pisnLRaRk0ZIQOeKRZjKIdZn1i6IiUyVQWKr5bhk4bK6KkjkKUTgswhCDDDcNsPOyT8vjDpcFU7I1u2fb9DGVmKzSw+KgD96u/H6TxYkpa+tKJ4GQeVDSGG5TpSdqXoWZLGTEnE1CVsSdR14H6F0ICYcw9pKgkRanmKCtxcsHbFqWD/Q0sPKwEWqi02WSqGKfLf/ToGTVv6YKlRFry+j/bSP7hR1NwDsuHTTXpmKc7LzS+1Tp2zEqKj3h2uYr0KZdGTS6R0vBhm2w5Ti8HCgvivmlBxZNMRvQxGedxn3T9H88OYDFdB9IWKY8yCg9q13MjHVS8ngjivVDU2++dES+fxHdUsz2L2GBeIttPqPyO5KTfqFV9epme7zrx7tmQlZemdFBBrN1TNzBT8qHRgQYxE/LCtTDex0RasW6FDQyRYTQZY/spK0wQCI7+8T4wX4v6QcBw6KkT9cdCpRPENH2/W6wBmKCG8avJaGTpxsIz/+zpdBjM8lzy/XMdRNgtvVqIeT0iABEiABC48AZvk5OSiCbO9Zdr4WvibKniOAd3PiowKip33LGwX5e3tLer5SmwhVfpabW4MYRIQFqCtEyn7UnWwOK4Z1h20DauTb4fiOLMTyqp1VM0ShQvKiFvDbM2Arv7aXZamgtyPqYkHcBMiwTIHV2GzHsp1mJ6r62ImHyxhmAEKi9oa9eLFbDys0XaqjHgmY10zxGZhfayUqFQ9qxTtI67NX90bS2ocXnP4HIsVypSVsL6bv1qHDPFUCWrdN1hmEEiPuKtAtar/iLcvkc1fbNUWJQgBiDkIRzwPAvVHvFN2vnEvlIN7DpYsCBjULWFRU2LQ1dNVGqvJCTpfCTlz5minPO7Ia9qsiV7aBCwQYwjBZatclbCKQYQj4dl8lYUKQhbXk1TclrEzAPqHWb2Y5Yl0Wrk4zevCnYvZvVj+JP1QulrDLF23izabBjVVM4FPS7YK8Md3wNHVUbeVp9bqw6xYTFQxX4dP36CMX+gDtjcb8uIgmf/EQjm48pC2huLenmqtNcwiRRlMXIDrHAyRcA27HfgolzzWTsP3Vk9mUeIe3xU8F9zyRgwdvs+uahwwhsbz64b4iwRIgARIoE4IWK1QqxN6F+gmeHlCqCHNe1Stb3UmMP0Cdcd0W4gAY8bkUmWlKW0Bqyzf1BAPyiRgLIAMqx9ctf0e7ysO6nPWfXMkXcX3MZEACZAACVgfAbo+rW9M+URWSgAxe93VbE7E2CFhYeMlzy3Tbk0rfWQ+FgmQAAlc9ARoUbvovwIE0JAIwO0NNzbcpllqVjBcpkwkQAIkQALWS4AWNesdWz6ZFRIwFkW2wkfjI5EACZAACZRBwDIzCMq4ES+RAAmQAAmQAAmQAAlUj4DFhZq7R/HaXdXrFkuTAAmQAAmQAAmQAAlYXKgNGnIJKZMACZAACZAACZAACdSAgMWF2qNPvyChrVrXoGusQgIkQAIkQAIkQAIXNwGLCzUXV1eZNv13GXvVNUI36MX9ZePTkwAJkAAJkAAJVI9Ancz6dFVi7bmJk6rXM5YmARIgARIgARIggYucgMUtahc5Xz4+CZAACZAACZAACdSYAIVajdGxIgmQAAmQAAmQAAlYlgCFmmX5snUSIAESIAESIAESqDEBCrUao2NFEiABEiABEiABErAsAQo1y/Jl6yRAAiRA12zHWwAAQABJREFUAiRAAiRQYwIUajVGx4okQAIkQAIkQAIkYFkCFGqW5cvWSYAESIAESIAESKDGBCjUaoyOFUmABEiABEiABEjAsgQo1CzLl62TAAmQAAmQAAmQQI0JUKjVGB0rkgAJkAAJkAAJkIBlCVCoWZYvWycBEiABEiABEiCBGhOgUKsxOlYkARIgARIgARIgAcsSsPim7MuXLJcVK1aWeAp7e3tp0SJQrr3hWsGG7fU5nTp5Uk6fPi0uqp/od+k07fOvJDExUa657hrp3KWTzj6alCyff/alLv/Cy89LTHSM/PjDTyWq2traire3l1wxbqwEBrXQeQvmLZD16zZI3359ZPSY0SXK84QESIAESIAESODiI3Cu8jjPDKKi9suKpcvKbHXJosXy9Q/fiIODQ5n59eHiyy9MlM0bN8m7H74n4T26n9OldWvXyuGDh2TAwAEmoZaenml6Zgi1Y6nHTOelG5j1zyz58usvJCgkWCL3RupyHu7uFGqlQfGcBEiABEiABC5CAnXm+hwxepT88PN0+f6n7+WZ557VqONi42TT+o0m7MdSU2XtqjUSsTVCYMkyTzkncrS16UDUASksKJDDhw5LUkKiLhIfnyAxBw5K7qk8fZ6Tk6PPjXxcxLWtm7bKutXrJT0tTZcz/5WVqcTVspW63aKiIp2Fa6fzTuvjDFUnL7e4ffN61Tlu1ry5ZgAO7338gTg5O6s+n5JZM/+tTjMsSwIkQAIkQAIkcJEQsLhFzeDYuFEjaXHGxReo3J6ff/qZZGdly+n8Al0ElqUP3n3fKC5uTdzkrSlvS8dOHbTr8OnHn1ICK13nox2IvLbt28sXX38ub776puzbs0fefX+qhPcKlx3btsvzzzwv3Xv0kKkfviu7d+1W58/p+xk3ePzpJ+WKK8fq09dfeUOWLV5iZImPr4/88L8fZPIbb8v2bdv09TdefUMeU3XGnaljKlyNAwdHBxMDPEPvPr1k1YpVUpBfWI1WWJQESIAESIAESOBiIVBnQi0qMkp+/XmG4lokkfuitGiCRal7eDeBRcwQabfdebskJx+VBXPnyasvTZRf/5whH773kRZpsEgNGjJY5s6eXeXxgfXtrdff0vcbeeloCQxsJt99/Z28P2Wq9OzVQ8WXJWmR1qpNa7nvgftl1l//yJrVa+T3Gb/LTbfdLMlHk+WgijG78ZabpUfP8Crft6yCaceOnWEggmOINKT+A/uVVZzXSIAESIAESIAELnICdSbU9uzeLfgxTw/89wFp0rSprFheLFhgZQpoFiB+fn5aqKUcTZEd23fIzu3bdbVJ70ySoOAgCW0VKpNfn2TeVLnHCQlJkhAfr/PDwrqJrZ2ttmrBIrdSTXIIahGs86L3H9AirUOnTnL7XXeIt7Kqubs3FS8vLy3UeihR17x5s3LvU5UMWBCnffZFiaKDhw6VXsqyxkQCJEACJEACJEACpQnUmVDrN6C/XPWfq+RUbq4sX7pcW7E+/+Rz5X68QgXbp+p+QTy9/ebkEn2MiysWWbC+QaQhBQcVi6sSBc1OCgvOuhJTz7SN7CmT3zErJZKVmSV9ru8lQy4ZpoP4YUnDz48/TJdnVRzd0OFDS5Qv68TJyVlfzsk5Yco+ceYYfTZPcKk+9ezTUlBYKFH7IuX7b76TlcuXS2TkjdKuXVvzojwmARIgARIgARIgAakzoQYrmWE56tSpoxZqCKRPUW5O5CG179hRPpv2qT6OVK7SAhW/5ufnr89RFoLOy9tboqKi9DXjV6MzS3xkquB/pP3KOmYkfz9f41Bmzp2lY9+OKPGXlZUlAQF+smPHLjWbM1wLxrRjabJw/gI9y/PH6T9WSai1bdtWia59Kg5uj4y7apy+197de/Rnh44dTPfGgauK0zMYYAmOhfMXamvfoZiDFGolSPGEBEiABEiABEgABOpMqJnj9vTyNJ2eUgLMiP3ChICp70yVU6dyZcnCRTqo/6cZP0uXbt20+/OJR55Qx11lyaKzgf9oKDg0WLZs3izvKIvZ3Nlz9bFxA78Af+Uqbandl6+89Kq0at1S/lWzLCH8sDRIZkamjldD/NtYZd3z8y8WjZ4exX20tytGNPOvv7UrtKVqyzx1Desqs2fNkkVK4KWmpIqzs5OsW7NWF+mq+lpR8vHx0ULtZE7JGa7zVHzeurXrSlR98ZUXpVPn4nXaSmTwhARIgARIgARIwGoJ1NnyHKUJenh66EubNm4WXyWO3njrDW3tmjNrthZpyH/p1YlqjTV7efr/njbFlc39d46Etiwplq5Vi836+ftr8QXBBjcrkq2Njdion4mvTRRMFojYskX+UJMEINIwgxOia9DgAdr1iTg2xI/h/nBRPvDwA7qNIZcM0Z8I/N+lrGal04hRw+XOe+7WS22gfUOkjR03Tm6749bSxUuce3p76fMtmzaXuI7+JScllfjJKSXmSlTgCQmQAAmQAAmQgFUSsElOTi6aMNtbpo2/YJrNBDY/P1/ij8SLnVq1v7lawgMiy0hY2yzucKy4e7jL0eQUue+ue03LcxhlUpRFy61xI3F2cTEumT5RP1ntGHDixAkd61Z6kV0E+h9W7Tdt2kRPaDDfhQDrs+XkHJfGbm7lLs6L9mNVfSy1ERTSosxdDEyd4QEJkAAJkAAJkAAJVIHABXF9ltcviKNgtUJ/WQmiDav3I0GolZV8fLzLuqyvob6/coOWl7Bum7EFVOkyTs6OymJ21l1bOh/naL+8vpdVntdIgARIgARIgARIoDICF96MVlkPy8iHxQyL3Ya2DC0jl5dIgARIgARIgARIwDoI1CuLWlWRBrZornckqGp5liMBEiABEiABEiCBhkigQVrUGiJo9pkESIAESIAESIAEqkuAQq26xFieBEiABEiABEiABOqIAIVaHYHmbUiABEiABEiABEigugQo1KpLjOVJgARIgARIgARIoI4IUKjVEWjehgRIgARIgARIgASqS6BOZn3m5OTIh1PekNUrlklGelp1+8jyJEACJEACJEACJHBRErC4UINIu+/W6+RgzNmN0i9K0nxoEiABEiABEiABEqgmAYu7PmFJo0ir5qiwOAmQAAmQAAmQAAkoAhYXanB3MpEACZAACZAACZAACVSfgMWFGmPSqj8orEECJEACJEACJEACIGBxoUbMJEACJEACJEACJEACNSNAoVYzbqxFAiRAAiRAAiRAAhYnQKFmccS8AQmQAAmQAAmQAAnUjACFWs24sRYJkAAJkAAJkAAJWJwAhZrFEfMGJEACJEACJEACJFAzAhRqNePGWiRAAiRAAiRAAiRgcQIUahZHzBuQAAmQAAmQAAmQQM0IUKjVjBtrkQAJkAAJkAAJkIDFCVCo1QKxr6+v3HrrreW20LNnTxk6dGi5+cxomAQ4rg1z3NhrEiABEmiIBCy+KXt1oHz00Ufi5+cn//vf/2TWrFnlVnV2dpZTp07VOL/citXM+Pzzz6Vz587yxx9/yMmTJ0vUtrW1le+++05OnDghffv21Xldu3aVp59+WhwdHeXgwYPyf//3fyXqWPrk2muvFfzY2NjI7Nmz5ccffzTd8sEHH5QhQ4bI1q1b5e233zZdP58HlY1bRfdycXGRK6+8Ulq2bCm//PKL5mde3tvbW66//nqBeJ4/f76sX7/ePFvat28v//nPfyQvL0+P16FDh6qVbxQua1yNvNp+PvTQQzJ48GDdzG+//SZ//vlnbZtkfRIgARIggQZOoN4INbzER44cKXgRJicnlyvUvv32WxkwYIB0795dcnJyzsFfWf45FWp4ISgoSIu0/fv3nyPS0OSdd96pBdlPP/1kukOvXr2kd+/e+rxt27Z1LtSuuuoqzQ0dOH36dAmhBhHTokUL/WMJoVabcbn88svlvffeM3G8/fbbZe/evYLnQWrdurX8888/4uDgoM9vvPFGwf2M57jmmmtk0qRJOg+/7rnnHpkwYYIsX75cX6ssXxc686uscTXPr80x+tG8eXPdREZGBoVabWCyLgmQAAlYCYF64/qEhQzWJiOFhYXpF7BxbnzCYoLUtGlT41KJz4rymzVrpi0ubm5uMmzYMIFYqml69dVXddXXXnutzCYeeOABKSwslA8//NCU/80330i7du2kqKjIdK30QePGjbWYg3sN4rV0cnV1lf79+8vAgQN1Pj4hbo0EsTV69GgZqlyu5teRf8stt8hNN91kFC3xOWrUKNM5RChEZekUGhqq28U9ykqwWo0YMUKLPXyap4rGxbxcWcePPfaYvgzm4ILvSocOHbR1DRkQZBBpsJJ9/fXXmu9dd92lxxoMXnnlFV0fVsSVK1dqi+KUKVP0tcrydSGzX2WNK7Jh0YM1DAxKc8ezgyn6iDxYWEt/95B33XXXaauf2e1Mh/i+Y6xhwbW3P/v3FdozBDYK4/txySWX6P6YKquDisbGvByPSYAESIAE6heBs//Hr0f9gmiA2EAyLCd4Of37778CsYAEC0pBQYHs2bNHW0gqy//vf/8rDz/8sK4LAWW8TOPi4uSKK64wWcXwwpw7d65+yT/55JOyePFiXcf8l5eXl/Tr10+SkpJk48aN5ln6GJYeiEH0sSIXbemKzz77rLbEwTWJBEH38ccfy6effqrP7733XkGfjHx9Uf3Cdbgs161bp614xnXcG5ZHPG9Vk6enpyxatEgXN6yWsPL8/vvvguc2UmJionY1Hj16VI8JXNVw6ZoniCq4hCsaN6N8RdxhYYXQgbjB+BtCJSUlRVfv2LGj/kS8IPozVIlUWNnGjRsnmzdv1v0CC7BDwneqSZMmEhAQoF3t6Hd5+XhOI5U1rvge/frrr9KtWzejmG4LbszVq1drq59h2Vu2bJm2BhucIPrWrFmjXeQ9evTQ9WHpLJ0++eQTbW02rqOvEKJbtmzR3w0IMyS4hMePH6+/H/juQGxDQJY3NtnZ2UaT/CQBEiABEqinBM6aYupZBxE/hRcSLCeGNQbWJiPB2oS4JVgQjFRR/t9//y1ZWVm6KOLGfvjhB+06hTXCeJEiEzFQEAVoHy60stILL7ygX4aTJ08uK1sLArwozd1tZRY0u4h74uWLBMsPBCIE2SOPPKItMBACTz31lL6GFz7EG/ggQXTgBb9z505tUYJA2bVrl34G4yWuC1bhF+4JoRYbG6vj2VAFfCDSIExhFUxPT9cix4hxe+aZZ7QY2rRpkxYUiK2CCEA8GFJF46ILqF8VcX/iiSd0rB/GA4IRQg0WMdwD4w+xlJ+fr0Ua2oN4R0KbEGxIEORGSk1N1YetWrWqNN+og08IvdLjCjcsxgZjge8U7o3vzpdffqn7tmrVKi0WUR9WXIhOXIOgjI+Pl7feeksg0jB+4GdnZ4eipgTRiZCAw4cP6+8CmKN9uHaRcB+0hQQ++MMBYx8dHa1FcmVjoyvyFwmQAAmQQL0lUC8tarAOvfHGG9KmTRstUmDZWbBggQwaNEiLGFy/9NJLxdzagRd1Rfl4KeIHoubFF1/UAed4mcF1CcuPkSIjI/ULFwIRfSidIAzGjBmjRd+8efNKZ2v3FIQl4p8yMzPPyS/vAsQf0pIlS0yWH1hq8OyIHzMsLYiJQ3wVEgQRYrcMqx4EFOKc7r77bp2PX4iJK8sqaCpQ6gCCA9bHm2++WXOZM2eOyQ0KyyPELiw3aDMkJESLJFgOIQhhwYHIg4CCixF9hjWvonExbl8Rd1jKGjVqpMUQhE5wcLC2IkKsGFwgcCDYcD9YM5FgzTPErLmgNyxaVck3+ge3Y1njikkYSPhOwXKItH37di2m+vTpIxDVP//8s2YZFRWlrbe60JlfxuQBuP3xfYIYvO+++0xFnnvuOX3s4+MjhrsdFyDW4Mrftm2bREREaAv0V199Je+++66pLg4qGpsSBXlCAiRAAiRQLwnUS6FmWDyOHz9eLjR3d3ct1AwXZmn3XkX5cHkhGYHbsLCZJ7xoIQDS0tLML+tjWHdwT8xQLSu99NJL+nJ5sWtl1TG/BiuhkfAyRjIsgTh2cnLCh04QnnCXwqLywQcf6PgwWI7wsoYAMNzHRvmqfBosjHsaVjHURX9w3RA9YA4WO3bs0Ja28PBw7ZoEe0wA2LBhg8yYMaPEbSsal/K4I3YLCa5HzJZdunSpHjvEeq1du1aPFVynENe7d++WTp066fJwcRrWNcwmRl9RDn1AgnCCuEUqL19nql+VjSuEJBLuYVjFDIY6Q/3CHwalk1HWEJzGZ+ly6Cv+gDESysHCaZ5gSSudqjM2pevynARIgARI4MITqFeuT2NNMliBsJSFEbdjXAcuzIZDmjZtmsCdCXcflmMwUmX5KAdxA4vQ/fffr6thORAjwQUJKxVmBpZ2bcLlhhggWGnM6xh1ESsFKxMEB0SUeTLE3fTp07X7EoIMx4bbFVYqJMxohXsLyzNAeEAMQYThHAn9mzlzpnb9QaTA0oh4OUPg5ebmatFhsEO8HyxMqIdAe8MqAzGD+2MWI5JhhUPQOtrDxANYhNCu8SyI3YNAhaUPCfxhyYQ1CfVhFYP7dt++fTofEyeMVNm4VMTdiKWChRPWPghtuCDhDkQCAySIQlj0YPmCkAGnmJgYLWQxduCFmDAkWCbRbmX5KFvRuC5cuBBFtJDDci2woEEMJiQk6BgyWOLgvkbCMZgjNs1IiDNDmjp1qqC+8Z2E6IXFzBh39AECE39cwMJqWN3AHeOFhD8i0P5Q5S41UlXGxijLTxIgARIggfpHoN4INbzcjIBsDw8PHQiOTySIDuQjQbTgJYyXMV5ecF9BtBmpsnyUQxB6YGCgFlwQL99//71RXb/UDXeZ8RI1MjFjEv1ALFJpCx7KGG6qiRMnGlVMn7C4QDRB/CAhFgzHY8eO1VYYuEphCYPwgVAFCzwnXrSwLMKiAvcYLFyYwYc4NLhxUQ+xTXjRY7kSxGRBGKAuxAxEDV7uXbp00S5IuI2RYBXD/fHSR7rhhhv0JwQN+gShjLg0BPBDnGJGJQQfrHSoC8uVEYOH+yCh3F9//aX7B8ueMbMSeZWNC6yC5XGHexFiES5qTAgBAwhGQ0CC0YEDB/TYQPCBIdzDYICEODKwwfcJzwArmiFMq5Jf0bjC0gYLH7jB/evv76/bN1yimP0K8Y6Ee4M53NNGwoxWiEVYK1HfsCJjbDHDEzGBEPH43mGswB9l4U7FdxBxaSiLBJcw2kdMm5GqMjZGWX6SAAmQAAnUPwI2KuanaMJsb5k23jKabUD3s1aV8/n4ECBwTcKCVFYqKx/xOrBSYXmLY8eOlVXNdA2WJIhA84RgcMQQXX311SYRYJ6PwG3c9/HHHze/XO1jTHCA2DCPwTNvBG46JMRrlU6oC+uVYYUqnV+bczCBEIJoM+cOAQLxBlEAAQ3LmiGSSt+vrHExL1MWdyMf90F9iNayEu6NH7g7yxLSEJ0Qg5goUVYqL78q4wqhhhmpGJPSLs+y7lX6GiyZEFzmkx7My8AiCyGG72112q/O2Jjfj8ckQAIkQAL1g0CDFWrVxQdXJ0SMkbBsAwLmmUiABEiABEiABEigvhKol5MJLAEL2zwZsTxoH/FVTCRAAiRAAiRAAiRQnwlcNBa1+jwI7BsJkAAJkAAJkAAJlEXAMoFpZd2J10iABEiABEiABEiABKpFgEKtWrhYmARIgARIgARIgATqjgCFWt2x5p1IgARIgARIgARIoFoEKNSqhYuFSYAESIAESIAESKDuCFCo1R1r3okESIAESIAESIAEqkWAQq1auFiYBEiABEiABEiABOqOgMWFmruHZ909De9EAiRAAiRAAiRAAlZEwOJCbdCQS6wIFx+FBEiABEiABEiABOqOgMWF2qNPvyChrVrX3RPxTiRAAiRAAiRAAiRgJQQsLtRc1Gbd06b/LmOvukboBrWSbw0fgwRIgARIgARIoE4I1Mlen65KrD03cVKdPBBvQgIkQAIkQAIkQALWQsDiFjVrAcXnIAESIAESIAESIIG6JkChVtfEeT8SIAESIAESIAESqCIBCrUqgmIxEiABEiABEiABEqhrAhRqdU2c9yMBEiABEiABEiCBKhKgUKsiKBYjARIgARIgARIggbomQKFW18R5PxIgARIgARIgARKoIgEKtSqCYjESIAESIAESIAESqGsCFGp1TZz3IwESIAESIAESIIEqEqBQqyIoFiMBEiABEiABEiCBuiZAoVbXxHk/EiABEiABEiABEqgiAQq1KoJiMRIgARIgARIgARKoawIUanVNnPcjARIgARIgARIggSoSqJNN2ZcvWy5///GPHImLlebNA2XgkIEydNgw8fXzqWI3WYwESIAESIAESIAELj4CNsnJyUUTZnvLtPGWMa7t2r5THnnokXPIujVxk69/+FZ8fLzPyeMFEiABEiABEiABEiABEYtb1Kb/8KPmfN+D98sNN94gmZlZcvtNt0p2VrYsWbRYxt80Xufn5OTIvt37JDc3T9p3bCsenp76ekZahqSlpSvrm7fkFxRK7KHD4u7eVPLzC8XP31caNW6ky+E6rrUIDhQHBwc5lpoqkXsjxaWRq3To0F6cXVx0uaSERMnJOSVBIS0kIT5B1cmXlq1a6jzjV8yBg2LvYCctglrI7h27JDA4SN+zvD4a9Y7ExUv0gWjp2LmjSYAWFRXJwehDYm9vq/oWJHt27xF1Sdp3aKeuncWfnZUle/bsk8yMTAkODZZ27doazepnxgnq7929V2xtbaWdqm9jY2Mqk6e4bd2yRRq7NTmnbTxj1L4oSUlJlVatQiVQPRcTCZAACZAACZBA/SdwVilYqK/Hjh3TLaccTZXj2ce14Hnvo/clLi5OAgMDdd7uXbvl+Wee0+LN6MbjTz8pV1w5Vmb+M1N++PZ7CQvvLtu2Rki3sDAtcLZs3iy33Xm73HH3HZKeliZ33HKHrjpz7kyZN2eefPDu+0ZTAuvdW1Pelo6dOsjbk96R7du2SfcePSRCCRu0UVqo3XPHXeLk7CzBISFK4OyT9z7+QIk/+3L7eOL4CW01PBgdY7rnwCGD5LU3X5OCggIx2vPy8lLiMF6XCVXi8P2P3pMmTZvKlo2b5cXnX5LcU6dM9fv26ycTX39F9cPR9GyoY9zDz99fpv8yXYvS32f8Id9+9U2J+p98+Zl+XgjdZ596VvZHRZnaHjVmtDz17FMlhKIpkwckQAIkQAIkQAL1hoBl/J1mjzdo8CB99vcff8qVl42T+++6XxYtWKQsO62kdZvWUqiEzFuvv6VF2shLR8ud99ypy78/ZaokKuuXkSDSIJ5grRp56Sh9ef26Dfpzw7qN+rPfgP6SpcSgIdIgwkZfNka3/epLE5UlS5myziSINB9fH22lMq6Zf0I0QaS1Un1srKx2FfVx1sxZWkCh/69Oel1ZxEJk9YpVArevkdCei6uLXD5urL4EwfXd1z9ocfXaK6/pT4iz2++6QwvL9evWye8zfjeq68+M9HS54aYbdX5yUpKsXb1Oid9sk0h769235ebbbtVlv/7yK/355RfTtEjr2KmTTPjvg/qZF85bIIvmLyrRNk9IgARIgARIgATqHwGLW9Ruv+t2cW3USJYsXKwFAyw7+Pntlxny3EsvSIeOHUxWprCwbmJrp1yEyjUXFxsnK1esNBFr2769THnvHS1STp08KZPfEC2k4DI0BNsoJZS2bt6q66CNgGYB4ufnJwvmzpOUoykSFbXf1N7YK8fJI48/XKFVCf0bOXqEmgQRX2Ef4a5EWr92rXZLXnnVldKrb2/x8HA33Q8Hk6dMFi9vL+Wa7CBT354i27ZFyC7lWoUbGFa/N995U7szmyor20fvfygrli+XW26/2dTG+8oSGRQSrM9n/PyL7N61S8J7hJksaf/74ScJ7xkub099R1sDUXDj+vW6PCySTZvCLdpeswDbMWPH6Dz+IgESIAESIAESqJ8ELC7UEJM2SlnArh9/ncBFuHnTFpmhRNq+PXvkVyU2Hn7s7ESDKZPfKUEpS9V1dHTU17p266LFDE4QbzZsxHBZtniJrFu7QTYoMQJrW/+B/eR/0/+ny0Povf3mZH1s/EJ7RuqnrFfmMWLGdfPPQYMH6NNUFe9mpLL6eNV/rlJu1AgtQCEK8ePh6SEffPKhFotGXU+v4ri70NAQfSkrM1PHjeEkJLSlKeYsVMWRIR1NTtafxq+A5s30oaurc/ElZSB0a9JEEP837bMvZdfOnfoHmdeNv14mPDRBuYXTddmff/ypuM6Z3+npGSXOeUICJEACJEACJFD/CFhUqMHVeOO147XFB3FeYd27yZBhg8XJyUHFez0vOSdyxN/P10Rl5txZWozBgpWlLGUBAX4y659/db6jo5OpHA5Gjh6phdp3X3+r27/08jE6XgsWNKT2HTvKZ9M+1ceRkVFSkF+g3a0/S7GQc3IqFoC6QDm/DJFYWR8h0sZeeYWKdQuV/ZH75e8//9IWwZl/z9RiyWg+YnOEhPcKl7179upLPr5+4q+sfkhRkZF6YgPE4/+zdx7gUVRdHz+kASGhpHfSCL333juIiiCKCjaUVxGxoOKriIKiiCiK3yuKWFDsdJDee+8QSCC9hxRSIeE75y6z7Ib0ZAMJ//s8yc7Mnblz5zfR/XPa1frdPfIG/VdT5xr+CmdBWquWjXK5ynz379lHy/9ZRn/+9geNffxR5eoUa+LHn82h9h3akcSsRUZFUW0WeGggAAIgAAIgAAJ3NwGTCjXJSuzeswdtWr+BXpn0MrVt144cOC5sz65disqjj48lZ1cX0oLk33tnBvn5+9KqFauU+Prux0UF0mvXvq0SdRKrJU3cntLasutPmljs5n4ylzIzs9jtulEJliW//6r6SvqrqDmeOnlaiSNxL/bg57Wzs1dCTT4N2xx2dzZu2oS2bd6iDsu5zZo3JTd3d+VaffqJpzibs7HiJSeI+CyqiVtZ4vnEovjgQyPJyUUnVMWVKsKta7duam5fzP2cRXIv2rRhg3J9vjRlMnl4uhc1PPpBAARAAARAAATuIAGTJxO88trL1G/gAPWIkqkpbkGJyRIRMpRjpETMTX9/ugralwD/vziAXgLvX+asT8nGNDO73Yokg4nlqW+/fmpcSQpo2aqF2hahMvOjmUrErVm5Wok0cUO+M2O6ytysVsB46uICfhU1x9GPjOYMy6YqK1ViyySrVPZHjhppNKITW/s0kdads0KlX57j/VkfKLEm7loRtdLEdTnsZgyZiLD8mjyLuFMlAUGYLV3yC7tA/6dE24uTX1Iu4gkTn6UevXopISj9Yl2ThIZhnFGLBgIgAAIgAAIgcHcTMHnBW+3xxc0ZGRmpMi/d2YJkzfXNDJu4SWOiYygtLY28uF6Y1EIrS5PaYRHhEWRuZkbunh76+K+yjFnUHGX+CfEJ5MAJA5plS+YxoFd/JZ7WbVrHcWdxZMVuV6kFZ9i0sZOTUjgRwFNf983wnMK2JfszgrNkLc0tWfS53HZ9Eic8xETFKCuaVnuusPHQBwIgAAIgAAIgcOcJVJhQu/OPemdmkFeo3ZlZ4K4gAAIgAAIgAAKVkYBJY9QqIxBTzFncoAW5L01xP4wJAiAAAiAAAiBQNQhAqJn4PUoM2lfffGXiu2B4EAABEAABEACBqkjA5MkEVREangkEQAAEQAAEQAAEKoIAhFpFUMY9QAAEQAAEQAAEQKAUBCDUSgENl4AACIAACIAACIBARRCAUKsIyrgHCIAACIAACIAACJSCAIRaKaDhEhAAARAAARAAARCoCAIQahVBGfcAARAAARAAARAAgVIQgFArBTRcAgIgAAIgAAIgAAIVQQBCrSIo4x4gAAIgAAIgAAIgUAoCEGqlgIZLQAAEQAAEQAAEQKAiCECoVQRl3AMEQAAEQAAEQAAESkEAQq0U0HAJCIAACIAACIAACFQEAQi1iqCMe4AACIAACIAACIBAKQhAqJUCGi4BARAAARAAARAAgYogAKFWEZRxDxAAARAAARAAARAoBQEItVJAwyUgAAIgAAIgAAIgUBEEINQqgjLuAQIgAAIgAAIgAAKlIAChVgpouAQEQAAEQAAEQAAEKoIAhFpFUMY9QAAEQAAEQAAEQKAUBCDUSgENl4AACIAACIAACIBARRCwqIibaPcIvniJLlwIpLSraeTr70cBAQ3Iupa11l2mz4uBF+lqWho5OzuRq5trmcbCxSAAAiAAAiAAAiBwNxCoEKGWkpxMcz+ZSzu377ztmd98ZxoNGNj/tuMlPfDxRx9T0IWL9NDDo+g/k/5T0stxPgiAAAiAAAiAAAjcdQQqRKjNnDGLDh04qB6+nl09ql2nDoVcuqz2Z3/wId3IzaWBgwfedXAq44SyMrNJROuNGzf007e0tCT/Bv704EMPkIVF0a9crr2amkq2tWvrxyho46fFP9Gpk6do3FPjqGmzpjRn9hxKT8+gN6dNpeo1ahR0GY6DAAiAAAiAAAgUg0DR39rFGKSwU8SKpom0fgMHqC9wM3NzElfl229Oo7jYOPrnz3+MhNqxo8fp+NFjFBMTQx4entS+YztqwG5Sw3bm9Fk6fPAwVatWjXr07GbYpd/OzMigzZu2KlFo52BPrVq1pEZNGun7q+JGdnYmbdu85bZH27R+A23esIk+/GQW2Ts43NZveOD82fP0nwkTacuurYaH890+d+acer9Dhw9T/Vs2baGszEx6beqrVD3fK3AQBEAABEAABECguARMLtT27N6rn8ukyS+SiDRp/gH+NHnKZNq1a7faT09PJ2tra/q/r/6P/vztD3VM+/XdNwvphcmTaOSoB9WhP7j/f3ye1r7/9jttU/8ZHhZBr095jWKio/XHZOPZiRPokbGPGB2rqjs/LPlBPVpEeBTN//wLuhAYSD9+/zO9MnWKOi7Mz50+R1lZ2SxgA6ienR1dv36dEhMSVP+VxER1THaiI6PoUnAI1a5rSwENA0isdNIeG/84DR42WFnT1IF8fonr++iR4+TtU5+86nspcZ3PaTgEAiAAAiAAAiCQh4DJhVpYSKi6ZZOmTdmVZmt0+y7du5L8aO3IwSN6kVbfx5s6d+lCmzduVFa3BV98SR06tqfqVlZGIq3vgP505NAhupJ4RRtGfX4x93Ml0uSew0eMoMDz55Xl59v/W0ht2rSlho0DjM6vijueN0WRl3d9SrySSHM/nkMbN2xQQu30qdM0bepblJqSqn/0Ka+/So0aN6T/vvVfdWz8Y+NpxdqV9P13i2nJDz/pz5ON19+cqgTakh9+pn1799L0D2ZQz949jM6RnQ/em0lbN23WH3d0cqQff/mRatSsqT+GDRAAARAAARAAgfwJmLw8R1xcrLpz7WLEO61Zs1adK7FN3//0PU2Y+Cz937f/08/837XraeeOXfr9xWwxevvdabTgfwv0x2RDXJ6HWbxJe2j0aBWbpVxxN2OmRKzca61hI50wFbekWMo++uAjJdL6DxpITz7zpMIxb85cZe0a/7Ru/7U3Xud4s3S9SBOr5oOjRqpz//jd2OqZH88jh48qkebH8XEffzaHunbrqkT3n7//md/pOAYCIAACIAACIJCHgMktao6OTurLOfGKscUrzzzUbmhIiPps166t3j1mZ29Hnl6eFBYaRuFhoZTJQkOaWMrqs6VImguX4xALnJagIG5PrS3+bhHJj2GLiTJ2hxr2VdXtmuxW1lpScgpFRugYSdyembmZnvHhQ4epXYf29MOixdS9Z3cVbzZ3/mcUH5eg2EeGR6phxJ1ZVMvKyFKnSDbuyn+WU2O2qo57ajw5sFUNDQRAAARAAARAoGgCJhdqHl4edOb0aQo8d44S4uONAtm1eDSxoC1fvYxj1GqpGV+5kqSfuWQgJiXp9mvUtGYBp+vKzr5GuTk5KuZNztHiqqTXykoXPyXbIjZ8fH1lU9+8vb312/fKRvDFIPWo4oJOTrolsubM/sQIQQqLOONmRou/XcyZnSfVYTd3d+PuQvY6dm5PPfv0pu1bttJujkWUn59//IneeOsN6tW3VyFXogsEQAAEQAAEQEAImNz1OWjIYD3pme/NUm43caf9zZmeWtJAq9atVCkH/wZ+6lwRdsFBwWp77649+jgqKTHhdVNkiQtvy+Zt6pztW7brz5EDbh63xET1GjVp/NPj6bFxj1EGu0QTOZbNUMipAar4L4lD+/6779VTNm/Zgly4KLDWJAZNsjt/WrqEvvrma3YV61ybWv/27duVSBOL5Yq1K+jVN17Vuor8PHHiFLVp24Y+/eIzmvbuf5WlTt7bzz/9XOS1OAEEQAAEQAAEQIDI5Ba1Vq1bUo9evWjHtm10/NgxGnmfsRAQa5pWoPbhMaNp2V//qPfyzLinydnFRZ+1qZIC7htKuWw9W8RZoCI+Pnx/Jn3J2YyGAfFysdQKk1iqf/78m6QsRSgnNMTFxugTDvKKkar6h/DM+Gcol2vUaS5hYTh46CBydnUhHz9fusRi+L13ZpCfvy+tWrFKuTm/+3ERZ3Tq/iyW/bWMXFx0qzxcYwvmrh276Z+/de9HskOLamK5k7g3scINGzGc36ezusSunl1Rl6IfBEAABEAABECACZjcoiaU//ve21zG4YnbgItYmMvWFolBk+bEX+TzvvqcS0LUU/taaQ3pn/fl5ypTUEp4fPTJbP05ItIaNWlC4tKTZmame6QJz0+gEQ/cr46J21WyQkUUzpj1vioRoTqq+C8RYiLSRKB17tqFPps/T18eY/r700mC/I8ePkx/cXC/WLpe5qxPX34nPr4+Ssj98P1iEvdl85YtVUybuEnd3T0UNeEucYOFte49uirXp8TDLfz6f7Rm5WqSrM+JkyYWdhn6QAAEQAAEQAAEbhKoxkVlbzy/2oEWjjG9ZhMrTOjlMEpIiCdPTw9l2ZGCtXmbxJxFct2u+Lg4cmWrmgi4vE3Guhx8mWrZ1Cp0bU+psB/CFjVbGxvlEi1OZf6896qq+8I5JjqG0niNVKlvptVGk+eVPsPVCeS8mjVrqFUlSspDRJ28gzp1aqt3hXdQUoI4HwRAAARA4F4lUKFC7V6FjOcGARAAARAAARAAgdIQML0ZrTSzwjUgAAIgAAIgAAIgAAIVE6MGziAAAiAAAiAAAiAAAiUnAItayZnhChAAARAAARAAARCoEAIQahWCGTcBARAAARAAARAAgZITgFArOTNcAQIgAAIgAAIgAAIVQgBCrUIw4yYgAAIgAAIgAAIgUHICEGolZ4YrQAAEQAAEQAAEQKBCCECoVQhm3AQEQAAEQAAEQAAESk4AQq3kzHAFCIAACIAACIAACFQIAQi1CsGMm4AACIAACIAACIBAyQlAqJWcGa4AARAAARAAARAAgQohAKFWIZhxExAAARAAARAAARAoOQEItZIzwxUgAAIgAAIgAAIgUCEEINQqBDNuAgIgAAIgAAIgAAIlJwChVnJmuAIEQAAEQAAEQAAEKoSAhanvcvrUaVPfAuODAAiAAAiAAAiAQJUkAItalXyteCgQAAEQAAEQAIGqQMDkFrWmzZpWBU54BhAAARAAARAAARCocAKwqFU4ctwQBEAABEAABEAABIpHAEKteJxwFgiAAAiAAAiAAAhUOAEItQpHjhuCAAiAAAiAAAiAQPEIQKgVjxPOAgEQAAEQAAEQAIEKJwChVuHIcUMQAAEQAAEQAAEQKB4BCLXiccJZIAACIAACIAACIFDhBCDUKhw5bggCIAACIAACIAACxSMAoVY8TjgLBEAABEAABEAABCqcAIRahSPHDUEABEAABEAABECgeAQg1IrHCWeBAAiAAAiAAAiAQIUTgFCrcOS4IQiAAAiAAAiAAAgUjwCEWvE44SwQAAEQAAEQAAEQqHACEGoVjhw3BAEQAAEQAAEQAIHiEahwoTZn9hzq0603paelG81w5/adNO31aTTyvgdp6itTae+ufUb92k5cXDyNGHIfHTl4RDuETxAAARAAARAAARCokgQqVKht27qN1q1eexvIM6fP0vS336Wo6CjqN6A/JSQk0NtvvkUH9x80OvdKYiJ99fl8Sk1JpexrWUZ92AEBEAABEAABEACBqkbAoqIeKDY6hj6e9XG+t5sz+xOqZ1ePvvx6PtnY2tLV1FQa+/BYWrzoB2rfsb265rmnnqMLgYH5Xo+DIAACIAACIAACIFAVCVSIRS03J4dmzphFbu5uNGbso0YcszIzKeTSZerVp7cSadIpYq1ho0Z07swZZT2TY48+PpZef3MqDb1vmOyigQAIgAAIgAAIgECVJ1AhQu2nH36mUydP0rsz3iUrK0sjqGFh4Wrf18/P6Linl5faj4uLU589e/egwcMGU9v2bY3Oww4IgAAIgAAIgAAIVFUCJhdqp06epp8W/0gvTp5E9b3r38YxIjxSHbOxsTHqc3NzVfvp6RlGx7EDAiAAAiAAAiAAAvcKAZMKtfT0dPpg+gxq16E9PTjqwXyZWllaqeMpKSlG/dnXstW+h7u70XHsgAAIgAAIgAAIgMC9QsCkyQTi1oyLjVM/UpLDsA0bOJT69O9Ho0aPUoejIqMMuykhPoFsa9tSXbu6RsexAwIgAAIgAAIgAAL3CgGTCjU3Vxd64+03jVju2bWbpGbaS1MmU0DDAPL196HqNWrQiWPHjc7bvXM3+TcIMDqGHRAAARAAARAAARC4lwiYVKjZ1q5NAwcPNOIZFxuvhNqAQQPIupa16hsybAgt++sf+t+C/1G3Ht1p7eo1FBMdTeOfHm90LXZAAARAAARAAARA4F4iYFKhlh9IMzNdWJyZWTV998QXJ5LUWftj6e/qRzoefvSR20SeHK9GuuurmZnLLhoIgAAIgAAIgAAIVFkC1WJiYm48v9qBFo4xaV5BsQDKygMREVHUoIGfcocW6yKcBAIgAAIgAAIgAAJVlECFW9QK41jPzo5XKLAr7BT0gQAIgAAIgAAIgMA9Q+DOm9HuGdR4UBAAARAAARAAARAoGQEItZLxwtkgAAIgAAIgAAIgUGEEINQqDDVuBAIgAAIgAAIgAAIlIwChVjJeOBsEQAAEQAAEQAAEKowAhFqFocaNQAAEQAAEQAAEQKBkBCok6zMtLZXSUlPJwsKS7BwcKZ33r/K+paUl1bN3LNaMw0OCafXfSyk3J5fqOdjTI0/+p1jX3W0nXQ66oKbk7degVFP7Z+liig4PV9cOfuBh8vG/ffWGnxb/RJs3bip0fG8fb5ox6/1Cz7lTna9Ofo3i42Jp4fcL8y3T8n9f/R/t27OXV714i5o0bXynpnnbfYMuBtG0qW/RiAceoEcff+S2/vI68NmceXT86FH6ZtE3VKNmzfIatsBxQkNC6fUpr9HoR8bQyALW7C3wYnSAAAiAAAiUiYDJhVp2diYt+nKOfpLPvPgGfffVrf1Jb8ygatVuFb/Vn5hnQ0Sdk6sbhYdc4i9v03855bl9uezeuHGDVv21hJyc3ai0Qs3e3onioqMoKyuTRa9TvvOKjY2lsNCwfEWOdkHdendvGZTLl4LpSuIVEl75tXBeQ1aeTxjcyTbr/Q9p84aN9PuyP8nR0YHnk63WtU3lf4SYskVFRKrnz+F/tFREy0jPVM8l/7hCAwEQAAEQqFgCJhdqVlY1yM7egRIT4qnf4AfI2qYW2bPASIiPpSFsETp2aA9dunCeRZg7RUWEKYtZr/6DydnNU5G4mpJMB/fuoJTkJLKzc1RCzd2jvp7SiSMH6PyZE5SVkU72js7Ua8BwqmmtW5oqJiqC9u3YRElJV3iB9zq8qgFR4+ZtyMLSguQ6ewdn6tKzH61f9Rdl85d+3yEP0pnjh3geoTxGLYqPjSYPL18KDw1my1VD6tZnkLqv3O/0sUOUmZFBjZu1ohZtOpA5C8mjB3cX+CxiRTx9/KhOfLAwPX/6ONWuXY9cPb3UmLk5OXRwz3YSi5uZhTm1bt+Z/Bs21T/nmROHKZg5Va9ekyytrCjneg7VqVv4gvXvf/gBte/QTj8GNsqXwPXr19WAN3LzF5Tle7dbo7393n/V3562BNutHmyBAAiAAAhUNQImF2oCLCsrS1nNmrRsrfiJJcTc3FwJkSXfzlciLjz0MllZVafs7Czat2sbjRj9OCWxuPv5uy+VuBGrm2Zhqe/rr8ZZt/x3unDuNFmYW6p9EYOR4aH09Iuvs6ALpn+W/qCO29jWpggeX66v79OA1xGNUIKPD1BSYgJdunhe9dWoUZ1OsQDLYNGnzSXpSiKZVTNXx0Wo7dq6no7s30112CJlxnPayfunWNw9PmEyi7fDBT7Lvyv/0t2TZxQTFc7iMFyJxyf/86qa428//o8S2N3n4ORMyQmJtHbZ79Sxay/q2L0Pu3x/ZZF2TjHUGDiwKC2PlnY1jTau30iNmzQhB0d7tc6qn58feXh6UC0W1UlJybR+3XoaPmI4eXrpxPOBfQfo6JFjJJa7+vW9qE/f3ixodX0ypyMHj1BoaCiNeHAEHdh/kHbv2E1TXn+ZsjIz6dixE2Rra0NNm90SoWV9DnE5njx+knrxPC5fukxHDh/RiejGjflYLyOL7bVr1+nUyZN0cP8hys3NoRYtmlPzls35XdTWT2PPzt38bHF03/3DyYz/TrW2edMWElHWb0BfxSQ0JER1bfh3A7XgMSxYrGstOChYPXtkeCT/nTegfv366Ne21Z9z8RLt3rWTLl8OJScnJ+rYuSO1at1S66bQyyH8LEepe89uRu8hPj6eYmNiqW//vhxOYEHL/16uvybvRvtOHcjd3U0dlmffsX0HXQy8qK5r1aoFtWnf1oiPnHjxwkXFMD0tnZo3b6b/h0/esbEPAiAAAiBgegImF2o32D2TdjVVCRt5HBEasl/PzkE9nViNDrAlqU3HrtSpe1/6+tP36fq1bNW3loWYnH//w0+Qi7sHfffFHMrJva6sbSLERKQ5OruoeDU5T66VseWecq2Iuyeee5ktT/WU1W3LuhXUoHEzjnFzUte6sWXO0cVVuQjlC1hcqk68H3o5mO/5OP3x83fUvHV7igwLURa9KywEjx7Yo873ZsEnTSx9KSxmpBX2LAPve4iWL/1RWRIffGS8Ll7PURefJ9a9+NgYtgg6kZt7fcp2yqKzJ49RUOBZ8qjvq0SaPOeoxyfQrs3/0omjB8jNQ2eJUzcuwy9eQozmz/uCRUIn2r93nxpp7BOPUzSvvXr82DHauX2nOta5a2cl3ubMnkP/rllndMcfFi3meLE39WuzLl++nHbxdUePHNFfL0ItLi6epr3+Jj+jOy35fYnRGGXZ2b/3AH33zUKOW9vH4mi/0VAiKF+ZOkUdEwvok48/xUI9Wn+OrC8rbd5Xn1PLVjqR9Ptvf7LwO05Dhg0hKwOh9vX8r5SAF6H29ZcLKDVF5wr8/tvv6P4HH6B+A/ursfbs2kW//7pUbWu/1q5aQ/MXfEFW1a3UoVUrVtO8OXO1bvUp1wwbcR+98rpuvocOHqavvvjSiKO8h19/+pUOHzpE3bp3IwsbC/X+jAYy2HnnvXeVUIuNiaN33vovXQgM1Pf+8hNRp86d6d3339HHuq3keX2eZ17OLi76a7ABAiAAAiBQsQRMLtTi42LUE2nCLCjwjBJfHvV91PHIcJ1Von3nHhQfE6WOiWtULF1yrbgsvXz82RqTQTcol608tkqAHdyzQ53bql1n9ZnOAi03N5ddgzXYqhKoLCoibkSkSWvYpIX6ke3jh3WCxN3Lm1JZaMkXuOtN4RMbE01igYtmq5c0/4ZN2B16VImow/t36ixvNa3Z4qKbq7hsNVdsQc8i49SqZUuSVCGWOhFfhu3Igd1q19Kyun5cd8/61IxF4r6dm1Vfh669lRXkes41te/p7Wc4RL7bklAQHBSUb9/AgQOprt0t16mINBFQD4x8gLp270p7du1RIqt5y5Y0gi1L/v7+tHHDJiXSmjRtSu9/+D6L7Xp09NBRevutt+njWbPZGtSKnF1uWfpE5PXu15f6s7AR0VydXbYNAgLIxfXWOflOrpQHRaQ998LzdP8DI+giW9lee/k1Wr1yJb30yiTF7peff1UiTUTV2CceJRsbG/rz979JhNbK5av0Qq04t1/612/0Eceo7d61m35Y8gO5MrsLgbpEEYmfG8wib+Sokfx3nERfzv+SAs+do3Nnz1ELtmJFR0YpkWZb25Y+mfspNWwcwGvcRioRu3rFSmrTrjX16t1LPw3haPge9B03N+T+1266YeXQ2tVradlf/5CjkyO1btNanfX5p/OUSJN5jXl0DFlzeMBX8xfQ9i1bafGiH2jiixMpPCxCiTSZ15vTplHL1i1U0sbMGTNv3gkfIAACIAACFU3A5EItIyNNPZPEix3cs43juPaq/ZZtO1JUWChFR0SoL/GUlCTay/Fk0q7nXKdqZjqX09XUFNqzbSNdOH+acjiOS5pYzLRst/27t7FlI4lOHjmoRNTA+0ZRzZo11HmJ8XHKVSnxXCIQRbSNHPu0ioOTEyTOLDIiTJ0r2aQSH5aRnqasf+KKlZbO8xdxJHFj1tY26piFuQU1btqS4ljUBV04QwFspSvsWdRF/Etcf2ZmZrR9wxqKigxnl3AGjWOLX/Xq1dUp4n5z9/JhF2kQhXJAvbOLO50xO6z6DuzeSqHBF5WlTQ7k3NCxUJ0F/NrALsuCWsNGjaiVgVCT8xYuXqi+wLVrRJB9seBzbZetRL+p7Rcnv8hxh7pkhDbt29AjYx8hsapt5S99EQFae/Txx+iZ557Wdtla6UzffP+Nfr+8Nx546EF6+JGH1bDiWu3Qsb0Sm5K16Ovny0kczkpATZj4rP7vZ/DQQUqoJcYnlGg6InQsWHhKq8HC3ZLjHrXmw/d67Y3X1N81+RENu284LWDLmLhDRaj99eff6tRHHntUiTTZEffkq1Nfo5dfnExrV601Emp534N2H+3Ty9sgZpNdyyLSpM2a/aES48HsYt23d68Sbvp5cf+0d95SQu3fteuUUPvn5rwmTHyeOnfrpMbo078vBQVdoqVLflH7+AUCIAACIFCxBG59u5jovh5stRIrmLgk9+7YwiLKmrr3HajKcvy+eqESQXLrE4cPUBhndEqL59gnCZRvzdayEyzADu3bqc9gzOC4GRFyPfoOVskHKZwosG/nVhXzJjFdWjZlIxZS5zhgX+LJxJojWY49+g5R47u4e1K1I/vZynFaWeDkYFJiPG3buFr1Z6RdpXh2pUo7fVQnlMTy1n70E+yGPKvcl1vWr1L3FBdk81bt6c8liwp8FjUQ/xKrYmJCHB3ne4vlr02nbqqr7+D7aRnH04krV4u58w1oxF+y9tSj32AVryaiUNyj5mYW6j4iDAMaNdeGzvfzhZdeZEHZJN8+b59bX+5yQvee3Y1EmhzrN6CffKgmruVLLDSq16hBARxzZdgaNm6kdkM41sqw9R9463rD40VtS9xVcVq1amZGpzXJE/fm6qaLzdKyMIePGEZdunaidWv+VVmT0VHRdPr0KaMxymMnoGFDnUi7OZiTsy47Nzk5WR0JuaSzIrdga6Vha9hIV2pFLHKGzfA9GB7Pux3D7up3pv1XHZ7+wQzyD/BX20E3rao1+N1987WxUBbrmbhwxaocxO9XmlhUDVt7FrwQaoZEsA0CIAACFUegeN+IZZiPGVufJLg/IS6aatSwplrsVtTaw+MmaJvqs+/gEUb73VmkdO3dn61c6UbXyUmS+fjUC69ROgfDX7t+TQk7w4sHDB9J/YaM4PixJKrLWaeGLaBJc/L2bcCuVF1cmmFfUduPPfuScsNmZmYZ3bOoZ5FxH3t2kpqvJccpSbkRrTm5uNFzU6aRZLiac605LWtV+u0dXVSigvRZ17IxCm7Xri/oUywtxa0zZnczZtBwrHp2t0p4aKUZvLy8bpuDJGFIy87WxRZqY9Srd8u1qh0rzqeNra0qBxHDAfP1DaxF2rXxHOsmrbbB35Lsi7ggVFsAAEAASURBVCuzsLZt6zZ6/50Z6hQRnPIsPXr1pDUrdQK9sGulLz09Q7muizqvbp5sXHP+h4Jhi+dYR2l+fj6Gh/nd6/5zlIQaw2b4HgyPG26L0HqT4/9EdI17ajz17N1D351w836SILFx/Qb9cdkQUSwubHm2BE5SkFbjZhyd2uFfNrVqaZv4BAEQAAEQqGACJhdq2vOI4ChNE6FnKO7yjiHlPgpqcm1ekaada8Vf1KVtknRQ2lpuhc3XhuPxCmqF9RV0TXkeF/EkTYLRr127ZiQ0z545q/pcXV3VZ1l/2dvbK+vdCc7kzCvUpIyJFhDv4HhLSBZ1T7EIfrNAZ016+713qHfvnkpwigAtSKjduJGrHzaBXaPiui6P5sD/cAi5dJnOnj1vlOUZdEFn0XLleoElafJss2bMUmP27NObhdo4o8udbiat9ORnfpOTPgybCLvr/A8dEYOOfF4khyKcPHnaqKxLLCecoIEACIAACNwZAsa+ozszB9y1EhAQ93EAx7VJO8aZlIbt8AGde7glx18V1VLY/adZ5wo6t33HDqprzao1yiVneN7SX3Rxcn4N/Kl2nYKFreE1si1uQcn2lAzGvlwqQyu7sW3rjryn6uPvLnNsm9a2bdmmbd7+aSDobu+8/Yh/gM51LGVODNvBAwfVboub2aeGfYVtf/fNIpXUIEzenGYsxOQ6fz4ube/uPSqOU+3wr0QuAzNiyH30nwkvqEMNbrq0D92ch3beujXrtE18ggAIgAAIVDCBCrOoVfBz4XZM4Lv/fUt//vZHviwk4aKkS0g9+cyT9NZrb9DMGR9wksAEqlu3Du3ZvVeVipBsTollKqxJ7NW4R58osjzH8PuG8hJYm1Wm5MQJ/1FlKKpxEkYgW6C08huTJk8q7Fa39Tk5Oar4OhFrixYu4ji7ADrKNcqW/7NMnRvNx8+fDVTB/RIrJtmQs2d+xBmvIygsLEwfoG84sN1N1/B3335PQ4cPYSujLrnA8Jz8th8eM1rd97dffmVXqiU1bNiIgoODVFKDuGRHPzI6v8vyPXbwwCF9/JiDgwMtmL/A6LzOXTqrxIC+A/qrVRSmTZ1GAwYOoAtcK23NqlXq3EcfH6s+JRFk1YpV6m9Glntrystz7dy5W4lAo0GxAwIgAAIgUGEEINQqDHXF3UisX9I0F2F+dxZBYNjMzI3jqGQMMzPjYx25eOrLr7+qSjgY1gBrxSUg3vtgun447aq8wf7acf2JBWxIRu/czz+ld9+ezmLqsHLpaaeKRWzqtKkqe1I7puUUSEZtQU0saO++N50WfPkV/fLTEnWaMHiFMy3Pc+kMcX9++fl8+uqbr+iBB+8nsRJKrTKpMScB96M5m/TwocNsDbyqv0Xvvr1VgeBNHPdVi7NA+w8aoPryctNfcHNDyqLMmfsJfcCC96fFP+q7pZzGzNmzlACWg9p7zDteNYP3EsUJEVrT6uBp+/Jp72CnhNqU115Wh2XJK+08ef7Hxj/BxYyHqT7J5P1ozmya/vY7evEnHS9NmVxorTZ1MX6BAAiAAAiYhEA1Lnh64/nVDrRwTMFfcia5MwattATSObkj+EIQpXEAu7+/L4sB42SN8nwwqaYv9cnEXdqoccMSuTsLmodYzswtzMjP308vhqSOWU0WLlrZEblWaqBJQkNAowb68/KOKUH8V64kkcTVacVs855T0L4sQSUrKcSyW9aTV3iQ1SA0cVbQNWU9LgkDF/jdVeeEgQC2gsrqE3lbNq9ZGnjuPJeAyaVGjRqzJbJ4lsK842AfBEAABECg7AQg1MrOECOAAAiAAAiAAAiAgEkIwIxmEqwYFARAAARAAARAAATKTgBCrewMMQIIgAAIgAAIgAAImIQAhJpJsGJQEAABEAABEAABECg7AQi1sjPECCAAAiAAAiAAAiBgEgIQaibBikFBAARAAARAAARAoOwEINTKzhAjgAAIgAAIgAAIgIBJCEComQQrBgUBEAABEAABEACBshOAUCs7Q4wAAiAAAiAAAiAAAiYhAKFmEqwYFARAAARAAARAAATKTgBCrewMMQIIgAAIgAAIgAAImIQAhJpJsGJQEAABEAABEAABECg7AQi1sjPECCAAAiAAAiAAAiBgEgIQaibBikFBAARAAARAAARAoOwEINTKzhAjgAAIgAAIgAAIgIBJCEComQQrBgUBEAABEAABEACBshOAUCs7Q4wAAiAAAiAAAiAAAiYhAKFmEqwYFARAAARAAARAAATKTgBCrewMMQIIgAAIgAAIgAAImIQAhJpJsGJQEAABEAABEAABECg7AQi1sjPECCAAAiAAAiAAAiBgEgIQaibBikFBAARAAARAAARAoOwEINTKzhAjgAAIgAAIgAAIgIBJCFiYZFQMescI5Obk0KwPPqLc3Fz9HKpVq0Y2tWyoV99e1KZta/3xqryxedMW2rNrDw0aPJDad2xfLo/66cefUkZGJr3+xqtUo2bNchkTg4AACIAACIBAYQQg1AqjUwn7cnJv0NZNm/Od+eqVK+mNt9+kgSxeqnq7GHhRcWgQ0KDchNrmjZspKzOTJk+ZBKFW1f+A8HwgAAIgcJcQgFC7S16EKabxf99+Q9a1alJ6WgZ9/dXXdPL4cfrjtz/0Qi09PZ3OnT5HWVnZ1KhJANWzszOaxvatO6hJsybk6Oigjt+4cYMuBV0mCwsz8qzvRWdOnyE+RI0aN+Rjt/6UUlNS6MyZc5SclEz1fepTw4YB+nFDL4eobbn+7OmzZGZmRg35erH6aU3uI2Onpl6lFi2a8zNYa110/fp1CjwXSHFx8eTn50MeXp76voI2YqJj6FJwMPn6+pKTi7PRaSLogoMvUe06talJk0b8WUffr+51/gJdTU2lFi2b64/LRnBQMNGNauTm7qIXbSH8bDnXc8nL29OIh9GF2AEBEAABEACBEhC49e1agotwauUg4ObuSra1bdVke/XuqYSa5hI9feo0TZv6FqWmpOofZsrrr9LwEcMo7WoavfTCSyzKWIxw69azO70/633KYbfqM+Ofouo1apC9vT1FRkSofh8/X5o3/zMlcg4fOET/nfaOsjypTv7VqXNnmv7Be3ydFY1/bLz+Gm18ZxcX+mnpT2RpaUnHjx2n99+dQVcSr2iX08RJL9Cohx+ipMQkeuO1N+hCYKC+bwBbB19747UChdHqFato4df/05//8mtT6L7776Nr167TzPfep53bd+r75Lmmv/8uderSmcVtOk19ZSoLxtOq39HJ0eiZPv/0czp18iRN+M9zNObRMUo4Pnnz2dZuXFvgfPQ3wwYIgAAIgAAIFIMAkgmKAamynrLs72X026+/06KF39OSn35Wj9Gvfz+SOLaPOI5NRFr/QQPpyWeeVH3z5sylqMgoWrlipRJpMz78gC1i3rSLxcyp4yf1GMT9V9O6Jg29b5g6JoJr8Xc/KiHzPosf6RdxNu6p8Uoo7tu7l/78/U/99bKRdOUKPfzoI6o/Jjqa48n2qv5F3yxSIk3E2etvTlWi8PtvFynh9M3/FiqR1qRpU3r+xf+QiKcN69bTxn83Go1tuCNi8oGHRlLXbl3V4R+//4GtgDdo2d//KJEmQvaJJ8dR565d1Lw/mvmRutfSX35TIk3E2/0PPkA1+NOw9RvYT+3u3b1PfR7Yd0B99uzTW29hMzwf2yAAAiAAAiBQGgKwqJWGWiW55odFi41m6sluwlEPj6LIyGi9NaxVq5ZkZs6uTO4LCw2jHdt3KJelXCjB+CPuH0HtO3WgevXqGo01e85ssnewZ7dnY5r78Rw6duwonTpxSok/ET+zPpml3Jl12JU4f94XtH3bNnps3Fj9GPPmz2MXYX21//uvS+n0qVPUs3cPysjMUMdW/LOcurB4enXqa+z+bEaWVlZ0YJ9OFLVq05rqsKuyUeNGFBcbp+Y8eNhg/diGGyImJ738ohJnj495XD134LkLtIPdutKeeHI8jRz1oOq/f+gINf/jR0/wvfar/hcnT6Khw4fQQbYUvvHK6+qY/BIL5eefzlNWSnGNHtx/UPX16ddHfw42QAAEQAAEQKCsBCDUykrwLr5++gczyJotXxHhEbR40fdKiC37Zxk1bNRIP+s5sz/Rb8tGSnIKW5Dup6OHj9L6tevUTz27evT5V1+Qq5ur/lw7e108m4+PtzqWkpys3H+y4+3jq4858+E4MmmxMTHqU/vl6u6mNq2tb1qqbuh6Jkx8jmbP/FAJqr/+0FnhxII276t5enforz8v0YZRn1euJBntG+643byPxMCJi1UsbBKvFhcXq07zvTk/6ff19WPX6zGKi4+l+Pg41e/jq5t/6zatDIdVbt6OnTvR/r37aM+efbSfRaRY3zrxMTQQAAEQAAEQKC8CEGrlRfIuHEdKcYh1S8pTBAUF0ZqVq+nypRDq2bOHfrYr1q5U54SHRVAKJwG4ujorkTZsxHAOjL+uXIRiaVuxbAU9/8Lz+uuOHjpKbdq3obNnzqpjjk7O5HJTyAWeP6+C/iXBQOt398gb9F9NP5a2kZmRQdFR0fTMhGeVy/XQgYO09JelygV5kF2L4uoUC9rHn82h9h3aqZi1yKgoql27tjbEbZ9nTupizMTdefGCLrZNuKxf567GOsvJFK3ZQifu4HPnzqnrXV1dyY5j8CROLvDceWrStDGFXg67bey+7EYWobb42++V23TgkMEcZ4f/pG4DhQMgAAIgAAKlJoBvlVKjq1wXSvC/tIz0DHJ2dSFJAJDYsvfemUF+/r60ioPuJbbsux8XcZD8aVrOlreXpkwmOzt7ZYmTT8M2h92djZs2oW2bt6jDPVj8NWvelLMg3ZXV6uknnuJszsa0af0G1T9oaP6uScMxpTbZP3/9TSGXLtPgYUOoQYMGLMJsKY7nVZ8tW127dVPz+mLu5+wm7UWbNmxQYkvm6eHpbjiUfnv3rt005cUplJKaotya4uKVzM9BQwcp69l33yykS5cusYi7oJ5fxGArtp716NmTgi5cVG7bEydO0uGDOtemfmDe6Na9i9qVGDtp/Vm4oYEACIAACIBAeRJAMkF50ryLx7J30JXYOHrkMFu7cji7cTr5NfBn69lh+osD/UWkvcxZn74s4EY/MpqtSE2VSBFXoGyPHDXS6OmcnJ31Iq07Z4VKv1jQ3p/1gRJrYoXTRNqoMaNp2M0YMnEP5teqmeksbM+/MFG5KNetXqvuLxa0hziuzp1dmBMmPks9evVSQnDpkl+USJMYtGGcqVpQa9SkiRJkIkrl3pOnvKxOHTBoAD3y2KNqe/OGjUocimt05uxZKvv0YWagJSCIGPX09FKWR7lAKyUiwrJ3v75qDLFctmrTUm3jFwiAAAiAAAiUF4FqMTExN55f7UALx0CzlRfUyjKOuAOlxlhaWhp5cV0zKY9h2M6cOkMOnDCg1R6TumIDevVXgmfdpnUcdxZHVtWtqG7dW7XH5Hpt3OSkFKrPNcVKU8U/+OIlLqFxjePinI1qm8n4SVyfLSYqRlnRatnUkkOFNpm3CD5nZydOnDA3OlfcrSHs1qxTx1ZZGjURpp0kz5iTc90oPk/rk0/JqP2FM2pFjE58caJhF7ZBAARAAARAoMwE4PosM8LKO4CIEhd2gxbUpNhtYc3J2THfbm3cwsbO90KDg77+uiB+g0P6TRGGecWhvjOfDbH0GSZCGJ4iIrJh41sFeQ37ZLugZ5S+yS+8rLI+ZXvYzVIlso0GAiAAAiAAAuVFAEKtvEjeI+OIG7Qg9+U9gkD/mFlZWdQgIIAGc/ydxL6hgQAIgAAIgEB5E4Drs7yJYjwQAAEQAAEQAAEQKCcCCEwrJ5AYBgRAAARAAARAAATKmwCEWnkTxXggAAIgAAIgAAIgUE4EINTKCSSGAQEQAAEQAAEQAIHyJgChVt5EMR4IgAAIgAAIgAAIlBMBZH2WE8i7aZj09HT6Ys5M2rV9KyVdSbybpoa5gAAIgAAIgAAIlIAAhFoJYFWGU0WkTXh8FC88frEyTBdzBAEQAAEQAAEQKIQAXJ+FwKmMXWJJg0irjG8OcwYBEAABEACB2wlAqN3OpFIfEXcnGgiAAAiAAAiAQNUgAKFWNd6j/ikQk6ZHgQ0QAAEQAAEQqPQEINQq/SvEA4AACIAACIAACFRVAhBqVfXN4rlAAARAAARAAAQqPQEItUr/CvEAIAACIAACIAACVZUAhFpVfbN4LhAAARAAARAAgUpPAHXUKv0rLPkDVK9enQYMGECDBw8mKysrOnHiBC1evJhSU1NLPhiuAAEQAAEQAAEQMBkBCDWTob07B65WrRq1atWKpk+fThkZGXTx4kWSY2ggAAIgAAIgAAJ3HwEItbvvnZh0RiLKXF1dydzcnGbMmEFbtmyh3Nxck94Tg4MACIAACIAACJSOAGLUSset0l5148YNiouLI/kUwQZrWqV9lZg4CIAACIDAPUAAQu0eeMmGjygCLSIighISEsjPz48sLS0Nu7ENAiAAAiAAAiBwFxGAULuLXkZFTEUsaA4ODmRra0tXr16lnJycirgt7gECIAACIAACIFAKAhBqpYBWGS8xMzOjdu3a0b///ku//PKLsqotW7aMrl27VhkfB3MGARAAARAAgXuCAJIJ7onXfOshg4ODlTXNxcWF6tWrp2LUxB2KBgIgAAIgAAIgcPcRgEXt7nsnJpmRZHYeOnSIJk6cSOPGjVOWtGHDhpHUVEMDARAAARAAARC4OwlAqN2d78WksxILmgi37Oxslf1p0pthcBAAARAAARAAgVITgFArNbrKeaEkE7i7uyu3Z1BQEF2/fr1yPghmDQIgAAIgAAL3AAEItXvgJRs+ogg1iU2TduXKFVjUDOFgGwRAAARAAATuMgIQanfZCzH1dMTtKZa09PR0+vLLL2nr1q308ssvqwQDU98b44MACIAACIAACJSMALI+S8ar0p8tQu306dP01FNPUa9evahly5awqlX6t4oHAAEQAAEQqKoEINSq6pst5LkkkeD8+fPqp5DT0AUCIAACIAACIHCHCcD1eYdfAG4PAiAAAiAAAiAAAgURgFAriAyOgwAIgAAIgAAIgMAdJgDX5x1+AZXl9vb29vTCCy9QzZo1acOGDTRo0CCKjY2lb7/9llJSUm57DB8fH5owYQJt3LiRtm3bpuq23XZSOR6QbFZ/f38Ve7d+/XrasWOHuqcsnSWxeKNHj1YL0GdmZtLixYvpyJEj+jnVqFGDxo4dS61bt6bVq1dTixYtSJ7366+/ppCQkDLP0qKGBbUa25Jc2jhT4MoL5NLSmWo61KQDCw5RZlIG1XKqRenx6ZR+JUN/L+t6NcnawZquxqRRZkomyRjNRjWlOh616eA3hyk9MV1/bnlsWNtZU/vn2lJyeAqd+vM0Xc9E2Zby4FqWMcwtzanpyCbk2NiBDvzfIUqNTi3LcLddW82sGvn18aXGIxtRyI5Qkvu5d3SjEz+fpLAD4XQjFyuW3AYNB0DgDhCARe0OQK+st2zYsCG1adOGrKysqEOHDhQQEFDgo9jY2FDv3r1VzbYCTzLosLS0pAceeIBmzZpFHh4eBj3F2xSh5uvrS7Lagggtc3NzowtlX8bt0aOHWpTesFMSLJydnalr165qpYZGjRpR27ZtSUReuTT+vrNxqUVeXT3JoqY5OTS2J9e2LmRmaUZenb1ozPLR1ObpNuqLUu4noqzjix3o4b9HkWtrF6JqRFY1Lcm3jzf5DvChmnY1y2VahoPUYlHoN8iXfHrWJ0u+P1r5EBAx5N7OnQZ9OkB9yn5xWzXzakqkeXbxUH8Txb2uJOdZ1bKk+j29yNq+Jtk416L63b3Ikv/W0EAABO4eAvg/8t3zLu7qmWRlZVFCQoKySoklTaxosi+rG5RX8/Pzo27dutFPP/1U4iElQWLz5s00cOBASkxM1C82L8e3bNmiypCISJs7d+5tY+fk5FB0dDTJM8bFxakfqTUnJUzKo+Xm5LI15CrlsJUqLTad0uLSqQZbzK6l3WLn1cOTTvxyglKiUsnGoZaybBjeW6xt615eT+bVLSgtPs2wq1y24y8m0B+j/qacrOuUkZxZLmNiEB0BeZ8+LLIvbbp8VyGRf6DI32JORo76lH8g5GTz+0/KhDXtrnpTmMy9TgBC7V7/Cyjm88sKBiLQZG1QTaTFx8eTiBytiQuxffv25O3tTeL6FKuaYRN3Yvfu3UkE2dmzZ5V78urVq4anFLot13fp0oXq1q2rzhMhJS5OsZbJuHJ/mc/Ro0dVRquItOI0OU/EXXJyMiUlJSmhJvcS4WbYnJycaOjQoWruBw8eNHp2w/PybosLKSMxgzKTs9jVmanEmjVbxa6zKNJaPe+65NjIka7GppFzM2eq61OXbuTcIDMLM/LuWp/q1udnZgNf5pVMurTtMmVdNZgbG2nqetQhn74+yq2afDmFYk/HUujeMMpmMWhmbkbOTZxYLPhQHa/aFHc2nqKORVP08WiyYOHn08ubhWMNIsaVFJJEYfvDKeea7r1Wt6mu+sU1KyJSzq1uW50urr9ICUGJ+i90cdV6dfXSjcMPJa7TkJ2hxXbX1WIx49XFk6rX0a09ey39Gl3eEcICQidKa7vaUv0e9cnOtx6lRl2luDNxFHUiWu+iLazf3MKcnJo6KYumiObLzC/+QoJu7kWwE2tmYWy191faT7GwOfjbkyc/ew1+9thTcRSyN5Tk+fNr4qL2ZqunvNPQ3aHqnahjwsa/HsWfSaBLO3R/H7YutuqZ407HqfO9e9enrNRsuvDvRXap8393bOnNSuG/SXaty9+VuZU5ZSRkUnaqwd9WfpPAMRAAgQolAKFWobgr783EcibxW7Vq1aKYmBj68ccfyVCoietQ3JYimPJrEj82b948I3epWLr++9//KlH39NNPqxgxEWEfffSRWjUhLS2NFi5cqISRxI+JNczFhV2BN5uIqsDAQCUe33rrLTU36Zo5c2aJSo+IZUFi1j777DMKDw8niXHbt28fyf21ZmFhQSNHjlTFgc+cOUPPP/+84qD1F/Yp40ceiaK9n+2n5IgUClofROH7wllE3foytqhurlxQUSyevLp7kjkLtOssOuULOeCBBhQwzF/dIvHiFYo8FGUk1OSLftjXQ5QI0+Yhgm/l06tJLGW+vX1o4Gf9WZTp3MEyVvj+CFo3eT0fs6T2E9uqL3m5NnD1RYo4Emkk1No934bj5WryF7kFiatMWtOHG9Pq59ZSzNlYcmFhOeizAUb3l2dLupxcpFBTrsG27jRgbl+ydb4l7EXQJgYmUnpCOnl18qS+s3sb9SeHptCKZ1dTUmhSof2pLC5bPd6SOr/akV3ZrLq4yfNufH0zXdwcRPZ+dgWyiwuMVyKqILbSX1gTgdfhxfbk1tZVcZM5CLfca7l0dtl5CtocTAGD/anXjJ7sbrz1v+LzHMe448OdlJ1x6+9D7mPjZEP9ZvYmj64etPvjvcwmg+z53Q+aN4AcAuz0U7m0NYQ2TdtCdTzrUI+3u7E4yyJrR2v+B43Ole/Xz4fWsnVW2Kbw3+Oej/dRzIlYdsVXU3+jV2+KY/2A2AABELijBG793+GOTgM3v9sJiNXp2LFj+mlu375dvy2WrPHjx1OnTp2U2Pnll19UvJiILGnW1tb05JNPkqurq0ow2L9/Pz366KM0adIkVXA3NdU4SFrizQzjw0QEvvHGG+rYs88+SwcOHFDjjRs3To1/6NAhFTvXrl07JezUwRL8EiEVGhqqfuSykydP3na1PL9Y0eQ8eXaxvhW7seVCLFXyIy3qZLT61OKVtKBtCeR2a+NKbu1dKee6zhooVrd1r62nTe9soX4f9CGHRvbqWu2XjOHcwplqcQzcpmlb6cyys6pLvtTFWiJWEok7us4Wmn8eW66sUBI0LjFpWVezVQLDz0N/pdoutWnEomHasEaf8j5qssUseMtl2jFrJ7k0d6G+H/Um+4b2JF/q3aZ2YSubFa2dtF5ZcxoODaDu07oajVHQjoizbm92IbnHymfXUPjBCGozvhW1GtdCXVLbzZa6cv/19Ou09P4/KPZcnLIC2vvaKStlof3sLhbrZNtnW9HFtUG0feYOql67Bg1dMIgaP9SIIvhehbErim1Bz2R0XKcNjQ7JjjxvXa861P6FdpQQmEDrX9lIV9ml3fapNtRhUjuKOhpNZ5ef018nFtfW4yUhxYW2Td9BZ1ecUzGNbZ5sRbZuNrRywhplCW05tgV1nNSeXFu6UNZN17okqxz55igd/fk4tXmyNTV5qCGJBVKEmrjUz/8bqL9PUlgJ/q71V2EDBEDAlAQg1ExJ9x4ZW1yCffr0oV27dtFvv/1G4s4U8aM1BwcHEhElgqxJkybk5eVF3t7sbmOBJ25QycJ86aWXaPLkyTR8+HB688039RYxEWwDBgwgCfAXi9qePXu0YSv0U4SaCML+/fuX+32vsWAKPRajLGpidREXmAgLH45rKqoJ5xTO1MzJzqFe7/UgFxZtp34/TXHn40ncfOL2Swy6Qlb1qtPwhUPo+I8n6dyq88qyJ66v4jS5R/TxGNr+/g5dDB271MQtKy5QpyaO5NTciY58d5SCt15S9yzOmHKOCCHXlq5kz9agvXP3U+ieMONLWcyIO1hEilgjxV0pcxa3asyZWHW9Rwf3Avvl2SVpo0Zddutyazi8oRKu4k6ux65lK+ZcGDtxexbabzzb2/aSwpNp41ubKWBAA+rzYS/1jIEbLiiXqzy7HLdxtaETS05RCmd05rI4F7dk45ENlRXuwr8X1Ji2HrY06PMB6nm3vrudzq8OZCGfwwLNltzauVJ2SrZ6D3VY+Akrc7ac1mtQj2LZSibtzB9n6eDCw3Qt8xqlRqYqy6gFEgYUG/wCgcpAoJzS2irDo2KOpiIg8VzyIy7B/ALwxaImPxKz1rlzZyXqPD09affu3SrurbB5iVCTcyVGTtychjFxhV1XmfquczxY2K5wSo9JVzFYcWfiOcYsjjVJMZQUnxJxOJLWsTUr4VwiNRvThMYsG0XDFrAr1L22+kI/9ddp2vr2drrOYq7Tyx3oiY2PUbdXxQqmiwcrDqv4swn68iG5WTnsvstRViERCyI64s8llEikyT3l3dp66USfWJVue7cslKzYUictky0/muVRHbj5q7B+mZfEzkkT4eLDMVpe7Da8yjFuUYei6QYLo8LYCf5C+2/OobQfFrV0/07O4uQN7dkkNk3cxjXtapAZW0OlictWXKPippTYPI2TlbUlyRhWtpYc4+ahsoJrs6gL381/S+z6lqZE9okYJdJkXyy0hv+IkmNoIAACdzcBWNTu7vdTqWYnZTukiaVM6qxJ5qQ0saSJq1BcimIty6/umpTnyMjIUF/e4hbK2+RLXX6kOTo6qtIf+Z2X97rKsi9u0YiDkRQwogFd3h6qhElx5y6WmJA97LrdF0YODey51EdrNU7jU41UzTX58hexdm7leXJv70YdX2pPLZ9oQVGHoyl4+yW9SCju/W47j1+XWK+kWdtbU6PhAUrE3XZeAQdEUMmPNEkqkKB3sWaJUJIgd2kOjRzInK1NhgkYcrywfrGCSh26axnXaR9b5CTIXhNEcq3WCmMnSRVF9WvjFPSp5szPUs3C+O86M5GfjY9bc1kM+dvOyc2hGrWrswWwOsWfYotopi6hQzKGA1ddoBaPNae+s/rQ+lc30BWOzcvmxIDs5GyKPRlHG9/czMkqOlbaPDzal7zMjXZt3k+pnyj/WLp2zThuLu952AcBECh/AhBq5c/0nhtRkgokwUBclKdOnVJuTikgqzUpeSGJA7IQ/EMPPUTLly9XFjhJPIiKilLB+/KlKuOIuJPMUblGEhDkCywiIkJldo4ZM0aJwGeeeUYf2yZZqHlb/fr1latU5iTZnIYWBBlP6q2JK1XKi8h95N5FNblOynt8+umnKqlizpw5RskGRV1fVL9k4+36ZI9yIcoXc/0uXvleYmljqeLUxJKSHJpMUmurNcd0XWcxIlmSV1jwBW0I5gxQb5WIILFoItyi2bUq8V+S7RmyLZTrczmqa/PepJaTtXI3pnFWoGR5FtaEa0pYigqObzK6kUpAaP5IU/Lo7G6UKFHQGMI9NTRVzaMZXyflIdpwPJkUBM6+eo0tSmYUfTKGYtjt2nxsMy4KnKGSMMz5vDqetSlkd2iR/WHsTm05rjnHfbXnbNu0m1m1TuwSdaXTf56mBkMaFMhOMmKFXUFsC3ouw+PCSMqd3LiRS17dPCn8QISKDxRLZGLwFUq4kEgt+NkSzidwDGMytXmmtYoHlIzZa1wqQ1puNq/NuzKQ33cK9XinG/WZ2Ys2TN2s4gODN1+m1k+3pKYPNaGz/5xVRZIlO/Zq5FVK4xi0sjb5x5D89zh//nz136qEKISF5XFRl/UmuB4EQKBQAhBqheJBZ3EISA2ypUuXkmRefvHFFyTV/6VshiQXSJOMUUkwkIK5khQgP9pxuUaauHMkxu306dMqE1SyQaV9/vnn9NdffymhJzXSJEZMhNvKlSuVMLSzs1NizlBsPf744yQ/kv0p9zUUalLKQ2Lh5EdWVZD5Gl6rbprPL03g2draqjg7ceUaZoXmc0nJDnEJD6mPJj+adSm/AWxdbGj4N0NIsj9XcFanrFBQs04Naj2lJfUwCOCXL32JdxJ3pyQgtHy8udFwkhgQeTTqNguTewc3GrX0AZX9KQkMRTURUkH/Bqu4KinoK+JALIOOHLtWVBPrVtj+MLq8JYT8uJCvZCOmcAzVebYe+Q3wJSlhEnk0kjMgd9GAOf2o61Td35OMK6JFROeVkCuF9icEJ7I17QBnVvZQLmFtThEHIunkrycLZSfWtMLYSpxYkY0tZvEcL3hhTZBySzd+oKG6RPhvYivYjlm7qP/sPnTfwqHqeA7HFR5acJiCt7Glk0We1uQ9SnKBuHq7vNaJer7dnbZM30Yn+Bkc+f12m9pZ/cj5cu6Wadu0S8v0KUJN/huTsAUpcC3Z1/LfX3H+mynTjXExCICAnkA1tjrceH61Ay0cg3A1PZVKvNG1te6LoKIfQQSQJAZ4e3srq5q4NyXLUyxamlVL3Jsi1sSaJf8qP3fu3G3Zk1L+Q1YFkExPiXmTuDRxt4jrRVYckDGkTprcT0p1iFVMG1++TNzd3VWffJGItUzrEx4istzc3PT9V65cKbZFTa6XLyyp43bp0iVVMqQ8vqxECFg71lJB3tnptwrgynHJ1tOWkBLxJhmONThrUdo1jjUSi5qICemTLE9xe0rgeWp4qsru1Fxh4paszRYoxwAHqs5utQQuexHLZTUMl4mSTFAJRrdkK5I0qa0loknKg8hxyRpNZSubiCsrays1l4ykDMrm4/JlLha66jZWFMsxVC0fb6GE26pn1qigfzVgIb8sOdbKpbmzymIU8SjB/pINKqJPLZXFekWsbU6NnVTiQRq7M2PPxqkaa5ors6h+cam6t+V3z3FfkoiQzEJWhFZR7IrqL+SxjLqEr1MTJyWa5b1Fc9yY1LiTJu/aoSG/G3Z7iqiTEi7yXHJv4WDJvJMjktX70t6TlG+5ypZXsdbJMUd2DcsYyZy1GX8uXh23qqV7T4bLk2lLk8m71e5vNNF8diSUQazhzz33HL3++uu0adMmCLV8OOEQCJiKAISaqcjeoXHvlFC7Q4+L295BAiIkWoxpTn79fVRdMLHiubdzo3b/aUNiscovbuoOThe3LgUBEeGSpS0WbqlxKJboyMjIUoyES0AABEpLAK7P0pLDdSAAAnSF46xs3Vuwa7Kvnoa49Xayu1Kz6Ok7sFHpCIjlWmJPxdX/zjvvqDi1SvcQmDAIVHICsKhV8heYd/qwqOUlgn1TE9DcgzW5XplyV7LLUnNJmvreGB8EQAAEqjoBWNSq+hvG84GAiQmIKEvlgq3ygwYCIAACIFC+BJBBUL48MRoIgAAIgAAIgAAIlBsBWNTKDWXVHkhWHnjhhRdU9uWGDRtUQdvY2FhV4qJ27do0ceJEtcSSLNxeHkUxfXx81LqgGzdupG3bthWaZSalM2QJK1k0XdbhlMzQjh070pIlS9S6oGXNzpSMwlZjZZ1FZwrkBbOlzldNXqT8wIJDXJfrKtXmFQCucd2v1NhUvctPMhlru9VWcVqq5AYHZfv08Cb/QX50ZNFRtVi6FDstryZzbDaqKdXxqK2K3KpsyfIaHOOUioC4hL06e1LjBxrRsR+PU/SpGFXgtlSDFXCREy+x1Y4XmU8OSeGVKRLIf6gfhXDBZFnzVTKC0UAABCo/AVjUKv87rLAnkNIabdq0IVmBoEOHDqquktxcSmp069ZNlecor8lIqY3evXurchvFGVOCnaUgrQhKKdshxXSlpEe5NBZUNrzoudQJs6hpTg6N7dUaklJstq5nHbp/8XDq/0kfVWZB7idf0A0G+tMjK0dTMy5EKgHZUubClRdcbzDEn+rWr1uiyv3FeQYrXrvRt483+XI9sppcfwytfAjIu3Rv506DPh2gPmW/JM2G69758Hsx1TuR+Xhw7bt6/nXJwtqC6nf34rIu1iWZIs4FARC4ywnAonaXv6C7ZXpZWVmqZplYq8SSJnXSpIaZFLO9000Kg8qqBrIEldROk7pPMq+kpKRCLXHFnbcsbi6rBeTwYuBpselcvyudavAakrI0kznXvpLm2JQXD/ezo/TDEbwuoyXV7+bFAu3Wv4PEunHg/w7SyaUn1fXlHWyfzmthrnt5PS/IbaGK5hb32XBe0QRsuAabiK1Lmy4XfXIFn5GVmsVW2yzKiMtQdeXk70xWcJC/WTQQAIGqQQBCrWq8R5M/hazzJwJNlmzSRJqII22BaJmAuCA9PDyUdc3CwkIVxgwPD1cV1qWvQYMGalF2cZXKCgR79uxR4kqbvAgsWa7Gm4vmiutTrGpybPDgwWqdwZ07d+oXfRfBKFY9WXJK3J0yJ/kRcSZ9Uuj26tWr2tDqUyx/srqBPIu4b2UFheI0EVUZiRnqCzEzKVOJNamafz2T1z28KdSk2KtnJ3eKPh6tFkN36+CqG5oNME5cDNapuZNaKkmKzMryQEaB93xOXY86vOyTj3KrJl9O4UXZYyl0b5iuKGkh/Tlchd6zo4ey0hHrQln78tK2y5R1NUvdv7pNdfLp5c1f3ulqSSjZlsXYL66/SAlBvLwWP5s0EZcebDmS4rYyzo2cG7zsVDTFnuPF4W+eo04s4JcUlPXq4knV6+iEq4hYWdIqLU63OHgNLurq3bU+OTRxoGtc6FWWTorgJa2kYKu0wvqlYK9TUydl0RQBcpmfL/5Cgn5eUsTVu6e3Wpg8KyVLLWgfsitUf++i+gt4pGIftnWxJW9etkkKEidxwdlLWy/rCvXmM4K4qL271ecix9ZqaSzhW7Muz5+vt/OvR/FnEtSapPL+ivPurvHfU0ZChu7vk9cOzWCRJn+raCAAAlWHAIRa1XmXJn0SsVBJ/JmIHVlD88cff1RWLEOhNnz4cJL1OOUcaaNHj1ZxbaGhoTRkyBCaMWOGqsekTXTFihX00UcfkawQICsRzJo1S7kstX75FFHVpEkTeuSRR2jSpElK3IkFTQTh9OnTae/evbR582a1rM0nn3yiFn4XkThv3jw1T20sKdzZrl07dY3E0MnKCLLCQXGa3C/ySBTt5YW9pWp80PogteZkdprxAtX1e3jRmb/PkktrF7Xmom7sauTazpW6v9lF7co1SZeTjYSag789Dft6CIuk2vrpXOV1KVfyElFxgfFUWH9SeLKKgQoY5q+ulaWlIg9FGQm1ds+34fnU5Kr8FmRVy1Kd1/ThxrT6ubWqSr8IjX4ze5NXd0/9/WVjx6zdSqgZHcyzo1yDbd1pwNy+qoq+1i2CNpFXQBChVs+nHvX/qA+5MhetXc/KobWT/lWipJ53wf1h+8Op1WMtqfOrHfkfAqxYubXnmKyNr2+mi5uDlLu53+y+LEbra0PzigO5tPHVzRS44UKR/YWJUBHPHV5sT268LqhwkzkIt9xruarA74WNF8mZVxsY8Gk/FsoscG+2uLMJvHD6Rkq8lKgdUp9WNa147u2o3YTWdPbv83Rh7QWy87WjQfMGkEOAnf7cS1tDaNO0LWTB76uodycWtcPfHlXrmKby2qz75h1QIr+w59LfCBsgAAKVggCEWqV4TXd+khKQf+zYMf1ExIpl2MRi5uTkRGvWrFEiqW/fvmpNT4kb2717txJsFy5coFdeeUUJPFmSRoSXjCmCbfz48Wpt0M8++0ytzykLpy9cuFAJtbVr19J9992nfo4fP66scGJNkyWdNMuYuD3//fdf/ZTyLhwtYuvixYvqfunp6SSWvmI3Njol8WLn8iMt6mS00aUytjQ7fzuOF3Inn97eytqTK55P7jv+8wk6+uMxJTg6vdxBTtU3ETrOLZypFsfAbZq2VQWBS6csCSXWoaL6xXK17tX1JOty9vugj1qiSD/4zQ0RqTXZ6iSFaHfM2snLNblQ3496k31De0q8fIVaj2tJ7ryQ+p55+9Vc7dmFq609mXesvPuyxFE3FqFyj5XPrlELv7fhReJbjWuhTpVljDqwOLEPsGdhtp6CNger4yLOZAkjWY6qsH7nps7Ulhdqv7g2iLbP3MHLLNWgoQsGUeOHGvEC5+GcPFGHXDm54+TS07Rj9i66zktrWdfjGC3mLmKlqP68z3Pbvk4b3n6Yn7cGWyYlkL86r7/592MrKIqXv/Jhy15/Lv7blsXY9pk79dcJ/y5TOlHLJ5rTiSWnmPU+Nb82T7YiWzcbWjlhDa97Gk4tx7agjryAvGtLF7WcVGHvTqxxYqGVdUG1dv7fQG0TnyAAAlWEAIRaFXmRd/oxRMjt27ePPvzwQyXEDh06pNbxFMuXrO0pa2xKFqYs4C5WsnXr1tGDDz6orFxHjhxRWZuyKPtvv/2mXJaa+JHnkrU1ZX1Bsdj9888/SnANHTqUTpw4odYDNTy3MA6ymPS4ceMKO6VUfeImFCuIe3s3av9CO2VNk4XKPbu6FzmezD0lPIXEhdnrvR7kwqLt1O+nKY7XfFRxRiwUCu0v8g6iWdiNeTyGtr+/Q7k/bdiCJnMWF6gIQom/Ct0VRqeWntK5WnW6s8iRRUS6tnRV62/unbufQveE3XaNraut4nKZ+YTsDtXHTiUEJahz7dmaKNzy6xeXZ8P7AqgGF9KV1nB4Q7VWp6wFWs+nrnKXZnBsXipbH5s/0lS5Ho//fJLCDobr1zEtql8NXMAvsVZufGszBQxoQH0+7EXyjGKl06xVsnaqY1MHCt0drqxYsnZo+KEItSi9czMnFse6eVvUtKCe73QnKxtep3bRcdr/9UFl8ZSkEje2tmanZPM6oI7K7VzPuy7HGZpTvQb1KOEiu3cLeXcFTBuHQQAEqhiBW9HOVezB8DgVT+DkyZP6RdYlTkxckJKEoGVfJicn64P7xQKWlsZuMY4xE7enZGvKIuxi7crbZIzly5crgSfuVFkYXdyhYmmTuLQ73eSLO/ZkrPoRF1gWB3eH7Q3n8gjFCOhmURRxOJLWsbUp4VwiNRvThMYsG0XDFrArlMt+SAmPQvuL+fDx7I6ThANpuex2zOWgc2nW9taq1Ej8mXi1wLo6WMxfYkW19dKJvoTABKN4RW0IS47JkkxZiZvKZZdk3lZYvwhBiS+TJsLFp3d9jlPzoKtRVynqULQSfcmRKbT+lY0UuPYiefb0pPu+G0qPLn+Y3Fq7KWtkUf1551OSfQtO3LBk96TEBWrB+xLML+/fkkWZZQ2dm1nGFJGWzSVcxIWena5LwLHiEi4WtdgdbWup4uska7e2hy2Fs/BLZ/GptYLendaPTxAAgapNABa1qv1+78jTiUBr1qyZSjw4d+6cEmRicRNBJl/usl2nTh21yLMkFWiZo1L2Q5okEAwaNEiJONkXq8L58+eVFU5i4Hr27Kniz/bv35+vOJBrKrqlcbB+MAeRu3V2o8jDUewmTVbzLs48RMCE7Aml0H1h5NDAnto83ZoCRjSgxqcaqZpo8uVfVH9x7lPYOWaW5qpbkgqk1luNm9agwq7R+kRQyY80SSrwZkFFN12GWezezGKLkUMje47zslKuSe06+SysX/5Orsak0bWM67SP4wMv7bist2YZjiGWp3WvrCfbj22pKZdDEbejxHZtnLpJJSsU1W84Vn7b4k4VwVzNwtgPqubOz2fDrktzK3P1bJYs3qSUiwT4awkdOSyMj/1yivwG+FKfD3qyYMumMHbbZqdmU3ZyNgv8uHwXsK/tcitmMb954RgIgMC9QQBC7d54zxXylOLebNq0qcrufOmll1Rm54EDB5Q4k/iwsWPHUmBgIIWEhJDEqEmMmWRyRkZGKuEliz+fOnVKuUPlXMMmVjWJQRP3p62tLf3666/KjWp4TlHbEvc2f/58JRynTJmi7lvUNcXtF7F1dvk5CmdLWjpbj6zt869lJm47ye7L4mxHSUwQS0xrjum6zmJEsiSvcBxc0IZgzgD1VrXXxGojwq2g/rzzE0uOiCKx1CSHJuftvm0/ndflTGPrjR/XX4s7FceJDy7UfGyz287L74AIqdTQVJXN2oxdj5LR2IbjyaQgsFiPzNiFl3ohlS5tvkytn2pJXV/tTKf+PMNu11yVYBB3No6S2b1YWH8YZ762HNecOnDclsxTkizErejKAf4nfjlJbq1cyYHdj5LgkRCcSMEcA+c/yFeVRpH4roaDAgrsz++Z8h6TfyRIZuqNG7nk1c2T4+IiWIxac1yZLUVyTFrEvkgKGN6AGt3XUGWjNhjcQM3t2OITJG5XaWJxjTgYydm4ITRwXj/qx4kV615aT3EX4nm+zObplkpgnv3nrHKb1+cM0KuRV1UGcd75YB8EQODeIwChdu+9c5M8sVjKJG5MfqSdPXuW3nvvPVXSQ74wJaNz9uzZKkFA+iVObcGCBbR161ZlFVu6dCm99dZb9MUXX6iyGTt27FDJBXKuNPnCFNeoxLF16tRJZXrKGMVtMgdXV1dVQFcseOJqFYFYnk1X0ypTDSnlO/JrFixeenMsmmR/ruKsSynnUZNLV7Se0pJ6TOuqv0Qschf+vaiqyxfaz3FRhs2WC6wO/2YISfbnCs4aLaqlRqbSySWnqdvbXWjQF/3ZKsRxVux6c+voVtSlSoCE7Q+jy1tClNDz6+dDKTze+VUXeN+XhIHE3h3+/ijZuttSE04AkB9pWtZnPFvDCusXS+K+zw5Qrxk9lEtYm1TEgUiV+CBWLhGBkkmpNWG7f/5ByuQSF4X2c8ZkkY0tafEcL3hhTZBySzd+oKG6RBIzRLQd4HgzG+da1Ovd7kTyw+3i+mCVPCLPqDX5+408Eklbpm2jgZ+xWOMCyf9O3kAnfj1Jjiysu03trH7k/OvMTM5DAwEQAAEhUI1LLdx4frUDLRyDcLWq8CfRtbXui6Qin0VclZ6enqp+mdxXhJBkVeatUybuTlndQOqoiStTgvvFKiNNqvf7+fmRt7e3sqpJ7JkIK6mHJj/yRSf3+Prrr5Wl7oMPPlCWMXVxMX/JPEXkSUkRsfSJla6sTVyFslRURmK6PgZMxlTHOcYsk60xYrWS+VvbWXPwfi2VISkWOLGoSeajuA0lqF/cnrYco5QankpRJ6LVtTJWUf3aOVLHqwZnRUq7xu46zaImtdGuc3ZoasxVJa4k01LOlZi1axIvxSJWSlHU5UB2qd/m3MyZ+n3ch7ZN305nV53P192obnLzlyyX5dLcmczZfSpWJrEaSjZoGj+3WsqKxY6szCBlOsTalpORQzF8H7GmabFdRfWLS9W9rZtyMcac4WtZyErwvjQRsnaclCCWSgnMlznI0l5a0H9R/Tcfo9APeTYnLsUh1krhGn0iRpd4wVfJu7bnMhu1efmuK5xFmxh8Rb98k8TY1XKspQomZ6Zkqncp7CWRI4Nj22Se8uyOjRzIoaEDJXMdtvhzXLyZ/27knoW9O41toRNHJwiAQKUnAKFW6V+h8QPcCaFmPIPy3RNR5+/vr+LWnn76aWrcuDG9+OKLqgaaiB+0shGQ5ZHEmhO45qLKDK3Loq4DZ65KjNmq59ey6DCuBVa2u+FqEAABEACBkhKA67OkxHB+hRKQOLaPP/6YvLy8VNmPt99+W9VCg0grn9cgBWkluN3Q7Spu0y1sTRPrEBoIgAAIgMCdJQChdmf54+5FEBD36HPPPadco1LENq87tYjL0V0EASniu+yplcp9KAuISwFdiTPTXJJFXI5uEAABEAABExOAUDMxYAxfNgKy3FNwcHDZBsHVRRKQmCht3c0iT8YJIAACIAACFUYAGQQVhho3AgEQAAEQAAEQAIGSEYBFrWS8Ku3ZknEpLkTJupQVAaTSv9QwE4sVGgiAAAiAAAiAwN1JABa1u/O9mGRWUktMVg2QBc1lTU7JoEQDARAAARAAARC4ewlAqN2976ZcZybrbEr25JNPPqkKz1avXp1cXFzUqgHleiMMBgIgAAIgAAIgUG4EINTKDWXlGEgKy0qpCyn2GhUVpS84Wzlmj1mCAAiAAAiAwL1FAELt3nrfavUAqfDPK1KoumT32OPjcUEABEAABECgUhGAUKtUr6vsk5VCsenp6Wphc0kwkLg1NBAAARAAARAAgbuTAITa3fleTDYrKRgrC6CLWFuxYgWtXLmSmjdvDsFmMuIYGARAAARAAAT+v70zgbepXP/4QxEKGY8xc6ZGjZJonogyNN+GW6Ki201pJlODK+mviQjNo8hNuRRCo5B5DiHJWKYU//V9eXfrHPucsw/nbPY+v+fzcfbaa73rHb7vOtbvPM877DsBCbV9Z5eQd+JBK126tKWkpNgvv/xiS5cudRuGJ2RjVGkREAEREAERSHICWkctyTs4bfMKFChgTZs2dePT2rRpY2zLJBMBERABERABETg4CcijdnD2S47VijFqO3fuzLH8lbEIiIAIiIAIiED2EZBQyz6WCZETOxHMmzfPSpYsaaVKldLYtIToNVVSBERABEQgtxKQUMtlPY83bdOmTZY/f34n1jTrM5c9AGquCIiACIhAQhHQGLWE6q59ryxLcbRt29Yuu+wyJ9AYm7ZkyRKFQfcdqe4UAREQAREQgRwnIKGW44gPrgKmTJliU6dOdRuyL168+OCqnGojAiIgAiIgAiKQioCEWiocyfvF7/WZvC1Uy0RABERABEQg+QhojFry9alaJAIiIAIiIAIikCQEJNSSpCPVDBEQAREQAREQgeQjIKGWZH16ZLHiSdYiNUcEREAEREAEci8BCbUk6/uGjc5JshapOSIgAiIgAiKQewlIqCVZ399170NWpVr1JGuVmiMCIiACIiACuZOAhFqS9XvBQoWs/9B3rUnzFqYwaJJ1rpojAiIgAiKQ6whoeY4k7PJCgVh7oHPPJGyZmiQCIiACIiACuYuAPGq5q7/VWhEQAREQAREQgQQiIKGWQJ2lqoqACIiACIiACOQuAhJquau/1VoREAEREAEREIEEIiChlkCdpaqKgAiIgAiIgAjkLgISarmrv9VaERABERABERCBBCIgoZZAnaWqioAIiIAIiIAI5C4CEmq5q7/VWhEQAREQAREQgQQiIKGWQJ2lqoqACIiACIiACOQuAhJquau/1VoREAEREAEREIEEIiChlkCdpaqKgAiIgAiIgAjkLgISarmrv9VaERABERABERCBBCIgoZZAnaWqioAIiIAIiIAI5C4C2pQ9yfp7519/WY9uj9vOnTsjLcuTJ48dcfgR1vjcxlbvpBMj55P54OuvvrHPxnxmZzQ4wxqdfVaONvWXn1fbSy8OsNKlS9ttt7fJ0bKUuQiIgAiIQO4iIKGWZP39185d9vmYsVFbNXLECOv00P124cUXRr2eTCeXLF5s//vkUytRokSOC7VNm35zzCtVqSyhlkwPkdoiAiIgAgcBAQkiJmObAABAAElEQVS1g6ATcqoKLwx4yQodXtC2bN5qz/d73mZMn27vvPVORKht2bLF5s6aa9u3/2G16hxtxYoXT1WV8Z9PsDrH1LFSpUq687t27bIli360Qw/NaxUrHWWzZ8224JTVql0zOPf3o/Tbpk02e/Zc27hho1WqUslq1jw6ku+yH5e6Y+6fM2uO5c2b12oG9+P180Y55P3bb7/bcccdG7ShkL9kf/75p82fO9/WrPnVqlWrYhWOqhi5lt7BT8tX2KKFi6xKUJejKleKJMssr59XrrIli5dakSML29FBG/Llyxe5F3ZzZs62wwoWtHyH/n3eJ0iP7fZt22zFT6uscNHCVqRwEZs6daqdXv80d9umjRtt6vfTrTL1DPiEmfh89SkCIiACIpC7CPz9ds1d7c4VrS1XvqwVLlLYtbXx2Y2cUPMh0VkzZ9mD9z1gvwXeIG9333uPNW3WxDb/vtk63NEhEGWL3aUzGzW0rj262l9BWPWWG2+2wwoUcJ6qlStWuOtVqlW1Ps8+bUWKFrUp33xnDz/4iCFIvJ1ev7517tYluC+/3XjdjZF7fP4pZcrY0DeHOiE0fdp06/roY7Z+3Xp/u7Vrf4e1urKlbVi3wTp17GQL5s+PXLsg8A527NQxlVCMXAwOJowbb2+9/kbk1K3t2tjV116daV6DXn7FXhs8NHIfB/fef59d3ORiJ/ru+/e9kTqWK18+VbqM2M6dO8/uvvNfVq1Gdftp+U+O02cTP7duXbqn8oSWKl3Khrw+xAoEQlAmAiIgAiKQewloMkES9/2w94fZW2+8bQP7D7LXhr7qWnre+ecZ49geD8axIdLOv+hCu+mWm9y1Pr1626rAizRi+Agn0h7r2S3wiFW2ieO/sJnTZ0RIIcIKFipol17WxJ1DcL3y8hAnOrp26eo+EWc33HyjE4pfffmlvfv2u5H7Odiwfr1dec3V7vrqn3+2yRO/dNcHvjTQCSDEGcIIUThowMDAK7glGAfW34m0OnXrWts7bzfEzOhRnwYhzv+lyjv8BTHZsnUrQ2xiQ1/ZLb4yygtvmBdpd9zV3q5o1cLd+87b77jPvr37ujpSPnmvXbvWnedHZmx9wkULFjpOJ9Q70b6fMtWJNMTbk0/3sgZnNrA1v6zZi5m/V58iIAIiIAK5h4A8aknc14MHvpKqdRWDMGGrK1vZypU/m/eGnXDC8Zb3kCCUGVxbvmy5TRg/wYUsuXHyxMnWrHkzO+X0U61YsSNT5fVEryesRMkSQdiztvV+spdNmzbVZv4w04k/vHg9nurhQndFAy/bs3362vhx4+y6G66N5NHn2T6RMOTbb7xps2bOdGPJtm7b6tIM/+BDNxHgnvs6BuHPYyxf/vz2zVdfuWuIm6JFiwRl13KChjrj6YpmJ518st3e4XZDfDUJBCcik5BnRnmdc97Z1jvwEP66Zq1tC9Kv/Gmly5rQJPfPnLFbtD7Tr6+VLVc2qFs+e/O13V67zNhSZ29D3hjquH85cXe7EG8jgnbXDoQoIrdkIARlIiACIiACuZuAhFoS93/nbo9ZocDzteKnFfbKwEFOiA37YJjVrPW3WOj1xFOpCGzauMmaX9HcpgZenk8/HuX+FStezLwo8YmLl9g9nq1KlcruFCKGcWNY5SpVI+OrqgTjyLBfVq92n/5H2fLl3GGhQgV2nwrGumFt2t1mT3Tv6YTke+/s9sLhQevTr08k1PjGq6/tTrzn5/r1G1J9D3+pfnQN97VQob/Huf0VCDUfWo2eV157ZcArEUEWDm3i6fKGSMNODYSsF2q//rqbAeejseU8hvcMcYydVv8Ua3TO2Tb+s89t0sRJ7t+rQ4Zapwc6uZm6LpF+iIAIiIAI5EoCEmpJ3O0sxYF365TTTrFFixbZf0eMtB+XLLVGjf5ermL4xyNcGgbcbwomAZQtm+JEWpNmTQ1BM+z9D5zAGz5suLW9o22E1tTvplq9U+rZnNlz3LlSpVOszB7hMn/ePOe1YoKBv16+QtpB/3kiefmDbVu32s+rfrZb2tzqQq7fffOtvfn6m8HEgln2bbDcBqFGhBLhwVNOPdmNM1u5apUVKVLEZ7HXZ7QB+Xny5M0wr/HjxzuRRtj32ef62sJgIsI9Hf7t8i65Z2IFX5gYweSEhQsWuWv8KJNSOnIcje2ywGuJHZb/sEi6HwJPZL2T6gXjA5vaurXrbHQwW5W2vxqEq1lSRSYCIiACIpB7CUio5ZK+Z5kKbOuWrZZStowxAYCxZV0eecyqVa9qHw3/yIX1Xh4yMBAps+zDwPPW4e67rHjxEk6o8Rm2XkG4s3bdOjZu7Gfu9FmB+Dvm2LqG94mw6j//cXMwm7O2jfl0tLt+0aXRQ5PhPBk4/8F779vSJT8GocxLrEaNGoEIK2xrgnBjpapVgrFbZ7p69e39TBAmbWxjRo92wo16VqiYekB/ON9oxxnllZJSxt2y448dNnHCJPsgEKsYIVPqeOJJJwVidoq1v7291QtCq3jCvGXG1qcLfzI7lvGBsEMgp5RJcZeLF0s9Czd8j45FQAREQARyBwFNJsgd/RyMJ9u9xMbU76cEguMv69y1swu/ITjeCwb6M/bqX8Gsz6qBgGt9dWsj3MjYsunTprnjFnsG1HtcpVNSIiKtYTBQn+t40Lr26OYEB+PdvEhrdVVra7JnDBmTA6JZnry7PWxt72gXCJUyNmrkx658PGgtg3F15YNQaZt2t9pZjRs7Ifjma687kcaEhibBTNW9bW+PXThNRnkRijz2+ONdOYQvy5ev4G5l8gXturfTPS5syXdEGoP/veHBy4jtIYE3L601PKuBC30icPs//6LzfOI9bNe+Xdqk+i4CIiACIpDLCORZvXr1rrYjS1r/q/Z+geQyFrmuuaxXtjpYVX/z5s1u3a7wOmHAmB2sE1YymDBQeo+HB4/SBY3PdzMxR40ZFYw7W2P5D8tvRx5ZNBU7n+/GDZusUuWK+7TExOKFS2zHjh3BYP0Ut+xHuIANgQdq9arVzot2+BGHhy9l+TijvGBTsGCBvcqnENq4fOmyYI21I/dqv7+eEdtoFUX4LQ3yZKIE49/Ca9NFS69zIiACIiACyU9AQi35+zjbWphWqGVbxspIBERABERABEQgKgGNUYuKRSfTI0BINL3wZXr36LwIiIAIiIAIiMC+EZBQ2zduufIuQnH9XuqXK9uuRouACIiACIjAgSCggWkHgrrKFAEREAEREAEREIEYCEioxQBJSURABERABERABETgQBCQUDsQ1FWmCIiACIiACIiACMRAQEItBkhKIgIiIAIiIAIiIAIHgoCE2oGgrjJFQAREQAREQAREIAYCmvUZA6RES7Jlyxbr26u7TRz/uW1Yvy7Rqq/6ioAIiIAIiIAI7CEgoZZkjwIirc31rWzJ4oVJ1jI1RwREQAREQARyHwGFPpOsz/GkSaQlWaeqOSIgAiIgArmWgIRaknU94U6ZCIiACIiACIhAchCQUEuOfoy0QmPSIih0IAIiIAIiIAIJT0BCLeG7UA0QAREQAREQARFIVgISasnas2qXCIiACIiACIhAwhOQUEv4LlQDREAEREAEREAEkpWAhFqy9qzaJQIiIAIiIAIikPAEJNQSvgvVABEQAREQAREQgWQlIKGWrD2rdomACIiACIiACCQ8AQm1hO9CNUAEREAEREAERCBZCUioJWvPql0iIAIiIAIiIAIJT0BCLeG7UA0QAREQAREQARFIVgLalD1ZezZB2lWgQAHbtm1bjtV2X/M/4ogj7JlnnrHChQvbn3/+af/85z9ztJ7RAKRX98aNG1ubNm1sx44ddsMNN0S7NdvOnXTSSdaoUSMrXbq0vfnmmzZ9+nSXd0pKil1wwQVWo0YNGzFihH333XfZVqYyEgEREAER+JuAhNrfLHQUZwLXXHONde7c2f71r3/ZqFGjsr30QYMGWYMGDezEE0+0LVu2ZCn/UqVK2Zlnnml58uRx9xUpUiSuQg1h9MUXXzgu8AnbOeecYwionDRE4pAhQ+yEE05wxWzYsMG++uorJ9Rq1qxpw4cPj7C58sorbeTIkXbPPffkZJWUtwiIgAjkSgIKfebKbo+90YUKFbIzzjjDiRZe3oiXvHn/fmxKlixpZ511ltWqVSvV+Xz58tlRRx3lPFJly5a1+vXr71VoxYoV3bny5cvvdc2f4NrZZ59tlStX9qfcJ54u8qec2rVru/JTJQi+IHawokWLus+s/FiyZInL88cff0z3NjggWvBwlShRIlU62kb51JPrhx12WKrrfCHNeeedZ3inuJ/2HHro7r+dEIpYmTJl3Gf4x6OPPmrr1693p4oVK+byh0N22hNPPOFE2qxZsxz/0047zT788ENXBGWPHj3abr31VmvatKk7d9FFF2Vn8cpLBERABERgDwF51PQopEuAFzFeEu9V8gk5P3HiRHvrrbfs+OOP96edx+mOO+5w18aNG2eIOMJzXkQQ4kTo/fbbb/b000/b+eef7+5t37693Xzzze7+Sy65xH0icD744AMnXnwBK1eutGbNmtn27dsjobY//vjD8ufP75LMnTvXXUfsfPTRR1alShV3HoHx119/2ezZs+2WW27x2e3XJ+0ePHiwIWS9ff7559a2bVvr06eP0Q5s586dTsDy2a5dO4ML9vrrr9vJJ5/sjsM/xo4da5MmTXJeRs4fe+yxNnnyZFf/u+++O9Jufw/XEIzk7/vFX8Nj2alTJ1u4cKG1aNHCn870kzZdfPHFtmvXLlffc88919WXMrBffvnFOnTo4MRny5Yt3Tn6VCYCIiACIpD9BP52jWR/3soxwQl07NjRiTQEyHPPPRcJ/REGZGwUYgXxRYgMEYTH7aWXXnLi5fHHH3etR6R99tlntmrVKnf9wgsvdOfxcnnP3CGHHGIFCxZ0171H6aGHHnIibcyYMYb4mzp1qpUrV8769+/vhNqnn34ayf+9994zBBtePeqGMcbMG/Ui/7Co8tf29bNv374uv2effdbgtHbtWud5QghSR+qDLV++3Akt2nrttde6c7fddpsTaYhYxN6KFSvcecbCPf/8867u1BnzbDwfdzL0Y9myZY4v+ZNv2AhJks8xxxxjeN5itbp167qkCHTYP/zwwy7kmdZr+OKLLxrePez+++93n/ohAiIgAiKQvQQk1LKXZ9LltmDBAuclQpDgJZo2bZp98803dvvtt7u28hLv2bOnXX755U60IbQIkzFmCUPI4UnipY4RRsUYnD906FB3zKB9xpFx7ffff3fn8JxhjMXq3r17xDtGmBP7+OOP3SeD2xF13377rft+6qmnusH/DRs2dJ4kThKWI388TN4QgDNmzNjrn6+fTxftk3FbhHPxOF1//fWu/MMPP9wlxUs4Z84c27Rpk/t+4403Ou8TXxCSGGPMMDyGCNqrrrrKfWcc3cyZM53Y9efgTd3xvuHFTGvk70VS1apVU11+4IEHbMqUKUbf+VBpqgTpfPHhVjxojzzyiGsPXsu03sinnnrKtQEOCHkvvNPJVqdFQAREQAT2gYBCn/sALTfdEh5bheeHUBqhL29eoPCSxvuDeZHC8datW/mwjRs3us9wGNWH0sLeHjxweJq8EQr0+VHG/Pnz/SX3+euvv7pPL/B8HcKJjjzySOfR80KCctetW5fK6+bT+3z894w+CacOGzYskgQxwwzIsP38888uLMk5Xz4D8zHGt2F4vNKaZxP2DKZlwz14Kn2+afOADUIWb2dWDA8qRn+/8847rr/xlKYVsQhSxCBjCOlD2sM5mQiIgAiIQPYRkFDLPpZJmRMD3Jnhh0BiBiXhL7w4DCZnfBIeF5ZvqFOnjhuLxjgyvDje+8JYMyYb3HTTTY4PkwoYZI/Y8yLruuuucwPXyYNQHeOyCHXiTWvcuLGb+cgyEPXq1bM1a9bY+++/H8mPNHi48OJhhGR9WNQLIkKRlHX00Uc78cGyEq1bt3bp0/vBGCy8WIRbsX79+jmv1IMPPui8Xni/CKXiwfN1xdtH/RGviEOMcCQhTYxziB28T7SLeiOkfJjTJdrzg1AqVr16dXv11VetWrVqjj0cEWZwxfBM+nAx+cP3yy+/dNdeeOEFJwIZ/0c9vVh2FzP4gVilfypUqGD33nuvm/BA8jfeeMPd1aVLFzcW8Ouvv3YhXkQaoV68rzIREAEREIHsJZA3e7NTbslEgJe0H/t12WWXufFfDIYnzIhAY+wZIoFQHuEywms+JOqFENcJmSK+MF7qCCaMsWUIEoQKoggBgkcKYcM6YYT9mJBAePH00093Y9N69+7tyjzuuONcHuTHzEMvjAgT+skLhFTxziEMEYF49xBtsVirVq2c+PMTFRiPh7higgL1IzSJmMEbRv0QaXjPXn75Zbe+mBdPV1xxhTFWDOMcszx/+OEHJyiZ/LB58+a9JgiQlrxZDgMPJCKLduIZgwkD/X3+cKauGOf8BA2+e8HGQH/KyYox9oyQJoK7UqVKLtz97rvvuiwIzzJmDk8aYw7Jn2VWvCDNSjlKKwIiIAIikDGBPKtXr97VdmRJ63+VNFvGqBLjaoMTd4fTsrO2LB+BBc/KXtkiDhAvXPMhyr0SZXICEUKoL5rHB9FF/iyXEQ6JZpJlqsuMJyPUyWzR7DY8W/BZvHhxJMQZSxmIUsQt3ivGzjGjkzwQYWFDxDLxIhr7cLr0jvH6ZXUNOZ8XfUs4E29qNPaIU8RvRkuY+Lz0KQIiIAIisG8EJNT2jdtBe1dOCLWDtrEJXLGBAwe6pUrCTWBpDz8+LHxexyIgAiIgArmXgMao5d6+V8sPIAEWlGXHAZYTYdwdYUUfqjyA1VLRIiACIiACBxkBCbWDrENUndxBgIH3rFEmEwEREAEREIGMCGhgWkZ0dE0EREAEREAEREAEDiABCbUDCF9Fi0CyE0hvjbd4tTse5TNjmRnB0Swe5UcrV+dEQASSh4CEWvL0ZUK2JNoaYtnZkP3Jn1mPfqmP7KxTMuTVJVhL7e2333b/WA8umjGblQVwTznllGiX9+tcLH0zYMAAY1P5nDSE2CuvvGKMOUxrrH/HUiwyERABEdgfAhJq+0NP9+4XAV7kLPiadkmK/co0dPOgQYNc/vu6xyfrmLFunGxvAmzxhUDjH2vXRbOKFSu60ywvkt0WS9+wWDFCKie9WixAzFp74R0qfFtZFgZBKRMBERCB/SGg/0X2h14uuBeRw8uYl913333nFqadPHlyZM0wFqRlMVkWaGW9Lb/1EZ4oXlQsgss2SJUrV95rVqN/kZcvXz5dklxjgVzWUQuv18X6Zay/xhZKrN7P4qwsIBs2FrrFEAr7spYYOwyk51FDBPASZvcD1o/z31mvjf1N+c41FoZlsV88KzAKG9tzsWAuL3oE677UMZxf2mP40jesHzdhwoRI39Cn9Btrs7FGHeu50bd++6zMrlMO4oxFj9lVIprRNsQL+8KmN5uVstlxgokVLJbL4r5sMo/BjbrD8fvvv49sXO/LyqhvSMNsWnaRCG+B5u/lk2eS/HleWcCXPvMGN5ixRhw7X1D/9NbgYx9b8ujbt6+/3bGFYceOHd1iznh1w/mTkGcThjzX7ABBGX67Na7vz+8V98tEQASSh4CEWvL0Zba35NZbb7V77rnHvUDDmXOeDcLfeustY8V+b7yMmMnINTxRvGxYKNWLHa6feeaZbiX7p59+OrKKfvv27Y1tjrjOLgZ8IsTYtJwtrLyxPRWeHF6aCAuMnRP87gEINa4joD766CMnQkjz4YcfGvtysrK/39qK8+kZL3C2X0Kc8pJFmGKEsjjPjg0+HwQGITZe2Bir9C9dutQJMK6FPSpsJM/Cttg//vEPt0+m9/YgNHv16mWsr+aNTdxfe+01J2LYGSKt0PPp0n4iQnjxey5chynCAFHB1k9cC/cN5XcJwpn0aWbX05YX7fv48eOdkObam2++6fL26diGjOVI0gp0RHfjYKwX+8nyPISNXSZgn1nfcA/tZ/cMb4jJ8HfyxxPm952l7f/3f//ntvbq06ePewa5F1b0D5/0L8902Jo3b+6eU54v+GJsl8bzELbXX3/dunbt6k7xPLBWnv8jwqdjJwhCyZS3P79XPj99ioAIJA+BvMnTFLUkuwngEeBlxouF/Sn9ywhvBXtqItI4N2TIECeCEDVs3o034fHHH3fVQaSx1RQvYa6z5RCGl8uLFDZSx4PCdS9sHnroISfSxowZ48Qf+2niXWELKISa38+T/NmKym91Rd0wXtbeyJf8qVcsRr3CaX3d/DlepF40IUgQHYgyXvi0m22uOKYt7DZA/fiOCL300kvdy53NzKkz7ezRo4cTkvfdd59VrVo1UkWfFs8h2zXFagiwGTNmuO2sEHh4jGDAVl8YY6ow2MEXbxv93CUQapSV2XV3cyY/nnrqqXTHhw0ePNiJNDyRzz//vE2aNMnlRh0xhC7n2G+VfWUxwuRYZn1DGjyDiCW8uZgXZBwj/L0IHDlypGs/1ymLbcp4vugXbPny5U6kU+a1117rzoV/8EcM/dqzZ8/IaZ5ThCn70foN6v1zTqImTZo4kUbb6Q8EKJ7XFStWuDz29/cqUhEdiIAIJA0BedSSpitzpiGEpVgxH+PlgyeMcNZ///tfd+7hhx923iu++A3G2SCdlyCCBSGHN4K9MR977DG3KTnChc3EveeElxV7ZIYNzxhG6Il//mXLtkUY3ilEH2Uidgizsmk8+2IiPho2bOjqQGjtoosuckLR3bjnB2n81ljh82yijgeNAfC8aHlppx2DxQsczxieEvbBxHOIKGPcFIwwhBtCqEWLFi6kSXgRbyJ1Jj9e3ghUxDDmX+bnnnuuE3ecQzQQ1kV44bXJiiFSKBvO3jwbvI20k43q/VpueCjxYiJWMrs+atQon2W6n3hDEV5169bdKw19guFV9GIGL6UPL7KVGB4nnjXPBcYYojOjvnGJgh//+c9/XNlnnHGGP+U+eVawsWPHOm8xxwhv+oR9WRHLiCjKQyTiIYUN3s2w0ZfUES9beOsz0iN4MfaA5fcjbPzRgrjjDwqO+f1gwoPf0N7vlbuvv1fhsnQsAiKQHAQk1JKjH3OsFeExPvzVj7jy3iQKZawQ5oUHx7zovPlxN/5l5gUX1wkpYXhxvCFuECbeeKH6/CiDcXBhQ2xgfnwV4ietsWE7Hj3/0qdcxpKFvW7+Hp8P30nnPXx8D9eNlzccEFKEyzA2Jk9rlM3YM8J9GOV6o13Dhw/3X13+4UHpvMTZhB2xGGYSuSGdgyeffNJt/o6gRLAQjvOezPAtvv1w8d6stWvXRpJkdj2SMIsHCBWeA4Sht379+rnvPAvw5DreWfobL2W4H7gno77xeWb0iZfUm2+7f878+Z9//jnyjPpnx19jfB7mQ5r+fGafiNFnn33WjVtkfGKpUqXcHyJ45cKien9+rzKrg66LgAgkFgEJtcTqr7jXllARYoIXJh4rBAeehtGjR1vLli3dgPJGjRq5sUMIGcaRTZkyJTKGi5cxQoExQVj9+vWdJwKR40UWY4iYsMD4I16aDL4nhIQnrXHjxoYHBy9MvXr13HZLeK18fqThXrx4GKEjHxYlpIThmaIsJiUgNi+44AJr3bq1u5bRDwQS4U5CmwguBpnjffEeEwaQE7ZkrBWeofBkB58vnPBu4X1BoAwdOtSJDrwtxYsXt8rBJAu2kMLzQ/54WTwXvF6M38PII1avmhchiAK8hjDCaDdjsbzBGsGJCKHvNm/e7AbuM8gfS+/6eeed57xF3jMGc/qJMWR4FVlXDE8d3kYMjyYhXcZg4Yn1fUt4EiHOYHr6nL658sornUiDFeMKCQ9SN4QbzxveWCyjviFMiTBFCGGM/0KA4tElLEldeZYZc8gfInhpEX54dukH+hqDP55RjHNcw9vKc0q/4c31IUuXKIYf9MFdd93lPINsIcaMZ54F+h7Ljt+rGKqhJCIgAglEIG8C1VVVjTMBwlG8EAn7MNaJcA2hHgZm41FAVODp4GVKaA8x4UM3XghxnbFZvIgxPCYIJoyXLi9QBAEvdwTDiBEj3MuxTZs2zptECIoXGSE5hAfhVPI87rjjXB7k17Rp08jLlRAWL3aMFy+eKEQSL1e8e4i2WA2PDoKBsniRIqgQG94I78EH67In3OWv8cm9eMXwmiAa77zzThfWRPTClrrBDnFC6BbvGSLXGyFm8kBEpJ3R6tNE+4QRXjy8fYy9ohzyoYzwAH7qhlBB2DEujNCfFybkm951xlnRH95LSL58R7BjCCFEjS+LPkJIM+YO831Lv3OOsY48OzDkefBCm2cJIQN3zD9THGfUN4TZKc97pRCU1A9Bz/OLl5F2EgqmbPgQasSbipDy3jt40DcY5xCoGOMLsWgeVHdhz4+wN9qfpx8wROQbb7zhnm08eT4Enh2/V74sfYqACCQHgTzBFP1dbUeWtP5XSbMlQ5c2OLFmtjfDj+ViOYe0xgsMDwzX0oaO0qZN7zsvcsSID4+G0yG6yJ9lDHih7oshJAg5+jFQWckD8cj9hE6pY9gQb4x1w6uC4AobY6kQcQjQtPeF08GWcC2eyGhG+3m5hwVUtHTRzlE/BCLjpsKGUGYcGrM7GSeW1jK7njb9vn6nbXim8ESm7VtEHNwRkOnxy6hvYqkTfOBK32bFGMdG3fwM3rT3ImD5o2Dw4MFOCOKZQyBi1Jk2Iz7xVv/0009Rn/vs+L1yBeqHCIhAwhOQUEv4LkzdgJwQaqlL0Dc8i3i7wuPtCOPhqcGLgmeMF7I3ZkCGl93w5w/EJ94uvFFhI0yIWMIyu+4S6Ue6BPC2MTTAG17J8BI2/rw+RUAERCBWAhqjFisppROBPQQIkbFkiR9sj8eH7xheO8bU+bAgnqL0Fnzdk11cPxhLxzp3PrxHW8KTQzK7HtfKJmBhhNYJteMRJIQbywzZBGymqiwCIhBHAvKoxRF2PIqSRy0elFWGCIiACIiACMSHwN/xmfiUp1JEQAREQAREQAREQARiJCChFiMoJRMBERABERABERCBeBPQGLV4E0/A8ti+iP09mZ3IKupZWeSTsToMqM6NxrImLPHA7E+WIvED9hkfxnIn4QkH8GFmoF9D7WDnxTgstnViLbh33nnHrQsWrjMzOlu1auWWoWCtNpYyCVtm97N8BYxYS43Zk9FmHIfzS3vMsi4s50E5n3zyiVvfLZyG81dffbUbU8iSKywPklVj1iYTB1imhnF/3hi7yO8MOygw6YTy92XWLjOJmTXMs8NWZGHjGrtYMBua+qed2RtOq2MREIHEJqAxaondf3vVPifGqLFqOtsRYSzBwQsoFuNFzlpTLOwZz0HViENET3hTcl9flk1gsdOcNniF94BkiQ224qJebD8UbRYoAphtqWI11gFjlfvwbgwsKNulS5dYs9indNHq/8UXX0QWOUaksWwJa+t5Y4sk1l/DMrufNc1YOy9sLFbLumOxGOvHsTgw9fA2aNAgY8cGjOU1wrsAcC58ne+xGIvTsqgvIo912rz5rdT8dyZrsKVZVgyxx/IpiPr//e9/bg0+f39443jOsWYeM3fDk0J82mifrE/HH14s5oyA5A8J1vZDULJQMRNiELksO4NgZns36sHCz4jvtH9gUAbr/5GnTAREIPsJKPSZ/UyTLkcWjq1Zs2bU9axYi4qXBMs6pP0PnGuYX/g0Ghg2Z+fFzQvBz0SMli4r5/B0sDYbAoblMlj4lJc2wg1PC7slsA6Wrx/15h68LGHjPO2mbX4WZ/h6esfc58USe576Tc979eoVuYVdALp37+7++dXt/UKvkUSZHOBtwliwliVDEKj+O+3hHAYLvnvhwiffPQd2i8iK4eXBnnjiCbd6P8f0od+0nnXDEGkICJYmQQiw6KwX+5ndz3VmyyKmEFAY+8XGaggy2ogHE5GBSGYjdt+/HHOOBWx9ndIKw8zKat68eWTnhbRpEansKYo4o58pN+1eoWnvSfsdbmEB7q+zxh0LSFN/dplgmyu4d+vWzSfJ8JPlQ9gZgXu4l77hGM8oog2ByO8ICzJjpOf54TzrGfLMMMuZe/i98sdp98PNsBK6KAIikCUCCn1mCVfuSozngZca64Xxn3hYiPEfN8tOhL1WhDj5D5v/vNlQ+/zzz3fA2AaJfLjOS8aHQtnf0achIedJF16dH+8BL1S2/gl7qDLqCeqG4W1i6yK2HmLtMLYB4oXMX/6ICYxdDfBkUW/EAYIRY+2rwYMHuxeSOxH8YAkOv0G9Pxftk50M4EJ77rnnHpeEZS8QTghEwmRsh+WNVelZmDarYU844cnxHs8XX3zRnnvuObe1EaKNMvGQEJrDYEC/4NXjZUx7vXijroitWEJolIHHCiGE8Wwgsn1eMMXg/8orrzihQogQbwzbf2V2v/d2sUsBCxXzTPhtsVzGmfxgFwqMvsbLhNDGy0YoFeGGVxWhgXhEhGDhPV75jrB67bXXXNu4L+ytop14+ODL9ldpzfc55XomXoz7tHib2Td34cKFEbHor/HHAWFNymd7tbD53Rnoe35/+CMAT1fYoxdOHz6mLmz3hfHMsegxwottv/idZUstdrLgOSV0y++7f07ZN5bFeTF2k+D3kT/A6FOeu7D31CXSDxEQgWwjkDfbclJGSUfAvzDZm5GXcdh4yc+YMcO9+HiRsRI/4oCxMxieMi/s8AzwouW695rxEkOksfI8LwdeElz3HhRfFlv6IHoY6xWr8UJBeMyePTvVLYyVwsuDWPBjkqgj4oUXVXgBW/bx5GWO2OClhmjg5XXLLbekyjPaF0QBxsvNmxdh1apV86fcJ/ug0u5JkyalOr8/X/x+nnBn1X0W4MV8f7DJOcaLGxFHGuqAZzQWo++9SMOrRp+Sh99ZwnsfCd1h/tPvcJHZ/bDmH/kiRjDCf7EYfUY7eV69uPLPAaIdwzuHR4q9SRG59D2CNmyIEUQMQo5+DxvbPMHL78MavuaPEWIIY57daGPI2JqKPPjDwItFfy9CFsHMM5jW/P6phFcxfu8w8srMELA847SdEDlGOYzV43cQgzn9Q34MW/As+U5ZeAgRz2Hj/wf/PITP61gERCB7CEioZQ/HpM2FcTjsnej3PAw3FLFD6IhN2+vWresuMW4KQ+SxATlG6BSPFfs/es+F3y+RfTDxTvjxS7wQypUr5+7jByEkhMb9998fOZfZAS9oPGJpF5plDA71QByGB2cz4JsQkDf2hMTzxQsNrwx18PtGhj2APn3aT0Qihmjw5j2PeHPC5sf1pB1sH06T9hjWvGi9tyYsMEmLp8QbIsQvxuvPEY7FqCeiBY8IRv9kxbp06WKXX365Y+c9PdzvRb3f3Nx/hhmTLr37uUbbaAdeG/qLPojFEBkYItULUwQX5tnzLMGM54RnmHS+H1zC4AcL1yJiCUfjPfRGn9JW/+zzvOLBZUKFL4+03If3Dsb87nhPrc+H5x+vGH8I+D8auIb3mJA8kwR8uJdQsPcm+23Q+EMI888Yz2pm5tMSMue5QGTPmzfPeeTYY5c/SBBq1AcBx+89nkD6jf6AAx42z9iXB89mzZr5r/oUARHIZgISatkMNNmy8y9d/+nbxzggXioILwZ/I+jSGi8DLOwx8OLCp2UQ87Bhw9w/vGl4IRg7443QEJ47XtbZab49hAAZxxZtA21eaL5uDGQnFOVfmL4ueMQIdTFmyZv34OBB4uVN3l6s0F5vsOAlDKfJkyf705l+EhbDa+cHqHsvnR+z5tvmQ8CMLYpmXrh4T1hawRftHn+OMVR4YnihE84m3MtLHvP7lvr6+ckby5Yt87e7sWvp3Q8vJp/gAWOWMeG/WEUkIoJ/tKV27dquPP9HBKFKmHCeNNSPcC8ip3Hj1GMsEVj8gYC3KCxMEH3kzTONkKIP+Uee/nmnUDyCjEn0s0HZXD5seFjxivlnxV/jDwQMnoR8McoiHIr558dvS+VDnv4PIJconR/8HmH0E4ILIfrDDz+4c7SRkDjPK8d+vCRhVZ4r37cusX6IgAjElYCEWlxxJ15hvIQRT2+99ZarPC86Xmp+zBB/4SNITjrpJHedUKX3YPhwHy9aZjPy0uPFwH/6eCAwwjGIGDwnhDfbtGnjzvsfjIXBq4VIyorhlUD4IWowvBqMl/KeCC+MevTo4Tw3vHypF3UgxEOIlO94CHkR80K89tprnTclXA/CptQ5PBMWbx3eGu6nHB/WZOYjwsYb3ihejHPnzk31kvfXM/tENBK+46WOeTGLSEBo8NJndimhaYy+xKviw7f0E0LzpptucteZVOAH3LsT6fxAmHsPCqIazxHhOi8ann/+eXcnQgMvjPeW+lBeZvfj3fETPRCdeNaizZJNp3oRkUHIkZApbUJ84PmlXxFm9CkhTLy59D1CJyy0GMP473//23lyPT/KY5kQRBNhYtpMvrAmL4w/XhBElE2IuVGjRu582MvJCfoNPngz/TPJeYYAkD99MjgYI4kRQvd/IPAMU3/G1+FV9WFuysvMaCPj0TB+H+mXH/eMM6QfEfw8s/DCw8vvAuIWbzK/9xdddJELA1NH/5wwhtTPps2sfF0XARHYNwISavvGLVfcRYiMl5gXZoRAEBb8h927d2/30sOzw/gWXli8QBAHfpYn6z8hGggP4TniXl7CvHx58SLCeGHyQuDFRzo8V+EXpvcgIGayYrzs8OR4bx4vFrwy3rvEi4gQD4OgEQU+LEcol/oR9kFsEbJCKOIx8aLE14M8ETvUF8EXNgZtIwoonzSU5cf8+XR4lDAfivTnM/scP368403ejAmkjxCH3gvC/V5Y4zHyHjNCyvSND1PyUka8HXvssa5I8mNWYWbmBRnpEAyVK1d2tzAhAmPWI+MAMe/VQpj48VQZ3c8zEh6gj+cIIR9+JlzGGfxACOKJ5dlidiv9ySQQnlHyefDBB90yM/wBwUQT+saP0fLZEg7neSZ9tGcPkcW4NsrguUXwYf55JXzOc40hotLm4cPyCHfGfaU1JrjcGEzAwHg+mdiDkZ4ZmdSN3z14EUJFMMVicKBt3MfvnBehjN/0zwVtQrTjzSQNaXnGSMvvvv/jhfLoX8bzyURABHKOgNZRyzm2ByTn7F5HjZcQYoawVbSXJS8RXtBhT1HahiMAuNcLhvB1XgIMkEbQsUZbNMMLhOjJCUO8IMCitY3yEFl4DBFCadN4rwuCs0swXiuaIXzwuITDfj4dnhRm2DEOKG3ePk1Gn4hOllVAlERji9cTdrA9EIYXBsHMCx8G8TaENP8IL0bjy7OLRxhBHs0QLAgihF5WjeeKsv1Ejmj3789zjcjmjwi8qAjNrBq/13izuZfJN4hYmQiIwMFJQELt4OyXfa5Vdgu1fa5ILriR0FfjIAxM2PdACJFcgFhNFAEREIFcT2D36N9cj0EARCDrBAh94XGTSMs6O90hAiIgAiIQGwGNUYuNk1KJQFQCGYV8o96gkyIgAiIgAiKQBQISalmApaQiIAIiIAIiIAIiEE8CEmrxpK2yREAEREAEREAERCALBCTUsgBLSUUgqwS+/fbbVMtmZPV+pRcBERABEcjdBDSZIHf3v1qfwwRYokKTDXIYsrIXAREQgSQmIKGWxJ2bHU1jrScWivVrNbHmGOt+eWMtMBZMZS01FvUMrznFOlKs18SG3WxDw0KZbOjMoqDky/ZNrFNFfqTjO+nC+bNAK2uRsfehX0Wdsll/zS+sy8rt5MdCqux84HdE8HXcl08W7mWtKvKmLBZhRXD5NbdYJ4vrtJv13/x32ue386H9LHK7Zs2aqFWgziyMSv4sOMqiwOxk4Nf8QuSx1hXfWSw2LPhYf42FYOkXJjTAiM3Q2QCdfS6pP9fIgwVp/QKrUSuikyIgAiIgAgctAQm1g7ZrDnzF2ArIb8Hka8PehX6F/X79+ll4k3KEBCu2s1I6e1/6rWXYFJxdAvzG5OyRyNY3CB2MLYhYyZ8FRjE24GaVfXYPYGV5b+whydZFCCPWMGNVfowFZ9lJgNXTEX5s5+RnY7JiO9v6kMZvw+PzS++T9vmV4Js2bWqsEs9m7iwKyiKjrAzvt2FCmA4YMCCygTblIrhYxZ29HjHqVKtWrVTFsQk4e4RS57BxfsKECdapUye3jZC/Th4wo90IPEKqGOKVvTERZhg7PyCsEb3U1zOlb9ilwHNxifVDBERABETgoCegMWoHfRcduAp6kYboQlTgXVq0aJGrEAu9ItJYGZ3td9j/D68Y+2tiX3zxhfMScXz22We7PRI5h0cKj9kzzzzDJect8nsy8p0dABB2iDVEGtsRsV4Z+4Titerfvz/J3P6j3rvFVkxsi4PXifr5zcZJx96jCES/nQ/nMjO2dPIeRLxd7OeJV8uLJrZn8mWznRMbVyPYEFPs74ixvyfpwh5GXy7bInXs2NHlR1sRX95bhqeMdiN4MeoCA8qGM15DdmlA3GKVA28ZXk2ELXXCM+frgEhj4208mvQN2wHJREAEREAEEouAPGqJ1V9xrS0hRDwzbKyN4GCrGYQF9sADD7jPUqVKRfY55ASCAEGF94t9O/EuEerEMxW2efPmWatWrdz2UYTw/B6TCBS2PPKbfrPqP/+8SPJ7R7I1D+IN8YFH6z//+U84+8gxgg8hR5pYjY23EYx+o3lEIHuBeg8ggpUNu9konu2vYMQ1wpZ+j0va0LlzZ7cPIuHHsPk9Fdmknb0XMe5DEFJWt27d3LmxY8c6gcwXRB9ePQQnG2vjrcOrh8BjY/W0njL2YuUa3ku8jexFiaeN/VdlIiACIiACiUNAQi1x+iruNSVsiNBCIODlwXtD+I1z3hBh33//vf/qwm2MYwub98KFz3GMuCI/BAr7LuINwvsTNsSK3wMU75bf9Dqcxm/2HT7nj9kHc8aMGc7z58/F8uk9YYgwQov8Y/ycN0KPeLDYGNtviI0wi8W8x488veFlJNzpPXWcZ69ObwhgzLPw5xkPl1ak+Wu+HL8PqBe7/ro+RUAEREAEDn4CCn0e/H10wGrYo0cPF7bEe4NnBvPeoXfeecd9Z7A7HjEG9uPtadOmjTvPeChCdRjHQ4cOjeThTgY/Ro8e7UQGIg3r0qWL++QH3jKMECshPMq55pprXBiU84wjq1+/PofOu0X+pE1rjE27/vrrnfcr7bWMvuMdw2Dw0UcfOY8eXrNwCJUxehhtRyyGN17nPup0+OGHu3s5fvbZZ53nzbND/A4fPtx5xyiP8CVtos4Y4/oIKZMeTyLhV0LGjEd76aWXXBo2ZSdvH0rmpB8/x/ZWeNtuuukml5a8meAgEwEREAERSBwCEmqJ01cHpKaIMMZQIQwIpfkJAgMHDnSCAhGFeCEEideHcCeCggH8eOAwBMNpp51mLVq0cN/DP3zIEqFDKNAbgo/wJh4thBZjs7Zv326E9DDCmYznwgg/kn94YoO7EPzwHjhmpGbFmMjAOLUyZco4bx+hTyzcBsam+bFsDz/8cKrsGddHnfACYhwzXg6e1IkJCeTJJAMmHtCWcePGuUkCfMIFrx4zZRnTxsQAysCDVqNGjYgoJX/y9vwpy4dWEZaXXHKJm5XL+WLFikVCzHyXiYAIiIAIHPwE8gTjcXa1HVnS+l8lzXbwd1fmNWxwYs3ME8WYgrAe47EQQoTROE5rCAWuMyYrbVgubdr0vqekpLhlOxAjaQ0hWKVKFbc8R7TradNH+84sSQbg74sx3o5QLuIzmiGGqH94SZFo6dI7x70Y4+KiGd5GBFvakHC0tDonAiIgAiKQfAQk1JKsT7NTqCUZGjVHBERABERABBKOgNxoCddlqrAIiIAIiIAIiEBuISChllt6Wu0UAREQAREQARFIOAISagnXZaqwCIiACIiACIhAbiEgoZZbelrtFAEREAEREAERSDgCEmoJ12WqsAiIgAiIgAiIQG4hIKGWW3pa7RQBERABERABEUg4AhJqCddlqrAIiIAIiIAIiEBuISChllt6Wu0UAREQAREQARFIOAISagnXZRlX+MhixTNOoKsiIAIiIAIiIAIJQ0BCLWG6KraKNmx0TmwJlUoEREAEREAEROCgJyChdtB3UdYqeNe9D1mVatWzdpNSi4AIiIAIiIAIHJQEJNQOym7Z90oVDDYg7z/0XWvSvIUpDLrvHHWnCIiACIiACBwMBA49GCqhOmQvgUKBWHugc8/szVS5iYAIiIAIiIAIxJ2APGpxR64CRUAEREAEREAERCA2AhJqsXFSKhEQAREQAREQARGIOwEJtbgjV4EiIAIiIAIiIAIiEBsBCbXYOCmVCIiACIiACIiACMSdgIRa3JGrQBEQAREQAREQARGIjYCEWmyclEoEREAEREAEREAE4k5AQi3uyFWgCIiACIiACIiACMRGQEItNk5KJQIiIAIiIAIiIAJxJyChFnfkKlAEREAEREAEREAEYiMgoRYbJ6USAREQAREQAREQgbgTkFCLO3IVKAIiIAIiIAIiIAKxEZBQi42TUomACIiACIiACIhA3Ank+Kbs48aOs/HjJ6Rq2KGHHmoVK1awlle2NDYQl4mACIiACIiACIiACOxNIMeF2vz5C2z8Z5/vXXJwZuz/xtjLQwZavnz5ol7XSREQAREQAREQARHIzQRyXKh5uOddeIFdf8N1tmvnTps9a4499fiTtnzZcvv2q2/sjIYNXLK1v/5q8+bMs4KHF7LatWtZgYIF/e22a9eu4L7Z9ttvv9txxx1rhYI02Pp164J/G61U6ZJBGvKebVWrVbfSKaUi93KwcP5CW7x4iRUpWsTq1KkVfBZ11//Y/oetWrXKChYoYEWPLGY/TJ/uvH1lypVNdf+mjRtt6vfTrXKVSnZUpaMsT548kesZ1ZtEPy1fYYsWLrI6x9SxUqVKRu7TgQiIgAiIgAiIgAhkRCBuQu2Iww+3ikdVdHWpEIQ9X3jueftt02+248+/3LkRH46wZ/7TJ1LXwkUK2+O9nrQ6dWvb9GnTreujjwWCbH3kerv2d1irIHT63jvv25uvvWHValS3RQsWRq53uPsua96iue3Y8ad179LVvhj/ReTaYYEo69z1UTv9jPq2ZPGP1u7W2wKhV8o2BfXZvm2bS3f2eefaI10edsfdunS3z8eMjdxP2iGvD3FCMqN6b/59s3W4o4MtWbQ4cu+ZjRpa1x5dI991IAIiIAIiIAIiIALpEYjbZIL58+bbW2+8Hfx7y7o91sOJNATTifWOtxUrVkZE2j9uusEuvORid/2xRzo7T9rAlwY6kYY4u/f++4z7Bg0YaFs2b4m0C5HW7PLmVuPoo925Z/v0tTVrfrVh73/gRBrCj7zrNzjDibHHuz+e6v41v6yxSpUrB3lc7u5HmOGt+37KVCfSEIJPPt3LGpzZwEj77tvvZlrvEcNHOJF2/kUX2mM9u1mlKpVtYiAYZ06fEam3DkRABERABERABEQgPQJx86jNnjUrCEvOSlWPdne2cyHI8eN2e7vwuJUNQo4pKSn26cejnCBijNvWbVvdfcM/+NDOCITWPfd1DMKfx1i+/Pkj+V3S9FK765673PcWl13hhN3c2XNswue7JzL846YbrUWrK5zwa35pMycEp0/9wYqXKO7uKVa8mL0w4HkX0pwzZ47NnzvX5s6eH8kfITgiKL923bp2w803WsnAq+a9dOnVe+OGje7+ryZPtrx581qz5s3slNNPtWLFjozkqwMREAEREAEREAERSI9A3IQanqzmVzS3bdu327jPxjkv1Qv9XrCmzZoaY7wwxqw92eOJVHXdtHGTtWl3mz3RvaetXLEiCHW+667XCQTTM889E0lbrlz5yHHVqtVsyrrvbEMglNas+cWdr1qtivtkbBnXp0+bZmt+/SUi1EqVTomMOytUaPfYuF27/grCo6dbo3POdhMiJk2cZPx7dchQ6/RAp0zrTXunBh65BfPnO+GJ+EQQPtOvrxU6SrNdIx2mAxEQAREQAREQgagE4ibU8JKdctoprhJ169ZxQo3xYGtW/+I8aFyoVaeOPd//OZdmXhAq/SsYv1aufDnnubqlza0udPjdN9/am6+/6bxz33z5tUvLj8mBgLrm+qtt519/2fz589z5lJTShoAjVDln1twgzHqiuz438JZhZcv+PWEAj1c0++GHmVbvpHpOUK5bu85Gf/KpUYdXh75qLVu1dLdEq3e1atVs0hdfWJNAiCISF8xb4MKwiNHhw4bbnXfdGa04nRMBERABERABERCBCIG4CbVIicGBDzdyblsg1k46uZ67PHf2bOv9VO/g3HYbO/p/boD/a2+/YR+8974tXfKjXdzkEqtRo4YVCcabrQnuq1S1is0KZnlihFW7du4WTChY4MKajEk77vhjbf369c579vJL/W3JkiW2MLiOQGRCwAn1TrDFC5e4+9P7QfiyT6/egWAs70RXSpkUl7R4seKZ1nvmjFn24QfDgnJOtLManWXFi5dwXkM+ZSIgAiIgAiIgAiKQGYEDItSoFCFAZnF++8131qJ1C+v+eHd7Mliy478jRro6c/2RxzoHa6wdam3vaOcmG4wa+bGN2tOille2svKBt83b0bVq2ZeTJjsRxmSDhzs/4mZlXnDRBbZs6TI3MxTxh6WUKWNde3bNdP22PHkOsYZn/R367P/8i+5+RF679u2sdCDaMqp366tbG5Mopn0/1f3jZkK2LVq1cPnohwiIgAiIgAiIgAhkRCDP6tWrd7UdWdL6XxU99JfRzdl97c8//7QVP62wQ4IwZPlgCY/wWmWUhfdrx44dwYSDlMg6aANeHOBEWJvb21rLQPCtDGaQEi5l94Owbdu61Zb+uNyKFi1sKWXL7JV3OG20Y5YSWRoIvqLBOmxMeAjnn1m9V/+8OhjPttZKlizhxF20/HVOBERABERABERABNISSK1m0l6N83fET6XKldIttWr13RMC0kvA/SxGG81YPLdm7d1Ld0S7ntk5QqnHHFs3arLM6k241IdMo2agkyIgAiIgAiIgAiIQhcCBd6NFqVRWTqUEEwIIJ5bWiv9Zwaa0IiACIiACIiACCUDgoAp9JgAvVVEEREAEREAEREAE4kYg4T1qcSOlgkRABERABERABEQgzgQk1OIMXMWJgAiIgAiIgAiIQKwEJNRiJaV0IiACIiACIiACIhBnAhJqcQau4kRABERABERABEQgVgISarGSUjoREAEREAEREAERiDMBCbU4A1dxIiACIiACIiACIhArAQm1WEkpnQiIgAiIgAiIgAjEmYCEWpyBqzgREAEREAEREAERiJWAhFqspJROBERABERABERABOJMQEItzsBVnAiIgAiIgAiIgAjESkBCLVZSSicCIiACIiACIiACcSYgoRZn4CpOBERABERABERABGIlIKEWKymlEwEREAEREAEREIE4E5BQizNwFScCIiACIiACIiACsRKQUIuVlNKJgAiIgAiIgAiIQJwJSKjFGbiKEwEREAEREAEREIFYCUioxUpK6URABERABERABEQgzgQk1OIMXMWJgAiIgAiIgAiIQKwEJNRiJaV0IiACIiACIiACIhBnAhJqcQau4kRABERABERABEQgVgKHxpowO9ItXrjEFiyYb5t/32xVq1ezo4+uYYUOL5QdWdvC+Qvt982bLSWltJUtVzZb8lQmIiACIiACIiACInAgCcRFqG3auNF6P9Xbvhj/xV5tvf+RB+2CC8/f63xWTzz5+JO2aMFCa3llK7u9/e1ZvT1p0m/f9ofBYteuXZE25cuXz6rXqG5XtLzcDj00Ll0eKfuLCRPtow9H2JmNzrLLmjWJnE/vYMeOP23b1i2WP38BO6xAfsvq/enlq/MiIAIiIAIikIgE4vLW7v5YD/vum28dn2LFi1mRokVt6ZIf3fcnuvW0XTt32oUXX5iI/A66Ov/xxzYbN/azveo15tPRNnb0GOv5Vm852wAACvpJREFUVA8rUbLkXtdz6sSqlStd31eoUCGmIt5/9z3r//xLdu0/rrN/tvmnZfX+mApRIhEQAREQARFIEAI5LtTwonmRdt6FF9j9D95neQ85xIUqH7r/QVvzyxr74N0PUgm1aVOn2/Sp02z16tVWoUJFO+W0k61GECYN2+xZc2zKt1MsT548dlajM8OXIsfbtm61sWM+d6KweMkSdsIJx1utOrUi15P9YPBrg10TV/y0yp59pq8tmD/fhgx61f59393u/JYtW2zurLm2ffsfAZejrVjx4qmQjP98gtU5po6VKpVa2P3+2282f+4COzTfoe6699L9vHKVbdmyzY6qXNFWrlhpf/75pzU8q6GVLVvWylco77x8Sxb9GHj18lrFSkfZ7Fmzg3NmtWrXdJ4++uu3Tb9F6kY54ft95Xbs2OHuXbVilZUJwtx16tS2/Ifld5d/+Xm1bd22zcqUKRs8W6ttdfD9uBNPsHxBXWUiIAIiIAIikGgEcvztNXnSlxEm7e+604k0TlQ/urrddfddNnHiJHcd0VCoUCF7od8L9u5b70Tu4eDll/rbHXe1txatrnDn3wmuvxik8zZowMv+MPL50/IVdu/dHYMX9c+Rcxzc2q6NXX3t1anOJesXxBBC9qjKlWzd+nXW+8le9r/Ro51QmzVzlj143wMRYQSDu++9x5oG4UnGEHa4o4MtWbTYoTmzUUPr2qOrO/76q2+sy8OdbXsghrDDChSwm265yVpf1dqe7PmUTZ82zU486SSbOmWK/eOmG9wYRPqq+RWX2+0dbrdbbrzZ3VOiRIlAzK1weVSpVtX6PPu0fTLqU3vztTfcuWHvfWDr129wIs7f3+HfHZzwuv/e+yMeWRJXPKqi9ez1hJUvX86e7tXHvvn6ayNPX3/q+Mxzfa1mzaNd3vohAiIgAiIgAolCIMdnfS5fusyxqFO3rhUuUjgVlzMaNrD7HrjP/UOkff/t9xGRVqlKZbvq2musVOlS7p7n+v6fLV+23PCYhEXauRecH3iCiqXKly99ez/jRBplXnP9dXbyqae4NANe6G/z5szfK32yn6hZa7dIQWCtX7fOHu/2uBNp5190oRNatL9Pr95BqHGVjRg+womcx3p2M/phYuAVnTl9hhNnPbt2d594R5tcdpk7pj8Qd94QafQbQjGaUYeChQrapZftHrOGoHrl5SF2ev3TrfG557hbGpzZICLMw3n07d3XiTSEGKKbT56Lp596OpzM1b9l61au/pT3ychPUl3XFxEQAREQARFIBAI57lFbs+YXx6FIkSKZ8vjvfz92afCADBo6yHmDWrZuYS2btXDnP/n4UyseEmWvBKG9SoG3iJDbNa2vieRPCG3Kd9+57y1bt7ZLm15ifwbhshuuu9EJC7xKNWvnLu9KwUAIe9uwcVPEm0U4OO8hQSgy8EoheCaMn2AbN2x0SSdPnGzNmjezU04/1YoVO9LmzZ3vxB0i7IGH73f9U6lKpeDcJtsSMPfWpNll1uHu9i6cifczmj0ReMBKBOHoWrVrO0/ftGlT7a57OgQh7upujF3lqlWs7jF1Dc+fN0KeX32520P70CMPBzOHq1iDBmfYjUG/Ig7xynrrEHhrm7dobt8EHsD7O3aymTNn+Ev6FAEREAEREIGEIZDjQq1UqdJuHNq69eszhbJs6VKX5uSTT3IigC/FSxSPiIifli+zbYF3BMNThkjDGKeE58dPUCDs6e2VlwcG3pqB/qv7XL0qdTg01cUk/bJ44SLXMjybXohxotcTT6Vq8aZAxDW/onkgfKbapx+Pcv/wWD7Tr6+tW7vOpS1Ttlykf3w4OpxJ/fr1M51dSr9iVapUDn6aMTM4M/Plk45xcFiFin9PUvh1za/uHD/KBWFQrFDBgu5TP0RABERABEQgEQnkuFCrcFSFYOD3rGDw+Vxb++uvqWYc+vFoeNA+HDksGKN2uGPI2CRvLDOxYcPu7wUKFgoEwu4rf/yxw3b+9Zcb80aadWvX+luCpR3yRY4bBuOrqlStGvnOQeXKlVN9T/YvDNAf9PIg18xjjz/OygRrzXkb/vEIJ3oRt5sCz1jZsilOpDVp1tT+CiYDDHv/A+dpGz5suF15zVXutp9XrXQTAxj/1qNrT2PQf8dOHX2Wdtiegf2RE1EOpn431eqdUs/mzJ7jrpYqnRIlVepTeOC8zZ+3wOrUrR1MkNgtQDmfklLGX44IycgJHYiACIiACIhAAhLIcaF20SUX2+hgkDjWvUsPe7TrI24w+aj/fhIZj3ZCMCsPsVa9RjWbMX26E3aLg3FLVYPxR18G4Tc/E5C1wEiHMe7os7Hj7LwLzrXxn42PpOFauQrl+XB2WIGCduM/b3QzEAe8OMC2bt3mFtrdczmpP2658RbbGSx94j2NeCEvvvQiSylbJjLYvssjj1m16lXto+EfOaYvDxloM2fMsg8/GBaEL+8KQs0lnFDjk9mfNY4+2s0efei+h+yQIGQ6KZgMUq58eRfGzArMXsHEhtp160SWEjkrWGcNOySYEYx99eVXQeizjjv2P5hdekGwjAvP0wP3drIzgxmlEyfsXpuPsW2suyYTAREQAREQgWQikONC7YQTj7ezGje2CePGuRmBLS7bPd7MQ0R4+QVqrwxmDjLbD7vlhn9aSpkykVmbiIyml11qOwPv2cBgFijijYHt/xcsO+GFnM+TF/oVrVoEy368b6wftiyY0MBSDevX7Q6/Mu4tN5if9Qi7Y4491m6+9WY7as8A/85dO1u3Lt3c2C7Gd2H/CmZ9Io5bX93a5s+bb8/26evOEy5tEfDEbmt3mz3WuUtkrBhh0Ue6Puqu5cm7x93pvmX8o3RKSkSk4fX0+Z98ysnOw8fixaM/HeNmfYZzuqP9HS50+3Ug5EaN3D2m8aSTT7Z/BTNCsfTqkDdP3nA2OhYBERABERCBhCCQJ1irbFfbkSWt/1U59yJjPa2hg1+11wYPTQWFGXv33NfRhbD8henTplvXRx+LiCrOM9C9c7cuTkTwffbM2fbIgw9H0tSqU8fyBmE4Qqytr77S2t7R1v4I1gYjtDp82Ifc4gxR+GCwEwLCQGYufMk6Y5uDrbcQcOxgEDY4lwzCjaXLpA5L0p+I30MD75dfAiR8X3rH3HdB4/N3e1THjLJfVq9x658deWTRVLeQjgkKBYPxZQXSGWPGmLafflpp5YI12o4sfmSq+/VFBERABERABJKFQFyEmoflXvA/Lre1a3+1isEgcEJwjHNKa4w5WxnM5Px1zRorG3jV0goF0pPXj4t/tMOPODzDvT0ZP7U0EBWFjzjChUT94qxpy9T3nCeQVqjlfIkqQQREQAREQAQSm0COhz7DeBBJLKnAv4wM8cbipfxLz8iLRXMzsyMKF3bLPGSWTtfjQ4Awqh9nGJ8SVYoIiIAIiIAIJC6BuAq1xMWkmmcHAcR1v5f6ZUdWykMEREAEREAEcgWBnBuYlivwqZEiIAIiIAIiIAIikHMEJNRyjq1yFgEREAEREAEREIH9IiChtl/4dLMIiIAIiIAIiIAI5BwBCbWcY6ucRUAEREAEREAERGC/CEio7Rc+3SwCIiACIiACIiACOUdAQi3n2CpnERABERABERABEdgvAhJq+4VPN4uACIiACIiACIhAzhGQUMs5tspZBERABERABERABPaLgITafuHTzSIgAiIgAiIgAiKQcwQk1HKOrXIWAREQAREQAREQgf0iIKG2X/h0swiIgAiIgAiIgAjkHIH/B2Spom9tHVXHAAAAAElFTkSuQmCC;" vertex="1" parent="1">
          <mxGeometry x="20" y="30" width="618" height="674" as="geometry" />
        </mxCell>
      </root>
    </mxGraphModel>
  </diagram>
  <diagram id="Kj33H9Mx7EN4phu6z8Of" name="C.5">
    <mxGraphModel dx="1186" dy="764" grid="1" gridSize="10" guides="1" tooltips="1" connect="1" arrows="1" fold="1" page="1" pageScale="1" pageWidth="850" pageHeight="1100" math="0" shadow="0">
      <root>
        <mxCell id="0" />
        <mxCell id="1" parent="0" />
        <mxCell id="cZoZXGyDNyPqgXU34G-U-2" value="" style="shape=image;verticalLabelPosition=bottom;labelBackgroundColor=default;verticalAlign=top;aspect=fixed;imageAspect=0;image=data:image/png,iVBORw0KGgoAAAANSUhEUgAAAmoAAAKiCAYAAABmafCmAAAEDmlDQ1BrQ0dDb2xvclNwYWNlR2VuZXJpY1JHQgAAOI2NVV1oHFUUPpu5syskzoPUpqaSDv41lLRsUtGE2uj+ZbNt3CyTbLRBkMns3Z1pJjPj/KRpKT4UQRDBqOCT4P9bwSchaqvtiy2itFCiBIMo+ND6R6HSFwnruTOzu5O4a73L3PnmnO9+595z7t4LkLgsW5beJQIsGq4t5dPis8fmxMQ6dMF90A190C0rjpUqlSYBG+PCv9rt7yDG3tf2t/f/Z+uuUEcBiN2F2Kw4yiLiZQD+FcWyXYAEQfvICddi+AnEO2ycIOISw7UAVxieD/Cyz5mRMohfRSwoqoz+xNuIB+cj9loEB3Pw2448NaitKSLLRck2q5pOI9O9g/t/tkXda8Tbg0+PszB9FN8DuPaXKnKW4YcQn1Xk3HSIry5ps8UQ/2W5aQnxIwBdu7yFcgrxPsRjVXu8HOh0qao30cArp9SZZxDfg3h1wTzKxu5E/LUxX5wKdX5SnAzmDx4A4OIqLbB69yMesE1pKojLjVdoNsfyiPi45hZmAn3uLWdpOtfQOaVmikEs7ovj8hFWpz7EV6mel0L9Xy23FMYlPYZenAx0yDB1/PX6dledmQjikjkXCxqMJS9WtfFCyH9XtSekEF+2dH+P4tzITduTygGfv58a5VCTH5PtXD7EFZiNyUDBhHnsFTBgE0SQIA9pfFtgo6cKGuhooeilaKH41eDs38Ip+f4At1Rq/sjr6NEwQqb/I/DQqsLvaFUjvAx+eWirddAJZnAj1DFJL0mSg/gcIpPkMBkhoyCSJ8lTZIxk0TpKDjXHliJzZPO50dR5ASNSnzeLvIvod0HG/mdkmOC0z8VKnzcQ2M/Yz2vKldduXjp9bleLu0ZWn7vWc+l0JGcaai10yNrUnXLP/8Jf59ewX+c3Wgz+B34Df+vbVrc16zTMVgp9um9bxEfzPU5kPqUtVWxhs6OiWTVW+gIfywB9uXi7CGcGW/zk98k/kmvJ95IfJn/j3uQ+4c5zn3Kfcd+AyF3gLnJfcl9xH3OfR2rUee80a+6vo7EK5mmXUdyfQlrYLTwoZIU9wsPCZEtP6BWGhAlhL3p2N6sTjRdduwbHsG9kq32sgBepc+xurLPW4T9URpYGJ3ym4+8zA05u44QjST8ZIoVtu3qE7fWmdn5LPdqvgcZz8Ww8BWJ8X3w0PhQ/wnCDGd+LvlHs8dRy6bLLDuKMaZ20tZrqisPJ5ONiCq8yKhYM5cCgKOu66Lsc0aYOtZdo5QCwezI4wm9J/v0X23mlZXOfBjj8Jzv3WrY5D+CsA9D7aMs2gGfjve8ArD6mePZSeCfEYt8CONWDw8FXTxrPqx/r9Vt4biXeANh8vV7/+/16ffMD1N8AuKD/A/8leAvFY9bLAAAAbGVYSWZNTQAqAAAACAAEARoABQAAAAEAAAA+ARsABQAAAAEAAABGASgAAwAAAAEAAgAAh2kABAAAAAEAAABOAAAAAAAB3ccAAAakAAGTwwAABZwAAqACAAQAAAABAAACaqADAAQAAAABAAACogAAAADAzF0GAAAACXBIWXMAAAsRAAALEgFUSQxSAABAAElEQVR4AeydB1wVR9fGD70oSi+KFHsXsXeNLSbGJG+a6T0xyZvevlRTjYkxvZpu8iYxXWPvvSt2BQUVpAlSFQUp3zyDe70gHS/C9Zn84O7ulJ39zzX7cM6ZGZvk5OSiCbO95MsbbKWosFCYSIAESIAESIAESIAE6gcB+0IlzooKisTD2Ub1yK5+9Iq9IAESIAESIAESIAESEFswKCrMJwoSIAESIAESIAESIIF6RsC2qKhIiooo1OrZuLA7JEACJEACJEACJFBsUZMikiABEiABEiABEiABEqhvBLTrs751iv0hARIgARIgARIgARKQMxY1kiABEiABEiABEiABEqh3BGhRq3dDwg6RAAmQAAmQAAmQQDEBCjV+E0iABEiABEiABEignhKgUKunA8NukQAJkAAJkAAJkACFGr8DJEACJEACJEACJFBPCVCo1dOBYbdIgARIgARIgARIgEKN3wESIAESIAESIAESqKcEKNTq6cCwWyRAAiRAAiRAAiRAocbvAAmQAAmQAAmQAAnUUwIUavV0YNgtEiABEiABEiABEqBQ43eABEiABEiABEiABOopAQq1ejow7BYJkAAJkAAJkAAJUKjxO0ACJEACJEACJEAC9ZQAhVo9HRh2iwRIgARIgARIgAQo1PgdIAESIAESIAESIIF6SoBCrZ4ODLtFAiRAAiRAAiRAAvaWRpCalibRBw6ecxt7e3tp1txfAvz8zsnjBRIgARIgARIgARIgARGLC7V1azfJxFcnl8t61Kjh8urLz4iTk2O5ZZhBAiRAAiRAAiRAAhcjgTp1fQYE+EtgYHPBp5EWLlwin3/1g3HKTxIgARIgARIgARIggTMELG5RMyf9v+lfiLt7U30JLtFRo6/Rx6tWrZXH/nuvPi4qKpLlK9bIzt17xd7OXjp36iADB/YRWxsbU1N79kXJipVrJTMzSzp17CA9e3Y1uVAPHY6Tbdt3iaeHh4R17yQrlq+VuCMJEt69i/Tt09PUBg6yjmfLwgUrZH90jDgoV2ybNi1lzKXDxdHBQZdLTE6WzZt3iJOjo/Tp3V1Wrt4gcXFHZNDAvqpf7cXGrE/oM+6L/vcID9P3btLYzXS/2j6XqSEekAAJkAAJkAAJXDQE6lSomVP19vSU0JYhcjDmkDg7Oeus06fz5b+P/p9s2rTFvKgMGTJA3p70sjgqwbRo8XJ59rlXzfL/1sdPPvmw3Dz+P0pYbZdJk6eKs4uzFlxZWdmmsv+56gp58YUn9PmBAzH6XkePppjycfDTz7/LZx+9LT4+3rJrV6RMfGWSzvf19RGj7NffTJdevXrIF59O0WJt8pSP5LffivuBwj/+NEPX+eG7z6RL5w5yPp5LN8hfJEACJEACJEACFxWBOnV9zl+4VP6ds0j+mTVP3pz8vhZpoA0LFRJEkiHS/nP1OMEP0gplrfplxt9SqKxVH3/6tb52+WWjZco7r0nPHt31+Vdffa+tWfpE/Tp18pTYO9jLZZeN0qIN1//651/ZsLFYBL4+6T2T8Lpy3GUyYsRQFFETH2Lk/Y+m6WPzXxCJd9xxk0CwIaGfsUeOSGJiskmkPf7YQ/LqxP8zuXa/n/6LLns+n0s3yF8kQAIkQAIkQAIXBYE6tai9oyxPpdPAAf3krjtv0pfnL1iqP/v36yMTJtyuj2Nj42TzlgiZPXehXHfdODlyJF5fj9ofrd2Pd99zq9x04zVia2unhFqhzjN+ffHJu9K6dUs5+tC9cunl1+nLq9duFP8AX9m5c7c+h7i69eZr9fEbylUJMTd//iJ55eWnjWb051vKotepQ1sZMXyI3HLr/fpaUuJRUTc2ldsasU0LvpdffEpyc09L48auOu98PJeNjZ3pPjwgARIgARIgARK4OAjUqVCDC9NBxX9lZx2X7Tt3aavX6jXrJDLygHYRxikLFdLadRtM8WvGMMTHJ4irs4tcfvlomTNngezff0DenvKhzu7Qob088t97tFgzyjdp4qZFGs59fb2llRJssJYlJCbK4UPFYg95iD0zUu/ePbRQw3msinUzT+3attSncNkaCXFnvXuEaQtaYmKStvzB+oeE2awPTrhDH5/P59IN8hcJkAAJkAAJkMBFQaBOhdrEF582TSbYr0TTDTferSFv3rJNCzUE8cNl2b59Wxk0qF+JAbBTwf5Ir058Vvr27SmLFi6TjZu36vJ79+6Tx596UZYtmlmijvlJenq6PnVr1Fi5Qp1MWenpGWbHxWVwoVGjRqbrOMDEhrISJjn8/us38tsfs/QEh+3bd+pimM2Ktr/87F0dK1fb5+LyJWXR5zUSIAESIAESsG4CZ/12dfycbZSFCwH/SElJyoWoUquWxVartLR0uV+5NB+47w7xULNEce6kRNyOnXvkltsmyP/+97s8+/Qjsnr5bJn48rO6LoTQJiX4jIRJBCtXrdenmJGZdqxYhAUHtxDc20j/zlkoeadPy4kTObJw0XJ9Gf3y9/c1ilT4+auaRHDP/Y/Lhg1b5LuvP5LVq+YKJi0gIY7t5Knc8/pcFXaGmSRAAiRAAiRAAlZFoGwzUR09oquri7aI5eSc1He89ZbrJGLbdh3kf9U1t4uDo4NpwsHzzz0pAc38ZJ9amgPpxlvuFbgqj6ilN5Dg6gwP7yJz5yzR5/j12BPP6eB/Y7YmBNhVV16mxd8114yTP/+cJXNV7Nvq1eu0WIPYQ7r/3jtKLL2hL5bzy09NLjD6dPm4G6Vbty6ydWuxYOzbt5e4ODvJ+Xiucm7PyyRAAiRAAiRAAlZMwOIWNRuzYPvSHP18i7ePWrJsheTl5clQFcP27NOPaksbJg1g6Q6ke++5XVmpxoiPl5e89+4bar2z1gKL2WK1VAdEEkTaC88/pWPYdAX1C6JswIC+ppmdKDP1nde1SEOZpx5/yGT5QluGSLvn7ttMkwtsbc+u3Wa0a/5pY2cnw4YOlAcm3COeXh5qBmiSnogAYQjL3dNPPKSLn8/nMr8/j0mABEiABEiABKybgE1CQkLRhH/c5M/7GtebJ4VoizkYKwWFhdIyNFhbpUp37tChWElWgsjL00OCggL1Gmso88efs/U6ahBmy5fMkoyMTP0TFNS8xGQDoz24PGMOHhY7eztpFRpS462ssHTI7t37lKvzlPj5eUuLwMASi/TifrV5LqO//CQBEiABEiABErh4CFxQ12d5mLFmWft2rcvL1tdDQoIEP5Ul7IRg7IZQVtlGjVz1RIay8qpzDZMKsLhtRel8PldF92EeCZAACZAACZCAdRCwuOvTOjDxKUiABEiABEiABEig7gnUS4tabTAMG9ZfWrcJ1eu11aYd1iUBEiABEiABEiCBC03A6oSal1qQFj9MJEACJEACJEACJNDQCdD12dBHkP0nARIgARIgARKwWgIUalY7tHwwEiABEiABEiCBhk6AQq2hjyD7TwIkQAIkQAIkYLUEKNSsdmj5YCRAAiRAAiRAAg2dAIVaQx9B9p8ESIAESIAESMBqCVCoWe3Q8sFIgARIgARIgAQaOgEKtYY+guw/CZAACZAACZCA1RKgULPaoeWDkQAJkAAJkAAJNHQCFGoNfQTZfxIgARIgARIgAaslQKFmtUPLByMBEiABEiABEmjoBCjUGvoIsv8kQAIkQAIkQAJWS4BCzWqHlg9GAiRAAiRAAiTQ0AlQqDX0EWT/SYAESIAESIAErJYAhZrVDi0fjARIgARIgARIoKEToFBr6CPI/pMACZAACZAACVgtAQo1qx1aPhgJkAAJkAAJkEBDJ1As1Gwa+mOw/yRAAiRAAiRAAiRgfQTsbWxsxMbGTmKPZsrp03lSWFBofU/JJyIBEiABEiABEiCBBkjAHn22sbUXJycbsXewlyLqtAY4jOwyCZAACZAACZCANRKwt7W1VRY1W3FwUD/qPykqssbn5DORAAmQAAmQAAmQQIMjoC1qYmsjtnacV9DgRo8dJgESIAESIAESsGoCVGdWPbx8OBIgARIgARIggYZMgEKtIY8e+04CJEACJEACJGDVBCjUrHp4+XAkQAIkQAIkQAINmQCFWkMePfadBEiABEiABEjAqglQqFn18PLhSIAESIAESIAEGjIBCrWGPHrsOwmQAAmQAAmQgFUToFCz6uHlw5EACZAACZAACTRkAhRqDXn02HcSIAESIAESIAGrJkChZtXDy4cjARIgARIgARJoyAQo1Bry6LHvJEACJEACJEACVk2AQs2qh5cPRwIkQAIkQAIk0JAJUKg15NFj30mABEiABEiABKyaAIWaVQ8vH44ESIAESIAESKAhE6BQa8ijx76TAAmQAAmQAAlYNQEKNaseXj4cCZAACZAACZBAQyZAodaQR499JwESIAESIAESsGoCFGpWPbx8OBIgARIgARIggYZMgEKtIY8e+04CJEACJEACJGDVBCjUrHp4+XAkQAIkQAIkQAINmQCFWkMePfadBEiABEiABEjAqglQqFn18PLhSIAESIAESIAEGjIBCrWGPHrsOwmQAAmQAAmQgFUToFCz6uHlw5EACZAACZAACTRkAhRqDXn02HcSIAESIAESIAGrJkChZtXDy4cjARIgARIgARJoyAQo1Bry6LHvJEACJEACJEACVk2AQs2qh5cPRwIkQAIkQAIk0JAJUKg15NFj30mABEiABEiABKyaAIWaVQ8vH44ESIAESIAESKAhE6BQa8ijx76TAAmQAAmQAAlYNQH7uni6oqIi+XfWHFm/eq2kpKZIcEiI9OgRLmPGjqnV7adMniI5OSfl/55/RpycnWvVFiuTAAmQAAmQAAmQQH0jUCdC7YVnXpD169aZnj16/wFZumixbNmyVV54+XmxsbEx5VXnYOnipZJ76pQ89cyT4lSdiixLAiRAAiRAAiRAAg2AgMVdnwvnLzKJtOdeekF+/eNXuf+hCRoNxNr2bTsEFreYAwclJjrGhCztWJq+lpGRqa8hP/ZwrC67a/tOMa6bKvCABEiABEiABEiABKyMgMUtavPnztPIBg0ZJCNHj9DHN9x4gxJcInt375bkpCQpKOgk99xxl85bvGKx2NrZyW+//ia//TJD7rr3Hrnl9pt1PtybcJtG7dsn7338gZUNBR+HBEiABEiABEiABEoSsLhQiz9yRN+xe3h4iTuPv+kG03l+fr7puKIDuDkh0lq1aS1NmrhVVJR5JEACJEACJEACJNDgCVhcqGVlZWtIQUFB5wUW3KeGZe68NMhGSIAESIAESIAESKCeErB4jJp/gL9+9OTk5BIIdqjYtNlqJuieXXtKXDdOCgsKjcMSn4MGDyhxzhMSIAESIAESIAESsFYCFhdqnbt01ux+m/GbHE0qFmvHUlPlpedflPfeeVfn2amYNCNlZWbrCQPRZhMLjDx8Ojo6mp/ymARIgARIgARIgASsloDFXZ+33Xm7zJk1Ww4fPCTjrx0vXbp1k53bt2ugffr1lY6dO+rj0FYt5aASZ/994L/i4uoiWMKDiQRIgARIgARIgAQuZgIWt6j5+HjLl99OkxZBLTRnQ6R17tJFHn38ERP7e+69Vy9amxAfL0eVm7RbWJjOq+ESa6Z2eUACJEACJEACJEACDZWAjYodK5ow21umjbe4ZpNjqcckMT5BfP18xdff7xxmhQUFkpKSKp5eXuLgYHFj3zn35wUSIAESIAESIAESqE8E6lQNeXl7CX7KS1g/za8MAVdeeV4nARIgARIgARIgAWsmYHkzmjXT47ORAAmQAAmQAAmQgAUJUKhZEC6bJgESIAESIAESIIHaEKBQqw091iUBEiABEiABEiABCxKgULMgXDZNAiRAAiRAAiRAArUhQKFWG3qsSwIkQAIkQAIkQAIWJEChZkG4bJoESIAESIAESIAEakOAQq029FiXBEiABEiABEiABCxIoE7WUcvJyZEPp7whq1csk4z0NAs+DpsmARIgARIgARIgAeshYHGhBpF2363XycEY7t1pPV8bPgkJkAAJkAAJkEBdELC46xOWNIq0uhhK3oMESIAESIAESMDaCFhcqMHdyUQCJEACJEACJEACJFB9AhYXaoxJq/6gsAYJkAAJkAAJkAAJgIDFhRoxkwAJkAAJkAAJkAAJ1IwAhVrNuLEWCZAACZAACZAACVicAIWaxRHzBiRAAiRAAiRAAiRQMwIUajXjxlokQAIkQAIkQAIkYHECFl9HzeJPUMYNbG1tZejQoXL99deLg4ODnDp1Sr777jvZunWrFBYWllGjepfQZosWLcTGxkaOHDkiubm5+tjb21s8PT0lJSVF0tIqX9jXuamz9Lg7XHw7ekv85kSJmL5NTuecLtEZF1UmqH+QuHi7SG5mriRsSZCsxGzB9Ua+jcTG1sZUvqigSE4cPSH2zg7i7O4kcjbLVKbgdKFkxWfJ6ZOnxSPIXXo91FNcPVxk79+Rsn/hASksKJ+Ph4eHDB48WOLj42Xbtm2Sn59vapcHJEACJEACJEAC55+AVQo1A5OdnZ0EBgZKs2bN5N9//zUu1/oT7d56661y7bXXygsvvCCzZ88WLy8vef/998XX11cefPDBKgm1QiWa3Jo1lqBBLZR4ypaiwiJT3yDAgpVAGz55mDT2aWS6HjX7gCx5eZmEXhIql7wxVGzNhFpBfqEsfW6ZBPQIkM7jO5rqmB8cV0Ju1t2zJSUqVQpVed9OPuLRykP2L4iWoqKz9zevYxyfPHlSOnToII8++qg88MADEhkZaWTxkwRIgARIgARIwAIErFKowWq2dOlSWbZsmbYATZ069byig4VuxowZMmzYMLnlllu0pW7AgAESFhYmb7/9thw6dKhK9ys4XSAZhzJ02fSDGVo4GRU9W3rKkJcHCaxkf94yUxIiEqRJgJs0bdHUVA7Cbv3Hm+XwisNaZMEaBovakU3xsmvGbrFzspee94dLs57+suK11ZJ2IE0K8gokU1nUkHJP5MnxhONKLLpJNoRiJUINz/3bb7/p577pppv0s2LnCSYSIAESIAESIAHLELjgQs3R0VF69eqlRY6Tk5PExMTIxo0bBVYrXI+IiNDCB27GTp06SevWrWX1aiU6lGsRwiggIECXad++vfTr10+7HWfOnClJSUmWIXam1ejoaC1aHnnkEXniiSeka9eusnv3blmwYEGVXYIQVrCknT6ZL9kJZy1qdg520mpES3ELdJNlL62QhK0J2iWZEZcp+DHcnRBxGTEZkrz3aAlrHLoI96i9s72cSD4hecqdmrovVVvRzKHk5+ZLZlyWeLbzlJxUJbgqNqjpqrGxsdqN/NRTT2khvHLlyvPiTjbvF49JgARIgARIgASKCVxQoda0aVMtcsaPH19iPD744APtVnv++eflxRdflMOHDysXn60MHDhQbr/9djlw4IBkZGRoy84dd9whWVlZ2vWIRk6cOCFbtmyxuFA7ffq0dqeOGTNGLr/8csnLyxNY7lJTU0s8S0UnsIhBQEXOjJK06HST2HJwdRD/7n5yPP64JG5LqjBurKL2K8uDdS1u3REpyC2QnGNVs4whLm3RokUyYsQIue+++2Tv3r2SnJxc2a2YTwIkQAIkQAIkUAMCF2zWp729vYwbN04H/H/88cfSrVs3Hf+ESQALFy6sspUGgf0QTXfffbc8+eSTWjDVgEONqiQmJmqrGlyGmzdvlnXr1lW538YNj+5NkSUTl8mx6GPGJXFwcZDGfo21G/NUximxVy5Mr1Ze4tvBR5o2b2KyqNk62Eq/J/vI1d+Mk6u/HSfDXhoirp6upnYqO4BQPLA4Wla+s1py0k9WVtyUn56eLt9++620adNGxo4dqydsmDJ5QAIkQAIkQAIkcN4IXDCLWqNGjWTIkCECF+I///yjZ2biqSB+4ObEJICqJMRIvfbaa1okde/eXVasWCHZ2dlVqVphGX9/f3nmmWckNDTUVA6C8Ouvv5bFixdrQQZXbceOHXV/27Ztq2eCZmZmVhrrZWqwkgM7R3stytxUbNoVX1wmTYOaiDGZoHRVMMNPXSTEAGIGLVzMt912m2YPy1plMW510TfegwRIgARIgASsicAFE2qwhDVu3FggbDCbsKYJS2FA7BUUFGirFixb5yOhPbj0YPkzEtx+RvA8XLEQhiNHjtQWPSzNARfupEmTtPvVqFOTTyydkaMmBXi28RQs4ZF5JFNWvrlaRrw1rERzmDW6buoGiVq43+Q2LVHAgieYWPDrr7/KoEGDBO5niOXjx49b8I5smgRIgARIgAQuPgJnVUgdPztiuuBC69y5s/j4+MixY2ddf+ZdMYQShBBEQV1ZjSAAMYOzvIQ1xbBEB8QJlqvA7M/Ro0fLvHnzZO3atdV2gZrfB2upJUYkSQu1bEdAd39JP5gu6Wp2aN7xkmusmde5EMeY3Tp9+nTtckbc2pIlS2r13BfiGXhPEiABEiABEqjPBC5YjBoEzpw5c8Td3V1eeukl6d+/v3YjwkLVt29fk5UNMz8h0N59913p0aNHjVjC+tWyZUvBzFA/Pz89MaFGDZ2phPbQJ/QZVqVNmzbJjz/+qHNvvvlmcXNzq03zgmU7DiyKkSw1I7PPo70kdEiIilOzO6dNGzsbcW/pLr7tfXT8Gj5dvVSMWt14QPXs1vnz58vOnTvl3nvv1WzP6SQvkAAJkAAJkAAJ1JjABRNqiHNCrNfnn3+ul9nAzgF///23fPLJJ/r84MGDepkOuBOnTZsmwcHBsmvXrhrFQWGpD1i90D6sYDivTUL8GtrBUiJY7BbWwe3bt+ulOTAzFSIOYq42KS0mTa19tko3MfbzMXLTrBt0jJp5m1imo68ScuP/vk5u/Od6uXHm9dLu8rZ1ZnVEX2AV/eabb7QQvuqqqzixwHyAeEwCJEACJEACtSRgo+KwiibM9pZp42snLMrrx4Du7crL0tchaOD6DA8PFxcXtZWRCkqHSEMMFGLYevbsqcsheB3B+7DAYQsj5KMeyhjnZd0I1i3sTABxBnEIYQG3Jo5rmow2sUSIeVtYbgQiDtZCTIqozT2Mvrm4O6sdCoL1FlKGSzTtYJreQgozQ4011VAewfzYeSAnrXhNNOS5qTIOjRxN20YZ7Z7PT2dnZ72GHSaInK/JHOezf2yLBEiABEiABBoqgQsu1BoqOPabBEiABEiABEiABCxNwDJmNEv3mu2TAAmQAAmQAAmQwEVAgELtIhhkPiIJkAAJkAAJkEDDJECh1jDHjb0mARIgARIgARK4CAhQqF0Eg8xHJAESIAESIAESaJgELtiCt+cDF2Y1BvZsLt3u6CpF+UWy5autkrRLbRBeJOLT1lvC7+ku+2ZGSuy6uDpfub8mz+fm7yZBA1rIsX3HJHnv0XP6bOSfSDohLYeHStOQJiJq8mryzqOy5dsIyc3Orcltq1wHvFsODZVON3QUO7XP6OlT+RLx7XZJ2Jpg6mtD4G7nYCfNezQTz1aecirzlMSujSueKXuGBHaDaNE7UBr5NtKzZY9sipe8E3kmTrXNNzWkDsAUzHw7+0qc+p5mxmeZZ9fqGG0H9Wsh7a9sJ1u/jpCUqNRatVeVymDb4cr20npUS8lOOi4bP9usPive0g0zv7HXL5bgWbVqVbmLX1fl/ixDAiRAAtZGoEELNWNvyRZ9AqUwv0C2fhWhRRoGyUm9bEOHh8iRDfHljpl7YFPp9UBPSdiSIPv+jdILzZoXrizfvGxtjx1cHaTnveESpHYjmP3gPJPwMdo1z1/8/DJ92c7RTvy6qgV8HW3FbnrdGUdt1Z6iTdTm8I2bNZb9sw4YXdSfVeFeokINTmozLo5qqZJBzwyQzuM7mu58bH+azHlovqQfTpcmal/V0e+OlGY9A0z5saviZOFzS+REyola55saPXPQ2LexDH1lsJxMPyXRi6NLZ9f6vLF/Y/3vYPfve2vdVlUaKCosEnxXg4cESfIOtQxOQeXL4ODfMfbRffzxx/V6fJ9++qnk5lr2j46qPAvLkAAJkEB9IFB3b3dLPK2ynJ1IzZGTGSclJ1X9pKv1w6qR8EJpMShQPFp6llmrsvwyK9XgorYM9mgubce21haq9EPpJVopnZ+4LVGWvrZcC7rYNXHaqlaigoVO8BKOXhoj/9z/r6yctFoK8gosdKeKm63xuKgdG7zbeUvrS1vK2vc3yOfhX8nSl1eIe6i7NO/dTBxc7KXrzV3Er7ufrHxrjUzr/Y1s+myrFs8drm4vjo0da5UPa5N5wjkWKHYPbipbv9kmJ5V1r6EniC7sqJGfW6D3qMXaf5Ul1ImMjJRffvlFrr32Wr2tXF1tFVdZ35hPAiRAAheaQIO2qAEe3H05Sqzl5+SrvTDPuqcMsLb2tuLXyVdChgSrsnmyf/4BOZ5cu83Dbe1sJSAsQJq2aKIsdke0C80/zE+O7kqR2PVxkq9cgkbCorR4GafsSRG40MqyMGDbp/B7w+TozhQ5sDBaWQdLWiEqyzfuZf4Jcefd2kta9G+hNnZ30n07vC5WzF+c9o720rxXM72fqJ06To9J18+TBVeVEsFwc8JyJkrOo08JmxMk9UDZe7Ka3xvHFXE3XI/Yx7RQvaTjNyZI0o4k03O7erio8QpRfQ+U3KxcObo7RQ6vjtUWrdL3Ke+8PO5Obo5iqwQSvi/Y1P6UsmThEyK0kXcjCRqsLEERyRKpLKxg6NvJW98iVH1/4tfF1yp/z597JefYmT8mIBrbeEnX2zrL7t/3Kfd1scu+wnFTdTxCPKRZeIAkbksSF3dwCtZuaPT36L4U/RzgFzQgSFy8XCSwb/MSO1WgffcW7rqei4ezHNkYL/FqXLFtmfG9btLMTbuzfdSWZBiD48qSuO+fSO3CrGxswBGWx9M5eUqwZVdZzMOiNmvWLBk+fLjcddddcuDAAcnMzCxveHmdBEiABC4aAlYh1KIXHpSCUwXq5XBWIGEE8Vd5rwd7iKuPq9qZoNh42GpEqCx+cZl0vKq9ds808mskna5Ve4B29tFCIX5zouz5a690vbFzufk7ftkpocNCJOzOrnJcxeE0DVRi5kxa9/5G2fLNVv3is7O3k07/6SB9H+stKXuPyb8T5pwTr4MybS9royw9XjL/8UXaOmi0hc/K8s3LGscQSe2VOBz66hBtJTKuR87aryxhq5Tl8aTe2aD/k/2ks4o3M0/rP9gom1Wsn5tymV3x5WWmrEL1Al764nI5Fp1W6TZe5XGf+9gCyT+ZL30e6iVh93RT+k8pD5UKlHts3dQNsv2nHeKorJwjJg+X0KHBpnsXKJG46MklAqEZfkdYueMSMX2bFqLlclfiM2VfqhyLOib9n+qr4sJ8pHnfZpIWrQTquiPiqmLSmih37h4lnCC2O13TUVlcW+h+uAW6Kcure63yIXIMoebU2Em63xmmhGie7Pljj7JA5WtxW9G4weLm285Hu0pPZaidO1R/jZSdeFyORqaIfxc/ufS9USW2G8s7UWzVgkgLHRwio6aOECdlHUTCv48NH2+WzV9vkaKCItP3Ok8JZBdPF10G9RO3JEmB6mN5YxO1cL/JXY/YNHzXIOzL+sNEN1rGr6SkJL0d2RtvvCGXXHKJFm4FBRfGaltG93iJBEiABC4IgQYv1PBChTAqLyEgfOuXERLx43YJv7O7ik3qcEZY2SiLiZnnVx1ik/OzqbJ8iChbcVIxT3MfXiBpyho1+r2R0u6KNhI5O1K5fbL0FlJHNiVIZmyWHF5+WAeun22/+MizlYeEqckQ+2ZGSUJEoullZ5SrLN8oZ/7pHuQuvR7qqQXJgicWyfHUE9LjrnDp/XBPSYxIkt1/7VEB5u2l43Ud9Esa/CAU3HzdxL6Rvdg72+vYvZWT1ihrzx5tdbv0/VHmt6j0uCzu6Bese11u7ix7ZuyV1VPWKmuQnVzyxlB1v3AV03RUi4GAbn6y85fdsnLyat0vVw+10byyvMFagx3nKx43Zf1T24OVx/340eOy4aNNctnHlyoGbVVs2ElZ+eZqyUzKEvcQdyWW7JRYPiVeaqIBhPiB+dGqTwVaOCL+rjb5Di4OmhsEU8iAYAm5JFhWvr7KNIGgsnHb9ftuU31MaFj+6ir1B0CqXPrBSH3d1dNVBj7TX2A1xHfy4MpD2po76PkBOh/j2/vhXpKdcFx+f2yhChs4IcNeGaI5RM3br76nxRYsfK/zlYVt5t2zxUWJy8EvFNdvqmI6Kx4bfRvd7gr1B0F1E8ZtzZo1ehuyu+++WyIiIuTQoUPVbYblSYAESMCqCJgpFat6LtPD7Pltr2yatkW/kLMTsvVLviCvUNZ+uE4WPbNYTiSfkN1/7JN/7v5X/rpzpmz8YpPaL/N4hfmG+zBfxWitfHONHFBB4JlHMiVxU6KyQjiLcxNnfX8Ii/jN8fL9yB9lzQfr5PTJkvE6CGwPu62btt7s/HV3tfNND2l2ABGAWYSNAxpL1OwDAjcmxCxcvnj+Zj0CRLuvlIsvIyZDubT26fuir1lKrKQpixlcX4jdg6su7+S57mSz25V7WBZ3e2c7FaTfTFtuombvl9zjudqCuFdZsOB69e3kI6eUJSdb7Vfa5cZOMvajMRI6METylBsNVkC4uSsaN2NcKuLexK+J9Hmkl9ipvmQcztRCpP/jfaSJn5vpWVyVJamHmthRqL4nmKCSp1zm5qm2+U3U7N7uytUdt+aIHFx2SFudqjJuENBIeL4tX25V39s9kqPcjLEr4yRL/WHg29FHfLv4KsvkTolZpqzM5jGE6m8Qrzaeyk3vod2SwWr8OyirMoQzrMqYRHHGwKm+D/my8tXVerZ0VmK2HFoZK7nKmgdRW97YmPOpzTH2yf3+++8F++becMMNgn1kmUiABEjgYibQ4C1qFQ0egpSTdiSrZSSKBRKsRrh2vhJeXKmRqfrFCXcfLCawRJSOMSvrfngxB/ZqLq1UYPvqyWuVaMgoUayy/BKFS53AKoaElyte6kgQMXBhQUhik3YHNweB+yyvlHjEyxrWMMQ/Gdx0A9X4VR53PBOsPQV5Z+IJVddQ9pQSYIgTg6stWwkDWAF7K4tg68taaTdn+sEMWfzcMkncfq7FsRrd0ta7Ljd11mJmhbJGQbz2ur+HWsYlTAvmmCWHtEWv621dNLflE1dqaxf6dVp9dxDPBvdfTfMh1GFBxHIZcLHCkncy6+wEgsrGDUuiIEGAJe86qr5r+ZKh/kBY/NJSHU/X5frO+jNVLe9S2uWovp5qJrSTis+zFcwEDVFCzUiI/8szC/o/oYQyXNxoA39o4AcJ42epsTH6gu/Dvn379MSCO++8U1vXNmzYcF7/3Rr34icJkAAJNAQCVm9Rq2gQEPsEgWCrXJ4QWqVTZfnm5V1V4LZ3Z2/JUm5OzEStLGFZhp4TwiVJxf7ELI4558VaWX5F7Z9KUy9/JYJclaUEa1QhOTdxEmd3JzmeeEJPujipyjQJUktsmMU5lW5TURFHF0dpeUmo2KsZkbVNEI0INLdXghYTJCAK8fJvrIL4ISCy1BpiELnH1ISFeU8skO+H/Khds27KwgdWzm5OugvVGRfzPjs2chC/Lj46Ju2wshKdUiJpx887JTUqTYk3H215PH40RzGzkUPKVR29KFpz81ETCrKPZEvGoQxlba15PmYn+3bwkc43d5Jdv+5RkySO6nEy+ljZuGEmZaVJMUWMHhIYt7+irf5u4+8TTLqBG3fXL3tk5n2ztQUZVuTZD87VkwfwnakoYfwqG5uK6lc1DxMLZs6cKXFxcQKx5uHhUdWqLEcCJEACVkfgohZqsDLlZuZKM7U0Q9OgpuKhYqjajm4jjXyKg7TLz1ciQyUEvmO5h+Zq0d1Bzw/UbqV9/0SZYtEgQloODZUJW+6V4a8OE7g6kYxlGTzUshBbv90mOeoFbp4qyzcvi2MnZSXzbu8tXmqWp72TvY5bwtpgXVUsGBbQxUxBLP6LeKPDq9TsSRWbtH/OASXcnGXIi4MkuH+Q+HX0lTYjW0tQnxY64B0LwUKgDX1xsF5zDOIFbZsniFt3FWDvq2YHYjFePG9FqVAFq8epmZOwSvW4v7v4dfAV/85+2g0I6+RRtXAv+jDgyf7i38lPC6mYJTE6dsqYDIL2yx+X4nErjztc3jnHTkpTNZPVT7kIMevVW7mJ3ZR1C3FbmXEZcnhFrFpDWLmsVWwhhGRHNRmkaWhT7f47djCtVvkQS93vChOIZExYgYXXSBBBiDeraNzMyxv1jE9YojLjMvUfHh2vby+thrWUUW8Nl8B+zYuLqHunqkkUSVuT9ExTTCpwUePfrHszGfCE4q0mIVSUwLTdpW0rHZuK2qhOXmJionz77bfSu3dvGTFihNjbl/zuVactliUBEiCBhkzgov6/HywMu2bskSEvD5Jb5ozX44jA/5n3ztaWn/LyZz8wV5d1UhaeUe8O18ew8mxUs+ci50SZrGOwZnmomCDMsPNR8UNY/wvxVnpZhts7y96/IiVBrYlWwpKhxEGF+WV823zUjNGrvx+nrD0nZJYKAMcSGnCrjZx8iYybdnlx/5Qba/OnWyRm+UFttYpWAsj9i6bS86EectV3V5haxazPiB+2y66fd6uA+9E6Xmnv35HSckSIdplhCYcCtbgwEmaX9n20l/7Z8tU2WffhelM7ZR4osYBlOFYpV+/QiYNl/N/X6WKIPVvy/HItJDxaeigx00163tfd1ARctpgAABcpUnnjYoxbmdzVzgKIt8MkheZ9mslln4w2tZ+lYve2T9+h3ZA7/rdDLVfiJ4OfG6B/UAgL3kJYYfmXmubvVbGAwQOCJHhQkCx/pdilaurAmYPso9kVjpvhxi5dT59rtskSPT9GOlzTTgt0LKsRt/aI+KnJGUhYZ3Ddhxtk9NSRcvlnl+pr+JWtlqs5MP+A6by8Axt7m0rHpry61b2OiQUrV67UOxVgYsGWLVskOjq6us2wPAmQAAk0eAI2ycnJRRNme8u08ZYxrg3o3u6CQIL1CkHxeKkjEB0JQfSu3q6CF7OxJRAsBe7BasHTHs20dS1ebYdkLKGAOmXlY22vfo/21TNIV7y2WtIOpOm1plCv9MsU9wweGKzXKMO2UEgB3QL0Ug+HVh4+Z20w3K+ifN3AmV8QTXhGCEYkxC5hCyJj0oKLmhkIi5+Tcnsilg555v3DveBibdY9QOxd7SUVFp2YNO0ChPssdGiIXq8LQf+Y8ZevYv3ADm1gwoSbmrCAPsCag5X1MQkDcXqVcTfu66OsgHB1YsmME8dOmAQr+u2prIOerT0kTy1fgdmwaLt03ysat9LczetivbRgZWnELE7EnR1eG1tizPUWUWq3CwTZY/HWMreQqmY+4r1guYS19NCqw1qwnxnGcz4qGjfkIYbwuJoEA9dt6YQJB37KSok/DhIVN7Au/Z3Hvw2MOZ4P25VhzPGdMcYF+Znxmfp7ULr9qoxN6To1PYfFNigoSFvVdu/erWPXIOCYSIAESOBiImC1Qs2Sg4iXLYRa23Gt5d975tTJHoqWfB62TQIkQAIkQAIkUD8JWMaMVj+flb0iARIgARIgARIggQZF4KKOUavpSGG7ndXvrtE/NW2D9UiABEiABEiABEigMgK0qFVGiPkkQAIkQAIkQAIkcIEIUKhdIPC8LQmQAAmQAAmQAAlURsBqXZ+enp7i5eUlR48elczM4j0My7pWESBMGuig9sRsPaql2kz9uGz8bPM5m6pXVJ951SOAddq63tRFz8hUO7bLiaQcxXyTXn3fvCXMTsQ6YK0vbSVbv4nQy5GUWOLEvLAFjjGzsvN1nfSesZu+3CI5aZUvcFzTbuBZsSWYb2dftQZdnJ65q9tSy7j4d/TTuyTsU8unxG08UmJWbE3vV1k9/puojBDzSYAESOD8ErBKixrW0Ro2bJj88ccf0q9fP706f1nXKkOJJR2w9lnwkCDxUSvKl96Wp7L6FzIfL9ROarHWkW8OF3e1tEZDSViSwcZOiZMO3hI4sLnmX7rvWBIkIDxA2lzWWi+tgjrnK0EYYQHjS98dpT9xXjo5qiVIWl4SIi1Hheptr0rnn89zLJ8y9JXBEjpc7Xmq1oIzEp4Zy5e0vaKN+Kg9UvH9rovUkP9N1AUf3oMESIAEzjcBq7WonQ9QWB8M62hh6x5suo4V8RtS8mjpqTdX36YWsG0ICSvvb/l2q2ybvl16qk3RO93YscxuYzLHxs83qcVrd6p16M5du67MStW4iC2tQpUQO7j4UJm1sC7fvMcWiJ2yAGKXB0sliO12l7dVYrSprHl3vZxUu0UYCYIpcu5+vYPCCWXRMxYhNvIt9dnQ/01YigvbJQESIAFLEaBQq4AsXobYm/K02k0gKy5bLyhrXhzWFmzP1LxnM/XSLt5fMUftBWm+oGmTADcJHhwsnmrF/ezE45KyJ0US1er8+afy9QKj2H4psG+gNFaLj2LzcSxSekwtoAvrHax5LXoHausRNis/uOyQdr3C9RYyIFh3JVntFxnYu7k0CWwisatjJWlXcpVdYFjUNqif2mJK7Z6wb1ZktVx4WDQ2qD8WjS1ebBciFs+NxVKxeHDitiS1RZNqX23+naPEFLaCgtDQvMrLV5vEV5TAG7z8w/y11Q0MsSVWdlL2OdUq4o7n9lNbJsFqB+ud2jNK72EZvyWhQnYQTi3UQrdYaBeuWSyWe3D5IcGCwOYJ22mFqDHHwr8ZalsnjBvco06NnfQiwliEOUuNJxYUxmLFBxYc0Jug4/tmSqpbeoeK2zrL7t/3SfLOZJ3lEeqhx9tOsUXCgsEJmxNM7l8sOIzvA+7voPY2TVbbch3ZEC9palFbtI9nwPgEdPeXQvWHSPzGBL1bBNpBv7HlWMruFL2QcciwYMnNztOb1x9XuxcgVfZvQhfiLxIgARIggfNGgEKtEpSITYuctV+/DM1dn3jhdby6gwx+caDaA7P4pYmmknekCHY3OK1W8Q/q20KGTx4mbn6NTXcxtqjKViv8d7quowx8tn+J+jFLD8miZ5fojeKHqH02245tbarb/c5uMve/87V47HZ7F/Ht5Cunc09LI2xwrlL4PWGy8MnFSjjk6a1+mqmXsaOHk4xQW0mdUiIo7/hp2fLVVi3mENMFcYfts9yC3PTK9Lt+312hUME9tGuwR3MZNXV4iedC+2kH0gUCacjEQSq+7IQ0bt5YjD06oxeHyNIXl4lvO59y85c8v7SE1Qj3K52aKVE8+IUB+jK2lso4lFlCqKF/FXE/mXZSLVbcR7re0rlE09gkHfuA9lB7ojbrEaAEp4P0e7KPdLqhg94/E9toQYh2uLq9aUzwvAmbE88KNSWuArr4q23FRmgrmHGDlL3HZMGTi+S06i82l3f1dhE7tc8o7oGEe8y+f64k7yneuQLXIOq63xkmuWpnhj1/7NH7gmqhCn5qzOzU9l1IhUp8LX1xuRZ6+E72ureH9FLbghmpw9Xt1JgXb+9l52wnfR7qJWH3dFM6U3VWpQL1B8G6qRtk+087pGmLportQCXOcsXVx9U0dq1GhMpcZUE0duwo79+EcU9+kgAJkAAJnD8CVi3UHB0d5cMPPyxB6/Tp6rkv4dpaMWlViTbwjvPv5i/9n+ijNtJO0S9K7LM5cvJwgaUJCdaUAf/XX/Jz8uWXq36To/tS9KbmXsodiQ3IYdHop+ofVlawZS+v0C40bM/TRG0YDtdemzHtpNWYlrLmnfWy/ecd2goy5sPR0kpNbNj1+x59D8fGDjq4HC95bHt06YejlIhoI9hX0jxuy0bFL+nYr1KxXLDsHF4ZK4H9m+sN0eHWqixBdA5Uz4X2Zt07R2+vFH5HmITd3tVUFYKisdroHPtzRs2KUs/ZV7sSEecHdhXlx26IM7VT+gDWnIjp22TbT9sl7JZu0vex3qWLVMg9V1n02oxpLZ1v6qTEzz5Z+/56cVRbLV351diz7RTrl7PnZ47wvBDf855cIItfWiojXr9EvNt7lSiHbbV6PtBDWckc5c9bZmrraOiQEBk5Zbj0UHuXbvkqQnNzUduKQZCvfHOV2gzdX4a/NUy81H6t+I7gGcEHFtOQS4Jl5eurTBMIkBc5P0r/gCMmVFz6/ihTH2DdDFJ7iSZtT5Y5StBj2y1YOPGMGFtY2rrc3Fn2zNgrq6es1da1S94YKr0eCFd/YJwVidiiauuXERLx43YJv7O7dLy2nRbghlAr89+EqRc8IAESIAESOJ8EGqxQc3V1lQkTJsjAgQP1yw9Q8DJauHCh/PDDDyZG8+bNk4iICH3et29fXd6UWcMDYx9MW2XBwCbm2ATd2c3Z1Bpe6j7KRecR4i7r3tsgqfuP6X0s4aqD1US70JS7E+V2TFdxVtjnUiW4BvEDd1iwchkW5RepfR1dpdO1HbXVrEiZwbw7eouDio1CgmVjyf8tFewhCoGIPUcb+zeSo8q9OufheaZtrhY9s7jMba7gslv2+grdVlV+QUBgH1Kvtp7aChO7tmxRBUGx88ddEvH9Nu0ujl0TpwUmBECBivcrLx/uXzCpaUL/KuKO/T/bXt5a0qPTZdMXm7U4hogxEuIQFz23RNqOaiOXTBqqnzFq4f5KrYxGfYhYn07eErvmiBxVLmnEjR3ZHK/jyPzUrE0IKXxHIaRWvLZSuz8bK3djUUGRHnOjnSbqWvd7wyROtQO3qbkl1yhT1ifcz+kH06X9lW3lqm+vkIjvtkvM4hi1L+hx/Z2DNRL3ipq9X1sBwXqvcqsGDwxS1lkf/UcH2t3z217ZNG2LFqaw/ML6Z69cqkwkQAIkQAJ1T6DBCjW88NLS0uTIkSMlqKWnp+uXIS7m5eXJ/PnztXjD+fHjx6V///44rFVCjJh7y6baBZl1JMu0mbipUaU1HJVVBemUsp5BmJgnxEVho/QCFTyPDd5LLy0BIeesXuoo5xfmq4UR6h9VVo+0fSrW6ExzmYeV20/FOqE+ZkLaOzlIbq6K8yp1P/N71+YYMwvhJsXL/ljUMeU2K1DusbNuX6PtwtOF2kKDTeKRsOwGLECFucUbapeXX3Am32inJp8VcYcAbuzfWFLVRuQ5ygV6vhOe00GJGsSuGeIK1tHczFxxaO8gDup7g5SqXKGYkIBUqIRroSpjJIx9+yuVBUtZJFe+uVpOlrHxulG29Cdmha5+Z60cTzguYXd1kxGThkne8wNlxesrJXrxQW3pK8jLVy5wNXtUfWfwb+iUcnNiPFw8XbQlTwvJHclapKF9TPDANSYSIAESIIELQ6DBCrWTJ0/K999/r39Ko6urpQpgwdEWICVCPFt7SkCYn2QdUUHX6r2GlzWSd3tvsZt/QL/wjH5C6MDt6KjEmoeaZGC4vIx8vBxPJOdIdny2LFIWM1hJzBMsQyWSuj9mBjZp4aasIUfUMg7F7t185arTfUTA/HlMuk317Eiw5CHoHEKsrITg9oBwfzmlLIXpseni3kIF4pulEvmHlciGyKzFShMVcTdua2Ovxk3131bFecEdiFg68wT+GEOUq07KVUIJP3D7Itgf7cD6CSvnSRX/hhjBCpO6na9yD3e+uZMgZg5WOfSjOgluyTUfrFOzZyMEsWV9Hu0tvVVcGqysmBgDy5grYhrVvfDdxQxXWwdbyYrPOucPiurcl2VJgARIgAQsQ6DBCjXL4Khaq3BhZsRkSuiwEBW/01ELqb6P99ZWieNqhiNEQJKapZesXFyICcpJPSlH1h8RO2VRadqiiRxeEyuHVhzWsVL9n+6rb5oeky7OHs7ahXpw1SGJXhgjLUeGSq8JPWTDhxu1eIGocPFwlf1qWQYkJ3dnLQRhyRnwdD8pVBas/QuiJf90vl5XC0tXIB6qea/myv11QrzaeOp68WqWICw+iIkb9upQadY7QOY9vFBNgoivUBgUFhZKdmy2tvR1vrGTwLIYrlx0/t38tAgxZr5CALm3dBf/zn7K5dlK2qgJEXCnpR/K0EKt3PzDGbp/xi+IHO923lpUHFduXvPlKVAG7WAtMcSeZSqhAYtSRdwhfNBOYJ/m0ubS1uLi5SK9H+ypg+btXexNFiXcp6ioUIIGtpAjG+OVGHUVNxVzeHhtbIklWhxUjCDi1Owb2UtmbKZuO359gl7brP24dnJIzQhtM6aNBKjJCdu+2yEnMyq24jljAsFdYXIy7ZTs+WtvCXFvMKno06+jr3aTR6sZtsm7jqrvWZxaAzBY/Lr6KhEmasHceOl2axfpcX93PTEA/OBiRcwkvquOyuLIRAIkQAIkUL8IUKjVYDzgzkLAfujwYOmpXnpIiRFJkhGthIgSKE4q7ik1+pisnLRaRk0ZIQOeKRZjKIdZn1i6IiUyVQWKr5bhk4bK6KkjkKUTgswhCDDDcNsPOyT8vjDpcFU7I1u2fb9DGVmKzSw+KgD96u/H6TxYkpa+tKJ4GQeVDSGG5TpSdqXoWZLGTEnE1CVsSdR14H6F0ICYcw9pKgkRanmKCtxcsHbFqWD/Q0sPKwEWqi02WSqGKfLf/ToGTVv6YKlRFry+j/bSP7hR1NwDsuHTTXpmKc7LzS+1Tp2zEqKj3h2uYr0KZdGTS6R0vBhm2w5Ti8HCgvivmlBxZNMRvQxGedxn3T9H88OYDFdB9IWKY8yCg9q13MjHVS8ngjivVDU2++dES+fxHdUsz2L2GBeIttPqPyO5KTfqFV9epme7zrx7tmQlZemdFBBrN1TNzBT8qHRgQYxE/LCtTDex0RasW6FDQyRYTQZY/spK0wQCI7+8T4wX4v6QcBw6KkT9cdCpRPENH2/W6wBmKCG8avJaGTpxsIz/+zpdBjM8lzy/XMdRNgtvVqIeT0iABEiABC48AZvk5OSiCbO9Zdr4WvibKniOAd3PiowKip33LGwX5e3tLer5SmwhVfpabW4MYRIQFqCtEyn7UnWwOK4Z1h20DauTb4fiOLMTyqp1VM0ShQvKiFvDbM2Arv7aXZamgtyPqYkHcBMiwTIHV2GzHsp1mJ6r62ImHyxhmAEKi9oa9eLFbDys0XaqjHgmY10zxGZhfayUqFQ9qxTtI67NX90bS2ocXnP4HIsVypSVsL6bv1qHDPFUCWrdN1hmEEiPuKtAtar/iLcvkc1fbNUWJQgBiDkIRzwPAvVHvFN2vnEvlIN7DpYsCBjULWFRU2LQ1dNVGqvJCTpfCTlz5minPO7Ia9qsiV7aBCwQYwjBZatclbCKQYQj4dl8lYUKQhbXk1TclrEzAPqHWb2Y5Yl0Wrk4zevCnYvZvVj+JP1QulrDLF23izabBjVVM4FPS7YK8Md3wNHVUbeVp9bqw6xYTFQxX4dP36CMX+gDtjcb8uIgmf/EQjm48pC2huLenmqtNcwiRRlMXIDrHAyRcA27HfgolzzWTsP3Vk9mUeIe3xU8F9zyRgwdvs+uahwwhsbz64b4iwRIgARIoE4IWK1QqxN6F+gmeHlCqCHNe1Stb3UmMP0Cdcd0W4gAY8bkUmWlKW0Bqyzf1BAPyiRgLIAMqx9ctf0e7ysO6nPWfXMkXcX3MZEACZAACVgfAbo+rW9M+URWSgAxe93VbE7E2CFhYeMlzy3Tbk0rfWQ+FgmQAAlc9ARoUbvovwIE0JAIwO0NNzbcpllqVjBcpkwkQAIkQALWS4AWNesdWz6ZFRIwFkW2wkfjI5EACZAACZRBwDIzCMq4ES+RAAmQAAmQAAmQAAlUj4DFhZq7R/HaXdXrFkuTAAmQAAmQAAmQAAlYXKgNGnIJKZMACZAACZAACZAACdSAgMWF2qNPvyChrVrXoGusQgIkQAIkQAIkQAIXNwGLCzUXV1eZNv13GXvVNUI36MX9ZePTkwAJkAAJkAAJVI9Ancz6dFVi7bmJk6rXM5YmARIgARIgARIggYucgMUtahc5Xz4+CZAACZAACZAACdSYAIVajdGxIgmQAAmQAAmQAAlYlgCFmmX5snUSIAESIAESIAESqDEBCrUao2NFEiABEiABEiABErAsAQo1y/Jl6yRAAiRA12zHWwAAQABJREFUAiRAAiRQYwIUajVGx4okQAIkQAIkQAIkYFkCFGqW5cvWSYAESIAESIAESKDGBCjUaoyOFUmABEiABEiABEjAsgQo1CzLl62TAAmQAAmQAAmQQI0JUKjVGB0rkgAJkAAJkAAJkIBlCVCoWZYvWycBEiABEiABEiCBGhOgUKsxOlYkARIgARIgARIgAcsSsPim7MuXLJcVK1aWeAp7e3tp0SJQrr3hWsGG7fU5nTp5Uk6fPi0uqp/od+k07fOvJDExUa657hrp3KWTzj6alCyff/alLv/Cy89LTHSM/PjDTyWq2traire3l1wxbqwEBrXQeQvmLZD16zZI3359ZPSY0SXK84QESIAESIAESODiI3Cu8jjPDKKi9suKpcvKbHXJosXy9Q/fiIODQ5n59eHiyy9MlM0bN8m7H74n4T26n9OldWvXyuGDh2TAwAEmoZaenml6Zgi1Y6nHTOelG5j1zyz58usvJCgkWCL3RupyHu7uFGqlQfGcBEiABEiABC5CAnXm+hwxepT88PN0+f6n7+WZ557VqONi42TT+o0m7MdSU2XtqjUSsTVCYMkyTzkncrS16UDUASksKJDDhw5LUkKiLhIfnyAxBw5K7qk8fZ6Tk6PPjXxcxLWtm7bKutXrJT0tTZcz/5WVqcTVspW63aKiIp2Fa6fzTuvjDFUnL7e4ffN61Tlu1ry5ZgAO7338gTg5O6s+n5JZM/+tTjMsSwIkQAIkQAIkcJEQsLhFzeDYuFEjaXHGxReo3J6ff/qZZGdly+n8Al0ElqUP3n3fKC5uTdzkrSlvS8dOHbTr8OnHn1ICK13nox2IvLbt28sXX38ub776puzbs0fefX+qhPcKlx3btsvzzzwv3Xv0kKkfviu7d+1W58/p+xk3ePzpJ+WKK8fq09dfeUOWLV5iZImPr4/88L8fZPIbb8v2bdv09TdefUMeU3XGnaljKlyNAwdHBxMDPEPvPr1k1YpVUpBfWI1WWJQESIAESIAESOBiIVBnQi0qMkp+/XmG4lokkfuitGiCRal7eDeBRcwQabfdebskJx+VBXPnyasvTZRf/5whH773kRZpsEgNGjJY5s6eXeXxgfXtrdff0vcbeeloCQxsJt99/Z28P2Wq9OzVQ8WXJWmR1qpNa7nvgftl1l//yJrVa+T3Gb/LTbfdLMlHk+WgijG78ZabpUfP8Crft6yCaceOnWEggmOINKT+A/uVVZzXSIAESIAESIAELnICdSbU9uzeLfgxTw/89wFp0rSprFheLFhgZQpoFiB+fn5aqKUcTZEd23fIzu3bdbVJ70ySoOAgCW0VKpNfn2TeVLnHCQlJkhAfr/PDwrqJrZ2ttmrBIrdSTXIIahGs86L3H9AirUOnTnL7XXeIt7Kqubs3FS8vLy3UeihR17x5s3LvU5UMWBCnffZFiaKDhw6VXsqyxkQCJEACJEACJEACpQnUmVDrN6C/XPWfq+RUbq4sX7pcW7E+/+Rz5X68QgXbp+p+QTy9/ebkEn2MiysWWbC+QaQhBQcVi6sSBc1OCgvOuhJTz7SN7CmT3zErJZKVmSV9ru8lQy4ZpoP4YUnDz48/TJdnVRzd0OFDS5Qv68TJyVlfzsk5Yco+ceYYfTZPcKk+9ezTUlBYKFH7IuX7b76TlcuXS2TkjdKuXVvzojwmARIgARIgARIgAakzoQYrmWE56tSpoxZqCKRPUW5O5CG179hRPpv2qT6OVK7SAhW/5ufnr89RFoLOy9tboqKi9DXjV6MzS3xkquB/pP3KOmYkfz9f41Bmzp2lY9+OKPGXlZUlAQF+smPHLjWbM1wLxrRjabJw/gI9y/PH6T9WSai1bdtWia59Kg5uj4y7apy+197de/Rnh44dTPfGgauK0zMYYAmOhfMXamvfoZiDFGolSPGEBEiABEiABEgABOpMqJnj9vTyNJ2eUgLMiP3ChICp70yVU6dyZcnCRTqo/6cZP0uXbt20+/OJR55Qx11lyaKzgf9oKDg0WLZs3izvKIvZ3Nlz9bFxA78Af+Uqbandl6+89Kq0at1S/lWzLCH8sDRIZkamjldD/NtYZd3z8y8WjZ4exX20tytGNPOvv7UrtKVqyzx1Desqs2fNkkVK4KWmpIqzs5OsW7NWF+mq+lpR8vHx0ULtZE7JGa7zVHzeurXrSlR98ZUXpVPn4nXaSmTwhARIgARIgARIwGoJ1NnyHKUJenh66EubNm4WXyWO3njrDW3tmjNrthZpyH/p1YlqjTV7efr/njbFlc39d46Etiwplq5Vi836+ftr8QXBBjcrkq2Njdion4mvTRRMFojYskX+UJMEINIwgxOia9DgAdr1iTg2xI/h/nBRPvDwA7qNIZcM0Z8I/N+lrGal04hRw+XOe+7WS22gfUOkjR03Tm6749bSxUuce3p76fMtmzaXuI7+JScllfjJKSXmSlTgCQmQAAmQAAmQgFUSsElOTi6aMNtbpo2/YJrNBDY/P1/ij8SLnVq1v7lawgMiy0hY2yzucKy4e7jL0eQUue+ue03LcxhlUpRFy61xI3F2cTEumT5RP1ntGHDixAkd61Z6kV0E+h9W7Tdt2kRPaDDfhQDrs+XkHJfGbm7lLs6L9mNVfSy1ERTSosxdDEyd4QEJkAAJkAAJkAAJVIHABXF9ltcviKNgtUJ/WQmiDav3I0GolZV8fLzLuqyvob6/coOWl7Bum7EFVOkyTs6OymJ21l1bOh/naL+8vpdVntdIgARIgARIgARIoDICF96MVlkPy8iHxQyL3Ya2DC0jl5dIgARIgARIgARIwDoI1CuLWlWRBrZornckqGp5liMBEiABEiABEiCBhkigQVrUGiJo9pkESIAESIAESIAEqkuAQq26xFieBEiABEiABEiABOqIAIVaHYHmbUiABEiABEiABEigugQo1KpLjOVJgARIgARIgARIoI4IUKjVEWjehgRIgARIgARIgASqS6BOZn3m5OTIh1PekNUrlklGelp1+8jyJEACJEACJEACJHBRErC4UINIu+/W6+RgzNmN0i9K0nxoEiABEiABEiABEqgmAYu7PmFJo0ir5qiwOAmQAAmQAAmQAAkoAhYXanB3MpEACZAACZAACZAACVSfgMWFGmPSqj8orEECJEACJEACJEACIGBxoUbMJEACJEACJEACJEACNSNAoVYzbqxFAiRAAiRAAiRAAhYnQKFmccS8AQmQAAmQAAmQAAnUjACFWs24sRYJkAAJkAAJkAAJWJwAhZrFEfMGJEACJEACJEACJFAzAhRqNePGWiRAAiRAAiRAAiRgcQIUahZHzBuQAAmQAAmQAAmQQM0IUKjVjBtrkQAJkAAJkAAJkIDFCVCo1QKxr6+v3HrrreW20LNnTxk6dGi5+cxomAQ4rg1z3NhrEiABEmiIBCy+KXt1oHz00Ufi5+cn//vf/2TWrFnlVnV2dpZTp07VOL/citXM+Pzzz6Vz587yxx9/yMmTJ0vUtrW1le+++05OnDghffv21Xldu3aVp59+WhwdHeXgwYPyf//3fyXqWPrk2muvFfzY2NjI7Nmz5ccffzTd8sEHH5QhQ4bI1q1b5e233zZdP58HlY1bRfdycXGRK6+8Ulq2bCm//PKL5mde3tvbW66//nqBeJ4/f76sX7/ePFvat28v//nPfyQvL0+P16FDh6qVbxQua1yNvNp+PvTQQzJ48GDdzG+//SZ//vlnbZtkfRIgARIggQZOoN4INbzER44cKXgRJicnlyvUvv32WxkwYIB0795dcnJyzsFfWf45FWp4ISgoSIu0/fv3nyPS0OSdd96pBdlPP/1kukOvXr2kd+/e+rxt27Z1LtSuuuoqzQ0dOH36dAmhBhHTokUL/WMJoVabcbn88svlvffeM3G8/fbbZe/evYLnQWrdurX8888/4uDgoM9vvPFGwf2M57jmmmtk0qRJOg+/7rnnHpkwYYIsX75cX6ssXxc686uscTXPr80x+tG8eXPdREZGBoVabWCyLgmQAAlYCYF64/qEhQzWJiOFhYXpF7BxbnzCYoLUtGlT41KJz4rymzVrpi0ubm5uMmzYMIFYqml69dVXddXXXnutzCYeeOABKSwslA8//NCU/80330i7du2kqKjIdK30QePGjbWYg3sN4rV0cnV1lf79+8vAgQN1Pj4hbo0EsTV69GgZqlyu5teRf8stt8hNN91kFC3xOWrUKNM5RChEZekUGhqq28U9ykqwWo0YMUKLPXyap4rGxbxcWcePPfaYvgzm4ILvSocOHbR1DRkQZBBpsJJ9/fXXmu9dd92lxxoMXnnlFV0fVsSVK1dqi+KUKVP0tcrydSGzX2WNK7Jh0YM1DAxKc8ezgyn6iDxYWEt/95B33XXXaauf2e1Mh/i+Y6xhwbW3P/v3FdozBDYK4/txySWX6P6YKquDisbGvByPSYAESIAE6heBs//Hr0f9gmiA2EAyLCd4Of37778CsYAEC0pBQYHs2bNHW0gqy//vf/8rDz/8sK4LAWW8TOPi4uSKK64wWcXwwpw7d65+yT/55JOyePFiXcf8l5eXl/Tr10+SkpJk48aN5ln6GJYeiEH0sSIXbemKzz77rLbEwTWJBEH38ccfy6effqrP7733XkGfjHx9Uf3Cdbgs161bp614xnXcG5ZHPG9Vk6enpyxatEgXN6yWsPL8/vvvguc2UmJionY1Hj16VI8JXNVw6ZoniCq4hCsaN6N8RdxhYYXQgbjB+BtCJSUlRVfv2LGj/kS8IPozVIlUWNnGjRsnmzdv1v0CC7BDwneqSZMmEhAQoF3t6Hd5+XhOI5U1rvge/frrr9KtWzejmG4LbszVq1drq59h2Vu2bJm2BhucIPrWrFmjXeQ9evTQ9WHpLJ0++eQTbW02rqOvEKJbtmzR3w0IMyS4hMePH6+/H/juQGxDQJY3NtnZ2UaT/CQBEiABEqinBM6aYupZBxE/hRcSLCeGNQbWJiPB2oS4JVgQjFRR/t9//y1ZWVm6KOLGfvjhB+06hTXCeJEiEzFQEAVoHy60stILL7ygX4aTJ08uK1sLArwozd1tZRY0u4h74uWLBMsPBCIE2SOPPKItMBACTz31lL6GFz7EG/ggQXTgBb9z505tUYJA2bVrl34G4yWuC1bhF+4JoRYbG6vj2VAFfCDSIExhFUxPT9cix4hxe+aZZ7QY2rRpkxYUiK2CCEA8GFJF46ILqF8VcX/iiSd0rB/GA4IRQg0WMdwD4w+xlJ+fr0Ua2oN4R0KbEGxIEORGSk1N1YetWrWqNN+og08IvdLjCjcsxgZjge8U7o3vzpdffqn7tmrVKi0WUR9WXIhOXIOgjI+Pl7feeksg0jB+4GdnZ4eipgTRiZCAw4cP6+8CmKN9uHaRcB+0hQQ++MMBYx8dHa1FcmVjoyvyFwmQAAmQQL0lUC8tarAOvfHGG9KmTRstUmDZWbBggQwaNEiLGFy/9NJLxdzagRd1Rfl4KeIHoubFF1/UAed4mcF1CcuPkSIjI/ULFwIRfSidIAzGjBmjRd+8efNKZ2v3FIQl4p8yMzPPyS/vAsQf0pIlS0yWH1hq8OyIHzMsLYiJQ3wVEgQRYrcMqx4EFOKc7r77bp2PX4iJK8sqaCpQ6gCCA9bHm2++WXOZM2eOyQ0KyyPELiw3aDMkJESLJFgOIQhhwYHIg4CCixF9hjWvonExbl8Rd1jKGjVqpMUQhE5wcLC2IkKsGFwgcCDYcD9YM5FgzTPErLmgNyxaVck3+ge3Y1njikkYSPhOwXKItH37di2m+vTpIxDVP//8s2YZFRWlrbe60JlfxuQBuP3xfYIYvO+++0xFnnvuOX3s4+MjhrsdFyDW4Mrftm2bREREaAv0V199Je+++66pLg4qGpsSBXlCAiRAAiRQLwnUS6FmWDyOHz9eLjR3d3ct1AwXZmn3XkX5cHkhGYHbsLCZJ7xoIQDS0tLML+tjWHdwT8xQLSu99NJL+nJ5sWtl1TG/BiuhkfAyRjIsgTh2cnLCh04QnnCXwqLywQcf6PgwWI7wsoYAMNzHRvmqfBosjHsaVjHURX9w3RA9YA4WO3bs0Ja28PBw7ZoEe0wA2LBhg8yYMaPEbSsal/K4I3YLCa5HzJZdunSpHjvEeq1du1aPFVynENe7d++WTp066fJwcRrWNcwmRl9RDn1AgnCCuEUqL19nql+VjSuEJBLuYVjFDIY6Q/3CHwalk1HWEJzGZ+ly6Cv+gDESysHCaZ5gSSudqjM2pevynARIgARI4MITqFeuT2NNMliBsJSFEbdjXAcuzIZDmjZtmsCdCXcflmMwUmX5KAdxA4vQ/fffr6thORAjwQUJKxVmBpZ2bcLlhhggWGnM6xh1ESsFKxMEB0SUeTLE3fTp07X7EoIMx4bbFVYqJMxohXsLyzNAeEAMQYThHAn9mzlzpnb9QaTA0oh4OUPg5ebmatFhsEO8HyxMqIdAe8MqAzGD+2MWI5JhhUPQOtrDxANYhNCu8SyI3YNAhaUPCfxhyYQ1CfVhFYP7dt++fTofEyeMVNm4VMTdiKWChRPWPghtuCDhDkQCAySIQlj0YPmCkAGnmJgYLWQxduCFmDAkWCbRbmX5KFvRuC5cuBBFtJDDci2woEEMJiQk6BgyWOLgvkbCMZgjNs1IiDNDmjp1qqC+8Z2E6IXFzBh39AECE39cwMJqWN3AHeOFhD8i0P5Q5S41UlXGxijLTxIgARIggfpHoN4INbzcjIBsDw8PHQiOTySIDuQjQbTgJYyXMV5ecF9BtBmpsnyUQxB6YGCgFlwQL99//71RXb/UDXeZ8RI1MjFjEv1ALFJpCx7KGG6qiRMnGlVMn7C4QDRB/CAhFgzHY8eO1VYYuEphCYPwgVAFCzwnXrSwLMKiAvcYLFyYwYc4NLhxUQ+xTXjRY7kSxGRBGKAuxAxEDV7uXbp00S5IuI2RYBXD/fHSR7rhhhv0JwQN+gShjLg0BPBDnGJGJQQfrHSoC8uVEYOH+yCh3F9//aX7B8ueMbMSeZWNC6yC5XGHexFiES5qTAgBAwhGQ0CC0YEDB/TYQPCBIdzDYICEODKwwfcJzwArmiFMq5Jf0bjC0gYLH7jB/evv76/bN1yimP0K8Y6Ee4M53NNGwoxWiEVYK1HfsCJjbDHDEzGBEPH43mGswB9l4U7FdxBxaSiLBJcw2kdMm5GqMjZGWX6SAAmQAAnUPwI2KuanaMJsb5k23jKabUD3s1aV8/n4ECBwTcKCVFYqKx/xOrBSYXmLY8eOlVXNdA2WJIhA84RgcMQQXX311SYRYJ6PwG3c9/HHHze/XO1jTHCA2DCPwTNvBG46JMRrlU6oC+uVYYUqnV+bczCBEIJoM+cOAQLxBlEAAQ3LmiGSSt+vrHExL1MWdyMf90F9iNayEu6NH7g7yxLSEJ0Qg5goUVYqL78q4wqhhhmpGJPSLs+y7lX6GiyZEFzmkx7My8AiCyGG72112q/O2Jjfj8ckQAIkQAL1g0CDFWrVxQdXJ0SMkbBsAwLmmUiABEiABEiABEigvhKol5MJLAEL2zwZsTxoH/FVTCRAAiRAAiRAAiRQnwlcNBa1+jwI7BsJkAAJkAAJkAAJlEXAMoFpZd2J10iABEiABEiABEiABKpFgEKtWrhYmARIgARIgARIgATqjgCFWt2x5p1IgARIgARIgARIoFoEKNSqhYuFSYAESIAESIAESKDuCFCo1R1r3okESIAESIAESIAEqkWAQq1auFiYBEiABEiABEiABOqOgMWFmruHZ909De9EAiRAAiRAAiRAAlZEwOJCbdCQS6wIFx+FBEiABEiABEiABOqOgMWF2qNPvyChrVrX3RPxTiRAAiRAAiRAAiRgJQQsLtRc1Gbd06b/LmOvukboBrWSbw0fgwRIgARIgARIoE4I1Mlen65KrD03cVKdPBBvQgIkQAIkQAIkQALWQsDiFjVrAcXnIAESIAESIAESIIG6JkChVtfEeT8SIAESIAESIAESqCIBCrUqgmIxEiABEiABEiABEqhrAhRqdU2c9yMBEiABEiABEiCBKhKgUKsiKBYjARIgARIgARIggbomQKFW18R5PxIgARIgARIgARKoIgEKtSqCYjESIAESIAESIAESqGsCFGp1TZz3IwESIAESIAESIIEqEqBQqyIoFiMBEiABEiABEiCBuiZAoVbXxHk/EiABEiABEiABEqgiAQq1KoJiMRIgARIgARIgARKoawIUanVNnPcjARIgARIgARIggSoSqJNN2ZcvWy5///GPHImLlebNA2XgkIEydNgw8fXzqWI3WYwESIAESIAESIAELj4CNsnJyUUTZnvLtPGWMa7t2r5THnnokXPIujVxk69/+FZ8fLzPyeMFEiABEiABEiABEiABEYtb1Kb/8KPmfN+D98sNN94gmZlZcvtNt0p2VrYsWbRYxt80Xufn5OTIvt37JDc3T9p3bCsenp76ekZahqSlpSvrm7fkFxRK7KHD4u7eVPLzC8XP31caNW6ky+E6rrUIDhQHBwc5lpoqkXsjxaWRq3To0F6cXVx0uaSERMnJOSVBIS0kIT5B1cmXlq1a6jzjV8yBg2LvYCctglrI7h27JDA4SN+zvD4a9Y7ExUv0gWjp2LmjSYAWFRXJwehDYm9vq/oWJHt27xF1Sdp3aKeuncWfnZUle/bsk8yMTAkODZZ27doazepnxgnq7929V2xtbaWdqm9jY2Mqk6e4bd2yRRq7NTmnbTxj1L4oSUlJlVatQiVQPRcTCZAACZAACZBA/SdwVilYqK/Hjh3TLaccTZXj2ce14Hnvo/clLi5OAgMDdd7uXbvl+Wee0+LN6MbjTz8pV1w5Vmb+M1N++PZ7CQvvLtu2Rki3sDAtcLZs3iy33Xm73HH3HZKeliZ33HKHrjpz7kyZN2eefPDu+0ZTAuvdW1Pelo6dOsjbk96R7du2SfcePSRCCRu0UVqo3XPHXeLk7CzBISFK4OyT9z7+QIk/+3L7eOL4CW01PBgdY7rnwCGD5LU3X5OCggIx2vPy8lLiMF6XCVXi8P2P3pMmTZvKlo2b5cXnX5LcU6dM9fv26ycTX39F9cPR9GyoY9zDz99fpv8yXYvS32f8Id9+9U2J+p98+Zl+XgjdZ596VvZHRZnaHjVmtDz17FMlhKIpkwckQAIkQAIkQAL1hoBl/J1mjzdo8CB99vcff8qVl42T+++6XxYtWKQsO62kdZvWUqiEzFuvv6VF2shLR8ud99ypy78/ZaokKuuXkSDSIJ5grRp56Sh9ef26Dfpzw7qN+rPfgP6SpcSgIdIgwkZfNka3/epLE5UlS5myziSINB9fH22lMq6Zf0I0QaS1Un1srKx2FfVx1sxZWkCh/69Oel1ZxEJk9YpVArevkdCei6uLXD5urL4EwfXd1z9ocfXaK6/pT4iz2++6QwvL9evWye8zfjeq68+M9HS54aYbdX5yUpKsXb1Oid9sk0h769235ebbbtVlv/7yK/355RfTtEjr2KmTTPjvg/qZF85bIIvmLyrRNk9IgARIgARIgATqHwGLW9Ruv+t2cW3USJYsXKwFAyw7+Pntlxny3EsvSIeOHUxWprCwbmJrp1yEyjUXFxsnK1esNBFr2769THnvHS1STp08KZPfEC2k4DI0BNsoJZS2bt6q66CNgGYB4ufnJwvmzpOUoykSFbXf1N7YK8fJI48/XKFVCf0bOXqEmgQRX2Ef4a5EWr92rXZLXnnVldKrb2/x8HA33Q8Hk6dMFi9vL+Wa7CBT354i27ZFyC7lWoUbGFa/N995U7szmyor20fvfygrli+XW26/2dTG+8oSGRQSrM9n/PyL7N61S8J7hJksaf/74ScJ7xkub099R1sDUXDj+vW6PCySTZvCLdpeswDbMWPH6Dz+IgESIAESIAESqJ8ELC7UEJM2SlnArh9/ncBFuHnTFpmhRNq+PXvkVyU2Hn7s7ESDKZPfKUEpS9V1dHTU17p266LFDE4QbzZsxHBZtniJrFu7QTYoMQJrW/+B/eR/0/+ny0Povf3mZH1s/EJ7RuqnrFfmMWLGdfPPQYMH6NNUFe9mpLL6eNV/rlJu1AgtQCEK8ePh6SEffPKhFotGXU+v4ri70NAQfSkrM1PHjeEkJLSlKeYsVMWRIR1NTtafxq+A5s30oaurc/ElZSB0a9JEEP837bMvZdfOnfoHmdeNv14mPDRBuYXTddmff/ypuM6Z3+npGSXOeUICJEACJEACJFD/CFhUqMHVeOO147XFB3FeYd27yZBhg8XJyUHFez0vOSdyxN/P10Rl5txZWozBgpWlLGUBAX4y659/db6jo5OpHA5Gjh6phdp3X3+r27/08jE6XgsWNKT2HTvKZ9M+1ceRkVFSkF+g3a0/S7GQc3IqFoC6QDm/DJFYWR8h0sZeeYWKdQuV/ZH75e8//9IWwZl/z9RiyWg+YnOEhPcKl7179upLPr5+4q+sfkhRkZF6YgPE4/+zdx7gUVRdHz+kASGhpHfSCL333juIiiCKCjaUVxGxoOKriIKiiCiK3yuKWFDsdJDee+8QSCC9hxRSIeE75y6z7Ib0ZAMJ//s8yc7Mnblz5zfR/XPa1frdPfIG/VdT5xr+CmdBWquWjXK5ynz379lHy/9ZRn/+9geNffxR5eoUa+LHn82h9h3akcSsRUZFUW0WeGggAAIgAAIgAAJ3NwGTCjXJSuzeswdtWr+BXpn0MrVt144cOC5sz65disqjj48lZ1cX0oLk33tnBvn5+9KqFauU+Prux0UF0mvXvq0SdRKrJU3cntLasutPmljs5n4ylzIzs9jtulEJliW//6r6SvqrqDmeOnlaiSNxL/bg57Wzs1dCTT4N2xx2dzZu2oS2bd6iDsu5zZo3JTd3d+VaffqJpzibs7HiJSeI+CyqiVtZ4vnEovjgQyPJyUUnVMWVKsKta7duam5fzP2cRXIv2rRhg3J9vjRlMnl4uhc1PPpBAARAAARAAATuIAGTJxO88trL1G/gAPWIkqkpbkGJyRIRMpRjpETMTX9/ugralwD/vziAXgLvX+asT8nGNDO73Yokg4nlqW+/fmpcSQpo2aqF2hahMvOjmUrErVm5Wok0cUO+M2O6ytysVsB46uICfhU1x9GPjOYMy6YqK1ViyySrVPZHjhppNKITW/s0kdads0KlX57j/VkfKLEm7loRtdLEdTnsZgyZiLD8mjyLuFMlAUGYLV3yC7tA/6dE24uTX1Iu4gkTn6UevXopISj9Yl2ThIZhnFGLBgIgAAIgAAIgcHcTMHnBW+3xxc0ZGRmpMi/d2YJkzfXNDJu4SWOiYygtLY28uF6Y1EIrS5PaYRHhEWRuZkbunh76+K+yjFnUHGX+CfEJ5MAJA5plS+YxoFd/JZ7WbVrHcWdxZMVuV6kFZ9i0sZOTUjgRwFNf983wnMK2JfszgrNkLc0tWfS53HZ9Eic8xETFKCuaVnuusPHQBwIgAAIgAAIgcOcJVJhQu/OPemdmkFeo3ZlZ4K4gAAIgAAIgAAKVkYBJY9QqIxBTzFncoAW5L01xP4wJAiAAAiAAAiBQNQhAqJn4PUoM2lfffGXiu2B4EAABEAABEACBqkjA5MkEVREangkEQAAEQAAEQAAEKoIAhFpFUMY9QAAEQAAEQAAEQKAUBCDUSgENl4AACIAACIAACIBARRCAUKsIyrgHCIAACIAACIAACJSCAIRaKaDhEhAAARAAARAAARCoCAIQahVBGfcAARAAARAAARAAgVIQgFArBTRcAgIgAAIgAAIgAAIVQQBCrSIo4x4gAAIgAAIgAAIgUAoCEGqlgIZLQAAEQAAEQAAEQKAiCECoVQRl3AMEQAAEQAAEQAAESkEAQq0U0HAJCIAACIAACIAACFQEAQi1iqCMe4AACIAACIAACIBAKQhAqJUCGi4BARAAARAAARAAgYogAKFWEZRxDxAAARAAARAAARAoBQEItVJAwyUgAAIgAAIgAAIgUBEEINQqgjLuAQIgAAIgAAIgAAKlIAChVgpouAQEQAAEQAAEQAAEKoIAhFpFUMY9QAAEQAAEQAAEQKAUBCDUSgENl4AACIAACIAACIBARRCwqIibaPcIvniJLlwIpLSraeTr70cBAQ3Iupa11l2mz4uBF+lqWho5OzuRq5trmcbCxSAAAiAAAiAAAiBwNxCoEKGWkpxMcz+ZSzu377ztmd98ZxoNGNj/tuMlPfDxRx9T0IWL9NDDo+g/k/5T0stxPgiAAAiAAAiAAAjcdQQqRKjNnDGLDh04qB6+nl09ql2nDoVcuqz2Z3/wId3IzaWBgwfedXAq44SyMrNJROuNGzf007e0tCT/Bv704EMPkIVF0a9crr2amkq2tWvrxyho46fFP9Gpk6do3FPjqGmzpjRn9hxKT8+gN6dNpeo1ahR0GY6DAAiAAAiAAAgUg0DR39rFGKSwU8SKpom0fgMHqC9wM3NzElfl229Oo7jYOPrnz3+MhNqxo8fp+NFjFBMTQx4entS+YztqwG5Sw3bm9Fk6fPAwVatWjXr07GbYpd/OzMigzZu2KlFo52BPrVq1pEZNGun7q+JGdnYmbdu85bZH27R+A23esIk+/GQW2Ts43NZveOD82fP0nwkTacuurYaH890+d+acer9Dhw9T/Vs2baGszEx6beqrVD3fK3AQBEAABEAABECguARMLtT27N6rn8ukyS+SiDRp/gH+NHnKZNq1a7faT09PJ2tra/q/r/6P/vztD3VM+/XdNwvphcmTaOSoB9WhP7j/f3ye1r7/9jttU/8ZHhZBr095jWKio/XHZOPZiRPokbGPGB2rqjs/LPlBPVpEeBTN//wLuhAYSD9+/zO9MnWKOi7Mz50+R1lZ2SxgA6ienR1dv36dEhMSVP+VxER1THaiI6PoUnAI1a5rSwENA0isdNIeG/84DR42WFnT1IF8fonr++iR4+TtU5+86nspcZ3PaTgEAiAAAiAAAiCQh4DJhVpYSKi6ZZOmTdmVZmt0+y7du5L8aO3IwSN6kVbfx5s6d+lCmzduVFa3BV98SR06tqfqVlZGIq3vgP505NAhupJ4RRtGfX4x93Ml0uSew0eMoMDz55Xl59v/W0ht2rSlho0DjM6vijueN0WRl3d9SrySSHM/nkMbN2xQQu30qdM0bepblJqSqn/0Ka+/So0aN6T/vvVfdWz8Y+NpxdqV9P13i2nJDz/pz5ON19+cqgTakh9+pn1799L0D2ZQz949jM6RnQ/em0lbN23WH3d0cqQff/mRatSsqT+GDRAAARAAARAAgfwJmLw8R1xcrLpz7WLEO61Zs1adK7FN3//0PU2Y+Cz937f/08/837XraeeOXfr9xWwxevvdabTgfwv0x2RDXJ6HWbxJe2j0aBWbpVxxN2OmRKzca61hI50wFbekWMo++uAjJdL6DxpITz7zpMIxb85cZe0a/7Ru/7U3Xud4s3S9SBOr5oOjRqpz//jd2OqZH88jh48qkebH8XEffzaHunbrqkT3n7//md/pOAYCIAACIAACIJCHgMktao6OTurLOfGKscUrzzzUbmhIiPps166t3j1mZ29Hnl6eFBYaRuFhoZTJQkOaWMrqs6VImguX4xALnJagIG5PrS3+bhHJj2GLiTJ2hxr2VdXtmuxW1lpScgpFRugYSdyembmZnvHhQ4epXYf29MOixdS9Z3cVbzZ3/mcUH5eg2EeGR6phxJ1ZVMvKyFKnSDbuyn+WU2O2qo57ajw5sFUNDQRAAARAAARAoGgCJhdqHl4edOb0aQo8d44S4uONAtm1eDSxoC1fvYxj1GqpGV+5kqSfuWQgJiXp9mvUtGYBp+vKzr5GuTk5KuZNztHiqqTXykoXPyXbIjZ8fH1lU9+8vb312/fKRvDFIPWo4oJOTrolsubM/sQIQQqLOONmRou/XcyZnSfVYTd3d+PuQvY6dm5PPfv0pu1bttJujkWUn59//IneeOsN6tW3VyFXogsEQAAEQAAEQEAImNz1OWjIYD3pme/NUm43caf9zZmeWtJAq9atVCkH/wZ+6lwRdsFBwWp77649+jgqKTHhdVNkiQtvy+Zt6pztW7brz5EDbh63xET1GjVp/NPj6bFxj1EGu0QTOZbNUMipAar4L4lD+/6779VTNm/Zgly4KLDWJAZNsjt/WrqEvvrma3YV61ybWv/27duVSBOL5Yq1K+jVN17Vuor8PHHiFLVp24Y+/eIzmvbuf5WlTt7bzz/9XOS1OAEEQAAEQAAEQIDI5Ba1Vq1bUo9evWjHtm10/NgxGnmfsRAQa5pWoPbhMaNp2V//qPfyzLinydnFRZ+1qZIC7htKuWw9W8RZoCI+Pnx/Jn3J2YyGAfFysdQKk1iqf/78m6QsRSgnNMTFxugTDvKKkar6h/DM+Gcol2vUaS5hYTh46CBydnUhHz9fusRi+L13ZpCfvy+tWrFKuTm/+3ERZ3Tq/iyW/bWMXFx0qzxcYwvmrh276Z+/de9HskOLamK5k7g3scINGzGc36ezusSunl1Rl6IfBEAABEAABECACZjcoiaU//ve21zG4YnbgItYmMvWFolBk+bEX+TzvvqcS0LUU/taaQ3pn/fl5ypTUEp4fPTJbP05ItIaNWlC4tKTZmame6QJz0+gEQ/cr46J21WyQkUUzpj1vioRoTqq+C8RYiLSRKB17tqFPps/T18eY/r700mC/I8ePkx/cXC/WLpe5qxPX34nPr4+Ssj98P1iEvdl85YtVUybuEnd3T0UNeEucYOFte49uirXp8TDLfz6f7Rm5WqSrM+JkyYWdhn6QAAEQAAEQAAEbhKoxkVlbzy/2oEWjjG9ZhMrTOjlMEpIiCdPTw9l2ZGCtXmbxJxFct2u+Lg4cmWrmgi4vE3Guhx8mWrZ1Cp0bU+psB/CFjVbGxvlEi1OZf6896qq+8I5JjqG0niNVKlvptVGk+eVPsPVCeS8mjVrqFUlSspDRJ28gzp1aqt3hXdQUoI4HwRAAARA4F4lUKFC7V6FjOcGARAAARAAARAAgdIQML0ZrTSzwjUgAAIgAAIgAAIgAAIVE6MGziAAAiAAAiAAAiAAAiUnAItayZnhChAAARAAARAAARCoEAIQahWCGTcBARAAARAAARAAgZITgFArOTNcAQIgAAIgAAIgAAIVQgBCrUIw4yYgAAIgAAIgAAIgUHICEGolZ4YrQAAEQAAEQAAEQKBCCECoVQhm3AQEQAAEQAAEQAAESk4AQq3kzHAFCIAACIAACIAACFQIAQi1CsGMm4AACIAACIAACIBAyQlAqJWcGa4AARAAARAAARAAgQohAKFWIZhxExAAARAAARAAARAoOQEItZIzwxUgAAIgAAIgAAIgUCEEINQqBDNuAgIgAAIgAAIgAAIlJwChVnJmuAIEQAAEQAAEQAAEKoSAhanvcvrUaVPfAuODAAiAAAiAAAiAQJUkAItalXyteCgQAAEQAAEQAIGqQMDkFrWmzZpWBU54BhAAARAAARAAARCocAKwqFU4ctwQBEAABEAABEAABIpHAEKteJxwFgiAAAiAAAiAAAhUOAEItQpHjhuCAAiAAAiAAAiAQPEIQKgVjxPOAgEQAAEQAAEQAIEKJwChVuHIcUMQAAEQAAEQAAEQKB4BCLXiccJZIAACIAACIAACIFDhBCDUKhw5bggCIAACIAACIAACxSMAoVY8TjgLBEAABEAABEAABCqcAIRahSPHDUEABEAABEAABECgeAQg1IrHCWeBAAiAAAiAAAiAQIUTgFCrcOS4IQiAAAiAAAiAAAgUjwCEWvE44SwQAAEQAAEQAAEQqHACEGoVjhw3BAEQAAEQAAEQAIHiEahwoTZn9hzq0603paelG81w5/adNO31aTTyvgdp6itTae+ufUb92k5cXDyNGHIfHTl4RDuETxAAARAAARAAARCokgQqVKht27qN1q1eexvIM6fP0vS336Wo6CjqN6A/JSQk0NtvvkUH9x80OvdKYiJ99fl8Sk1JpexrWUZ92AEBEAABEAABEACBqkbAoqIeKDY6hj6e9XG+t5sz+xOqZ1ePvvx6PtnY2tLV1FQa+/BYWrzoB2rfsb265rmnnqMLgYH5Xo+DIAACIAACIAACIFAVCVSIRS03J4dmzphFbu5uNGbso0YcszIzKeTSZerVp7cSadIpYq1ho0Z07swZZT2TY48+PpZef3MqDb1vmOyigQAIgAAIgAAIgECVJ1AhQu2nH36mUydP0rsz3iUrK0sjqGFh4Wrf18/P6Linl5faj4uLU589e/egwcMGU9v2bY3Oww4IgAAIgAAIgAAIVFUCJhdqp06epp8W/0gvTp5E9b3r38YxIjxSHbOxsTHqc3NzVfvp6RlGx7EDAiAAAiAAAiAAAvcKAZMKtfT0dPpg+gxq16E9PTjqwXyZWllaqeMpKSlG/dnXstW+h7u70XHsgAAIgAAIgAAIgMC9QsCkyQTi1oyLjVM/UpLDsA0bOJT69O9Ho0aPUoejIqMMuykhPoFsa9tSXbu6RsexAwIgAAIgAAIgAAL3CgGTCjU3Vxd64+03jVju2bWbpGbaS1MmU0DDAPL196HqNWrQiWPHjc7bvXM3+TcIMDqGHRAAARAAARAAARC4lwiYVKjZ1q5NAwcPNOIZFxuvhNqAQQPIupa16hsybAgt++sf+t+C/1G3Ht1p7eo1FBMdTeOfHm90LXZAAARAAARAAARA4F4iYFKhlh9IMzNdWJyZWTV998QXJ5LUWftj6e/qRzoefvSR20SeHK9GuuurmZnLLhoIgAAIgAAIgAAIVFkC1WJiYm48v9qBFo4xaV5BsQDKygMREVHUoIGfcocW6yKcBAIgAAIgAAIgAAJVlECFW9QK41jPzo5XKLAr7BT0gQAIgAAIgAAIgMA9Q+DOm9HuGdR4UBAAARAAARAAARAoGQEItZLxwtkgAAIgAAIgAAIgUGEEINQqDDVuBAIgAAIgAAIgAAIlIwChVjJeOBsEQAAEQAAEQAAEKowAhFqFocaNQAAEQAAEQAAEQKBkBCok6zMtLZXSUlPJwsKS7BwcKZ33r/K+paUl1bN3LNaMw0OCafXfSyk3J5fqOdjTI0/+p1jX3W0nXQ66oKbk7degVFP7Z+liig4PV9cOfuBh8vG/ffWGnxb/RJs3bip0fG8fb5ox6/1Cz7lTna9Ofo3i42Jp4fcL8y3T8n9f/R/t27OXV714i5o0bXynpnnbfYMuBtG0qW/RiAceoEcff+S2/vI68NmceXT86FH6ZtE3VKNmzfIatsBxQkNC6fUpr9HoR8bQyALW7C3wYnSAAAiAAAiUiYDJhVp2diYt+nKOfpLPvPgGfffVrf1Jb8ygatVuFb/Vn5hnQ0Sdk6sbhYdc4i9v03855bl9uezeuHGDVv21hJyc3ai0Qs3e3onioqMoKyuTRa9TvvOKjY2lsNCwfEWOdkHdendvGZTLl4LpSuIVEl75tXBeQ1aeTxjcyTbr/Q9p84aN9PuyP8nR0YHnk63WtU3lf4SYskVFRKrnz+F/tFREy0jPVM8l/7hCAwEQAAEQqFgCJhdqVlY1yM7egRIT4qnf4AfI2qYW2bPASIiPpSFsETp2aA9dunCeRZg7RUWEKYtZr/6DydnNU5G4mpJMB/fuoJTkJLKzc1RCzd2jvp7SiSMH6PyZE5SVkU72js7Ua8BwqmmtW5oqJiqC9u3YRElJV3iB9zq8qgFR4+ZtyMLSguQ6ewdn6tKzH61f9Rdl85d+3yEP0pnjh3geoTxGLYqPjSYPL18KDw1my1VD6tZnkLqv3O/0sUOUmZFBjZu1ohZtOpA5C8mjB3cX+CxiRTx9/KhOfLAwPX/6ONWuXY9cPb3UmLk5OXRwz3YSi5uZhTm1bt+Z/Bs21T/nmROHKZg5Va9ekyytrCjneg7VqVv4gvXvf/gBte/QTj8GNsqXwPXr19WAN3LzF5Tle7dbo7393n/V3562BNutHmyBAAiAAAhUNQImF2oCLCsrS1nNmrRsrfiJJcTc3FwJkSXfzlciLjz0MllZVafs7Czat2sbjRj9OCWxuPv5uy+VuBGrm2Zhqe/rr8ZZt/x3unDuNFmYW6p9EYOR4aH09Iuvs6ALpn+W/qCO29jWpggeX66v79OA1xGNUIKPD1BSYgJdunhe9dWoUZ1OsQDLYNGnzSXpSiKZVTNXx0Wo7dq6no7s30112CJlxnPayfunWNw9PmEyi7fDBT7Lvyv/0t2TZxQTFc7iMFyJxyf/86qa428//o8S2N3n4ORMyQmJtHbZ79Sxay/q2L0Pu3x/ZZF2TjHUGDiwKC2PlnY1jTau30iNmzQhB0d7tc6qn58feXh6UC0W1UlJybR+3XoaPmI4eXrpxPOBfQfo6JFjJJa7+vW9qE/f3ixodX0ypyMHj1BoaCiNeHAEHdh/kHbv2E1TXn+ZsjIz6dixE2Rra0NNm90SoWV9DnE5njx+knrxPC5fukxHDh/RiejGjflYLyOL7bVr1+nUyZN0cP8hys3NoRYtmlPzls35XdTWT2PPzt38bHF03/3DyYz/TrW2edMWElHWb0BfxSQ0JER1bfh3A7XgMSxYrGstOChYPXtkeCT/nTegfv366Ne21Z9z8RLt3rWTLl8OJScnJ+rYuSO1at1S66bQyyH8LEepe89uRu8hPj6eYmNiqW//vhxOYEHL/16uvybvRvtOHcjd3U0dlmffsX0HXQy8qK5r1aoFtWnf1oiPnHjxwkXFMD0tnZo3b6b/h0/esbEPAiAAAiBgegImF2o32D2TdjVVCRt5HBEasl/PzkE9nViNDrAlqU3HrtSpe1/6+tP36fq1bNW3loWYnH//w0+Qi7sHfffFHMrJva6sbSLERKQ5OruoeDU5T66VseWecq2Iuyeee5ktT/WU1W3LuhXUoHEzjnFzUte6sWXO0cVVuQjlC1hcqk68H3o5mO/5OP3x83fUvHV7igwLURa9KywEjx7Yo873ZsEnTSx9KSxmpBX2LAPve4iWL/1RWRIffGS8Ll7PURefJ9a9+NgYtgg6kZt7fcp2yqKzJ49RUOBZ8qjvq0SaPOeoxyfQrs3/0omjB8jNQ2eJUzcuwy9eQozmz/uCRUIn2r93nxpp7BOPUzSvvXr82DHauX2nOta5a2cl3ubMnkP/rllndMcfFi3meLE39WuzLl++nHbxdUePHNFfL0ItLi6epr3+Jj+jOy35fYnRGGXZ2b/3AH33zUKOW9vH4mi/0VAiKF+ZOkUdEwvok48/xUI9Wn+OrC8rbd5Xn1PLVjqR9Ptvf7LwO05Dhg0hKwOh9vX8r5SAF6H29ZcLKDVF5wr8/tvv6P4HH6B+A/ursfbs2kW//7pUbWu/1q5aQ/MXfEFW1a3UoVUrVtO8OXO1bvUp1wwbcR+98rpuvocOHqavvvjSiKO8h19/+pUOHzpE3bp3IwsbC/X+jAYy2HnnvXeVUIuNiaN33vovXQgM1Pf+8hNRp86d6d3339HHuq3keX2eZ17OLi76a7ABAiAAAiBQsQRMLtTi42LUE2nCLCjwjBJfHvV91PHIcJ1Von3nHhQfE6WOiWtULF1yrbgsvXz82RqTQTcol608tkqAHdyzQ53bql1n9ZnOAi03N5ddgzXYqhKoLCoibkSkSWvYpIX6ke3jh3WCxN3Lm1JZaMkXuOtN4RMbE01igYtmq5c0/4ZN2B16VImow/t36ixvNa3Z4qKbq7hsNVdsQc8i49SqZUuSVCGWOhFfhu3Igd1q19Kyun5cd8/61IxF4r6dm1Vfh669lRXkes41te/p7Wc4RL7bklAQHBSUb9/AgQOprt0t16mINBFQD4x8gLp270p7du1RIqt5y5Y0gi1L/v7+tHHDJiXSmjRtSu9/+D6L7Xp09NBRevutt+njWbPZGtSKnF1uWfpE5PXu15f6s7AR0VydXbYNAgLIxfXWOflOrpQHRaQ998LzdP8DI+giW9lee/k1Wr1yJb30yiTF7peff1UiTUTV2CceJRsbG/rz979JhNbK5av0Qq04t1/612/0Eceo7d61m35Y8gO5MrsLgbpEEYmfG8wib+Sokfx3nERfzv+SAs+do3Nnz1ELtmJFR0YpkWZb25Y+mfspNWwcwGvcRioRu3rFSmrTrjX16t1LPw3haPge9B03N+T+1266YeXQ2tVradlf/5CjkyO1btNanfX5p/OUSJN5jXl0DFlzeMBX8xfQ9i1bafGiH2jiixMpPCxCiTSZ15vTplHL1i1U0sbMGTNv3gkfIAACIAACFU3A5EItIyNNPZPEix3cs43juPaq/ZZtO1JUWChFR0SoL/GUlCTay/Fk0q7nXKdqZjqX09XUFNqzbSNdOH+acjiOS5pYzLRst/27t7FlI4lOHjmoRNTA+0ZRzZo11HmJ8XHKVSnxXCIQRbSNHPu0ioOTEyTOLDIiTJ0r2aQSH5aRnqasf+KKlZbO8xdxJHFj1tY26piFuQU1btqS4ljUBV04QwFspSvsWdRF/Etcf2ZmZrR9wxqKigxnl3AGjWOLX/Xq1dUp4n5z9/JhF2kQhXJAvbOLO50xO6z6DuzeSqHBF5WlTQ7k3NCxUJ0F/NrALsuCWsNGjaiVgVCT8xYuXqi+wLVrRJB9seBzbZetRL+p7Rcnv8hxh7pkhDbt29AjYx8hsapt5S99EQFae/Txx+iZ557Wdtla6UzffP+Nfr+8Nx546EF6+JGH1bDiWu3Qsb0Sm5K16Ovny0kczkpATZj4rP7vZ/DQQUqoJcYnlGg6InQsWHhKq8HC3ZLjHrXmw/d67Y3X1N81+RENu284LWDLmLhDRaj99eff6tRHHntUiTTZEffkq1Nfo5dfnExrV601Emp534N2H+3Ty9sgZpNdyyLSpM2a/aES48HsYt23d68Sbvp5cf+0d95SQu3fteuUUPvn5rwmTHyeOnfrpMbo078vBQVdoqVLflH7+AUCIAACIFCxBG59u5jovh5stRIrmLgk9+7YwiLKmrr3HajKcvy+eqESQXLrE4cPUBhndEqL59gnCZRvzdayEyzADu3bqc9gzOC4GRFyPfoOVskHKZwosG/nVhXzJjFdWjZlIxZS5zhgX+LJxJojWY49+g5R47u4e1K1I/vZynFaWeDkYFJiPG3buFr1Z6RdpXh2pUo7fVQnlMTy1n70E+yGPKvcl1vWr1L3FBdk81bt6c8liwp8FjUQ/xKrYmJCHB3ne4vlr02nbqqr7+D7aRnH04krV4u58w1oxF+y9tSj32AVryaiUNyj5mYW6j4iDAMaNdeGzvfzhZdeZEHZJN8+b59bX+5yQvee3Y1EmhzrN6CffKgmruVLLDSq16hBARxzZdgaNm6kdkM41sqw9R9463rD40VtS9xVcVq1amZGpzXJE/fm6qaLzdKyMIePGEZdunaidWv+VVmT0VHRdPr0KaMxymMnoGFDnUi7OZiTsy47Nzk5WR0JuaSzIrdga6Vha9hIV2pFLHKGzfA9GB7Pux3D7up3pv1XHZ7+wQzyD/BX20E3rao1+N1987WxUBbrmbhwxaocxO9XmlhUDVt7FrwQaoZEsA0CIAACFUegeN+IZZiPGVufJLg/IS6aatSwplrsVtTaw+MmaJvqs+/gEUb73VmkdO3dn61c6UbXyUmS+fjUC69ROgfDX7t+TQk7w4sHDB9J/YaM4PixJKrLWaeGLaBJc/L2bcCuVF1cmmFfUduPPfuScsNmZmYZ3bOoZ5FxH3t2kpqvJccpSbkRrTm5uNFzU6aRZLiac605LWtV+u0dXVSigvRZ17IxCm7Xri/oUywtxa0zZnczZtBwrHp2t0p4aKUZvLy8bpuDJGFIy87WxRZqY9Srd8u1qh0rzqeNra0qBxHDAfP1DaxF2rXxHOsmrbbB35Lsi7ggVFsAAEAASURBVCuzsLZt6zZ6/50Z6hQRnPIsPXr1pDUrdQK9sGulLz09Q7muizqvbp5sXHP+h4Jhi+dYR2l+fj6Gh/nd6/5zlIQaw2b4HgyPG26L0HqT4/9EdI17ajz17N1D351w836SILFx/Qb9cdkQUSwubHm2BE5SkFbjZhyd2uFfNrVqaZv4BAEQAAEQqGACJhdq2vOI4ChNE6FnKO7yjiHlPgpqcm1ekaada8Vf1KVtknRQ2lpuhc3XhuPxCmqF9RV0TXkeF/EkTYLRr127ZiQ0z545q/pcXV3VZ1l/2dvbK+vdCc7kzCvUpIyJFhDv4HhLSBZ1T7EIfrNAZ016+713qHfvnkpwigAtSKjduJGrHzaBXaPiui6P5sD/cAi5dJnOnj1vlOUZdEFn0XLleoElafJss2bMUmP27NObhdo4o8udbiat9ORnfpOTPgybCLvr/A8dEYOOfF4khyKcPHnaqKxLLCecoIEACIAACNwZAsa+ozszB9y1EhAQ93EAx7VJO8aZlIbt8AGde7glx18V1VLY/adZ5wo6t33HDqprzao1yiVneN7SX3Rxcn4N/Kl2nYKFreE1si1uQcn2lAzGvlwqQyu7sW3rjryn6uPvLnNsm9a2bdmmbd7+aSDobu+8/Yh/gM51LGVODNvBAwfVboub2aeGfYVtf/fNIpXUIEzenGYsxOQ6fz4ube/uPSqOU+3wr0QuAzNiyH30nwkvqEMNbrq0D92ch3beujXrtE18ggAIgAAIVDCBCrOoVfBz4XZM4Lv/fUt//vZHviwk4aKkS0g9+cyT9NZrb9DMGR9wksAEqlu3Du3ZvVeVipBsTollKqxJ7NW4R58osjzH8PuG8hJYm1Wm5MQJ/1FlKKpxEkYgW6C08huTJk8q7Fa39Tk5Oar4OhFrixYu4ji7ADrKNcqW/7NMnRvNx8+fDVTB/RIrJtmQs2d+xBmvIygsLEwfoG84sN1N1/B3335PQ4cPYSujLrnA8Jz8th8eM1rd97dffmVXqiU1bNiIgoODVFKDuGRHPzI6v8vyPXbwwCF9/JiDgwMtmL/A6LzOXTqrxIC+A/qrVRSmTZ1GAwYOoAtcK23NqlXq3EcfH6s+JRFk1YpV6m9Glntrystz7dy5W4lAo0GxAwIgAAIgUGEEINQqDHXF3UisX9I0F2F+dxZBYNjMzI3jqGQMMzPjYx25eOrLr7+qSjgY1gBrxSUg3vtgun447aq8wf7acf2JBWxIRu/czz+ld9+ezmLqsHLpaaeKRWzqtKkqe1I7puUUSEZtQU0saO++N50WfPkV/fLTEnWaMHiFMy3Pc+kMcX9++fl8+uqbr+iBB+8nsRJKrTKpMScB96M5m/TwocNsDbyqv0Xvvr1VgeBNHPdVi7NA+w8aoPryctNfcHNDyqLMmfsJfcCC96fFP+q7pZzGzNmzlACWg9p7zDteNYP3EsUJEVrT6uBp+/Jp72CnhNqU115Wh2XJK+08ef7Hxj/BxYyHqT7J5P1ozmya/vY7evEnHS9NmVxorTZ1MX6BAAiAAAiYhEA1Lnh64/nVDrRwTMFfcia5MwattATSObkj+EIQpXEAu7+/L4sB42SN8nwwqaYv9cnEXdqoccMSuTsLmodYzswtzMjP308vhqSOWU0WLlrZEblWaqBJQkNAowb68/KOKUH8V64kkcTVacVs855T0L4sQSUrKcSyW9aTV3iQ1SA0cVbQNWU9LgkDF/jdVeeEgQC2gsrqE3lbNq9ZGnjuPJeAyaVGjRqzJbJ4lsK842AfBEAABECg7AQg1MrOECOAAAiAAAiAAAiAgEkIwIxmEqwYFARAAARAAARAAATKTgBCrewMMQIIgAAIgAAIgAAImIQAhJpJsGJQEAABEAABEAABECg7AQi1sjPECCAAAiAAAiAAAiBgEgIQaibBikFBAARAAARAAARAoOwEINTKzhAjgAAIgAAIgAAIgIBJCEComQQrBgUBEAABEAABEACBshOAUCs7Q4wAAiAAAiAAAiAAAiYhAKFmEqwYFARAAARAAARAAATKTgBCrewMMQIIgAAIgAAIgAAImIQAhJpJsGJQEAABEAABEAABECg7AQi1sjPECCAAAiAAAiAAAiBgEgIQaibBikFBAARAAARAAARAoOwEINTKzhAjgAAIgAAIgAAIgIBJCEComQQrBgUBEAABEAABEACBshOAUCs7Q4wAAiAAAiAAAiAAAiYhAKFmEqwYFARAAARAAARAAATKTgBCrewMMQIIgAAIgAAIgAAImIQAhJpJsGJQEAABEAABEAABECg7AQi1sjPECCAAAiAAAiAAAiBgEgIQaibBikFBAARAAARAAARAoOwEINTKzhAjgAAIgAAIgAAIgIBJCFiYZFQMescI5Obk0KwPPqLc3Fz9HKpVq0Y2tWyoV99e1KZta/3xqryxedMW2rNrDw0aPJDad2xfLo/66cefUkZGJr3+xqtUo2bNchkTg4AACIAACIBAYQQg1AqjUwn7cnJv0NZNm/Od+eqVK+mNt9+kgSxeqnq7GHhRcWgQ0KDchNrmjZspKzOTJk+ZBKFW1f+A8HwgAAIgcJcQgFC7S16EKabxf99+Q9a1alJ6WgZ9/dXXdPL4cfrjtz/0Qi09PZ3OnT5HWVnZ1KhJANWzszOaxvatO6hJsybk6Oigjt+4cYMuBV0mCwsz8qzvRWdOnyE+RI0aN+Rjt/6UUlNS6MyZc5SclEz1fepTw4YB+nFDL4eobbn+7OmzZGZmRg35erH6aU3uI2Onpl6lFi2a8zNYa110/fp1CjwXSHFx8eTn50MeXp76voI2YqJj6FJwMPn6+pKTi7PRaSLogoMvUe06talJk0b8WUffr+51/gJdTU2lFi2b64/LRnBQMNGNauTm7qIXbSH8bDnXc8nL29OIh9GF2AEBEAABEACBEhC49e1agotwauUg4ObuSra1bdVke/XuqYSa5hI9feo0TZv6FqWmpOofZsrrr9LwEcMo7WoavfTCSyzKWIxw69azO70/633KYbfqM+Ofouo1apC9vT1FRkSofh8/X5o3/zMlcg4fOET/nfaOsjypTv7VqXNnmv7Be3ydFY1/bLz+Gm18ZxcX+mnpT2RpaUnHjx2n99+dQVcSr2iX08RJL9Cohx+ipMQkeuO1N+hCYKC+bwBbB19747UChdHqFato4df/05//8mtT6L7776Nr167TzPfep53bd+r75Lmmv/8uderSmcVtOk19ZSoLxtOq39HJ0eiZPv/0czp18iRN+M9zNObRMUo4Pnnz2dZuXFvgfPQ3wwYIgAAIgAAIFIMAkgmKAamynrLs72X026+/06KF39OSn35Wj9Gvfz+SOLaPOI5NRFr/QQPpyWeeVH3z5sylqMgoWrlipRJpMz78gC1i3rSLxcyp4yf1GMT9V9O6Jg29b5g6JoJr8Xc/KiHzPosf6RdxNu6p8Uoo7tu7l/78/U/99bKRdOUKPfzoI6o/Jjqa48n2qv5F3yxSIk3E2etvTlWi8PtvFynh9M3/FiqR1qRpU3r+xf+QiKcN69bTxn83Go1tuCNi8oGHRlLXbl3V4R+//4GtgDdo2d//KJEmQvaJJ8dR565d1Lw/mvmRutfSX35TIk3E2/0PPkA1+NOw9RvYT+3u3b1PfR7Yd0B99uzTW29hMzwf2yAAAiAAAiBQGgKwqJWGWiW55odFi41m6sluwlEPj6LIyGi9NaxVq5ZkZs6uTO4LCw2jHdt3KJelXCjB+CPuH0HtO3WgevXqGo01e85ssnewZ7dnY5r78Rw6duwonTpxSok/ET+zPpml3Jl12JU4f94XtH3bNnps3Fj9GPPmz2MXYX21//uvS+n0qVPUs3cPysjMUMdW/LOcurB4enXqa+z+bEaWVlZ0YJ9OFLVq05rqsKuyUeNGFBcbp+Y8eNhg/diGGyImJ738ohJnj495XD134LkLtIPdutKeeHI8jRz1oOq/f+gINf/jR0/wvfar/hcnT6Khw4fQQbYUvvHK6+qY/BIL5eefzlNWSnGNHtx/UPX16ddHfw42QAAEQAAEQKCsBCDUykrwLr5++gczyJotXxHhEbR40fdKiC37Zxk1bNRIP+s5sz/Rb8tGSnIKW5Dup6OHj9L6tevUTz27evT5V1+Qq5ur/lw7e108m4+PtzqWkpys3H+y4+3jq4858+E4MmmxMTHqU/vl6u6mNq2tb1qqbuh6Jkx8jmbP/FAJqr/+0FnhxII276t5enforz8v0YZRn1euJBntG+643byPxMCJi1UsbBKvFhcXq07zvTk/6ff19WPX6zGKi4+l+Pg41e/jq5t/6zatDIdVbt6OnTvR/r37aM+efbSfRaRY3zrxMTQQAAEQAAEQKC8CEGrlRfIuHEdKcYh1S8pTBAUF0ZqVq+nypRDq2bOHfrYr1q5U54SHRVAKJwG4ujorkTZsxHAOjL+uXIRiaVuxbAU9/8Lz+uuOHjpKbdq3obNnzqpjjk7O5HJTyAWeP6+C/iXBQOt398gb9F9NP5a2kZmRQdFR0fTMhGeVy/XQgYO09JelygV5kF2L4uoUC9rHn82h9h3aqZi1yKgoql27tjbEbZ9nTupizMTdefGCLrZNuKxf567GOsvJFK3ZQifu4HPnzqnrXV1dyY5j8CROLvDceWrStDGFXg67bey+7EYWobb42++V23TgkMEcZ4f/pG4DhQMgAAIgAAKlJoBvlVKjq1wXSvC/tIz0DHJ2dSFJAJDYsvfemUF+/r60ioPuJbbsux8XcZD8aVrOlreXpkwmOzt7ZYmTT8M2h92djZs2oW2bt6jDPVj8NWvelLMg3ZXV6uknnuJszsa0af0G1T9oaP6uScMxpTbZP3/9TSGXLtPgYUOoQYMGLMJsKY7nVZ8tW127dVPz+mLu5+wm7UWbNmxQYkvm6eHpbjiUfnv3rt005cUplJKaotya4uKVzM9BQwcp69l33yykS5cusYi7oJ5fxGArtp716NmTgi5cVG7bEydO0uGDOtemfmDe6Na9i9qVGDtp/Vm4oYEACIAACIBAeRJAMkF50ryLx7J30JXYOHrkMFu7cji7cTr5NfBn69lh+osD/UWkvcxZn74s4EY/MpqtSE2VSBFXoGyPHDXS6OmcnJ31Iq07Z4VKv1jQ3p/1gRJrYoXTRNqoMaNp2M0YMnEP5teqmeksbM+/MFG5KNetXqvuLxa0hziuzp1dmBMmPks9evVSQnDpkl+USJMYtGGcqVpQa9SkiRJkIkrl3pOnvKxOHTBoAD3y2KNqe/OGjUocimt05uxZKvv0YWagJSCIGPX09FKWR7lAKyUiwrJ3v75qDLFctmrTUm3jFwiAAAiAAAiUF4FqMTExN55f7UALx0CzlRfUyjKOuAOlxlhaWhp5cV0zKY9h2M6cOkMOnDCg1R6TumIDevVXgmfdpnUcdxZHVtWtqG7dW7XH5Hpt3OSkFKrPNcVKU8U/+OIlLqFxjePinI1qm8n4SVyfLSYqRlnRatnUkkOFNpm3CD5nZydOnDA3OlfcrSHs1qxTx1ZZGjURpp0kz5iTc90oPk/rk0/JqP2FM2pFjE58caJhF7ZBAARAAARAoMwE4PosM8LKO4CIEhd2gxbUpNhtYc3J2THfbm3cwsbO90KDg77+uiB+g0P6TRGGecWhvjOfDbH0GSZCGJ4iIrJh41sFeQ37ZLugZ5S+yS+8rLI+ZXvYzVIlso0GAiAAAiAAAuVFAEKtvEjeI+OIG7Qg9+U9gkD/mFlZWdQgIIAGc/ydxL6hgQAIgAAIgEB5E4Drs7yJYjwQAAEQAAEQAAEQKCcCCEwrJ5AYBgRAAARAAARAAATKmwCEWnkTxXggAAIgAAIgAAIgUE4EINTKCSSGAQEQAAEQAAEQAIHyJgChVt5EMR4IgAAIgAAIgAAIlBMBZH2WE8i7aZj09HT6Ys5M2rV9KyVdSbybpoa5gAAIgAAIgAAIlIAAhFoJYFWGU0WkTXh8FC88frEyTBdzBAEQAAEQAAEQKIQAXJ+FwKmMXWJJg0irjG8OcwYBEAABEACB2wlAqN3OpFIfEXcnGgiAAAiAAAiAQNUgAKFWNd6j/ikQk6ZHgQ0QAAEQAAEQqPQEINQq/SvEA4AACIAACIAACFRVAhBqVfXN4rlAAARAAARAAAQqPQEItUr/CvEAIAACIAACIAACVZUAhFpVfbN4LhAAARAAARAAgUpPAHXUKv0rLPkDVK9enQYMGECDBw8mKysrOnHiBC1evJhSU1NLPhiuAAEQAAEQAAEQMBkBCDWTob07B65WrRq1atWKpk+fThkZGXTx4kWSY2ggAAIgAAIgAAJ3HwEItbvvnZh0RiLKXF1dydzcnGbMmEFbtmyh3Nxck94Tg4MACIAACIAACJSOAGLUSset0l5148YNiouLI/kUwQZrWqV9lZg4CIAACIDAPUAAQu0eeMmGjygCLSIighISEsjPz48sLS0Nu7ENAiAAAiAAAiBwFxGAULuLXkZFTEUsaA4ODmRra0tXr16lnJycirgt7gECIAACIAACIFAKAhBqpYBWGS8xMzOjdu3a0b///ku//PKLsqotW7aMrl27VhkfB3MGARAAARAAgXuCAJIJ7onXfOshg4ODlTXNxcWF6tWrp2LUxB2KBgIgAAIgAAIgcPcRgEXt7nsnJpmRZHYeOnSIJk6cSOPGjVOWtGHDhpHUVEMDARAAARAAARC4OwlAqN2d78WksxILmgi37Oxslf1p0pthcBAAARAAARAAgVITgFArNbrKeaEkE7i7uyu3Z1BQEF2/fr1yPghmDQIgAAIgAAL3AAEItXvgJRs+ogg1iU2TduXKFVjUDOFgGwRAAARAAATuMgIQanfZCzH1dMTtKZa09PR0+vLLL2nr1q308ssvqwQDU98b44MACIAACIAACJSMALI+S8ar0p8tQu306dP01FNPUa9evahly5awqlX6t4oHAAEQAAEQqKoEINSq6pst5LkkkeD8+fPqp5DT0AUCIAACIAACIHCHCcD1eYdfAG4PAiAAAiAAAiAAAgURgFAriAyOgwAIgAAIgAAIgMAdJgDX5x1+AZXl9vb29vTCCy9QzZo1acOGDTRo0CCKjY2lb7/9llJSUm57DB8fH5owYQJt3LiRtm3bpuq23XZSOR6QbFZ/f38Ve7d+/XrasWOHuqcsnSWxeKNHj1YL0GdmZtLixYvpyJEj+jnVqFGDxo4dS61bt6bVq1dTixYtSJ7366+/ppCQkDLP0qKGBbUa25Jc2jhT4MoL5NLSmWo61KQDCw5RZlIG1XKqRenx6ZR+JUN/L+t6NcnawZquxqRRZkomyRjNRjWlOh616eA3hyk9MV1/bnlsWNtZU/vn2lJyeAqd+vM0Xc9E2Zby4FqWMcwtzanpyCbk2NiBDvzfIUqNTi3LcLddW82sGvn18aXGIxtRyI5Qkvu5d3SjEz+fpLAD4XQjFyuW3AYNB0DgDhCARe0OQK+st2zYsCG1adOGrKysqEOHDhQQEFDgo9jY2FDv3r1VzbYCTzLosLS0pAceeIBmzZpFHh4eBj3F2xSh5uvrS7Lagggtc3NzowtlX8bt0aOHWpTesFMSLJydnalr165qpYZGjRpR27ZtSUReuTT+vrNxqUVeXT3JoqY5OTS2J9e2LmRmaUZenb1ozPLR1ObpNuqLUu4noqzjix3o4b9HkWtrF6JqRFY1Lcm3jzf5DvChmnY1y2VahoPUYlHoN8iXfHrWJ0u+P1r5EBAx5N7OnQZ9OkB9yn5xWzXzakqkeXbxUH8Txb2uJOdZ1bKk+j29yNq+Jtk416L63b3Ikv/W0EAABO4eAvg/8t3zLu7qmWRlZVFCQoKySoklTaxosi+rG5RX8/Pzo27dutFPP/1U4iElQWLz5s00cOBASkxM1C82L8e3bNmiypCISJs7d+5tY+fk5FB0dDTJM8bFxakfqTUnJUzKo+Xm5LI15CrlsJUqLTad0uLSqQZbzK6l3WLn1cOTTvxyglKiUsnGoZaybBjeW6xt615eT+bVLSgtPs2wq1y24y8m0B+j/qacrOuUkZxZLmNiEB0BeZ8+LLIvbbp8VyGRf6DI32JORo76lH8g5GTz+0/KhDXtrnpTmMy9TgBC7V7/Cyjm88sKBiLQZG1QTaTFx8eTiBytiQuxffv25O3tTeL6FKuaYRN3Yvfu3UkE2dmzZ5V78urVq4anFLot13fp0oXq1q2rzhMhJS5OsZbJuHJ/mc/Ro0dVRquItOI0OU/EXXJyMiUlJSmhJvcS4WbYnJycaOjQoWruBw8eNHp2w/PybosLKSMxgzKTs9jVmanEmjVbxa6zKNJaPe+65NjIka7GppFzM2eq61OXbuTcIDMLM/LuWp/q1udnZgNf5pVMurTtMmVdNZgbG2nqetQhn74+yq2afDmFYk/HUujeMMpmMWhmbkbOTZxYLPhQHa/aFHc2nqKORVP08WiyYOHn08ubhWMNIsaVFJJEYfvDKeea7r1Wt6mu+sU1KyJSzq1uW50urr9ICUGJ+i90cdV6dfXSjcMPJa7TkJ2hxXbX1WIx49XFk6rX0a09ey39Gl3eEcICQidKa7vaUv0e9cnOtx6lRl2luDNxFHUiWu+iLazf3MKcnJo6KYumiObLzC/+QoJu7kWwE2tmYWy191faT7GwOfjbkyc/ew1+9thTcRSyN5Tk+fNr4qL2ZqunvNPQ3aHqnahjwsa/HsWfSaBLO3R/H7YutuqZ407HqfO9e9enrNRsuvDvRXap8393bOnNSuG/SXaty9+VuZU5ZSRkUnaqwd9WfpPAMRAAgQolAKFWobgr783EcibxW7Vq1aKYmBj68ccfyVCoietQ3JYimPJrEj82b948I3epWLr++9//KlH39NNPqxgxEWEfffSRWjUhLS2NFi5cqISRxI+JNczFhV2BN5uIqsDAQCUe33rrLTU36Zo5c2aJSo+IZUFi1j777DMKDw8niXHbt28fyf21ZmFhQSNHjlTFgc+cOUPPP/+84qD1F/Yp40ceiaK9n+2n5IgUClofROH7wllE3foytqhurlxQUSyevLp7kjkLtOssOuULOeCBBhQwzF/dIvHiFYo8FGUk1OSLftjXQ5QI0+Yhgm/l06tJLGW+vX1o4Gf9WZTp3MEyVvj+CFo3eT0fs6T2E9uqL3m5NnD1RYo4Emkk1No934bj5WryF7kFiatMWtOHG9Pq59ZSzNlYcmFhOeizAUb3l2dLupxcpFBTrsG27jRgbl+ydb4l7EXQJgYmUnpCOnl18qS+s3sb9SeHptCKZ1dTUmhSof2pLC5bPd6SOr/akV3ZrLq4yfNufH0zXdwcRPZ+dgWyiwuMVyKqILbSX1gTgdfhxfbk1tZVcZM5CLfca7l0dtl5CtocTAGD/anXjJ7sbrz1v+LzHMe448OdlJ1x6+9D7mPjZEP9ZvYmj64etPvjvcwmg+z53Q+aN4AcAuz0U7m0NYQ2TdtCdTzrUI+3u7E4yyJrR2v+B43Ole/Xz4fWsnVW2Kbw3+Oej/dRzIlYdsVXU3+jV2+KY/2A2AABELijBG793+GOTgM3v9sJiNXp2LFj+mlu375dvy2WrPHjx1OnTp2U2Pnll19UvJiILGnW1tb05JNPkqurq0ow2L9/Pz366KM0adIkVXA3NdU4SFrizQzjw0QEvvHGG+rYs88+SwcOHFDjjRs3To1/6NAhFTvXrl07JezUwRL8EiEVGhqqfuSykydP3na1PL9Y0eQ8eXaxvhW7seVCLFXyIy3qZLT61OKVtKBtCeR2a+NKbu1dKee6zhooVrd1r62nTe9soX4f9CGHRvbqWu2XjOHcwplqcQzcpmlb6cyys6pLvtTFWiJWEok7us4Wmn8eW66sUBI0LjFpWVezVQLDz0N/pdoutWnEomHasEaf8j5qssUseMtl2jFrJ7k0d6G+H/Um+4b2JF/q3aZ2YSubFa2dtF5ZcxoODaDu07oajVHQjoizbm92IbnHymfXUPjBCGozvhW1GtdCXVLbzZa6cv/19Ou09P4/KPZcnLIC2vvaKStlof3sLhbrZNtnW9HFtUG0feYOql67Bg1dMIgaP9SIIvhehbErim1Bz2R0XKcNjQ7JjjxvXa861P6FdpQQmEDrX9lIV9ml3fapNtRhUjuKOhpNZ5ef018nFtfW4yUhxYW2Td9BZ1ecUzGNbZ5sRbZuNrRywhplCW05tgV1nNSeXFu6UNZN17okqxz55igd/fk4tXmyNTV5qCGJBVKEmrjUz/8bqL9PUlgJ/q71V2EDBEDAlAQg1ExJ9x4ZW1yCffr0oV27dtFvv/1G4s4U8aM1BwcHEhElgqxJkybk5eVF3t7sbmOBJ25QycJ86aWXaPLkyTR8+HB688039RYxEWwDBgwgCfAXi9qePXu0YSv0U4SaCML+/fuX+32vsWAKPRajLGpidREXmAgLH45rKqoJ5xTO1MzJzqFe7/UgFxZtp34/TXHn40ncfOL2Swy6Qlb1qtPwhUPo+I8n6dyq88qyJ66v4jS5R/TxGNr+/g5dDB271MQtKy5QpyaO5NTciY58d5SCt15S9yzOmHKOCCHXlq5kz9agvXP3U+ieMONLWcyIO1hEilgjxV0pcxa3asyZWHW9Rwf3Avvl2SVpo0Zddutyazi8oRKu4k6ux65lK+ZcGDtxexbabzzb2/aSwpNp41ubKWBAA+rzYS/1jIEbLiiXqzy7HLdxtaETS05RCmd05rI4F7dk45ENlRXuwr8X1Ji2HrY06PMB6nm3vrudzq8OZCGfwwLNltzauVJ2SrZ6D3VY+Akrc7ac1mtQj2LZSibtzB9n6eDCw3Qt8xqlRqYqy6gFEgYUG/wCgcpAoJzS2irDo2KOpiIg8VzyIy7B/ALwxaImPxKz1rlzZyXqPD09affu3SrurbB5iVCTcyVGTtychjFxhV1XmfquczxY2K5wSo9JVzFYcWfiOcYsjjVJMZQUnxJxOJLWsTUr4VwiNRvThMYsG0XDFrAr1L22+kI/9ddp2vr2drrOYq7Tyx3oiY2PUbdXxQqmiwcrDqv4swn68iG5WTnsvstRViERCyI64s8llEikyT3l3dp66USfWJVue7cslKzYUictky0/muVRHbj5q7B+mZfEzkkT4eLDMVpe7Da8yjFuUYei6QYLo8LYCf5C+2/OobQfFrV0/07O4uQN7dkkNk3cxjXtapAZW0OlictWXKPippTYPI2TlbUlyRhWtpYc4+ahsoJrs6gL381/S+z6lqZE9okYJdJkXyy0hv+IkmNoIAACdzcBWNTu7vdTqWYnZTukiaVM6qxJ5qQ0saSJq1BcimIty6/umpTnyMjIUF/e4hbK2+RLXX6kOTo6qtIf+Z2X97rKsi9u0YiDkRQwogFd3h6qhElx5y6WmJA97LrdF0YODey51EdrNU7jU41UzTX58hexdm7leXJv70YdX2pPLZ9oQVGHoyl4+yW9SCju/W47j1+XWK+kWdtbU6PhAUrE3XZeAQdEUMmPNEkqkKB3sWaJUJIgd2kOjRzInK1NhgkYcrywfrGCSh26axnXaR9b5CTIXhNEcq3WCmMnSRVF9WvjFPSp5szPUs3C+O86M5GfjY9bc1kM+dvOyc2hGrWrswWwOsWfYotopi6hQzKGA1ddoBaPNae+s/rQ+lc30BWOzcvmxIDs5GyKPRlHG9/czMkqOlbaPDzal7zMjXZt3k+pnyj/WLp2zThuLu952AcBECh/AhBq5c/0nhtRkgokwUBclKdOnVJuTikgqzUpeSGJA7IQ/EMPPUTLly9XFjhJPIiKilLB+/KlKuOIuJPMUblGEhDkCywiIkJldo4ZM0aJwGeeeUYf2yZZqHlb/fr1latU5iTZnIYWBBlP6q2JK1XKi8h95N5FNblOynt8+umnKqlizpw5RskGRV1fVL9k4+36ZI9yIcoXc/0uXvleYmljqeLUxJKSHJpMUmurNcd0XWcxIlmSV1jwBW0I5gxQb5WIILFoItyi2bUq8V+S7RmyLZTrczmqa/PepJaTtXI3pnFWoGR5FtaEa0pYigqObzK6kUpAaP5IU/Lo7G6UKFHQGMI9NTRVzaMZXyflIdpwPJkUBM6+eo0tSmYUfTKGYtjt2nxsMy4KnKGSMMz5vDqetSlkd2iR/WHsTm05rjnHfbXnbNu0m1m1TuwSdaXTf56mBkMaFMhOMmKFXUFsC3ouw+PCSMqd3LiRS17dPCn8QISKDxRLZGLwFUq4kEgt+NkSzidwDGMytXmmtYoHlIzZa1wqQ1puNq/NuzKQ33cK9XinG/WZ2Ys2TN2s4gODN1+m1k+3pKYPNaGz/5xVRZIlO/Zq5FVK4xi0sjb5x5D89zh//nz136qEKISF5XFRl/UmuB4EQKBQAhBqheJBZ3EISA2ypUuXkmRefvHFFyTV/6VshiQXSJOMUUkwkIK5khQgP9pxuUaauHMkxu306dMqE1SyQaV9/vnn9NdffymhJzXSJEZMhNvKlSuVMLSzs1NizlBsPf744yQ/kv0p9zUUalLKQ2Lh5EdWVZD5Gl6rbprPL03g2draqjg7ceUaZoXmc0nJDnEJD6mPJj+adSm/AWxdbGj4N0NIsj9XcFanrFBQs04Naj2lJfUwCOCXL32JdxJ3pyQgtHy8udFwkhgQeTTqNguTewc3GrX0AZX9KQkMRTURUkH/Bqu4KinoK+JALIOOHLtWVBPrVtj+MLq8JYT8uJCvZCOmcAzVebYe+Q3wJSlhEnk0kjMgd9GAOf2o61Td35OMK6JFROeVkCuF9icEJ7I17QBnVvZQLmFtThEHIunkrycLZSfWtMLYSpxYkY0tZvEcL3hhTZBySzd+oKG6RPhvYivYjlm7qP/sPnTfwqHqeA7HFR5acJiCt7Glk0We1uQ9SnKBuHq7vNaJer7dnbZM30Yn+Bkc+f12m9pZ/cj5cu6Wadu0S8v0KUJN/huTsAUpcC3Z1/LfX3H+mynTjXExCICAnkA1tjrceH61Ay0cg3A1PZVKvNG1te6LoKIfQQSQJAZ4e3srq5q4NyXLUyxamlVL3Jsi1sSaJf8qP3fu3G3Zk1L+Q1YFkExPiXmTuDRxt4jrRVYckDGkTprcT0p1iFVMG1++TNzd3VWffJGItUzrEx4istzc3PT9V65cKbZFTa6XLyyp43bp0iVVMqQ8vqxECFg71lJB3tnptwrgynHJ1tOWkBLxJhmONThrUdo1jjUSi5qICemTLE9xe0rgeWp4qsru1Fxh4paszRYoxwAHqs5utQQuexHLZTUMl4mSTFAJRrdkK5I0qa0loknKg8hxyRpNZSubiCsrays1l4ykDMrm4/JlLha66jZWFMsxVC0fb6GE26pn1qigfzVgIb8sOdbKpbmzymIU8SjB/pINKqJPLZXFekWsbU6NnVTiQRq7M2PPxqkaa5ors6h+cam6t+V3z3FfkoiQzEJWhFZR7IrqL+SxjLqEr1MTJyWa5b1Fc9yY1LiTJu/aoSG/G3Z7iqiTEi7yXHJv4WDJvJMjktX70t6TlG+5ypZXsdbJMUd2DcsYyZy1GX8uXh23qqV7T4bLk2lLk8m71e5vNNF8diSUQazhzz33HL3++uu0adMmCLV8OOEQCJiKAISaqcjeoXHvlFC7Q4+L295BAiIkWoxpTn79fVRdMLHiubdzo3b/aUNiscovbuoOThe3LgUBEeGSpS0WbqlxKJboyMjIUoyES0AABEpLAK7P0pLDdSAAAnSF46xs3Vuwa7Kvnoa49Xayu1Kz6Ok7sFHpCIjlWmJPxdX/zjvvqDi1SvcQmDAIVHICsKhV8heYd/qwqOUlgn1TE9DcgzW5XplyV7LLUnNJmvreGB8EQAAEqjoBWNSq+hvG84GAiQmIKEvlgq3ygwYCIAACIFC+BJBBUL48MRoIgAAIgAAIgAAIlBsBWNTKDWXVHkhWHnjhhRdU9uWGDRtUQdvY2FhV4qJ27do0ceJEtcSSLNxeHkUxfXx81LqgGzdupG3bthWaZSalM2QJK1k0XdbhlMzQjh070pIlS9S6oGXNzpSMwlZjZZ1FZwrkBbOlzldNXqT8wIJDXJfrKtXmFQCucd2v1NhUvctPMhlru9VWcVqq5AYHZfv08Cb/QX50ZNFRtVi6FDstryZzbDaqKdXxqK2K3KpsyfIaHOOUioC4hL06e1LjBxrRsR+PU/SpGFXgtlSDFXCREy+x1Y4XmU8OSeGVKRLIf6gfhXDBZFnzVTKC0UAABCo/AVjUKv87rLAnkNIabdq0IVmBoEOHDqquktxcSmp069ZNlecor8lIqY3evXurchvFGVOCnaUgrQhKKdshxXSlpEe5NBZUNrzoudQJs6hpTg6N7dUaklJstq5nHbp/8XDq/0kfVWZB7idf0A0G+tMjK0dTMy5EKgHZUubClRdcbzDEn+rWr1uiyv3FeQYrXrvRt483+XI9sppcfwytfAjIu3Rv506DPh2gPmW/JM2G69758Hsx1TuR+Xhw7bt6/nXJwtqC6nf34rIu1iWZIs4FARC4ywnAonaXv6C7ZXpZWVmqZplYq8SSJnXSpIaZFLO9000Kg8qqBrIEldROk7pPMq+kpKRCLXHFnbcsbi6rBeTwYuBpselcvyudavAakrI0kznXvpLm2JQXD/ezo/TDEbwuoyXV7+bFAu3Wv4PEunHg/w7SyaUn1fXlHWyfzmthrnt5PS/IbaGK5hb32XBe0QRsuAabiK1Lmy4XfXIFn5GVmsVW2yzKiMtQdeXk70xWcJC/WTQQAIGqQQBCrWq8R5M/hazzJwJNlmzSRJqII22BaJmAuCA9PDyUdc3CwkIVxgwPD1cV1qWvQYMGalF2cZXKCgR79uxR4kqbvAgsWa7Gm4vmiutTrGpybPDgwWqdwZ07d+oXfRfBKFY9WXJK3J0yJ/kRcSZ9Uuj26tWr2tDqUyx/srqBPIu4b2UFheI0EVUZiRnqCzEzKVOJNamafz2T1z28KdSk2KtnJ3eKPh6tFkN36+CqG5oNME5cDNapuZNaKkmKzMryQEaB93xOXY86vOyTj3KrJl9O4UXZYyl0b5iuKGkh/Tlchd6zo4ey0hHrQln78tK2y5R1NUvdv7pNdfLp5c1f3ulqSSjZlsXYL66/SAlBvLwWP5s0EZcebDmS4rYyzo2cG7zsVDTFnuPF4W+eo04s4JcUlPXq4knV6+iEq4hYWdIqLU63OHgNLurq3bU+OTRxoGtc6FWWTorgJa2kYKu0wvqlYK9TUydl0RQBcpmfL/5Cgn5eUsTVu6e3Wpg8KyVLLWgfsitUf++i+gt4pGIftnWxJW9etkkKEidxwdlLWy/rCvXmM4K4qL271ecix9ZqaSzhW7Muz5+vt/OvR/FnEtSapPL+ivPurvHfU0ZChu7vk9cOzWCRJn+raCAAAlWHAIRa1XmXJn0SsVBJ/JmIHVlD88cff1RWLEOhNnz4cJL1OOUcaaNHj1ZxbaGhoTRkyBCaMWOGqsekTXTFihX00UcfkawQICsRzJo1S7kstX75FFHVpEkTeuSRR2jSpElK3IkFTQTh9OnTae/evbR582a1rM0nn3yiFn4XkThv3jw1T20sKdzZrl07dY3E0MnKCLLCQXGa3C/ySBTt5YW9pWp80PogteZkdprxAtX1e3jRmb/PkktrF7Xmom7sauTazpW6v9lF7co1SZeTjYSag789Dft6CIuk2vrpXOV1KVfyElFxgfFUWH9SeLKKgQoY5q+ulaWlIg9FGQm1ds+34fnU5Kr8FmRVy1Kd1/ThxrT6ubWqSr8IjX4ze5NXd0/9/WVjx6zdSqgZHcyzo1yDbd1pwNy+qoq+1i2CNpFXQBChVs+nHvX/qA+5MhetXc/KobWT/lWipJ53wf1h+8Op1WMtqfOrHfkfAqxYubXnmKyNr2+mi5uDlLu53+y+LEbra0PzigO5tPHVzRS44UKR/YWJUBHPHV5sT268LqhwkzkIt9xruarA74WNF8mZVxsY8Gk/FsoscG+2uLMJvHD6Rkq8lKgdUp9WNa147u2o3YTWdPbv83Rh7QWy87WjQfMGkEOAnf7cS1tDaNO0LWTB76uodycWtcPfHlXrmKby2qz75h1QIr+w59LfCBsgAAKVggCEWqV4TXd+khKQf+zYMf1ExIpl2MRi5uTkRGvWrFEiqW/fvmpNT4kb2717txJsFy5coFdeeUUJPFmSRoSXjCmCbfz48Wpt0M8++0ytzykLpy9cuFAJtbVr19J9992nfo4fP66scGJNkyWdNMuYuD3//fdf/ZTyLhwtYuvixYvqfunp6SSWvmI3Njol8WLn8iMt6mS00aUytjQ7fzuOF3Inn97eytqTK55P7jv+8wk6+uMxJTg6vdxBTtU3ETrOLZypFsfAbZq2VQWBS6csCSXWoaL6xXK17tX1JOty9vugj1qiSD/4zQ0RqTXZ6iSFaHfM2snLNblQ3496k31De0q8fIVaj2tJ7ryQ+p55+9Vc7dmFq609mXesvPuyxFE3FqFyj5XPrlELv7fhReJbjWuhTpVljDqwOLEPsGdhtp6CNger4yLOZAkjWY6qsH7nps7Ulhdqv7g2iLbP3MHLLNWgoQsGUeOHGvEC5+GcPFGHXDm54+TS07Rj9i66zktrWdfjGC3mLmKlqP68z3Pbvk4b3n6Yn7cGWyYlkL86r7/592MrKIqXv/Jhy15/Lv7blsXY9pk79dcJ/y5TOlHLJ5rTiSWnmPU+Nb82T7YiWzcbWjlhDa97Gk4tx7agjryAvGtLF7WcVGHvTqxxYqGVdUG1dv7fQG0TnyAAAlWEAIRaFXmRd/oxRMjt27ePPvzwQyXEDh06pNbxFMuXrO0pa2xKFqYs4C5WsnXr1tGDDz6orFxHjhxRWZuyKPtvv/2mXJaa+JHnkrU1ZX1Bsdj9888/SnANHTqUTpw4odYDNTy3MA6ymPS4ceMKO6VUfeImFCuIe3s3av9CO2VNk4XKPbu6FzmezD0lPIXEhdnrvR7kwqLt1O+nKY7XfFRxRiwUCu0v8g6iWdiNeTyGtr+/Q7k/bdiCJnMWF6gIQom/Ct0VRqeWntK5WnW6s8iRRUS6tnRV62/unbufQveE3XaNraut4nKZ+YTsDtXHTiUEJahz7dmaKNzy6xeXZ8P7AqgGF9KV1nB4Q7VWp6wFWs+nrnKXZnBsXipbH5s/0lS5Ho//fJLCDobr1zEtql8NXMAvsVZufGszBQxoQH0+7EXyjGKl06xVsnaqY1MHCt0drqxYsnZo+KEItSi9czMnFse6eVvUtKCe73QnKxtep3bRcdr/9UFl8ZSkEje2tmanZPM6oI7K7VzPuy7HGZpTvQb1KOEiu3cLeXcFTBuHQQAEqhiBW9HOVezB8DgVT+DkyZP6RdYlTkxckJKEoGVfJicn64P7xQKWlsZuMY4xE7enZGvKIuxi7crbZIzly5crgSfuVFkYXdyhYmmTuLQ73eSLO/ZkrPoRF1gWB3eH7Q3n8gjFCOhmURRxOJLWsbUp4VwiNRvThMYsG0XDFrArlMt+SAmPQvuL+fDx7I6ThANpuex2zOWgc2nW9taq1Ej8mXi1wLo6WMxfYkW19dKJvoTABKN4RW0IS47JkkxZiZvKZZdk3lZYvwhBiS+TJsLFp3d9jlPzoKtRVynqULQSfcmRKbT+lY0UuPYiefb0pPu+G0qPLn+Y3Fq7KWtkUf1551OSfQtO3LBk96TEBWrB+xLML+/fkkWZZQ2dm1nGFJGWzSVcxIWena5LwLHiEi4WtdgdbWup4uska7e2hy2Fs/BLZ/GptYLendaPTxAAgapNABa1qv1+78jTiUBr1qyZSjw4d+6cEmRicRNBJl/usl2nTh21yLMkFWiZo1L2Q5okEAwaNEiJONkXq8L58+eVFU5i4Hr27Kniz/bv35+vOJBrKrqlcbB+MAeRu3V2o8jDUewmTVbzLs48RMCE7Aml0H1h5NDAnto83ZoCRjSgxqcaqZpo8uVfVH9x7lPYOWaW5qpbkgqk1luNm9agwq7R+kRQyY80SSrwZkFFN12GWezezGKLkUMje47zslKuSe06+SysX/5Orsak0bWM67SP4wMv7bist2YZjiGWp3WvrCfbj22pKZdDEbejxHZtnLpJJSsU1W84Vn7b4k4VwVzNwtgPqubOz2fDrktzK3P1bJYs3qSUiwT4awkdOSyMj/1yivwG+FKfD3qyYMumMHbbZqdmU3ZyNgv8uHwXsK/tcitmMb954RgIgMC9QQBC7d54zxXylOLebNq0qcrufOmll1Rm54EDB5Q4k/iwsWPHUmBgIIWEhJDEqEmMmWRyRkZGKuEliz+fOnVKuUPlXMMmVjWJQRP3p62tLf3666/KjWp4TlHbEvc2f/58JRynTJmi7lvUNcXtF7F1dvk5CmdLWjpbj6zt869lJm47ye7L4mxHSUwQS0xrjum6zmJEsiSvcBxc0IZgzgD1VrXXxGojwq2g/rzzE0uOiCKx1CSHJuftvm0/ndflTGPrjR/XX4s7FceJDy7UfGyz287L74AIqdTQVJXN2oxdj5LR2IbjyaQgsFiPzNiFl3ohlS5tvkytn2pJXV/tTKf+PMNu11yVYBB3No6S2b1YWH8YZ762HNecOnDclsxTkizErejKAf4nfjlJbq1cyYHdj5LgkRCcSMEcA+c/yFeVRpH4roaDAgrsz++Z8h6TfyRIZuqNG7nk1c2T4+IiWIxac1yZLUVyTFrEvkgKGN6AGt3XUGWjNhjcQM3t2OITJG5XaWJxjTgYydm4ITRwXj/qx4kV615aT3EX4nm+zObplkpgnv3nrHKb1+cM0KuRV1UGcd75YB8EQODeIwChdu+9c5M8sVjKJG5MfqSdPXuW3nvvPVXSQ74wJaNz9uzZKkFA+iVObcGCBbR161ZlFVu6dCm99dZb9MUXX6iyGTt27FDJBXKuNPnCFNeoxLF16tRJZXrKGMVtMgdXV1dVQFcseOJqFYFYnk1X0ypTDSnlO/JrFixeenMsmmR/ruKsSynnUZNLV7Se0pJ6TOuqv0Qschf+vaiqyxfaz3FRhs2WC6wO/2YISfbnCs4aLaqlRqbSySWnqdvbXWjQF/3ZKsRxVux6c+voVtSlSoCE7Q+jy1tClNDz6+dDKTze+VUXeN+XhIHE3h3+/ijZuttSE04AkB9pWtZnPFvDCusXS+K+zw5Qrxk9lEtYm1TEgUiV+CBWLhGBkkmpNWG7f/5ByuQSF4X2c8ZkkY0tafEcL3hhTZBySzd+oKG6RBIzRLQd4HgzG+da1Ovd7kTyw+3i+mCVPCLPqDX5+408Eklbpm2jgZ+xWOMCyf9O3kAnfj1Jjiysu03trH7k/OvMTM5DAwEQAAEhUI1LLdx4frUDLRyDcLWq8CfRtbXui6Qin0VclZ6enqp+mdxXhJBkVeatUybuTlndQOqoiStTgvvFKiNNqvf7+fmRt7e3sqpJ7JkIK6mHJj/yRSf3+Prrr5Wl7oMPPlCWMXVxMX/JPEXkSUkRsfSJla6sTVyFslRURmK6PgZMxlTHOcYsk60xYrWS+VvbWXPwfi2VISkWOLGoSeajuA0lqF/cnrYco5QankpRJ6LVtTJWUf3aOVLHqwZnRUq7xu46zaImtdGuc3ZoasxVJa4k01LOlZi1axIvxSJWSlHU5UB2qd/m3MyZ+n3ch7ZN305nV53P192obnLzlyyX5dLcmczZfSpWJrEaSjZoGj+3WsqKxY6szCBlOsTalpORQzF8H7GmabFdRfWLS9W9rZtyMcac4WtZyErwvjQRsnaclCCWSgnMlznI0l5a0H9R/Tcfo9APeTYnLsUh1krhGn0iRpd4wVfJu7bnMhu1efmuK5xFmxh8Rb98k8TY1XKspQomZ6Zkqncp7CWRI4Nj22Se8uyOjRzIoaEDJXMdtvhzXLyZ/27knoW9O41toRNHJwiAQKUnAKFW6V+h8QPcCaFmPIPy3RNR5+/vr+LWnn76aWrcuDG9+OKLqgaaiB+0shGQ5ZHEmhO45qLKDK3Loq4DZ65KjNmq59ey6DCuBVa2u+FqEAABEACBkhKA67OkxHB+hRKQOLaPP/6YvLy8VNmPt99+W9VCg0grn9cgBWkluN3Q7Spu0y1sTRPrEBoIgAAIgMCdJQChdmf54+5FEBD36HPPPadco1LENq87tYjL0V0EASniu+yplcp9KAuISwFdiTPTXJJFXI5uEAABEAABExOAUDMxYAxfNgKy3FNwcHDZBsHVRRKQmCht3c0iT8YJIAACIAACFUYAGQQVhho3AgEQAAEQAAEQAIGSEYBFrWS8Ku3ZknEpLkTJupQVAaTSv9QwE4sVGgiAAAiAAAiAwN1JABa1u/O9mGRWUktMVg2QBc1lTU7JoEQDARAAARAAARC4ewlAqN2976ZcZybrbEr25JNPPqkKz1avXp1cXFzUqgHleiMMBgIgAAIgAAIgUG4EINTKDWXlGEgKy0qpCyn2GhUVpS84Wzlmj1mCAAiAAAiAwL1FAELt3nrfavUAqfDPK1KoumT32OPjcUEABEAABECgUhGAUKtUr6vsk5VCsenp6Wphc0kwkLg1NBAAARAAARAAgbuTAITa3fleTDYrKRgrC6CLWFuxYgWtXLmSmjdvDsFmMuIYGARAAARAAAT+v70zgbepXP/4QxEKGY8xc6ZGjZJonogyNN+GW6Ki201pJlODK+mviQjNo8hNuRRCo5B5DiHJWKYU//V9eXfrHPucsw/nbPY+v+fzcfbaa73rHb7vOtbvPM877DsBCbV9Z5eQd+JBK126tKWkpNgvv/xiS5cudRuGJ2RjVGkREAEREAERSHICWkctyTs4bfMKFChgTZs2dePT2rRpY2zLJBMBERABERABETg4CcijdnD2S47VijFqO3fuzLH8lbEIiIAIiIAIiED2EZBQyz6WCZETOxHMmzfPSpYsaaVKldLYtIToNVVSBERABEQgtxKQUMtlPY83bdOmTZY/f34n1jTrM5c9AGquCIiACIhAQhHQGLWE6q59ryxLcbRt29Yuu+wyJ9AYm7ZkyRKFQfcdqe4UAREQAREQgRwnIKGW44gPrgKmTJliU6dOdRuyL168+OCqnGojAiIgAiIgAiKQioCEWiocyfvF7/WZvC1Uy0RABERABEQg+QhojFry9alaJAIiIAIiIAIikCQEJNSSpCPVDBEQAREQAREQgeQjIKGWZH16ZLHiSdYiNUcEREAEREAEci8BCbUk6/uGjc5JshapOSIgAiIgAiKQewlIqCVZ399170NWpVr1JGuVmiMCIiACIiACuZOAhFqS9XvBQoWs/9B3rUnzFqYwaJJ1rpojAiIgAiKQ6whoeY4k7PJCgVh7oHPPJGyZmiQCIiACIiACuYuAPGq5q7/VWhEQAREQAREQgQQiIKGWQJ2lqoqACIiACIiACOQuAhJquau/1VoREAEREAEREIEEIiChlkCdpaqKgAiIgAiIgAjkLgISarmrv9VaERABERABERCBBCIgoZZAnaWqioAIiIAIiIAI5C4CEmq5q7/VWhEQAREQAREQgQQiIKGWQJ2lqoqACIiACIiACOQuAhJquau/1VoREAEREAEREIEEIiChlkCdpaqKgAiIgAiIgAjkLgISarmrv9VaERABERABERCBBCIgoZZAnaWqioAIiIAIiIAI5C4C2pQ9yfp7519/WY9uj9vOnTsjLcuTJ48dcfgR1vjcxlbvpBMj55P54OuvvrHPxnxmZzQ4wxqdfVaONvWXn1fbSy8OsNKlS9ttt7fJ0bKUuQiIgAiIQO4iIKGWZP39185d9vmYsVFbNXLECOv00P124cUXRr2eTCeXLF5s//vkUytRokSOC7VNm35zzCtVqSyhlkwPkdoiAiIgAgcBAQkiJmObAABAAElEQVS1g6ATcqoKLwx4yQodXtC2bN5qz/d73mZMn27vvPVORKht2bLF5s6aa9u3/2G16hxtxYoXT1WV8Z9PsDrH1LFSpUq687t27bIli360Qw/NaxUrHWWzZ8224JTVql0zOPf3o/Tbpk02e/Zc27hho1WqUslq1jw6ku+yH5e6Y+6fM2uO5c2b12oG9+P180Y55P3bb7/bcccdG7ShkL9kf/75p82fO9/WrPnVqlWrYhWOqhi5lt7BT8tX2KKFi6xKUJejKleKJMssr59XrrIli5dakSML29FBG/Llyxe5F3ZzZs62wwoWtHyH/n3eJ0iP7fZt22zFT6uscNHCVqRwEZs6daqdXv80d9umjRtt6vfTrTL1DPiEmfh89SkCIiACIpC7CPz9ds1d7c4VrS1XvqwVLlLYtbXx2Y2cUPMh0VkzZ9mD9z1gvwXeIG9333uPNW3WxDb/vtk63NEhEGWL3aUzGzW0rj262l9BWPWWG2+2wwoUcJ6qlStWuOtVqlW1Ps8+bUWKFrUp33xnDz/4iCFIvJ1ev7517tYluC+/3XjdjZF7fP4pZcrY0DeHOiE0fdp06/roY7Z+3Xp/u7Vrf4e1urKlbVi3wTp17GQL5s+PXLsg8A527NQxlVCMXAwOJowbb2+9/kbk1K3t2tjV116daV6DXn7FXhs8NHIfB/fef59d3ORiJ/ru+/e9kTqWK18+VbqM2M6dO8/uvvNfVq1Gdftp+U+O02cTP7duXbqn8oSWKl3Khrw+xAoEQlAmAiIgAiKQewloMkES9/2w94fZW2+8bQP7D7LXhr7qWnre+ecZ49geD8axIdLOv+hCu+mWm9y1Pr1626rAizRi+Agn0h7r2S3wiFW2ieO/sJnTZ0RIIcIKFipol17WxJ1DcL3y8hAnOrp26eo+EWc33HyjE4pfffmlvfv2u5H7Odiwfr1dec3V7vrqn3+2yRO/dNcHvjTQCSDEGcIIUThowMDAK7glGAfW34m0OnXrWts7bzfEzOhRnwYhzv+lyjv8BTHZsnUrQ2xiQ1/ZLb4yygtvmBdpd9zV3q5o1cLd+87b77jPvr37ujpSPnmvXbvWnedHZmx9wkULFjpOJ9Q70b6fMtWJNMTbk0/3sgZnNrA1v6zZi5m/V58iIAIiIAK5h4A8aknc14MHvpKqdRWDMGGrK1vZypU/m/eGnXDC8Zb3kCCUGVxbvmy5TRg/wYUsuXHyxMnWrHkzO+X0U61YsSNT5fVEryesRMkSQdiztvV+spdNmzbVZv4w04k/vHg9nurhQndFAy/bs3362vhx4+y6G66N5NHn2T6RMOTbb7xps2bOdGPJtm7b6tIM/+BDNxHgnvs6BuHPYyxf/vz2zVdfuWuIm6JFiwRl13KChjrj6YpmJ518st3e4XZDfDUJBCcik5BnRnmdc97Z1jvwEP66Zq1tC9Kv/Gmly5rQJPfPnLFbtD7Tr6+VLVc2qFs+e/O13V67zNhSZ29D3hjquH85cXe7EG8jgnbXDoQoIrdkIARlIiACIiACuZuAhFoS93/nbo9ZocDzteKnFfbKwEFOiA37YJjVrPW3WOj1xFOpCGzauMmaX9HcpgZenk8/HuX+FStezLwo8YmLl9g9nq1KlcruFCKGcWNY5SpVI+OrqgTjyLBfVq92n/5H2fLl3GGhQgV2nwrGumFt2t1mT3Tv6YTke+/s9sLhQevTr08k1PjGq6/tTrzn5/r1G1J9D3+pfnQN97VQob/Huf0VCDUfWo2eV157ZcArEUEWDm3i6fKGSMNODYSsF2q//rqbAeejseU8hvcMcYydVv8Ua3TO2Tb+s89t0sRJ7t+rQ4Zapwc6uZm6LpF+iIAIiIAI5EoCEmpJ3O0sxYF365TTTrFFixbZf0eMtB+XLLVGjf5ermL4xyNcGgbcbwomAZQtm+JEWpNmTQ1BM+z9D5zAGz5suLW9o22E1tTvplq9U+rZnNlz3LlSpVOszB7hMn/ePOe1YoKBv16+QtpB/3kiefmDbVu32s+rfrZb2tzqQq7fffOtvfn6m8HEgln2bbDcBqFGhBLhwVNOPdmNM1u5apUVKVLEZ7HXZ7QB+Xny5M0wr/HjxzuRRtj32ef62sJgIsI9Hf7t8i65Z2IFX5gYweSEhQsWuWv8KJNSOnIcje2ywGuJHZb/sEi6HwJPZL2T6gXjA5vaurXrbHQwW5W2vxqEq1lSRSYCIiACIpB7CUio5ZK+Z5kKbOuWrZZStowxAYCxZV0eecyqVa9qHw3/yIX1Xh4yMBAps+zDwPPW4e67rHjxEk6o8Rm2XkG4s3bdOjZu7Gfu9FmB+Dvm2LqG94mw6j//cXMwm7O2jfl0tLt+0aXRQ5PhPBk4/8F779vSJT8GocxLrEaNGoEIK2xrgnBjpapVgrFbZ7p69e39TBAmbWxjRo92wo16VqiYekB/ON9oxxnllZJSxt2y448dNnHCJPsgEKsYIVPqeOJJJwVidoq1v7291QtCq3jCvGXG1qcLfzI7lvGBsEMgp5RJcZeLF0s9Czd8j45FQAREQARyBwFNJsgd/RyMJ9u9xMbU76cEguMv69y1swu/ITjeCwb6M/bqX8Gsz6qBgGt9dWsj3MjYsunTprnjFnsG1HtcpVNSIiKtYTBQn+t40Lr26OYEB+PdvEhrdVVra7JnDBmTA6JZnry7PWxt72gXCJUyNmrkx658PGgtg3F15YNQaZt2t9pZjRs7Ifjma687kcaEhibBTNW9bW+PXThNRnkRijz2+ONdOYQvy5ev4G5l8gXturfTPS5syXdEGoP/veHBy4jtIYE3L601PKuBC30icPs//6LzfOI9bNe+Xdqk+i4CIiACIpDLCORZvXr1rrYjS1r/q/Z+geQyFrmuuaxXtjpYVX/z5s1u3a7wOmHAmB2sE1YymDBQeo+HB4/SBY3PdzMxR40ZFYw7W2P5D8tvRx5ZNBU7n+/GDZusUuWK+7TExOKFS2zHjh3BYP0Ut+xHuIANgQdq9arVzot2+BGHhy9l+TijvGBTsGCBvcqnENq4fOmyYI21I/dqv7+eEdtoFUX4LQ3yZKIE49/Ca9NFS69zIiACIiACyU9AQi35+zjbWphWqGVbxspIBERABERABEQgKgGNUYuKRSfTI0BINL3wZXr36LwIiIAIiIAIiMC+EZBQ2zduufIuQnH9XuqXK9uuRouACIiACIjAgSCggWkHgrrKFAEREAEREAEREIEYCEioxQBJSURABERABERABETgQBCQUDsQ1FWmCIiACIiACIiACMRAQEItBkhKIgIiIAIiIAIiIAIHgoCE2oGgrjJFQAREQAREQAREIAYCmvUZA6RES7Jlyxbr26u7TRz/uW1Yvy7Rqq/6ioAIiIAIiIAI7CEgoZZkjwIirc31rWzJ4oVJ1jI1RwREQAREQARyHwGFPpOsz/GkSaQlWaeqOSIgAiIgArmWgIRaknU94U6ZCIiACIiACIhAchCQUEuOfoy0QmPSIih0IAIiIAIiIAIJT0BCLeG7UA0QAREQAREQARFIVgISasnas2qXCIiACIiACIhAwhOQUEv4LlQDREAEREAEREAEkpWAhFqy9qzaJQIiIAIiIAIikPAEJNQSvgvVABEQAREQAREQgWQlIKGWrD2rdomACIiACIiACCQ8AQm1hO9CNUAEREAEREAERCBZCUioJWvPql0iIAIiIAIiIAIJT0BCLeG7UA0QAREQAREQARFIVgLalD1ZezZB2lWgQAHbtm1bjtV2X/M/4ogj7JlnnrHChQvbn3/+af/85z9ztJ7RAKRX98aNG1ubNm1sx44ddsMNN0S7NdvOnXTSSdaoUSMrXbq0vfnmmzZ9+nSXd0pKil1wwQVWo0YNGzFihH333XfZVqYyEgEREAER+JuAhNrfLHQUZwLXXHONde7c2f71r3/ZqFGjsr30QYMGWYMGDezEE0+0LVu2ZCn/UqVK2Zlnnml58uRx9xUpUiSuQg1h9MUXXzgu8AnbOeecYwionDRE4pAhQ+yEE05wxWzYsMG++uorJ9Rq1qxpw4cPj7C58sorbeTIkXbPPffkZJWUtwiIgAjkSgIKfebKbo+90YUKFbIzzjjDiRZe3oiXvHn/fmxKlixpZ511ltWqVSvV+Xz58tlRRx3lPFJly5a1+vXr71VoxYoV3bny5cvvdc2f4NrZZ59tlStX9qfcJ54u8qec2rVru/JTJQi+IHawokWLus+s/FiyZInL88cff0z3NjggWvBwlShRIlU62kb51JPrhx12WKrrfCHNeeedZ3inuJ/2HHro7r+dEIpYmTJl3Gf4x6OPPmrr1693p4oVK+byh0N22hNPPOFE2qxZsxz/0047zT788ENXBGWPHj3abr31VmvatKk7d9FFF2Vn8cpLBERABERgDwF51PQopEuAFzFeEu9V8gk5P3HiRHvrrbfs+OOP96edx+mOO+5w18aNG2eIOMJzXkQQ4kTo/fbbb/b000/b+eef7+5t37693Xzzze7+Sy65xH0icD744AMnXnwBK1eutGbNmtn27dsjobY//vjD8ufP75LMnTvXXUfsfPTRR1alShV3HoHx119/2ezZs+2WW27x2e3XJ+0ePHiwIWS9ff7559a2bVvr06eP0Q5s586dTsDy2a5dO4ML9vrrr9vJJ5/sjsM/xo4da5MmTXJeRs4fe+yxNnnyZFf/u+++O9Jufw/XEIzk7/vFX8Nj2alTJ1u4cKG1aNHCn870kzZdfPHFtmvXLlffc88919WXMrBffvnFOnTo4MRny5Yt3Tn6VCYCIiACIpD9BP52jWR/3soxwQl07NjRiTQEyHPPPRcJ/REGZGwUYgXxRYgMEYTH7aWXXnLi5fHHH3etR6R99tlntmrVKnf9wgsvdOfxcnnP3CGHHGIFCxZ0171H6aGHHnIibcyYMYb4mzp1qpUrV8769+/vhNqnn34ayf+9994zBBtePeqGMcbMG/Ui/7Co8tf29bNv374uv2effdbgtHbtWud5QghSR+qDLV++3Akt2nrttde6c7fddpsTaYhYxN6KFSvcecbCPf/8867u1BnzbDwfdzL0Y9myZY4v+ZNv2AhJks8xxxxjeN5itbp167qkCHTYP/zwwy7kmdZr+OKLLxrePez+++93n/ohAiIgAiKQvQQk1LKXZ9LltmDBAuclQpDgJZo2bZp98803dvvtt7u28hLv2bOnXX755U60IbQIkzFmCUPI4UnipY4RRsUYnD906FB3zKB9xpFx7ffff3fn8JxhjMXq3r17xDtGmBP7+OOP3SeD2xF13377rft+6qmnusH/DRs2dJ4kThKWI388TN4QgDNmzNjrn6+fTxftk3FbhHPxOF1//fWu/MMPP9wlxUs4Z84c27Rpk/t+4403Ou8TXxCSGGPMMDyGCNqrrrrKfWcc3cyZM53Y9efgTd3xvuHFTGvk70VS1apVU11+4IEHbMqUKUbf+VBpqgTpfPHhVjxojzzyiGsPXsu03sinnnrKtQEOCHkvvNPJVqdFQAREQAT2gYBCn/sALTfdEh5bheeHUBqhL29eoPCSxvuDeZHC8datW/mwjRs3us9wGNWH0sLeHjxweJq8EQr0+VHG/Pnz/SX3+euvv7pPL/B8HcKJjjzySOfR80KCctetW5fK6+bT+3z894w+CacOGzYskgQxwwzIsP38888uLMk5Xz4D8zHGt2F4vNKaZxP2DKZlwz14Kn2+afOADUIWb2dWDA8qRn+/8847rr/xlKYVsQhSxCBjCOlD2sM5mQiIgAiIQPYRkFDLPpZJmRMD3Jnhh0BiBiXhL7w4DCZnfBIeF5ZvqFOnjhuLxjgyvDje+8JYMyYb3HTTTY4PkwoYZI/Y8yLruuuucwPXyYNQHeOyCHXiTWvcuLGb+cgyEPXq1bM1a9bY+++/H8mPNHi48OJhhGR9WNQLIkKRlHX00Uc78cGyEq1bt3bp0/vBGCy8WIRbsX79+jmv1IMPPui8Xni/CKXiwfN1xdtH/RGviEOMcCQhTYxziB28T7SLeiOkfJjTJdrzg1AqVr16dXv11VetWrVqjj0cEWZwxfBM+nAx+cP3yy+/dNdeeOEFJwIZ/0c9vVh2FzP4gVilfypUqGD33nuvm/BA8jfeeMPd1aVLFzcW8Ouvv3YhXkQaoV68rzIREAEREIHsJZA3e7NTbslEgJe0H/t12WWXufFfDIYnzIhAY+wZIoFQHuEywms+JOqFENcJmSK+MF7qCCaMsWUIEoQKoggBgkcKYcM6YYT9mJBAePH00093Y9N69+7tyjzuuONcHuTHzEMvjAgT+skLhFTxziEMEYF49xBtsVirVq2c+PMTFRiPh7higgL1IzSJmMEbRv0QaXjPXn75Zbe+mBdPV1xxhTFWDOMcszx/+OEHJyiZ/LB58+a9JgiQlrxZDgMPJCKLduIZgwkD/X3+cKauGOf8BA2+e8HGQH/KyYox9oyQJoK7UqVKLtz97rvvuiwIzzJmDk8aYw7Jn2VWvCDNSjlKKwIiIAIikDGBPKtXr97VdmRJ63+VNFvGqBLjaoMTd4fTsrO2LB+BBc/KXtkiDhAvXPMhyr0SZXICEUKoL5rHB9FF/iyXEQ6JZpJlqsuMJyPUyWzR7DY8W/BZvHhxJMQZSxmIUsQt3ivGzjGjkzwQYWFDxDLxIhr7cLr0jvH6ZXUNOZ8XfUs4E29qNPaIU8RvRkuY+Lz0KQIiIAIisG8EJNT2jdtBe1dOCLWDtrEJXLGBAwe6pUrCTWBpDz8+LHxexyIgAiIgArmXgMao5d6+V8sPIAEWlGXHAZYTYdwdYUUfqjyA1VLRIiACIiACBxkBCbWDrENUndxBgIH3rFEmEwEREAEREIGMCGhgWkZ0dE0EREAEREAEREAEDiABCbUDCF9Fi0CyE0hvjbd4tTse5TNjmRnB0Swe5UcrV+dEQASSh4CEWvL0ZUK2JNoaYtnZkP3Jn1mPfqmP7KxTMuTVJVhL7e2333b/WA8umjGblQVwTznllGiX9+tcLH0zYMAAY1P5nDSE2CuvvGKMOUxrrH/HUiwyERABEdgfAhJq+0NP9+4XAV7kLPiadkmK/co0dPOgQYNc/vu6xyfrmLFunGxvAmzxhUDjH2vXRbOKFSu60ywvkt0WS9+wWDFCKie9WixAzFp74R0qfFtZFgZBKRMBERCB/SGg/0X2h14uuBeRw8uYl913333nFqadPHlyZM0wFqRlMVkWaGW9Lb/1EZ4oXlQsgss2SJUrV95rVqN/kZcvXz5dklxjgVzWUQuv18X6Zay/xhZKrN7P4qwsIBs2FrrFEAr7spYYOwyk51FDBPASZvcD1o/z31mvjf1N+c41FoZlsV88KzAKG9tzsWAuL3oE677UMZxf2mP40jesHzdhwoRI39Cn9Btrs7FGHeu50bd++6zMrlMO4oxFj9lVIprRNsQL+8KmN5uVstlxgokVLJbL4r5sMo/BjbrD8fvvv49sXO/LyqhvSMNsWnaRCG+B5u/lk2eS/HleWcCXPvMGN5ixRhw7X1D/9NbgYx9b8ujbt6+/3bGFYceOHd1iznh1w/mTkGcThjzX7ABBGX67Na7vz+8V98tEQASSh4CEWvL0Zba35NZbb7V77rnHvUDDmXOeDcLfeustY8V+b7yMmMnINTxRvGxYKNWLHa6feeaZbiX7p59+OrKKfvv27Y1tjrjOLgZ8IsTYtJwtrLyxPRWeHF6aCAuMnRP87gEINa4joD766CMnQkjz4YcfGvtysrK/39qK8+kZL3C2X0Kc8pJFmGKEsjjPjg0+HwQGITZe2Bir9C9dutQJMK6FPSpsJM/Cttg//vEPt0+m9/YgNHv16mWsr+aNTdxfe+01J2LYGSKt0PPp0n4iQnjxey5chynCAFHB1k9cC/cN5XcJwpn0aWbX05YX7fv48eOdkObam2++6fL26diGjOVI0gp0RHfjYKwX+8nyPISNXSZgn1nfcA/tZ/cMb4jJ8HfyxxPm952l7f/3f//ntvbq06ePewa5F1b0D5/0L8902Jo3b+6eU54v+GJsl8bzELbXX3/dunbt6k7xPLBWnv8jwqdjJwhCyZS3P79XPj99ioAIJA+BvMnTFLUkuwngEeBlxouF/Sn9ywhvBXtqItI4N2TIECeCEDVs3o034fHHH3fVQaSx1RQvYa6z5RCGl8uLFDZSx4PCdS9sHnroISfSxowZ48Qf+2niXWELKISa38+T/NmKym91Rd0wXtbeyJf8qVcsRr3CaX3d/DlepF40IUgQHYgyXvi0m22uOKYt7DZA/fiOCL300kvdy53NzKkz7ezRo4cTkvfdd59VrVo1UkWfFs8h2zXFagiwGTNmuO2sEHh4jGDAVl8YY6ow2MEXbxv93CUQapSV2XV3cyY/nnrqqXTHhw0ePNiJNDyRzz//vE2aNMnlRh0xhC7n2G+VfWUxwuRYZn1DGjyDiCW8uZgXZBwj/L0IHDlypGs/1ymLbcp4vugXbPny5U6kU+a1117rzoV/8EcM/dqzZ8/IaZ5ThCn70foN6v1zTqImTZo4kUbb6Q8EKJ7XFStWuDz29/cqUhEdiIAIJA0BedSSpitzpiGEpVgxH+PlgyeMcNZ///tfd+7hhx923iu++A3G2SCdlyCCBSGHN4K9MR977DG3KTnChc3EveeElxV7ZIYNzxhG6Il//mXLtkUY3ilEH2Uidgizsmk8+2IiPho2bOjqQGjtoosuckLR3bjnB2n81ljh82yijgeNAfC8aHlppx2DxQsczxieEvbBxHOIKGPcFIwwhBtCqEWLFi6kSXgRbyJ1Jj9e3ghUxDDmX+bnnnuuE3ecQzQQ1kV44bXJiiFSKBvO3jwbvI20k43q/VpueCjxYiJWMrs+atQon2W6n3hDEV5169bdKw19guFV9GIGL6UPL7KVGB4nnjXPBcYYojOjvnGJgh//+c9/XNlnnHGGP+U+eVawsWPHOm8xxwhv+oR9WRHLiCjKQyTiIYUN3s2w0ZfUES9beOsz0iN4MfaA5fcjbPzRgrjjDwqO+f1gwoPf0N7vlbuvv1fhsnQsAiKQHAQk1JKjH3OsFeExPvzVj7jy3iQKZawQ5oUHx7zovPlxN/5l5gUX1wkpYXhxvCFuECbeeKH6/CiDcXBhQ2xgfnwV4ietsWE7Hj3/0qdcxpKFvW7+Hp8P30nnPXx8D9eNlzccEFKEyzA2Jk9rlM3YM8J9GOV6o13Dhw/3X13+4UHpvMTZhB2xGGYSuSGdgyeffNJt/o6gRLAQjvOezPAtvv1w8d6stWvXRpJkdj2SMIsHCBWeA4Sht379+rnvPAvw5DreWfobL2W4H7gno77xeWb0iZfUm2+7f878+Z9//jnyjPpnx19jfB7mQ5r+fGafiNFnn33WjVtkfGKpUqXcHyJ45cKien9+rzKrg66LgAgkFgEJtcTqr7jXllARYoIXJh4rBAeehtGjR1vLli3dgPJGjRq5sUMIGcaRTZkyJTKGi5cxQoExQVj9+vWdJwKR40UWY4iYsMD4I16aDL4nhIQnrXHjxoYHBy9MvXr13HZLeK18fqThXrx4GKEjHxYlpIThmaIsJiUgNi+44AJr3bq1u5bRDwQS4U5CmwguBpnjffEeEwaQE7ZkrBWeofBkB58vnPBu4X1BoAwdOtSJDrwtxYsXt8rBJAu2kMLzQ/54WTwXvF6M38PII1avmhchiAK8hjDCaDdjsbzBGsGJCKHvNm/e7AbuM8gfS+/6eeed57xF3jMGc/qJMWR4FVlXDE8d3kYMjyYhXcZg4Yn1fUt4EiHOYHr6nL658sornUiDFeMKCQ9SN4QbzxveWCyjviFMiTBFCGGM/0KA4tElLEldeZYZc8gfInhpEX54dukH+hqDP55RjHNcw9vKc0q/4c31IUuXKIYf9MFdd93lPINsIcaMZ54F+h7Ljt+rGKqhJCIgAglEIG8C1VVVjTMBwlG8EAn7MNaJcA2hHgZm41FAVODp4GVKaA8x4UM3XghxnbFZvIgxPCYIJoyXLi9QBAEvdwTDiBEj3MuxTZs2zptECIoXGSE5hAfhVPI87rjjXB7k17Rp08jLlRAWL3aMFy+eKEQSL1e8e4i2WA2PDoKBsniRIqgQG94I78EH67In3OWv8cm9eMXwmiAa77zzThfWRPTClrrBDnFC6BbvGSLXGyFm8kBEpJ3R6tNE+4QRXjy8fYy9ohzyoYzwAH7qhlBB2DEujNCfFybkm951xlnRH95LSL58R7BjCCFEjS+LPkJIM+YO831Lv3OOsY48OzDkefBCm2cJIQN3zD9THGfUN4TZKc97pRCU1A9Bz/OLl5F2EgqmbPgQasSbipDy3jt40DcY5xCoGOMLsWgeVHdhz4+wN9qfpx8wROQbb7zhnm08eT4Enh2/V74sfYqACCQHgTzBFP1dbUeWtP5XSbMlQ5c2OLFmtjfDj+ViOYe0xgsMDwzX0oaO0qZN7zsvcsSID4+G0yG6yJ9lDHih7oshJAg5+jFQWckD8cj9hE6pY9gQb4x1w6uC4AobY6kQcQjQtPeF08GWcC2eyGhG+3m5hwVUtHTRzlE/BCLjpsKGUGYcGrM7GSeW1jK7njb9vn6nbXim8ESm7VtEHNwRkOnxy6hvYqkTfOBK32bFGMdG3fwM3rT3ImD5o2Dw4MFOCOKZQyBi1Jk2Iz7xVv/0009Rn/vs+L1yBeqHCIhAwhOQUEv4LkzdgJwQaqlL0Dc8i3i7wuPtCOPhqcGLgmeMF7I3ZkCGl93w5w/EJ94uvFFhI0yIWMIyu+4S6Ue6BPC2MTTAG17J8BI2/rw+RUAERCBWAhqjFisppROBPQQIkbFkiR9sj8eH7xheO8bU+bAgnqL0Fnzdk11cPxhLxzp3PrxHW8KTQzK7HtfKJmBhhNYJteMRJIQbywzZBGymqiwCIhBHAvKoxRF2PIqSRy0elFWGCIiACIiACMSHwN/xmfiUp1JEQAREQAREQAREQARiJCChFiMoJRMBERABERABERCBeBPQGLV4E0/A8ti+iP09mZ3IKupZWeSTsToMqM6NxrImLPHA7E+WIvED9hkfxnIn4QkH8GFmoF9D7WDnxTgstnViLbh33nnHrQsWrjMzOlu1auWWoWCtNpYyCVtm97N8BYxYS43Zk9FmHIfzS3vMsi4s50E5n3zyiVvfLZyG81dffbUbU8iSKywPklVj1iYTB1imhnF/3hi7yO8MOygw6YTy92XWLjOJmTXMs8NWZGHjGrtYMBua+qed2RtOq2MREIHEJqAxaondf3vVPifGqLFqOtsRYSzBwQsoFuNFzlpTLOwZz0HViENET3hTcl9flk1gsdOcNniF94BkiQ224qJebD8UbRYoAphtqWI11gFjlfvwbgwsKNulS5dYs9indNHq/8UXX0QWOUaksWwJa+t5Y4sk1l/DMrufNc1YOy9sLFbLumOxGOvHsTgw9fA2aNAgY8cGjOU1wrsAcC58ne+xGIvTsqgvIo912rz5rdT8dyZrsKVZVgyxx/IpiPr//e9/bg0+f39443jOsWYeM3fDk0J82mifrE/HH14s5oyA5A8J1vZDULJQMRNiELksO4NgZns36sHCz4jvtH9gUAbr/5GnTAREIPsJKPSZ/UyTLkcWjq1Zs2bU9axYi4qXBMs6pP0PnGuYX/g0Ghg2Z+fFzQvBz0SMli4r5/B0sDYbAoblMlj4lJc2wg1PC7slsA6Wrx/15h68LGHjPO2mbX4WZ/h6esfc58USe576Tc979eoVuYVdALp37+7++dXt/UKvkUSZHOBtwliwliVDEKj+O+3hHAYLvnvhwiffPQd2i8iK4eXBnnjiCbd6P8f0od+0nnXDEGkICJYmQQiw6KwX+5ndz3VmyyKmEFAY+8XGaggy2ogHE5GBSGYjdt+/HHOOBWx9ndIKw8zKat68eWTnhbRpEansKYo4o58pN+1eoWnvSfsdbmEB7q+zxh0LSFN/dplgmyu4d+vWzSfJ8JPlQ9gZgXu4l77hGM8oog2ByO8ICzJjpOf54TzrGfLMMMuZe/i98sdp98PNsBK6KAIikCUCCn1mCVfuSozngZca64Xxn3hYiPEfN8tOhL1WhDj5D5v/vNlQ+/zzz3fA2AaJfLjOS8aHQtnf0achIedJF16dH+8BL1S2/gl7qDLqCeqG4W1i6yK2HmLtMLYB4oXMX/6ICYxdDfBkUW/EAYIRY+2rwYMHuxeSOxH8YAkOv0G9Pxftk50M4EJ77rnnHpeEZS8QTghEwmRsh+WNVelZmDarYU844cnxHs8XX3zRnnvuObe1EaKNMvGQEJrDYEC/4NXjZUx7vXijroitWEJolIHHCiGE8Wwgsn1eMMXg/8orrzihQogQbwzbf2V2v/d2sUsBCxXzTPhtsVzGmfxgFwqMvsbLhNDGy0YoFeGGVxWhgXhEhGDhPV75jrB67bXXXNu4L+ytop14+ODL9ldpzfc55XomXoz7tHib2Td34cKFEbHor/HHAWFNymd7tbD53Rnoe35/+CMAT1fYoxdOHz6mLmz3hfHMsegxwottv/idZUstdrLgOSV0y++7f07ZN5bFeTF2k+D3kT/A6FOeu7D31CXSDxEQgWwjkDfbclJGSUfAvzDZm5GXcdh4yc+YMcO9+HiRsRI/4oCxMxieMi/s8AzwouW695rxEkOksfI8LwdeElz3HhRfFlv6IHoY6xWr8UJBeMyePTvVLYyVwsuDWPBjkqgj4oUXVXgBW/bx5GWO2OClhmjg5XXLLbekyjPaF0QBxsvNmxdh1apV86fcJ/ug0u5JkyalOr8/X/x+nnBn1X0W4MV8f7DJOcaLGxFHGuqAZzQWo++9SMOrRp+Sh99ZwnsfCd1h/tPvcJHZ/bDmH/kiRjDCf7EYfUY7eV69uPLPAaIdwzuHR4q9SRG59D2CNmyIEUQMQo5+DxvbPMHL78MavuaPEWIIY57daGPI2JqKPPjDwItFfy9CFsHMM5jW/P6phFcxfu8w8srMELA847SdEDlGOYzV43cQgzn9Q34MW/As+U5ZeAgRz2Hj/wf/PITP61gERCB7CEioZQ/HpM2FcTjsnej3PAw3FLFD6IhN2+vWresuMW4KQ+SxATlG6BSPFfs/es+F3y+RfTDxTvjxS7wQypUr5+7jByEkhMb9998fOZfZAS9oPGJpF5plDA71QByGB2cz4JsQkDf2hMTzxQsNrwx18PtGhj2APn3aT0Qihmjw5j2PeHPC5sf1pB1sH06T9hjWvGi9tyYsMEmLp8QbIsQvxuvPEY7FqCeiBY8IRv9kxbp06WKXX365Y+c9PdzvRb3f3Nx/hhmTLr37uUbbaAdeG/qLPojFEBkYItULUwQX5tnzLMGM54RnmHS+H1zC4AcL1yJiCUfjPfRGn9JW/+zzvOLBZUKFL4+03If3Dsb87nhPrc+H5x+vGH8I+D8auIb3mJA8kwR8uJdQsPcm+23Q+EMI888Yz2pm5tMSMue5QGTPmzfPeeTYY5c/SBBq1AcBx+89nkD6jf6AAx42z9iXB89mzZr5r/oUARHIZgISatkMNNmy8y9d/+nbxzggXioILwZ/I+jSGi8DLOwx8OLCp2UQ87Bhw9w/vGl4IRg7443QEJ47XtbZab49hAAZxxZtA21eaL5uDGQnFOVfmL4ueMQIdTFmyZv34OBB4uVN3l6s0F5vsOAlDKfJkyf705l+EhbDa+cHqHsvnR+z5tvmQ8CMLYpmXrh4T1hawRftHn+OMVR4YnihE84m3MtLHvP7lvr6+ckby5Yt87e7sWvp3Q8vJp/gAWOWMeG/WEUkIoJ/tKV27dquPP9HBKFKmHCeNNSPcC8ip3Hj1GMsEVj8gYC3KCxMEH3kzTONkKIP+Uee/nmnUDyCjEn0s0HZXD5seFjxivlnxV/jDwQMnoR8McoiHIr558dvS+VDnv4PIJconR/8HmH0E4ILIfrDDz+4c7SRkDjPK8d+vCRhVZ4r37cusX6IgAjElYCEWlxxJ15hvIQRT2+99ZarPC86Xmp+zBB/4SNITjrpJHedUKX3YPhwHy9aZjPy0uPFwH/6eCAwwjGIGDwnhDfbtGnjzvsfjIXBq4VIyorhlUD4IWowvBqMl/KeCC+MevTo4Tw3vHypF3UgxEOIlO94CHkR80K89tprnTclXA/CptQ5PBMWbx3eGu6nHB/WZOYjwsYb3ihejHPnzk31kvfXM/tENBK+46WOeTGLSEBo8NJndimhaYy+xKviw7f0E0LzpptucteZVOAH3LsT6fxAmHsPCqIazxHhOi8ann/+eXcnQgMvjPeW+lBeZvfj3fETPRCdeNaizZJNp3oRkUHIkZApbUJ84PmlXxFm9CkhTLy59D1CJyy0GMP473//23lyPT/KY5kQRBNhYtpMvrAmL4w/XhBElE2IuVGjRu582MvJCfoNPngz/TPJeYYAkD99MjgYI4kRQvd/IPAMU3/G1+FV9WFuysvMaCPj0TB+H+mXH/eMM6QfEfw8s/DCw8vvAuIWbzK/9xdddJELA1NH/5wwhtTPps2sfF0XARHYNwISavvGLVfcRYiMl5gXZoRAEBb8h927d2/30sOzw/gWXli8QBAHfpYn6z8hGggP4TniXl7CvHx58SLCeGHyQuDFRzo8V+EXpvcgIGayYrzs8OR4bx4vFrwy3rvEi4gQD4OgEQU+LEcol/oR9kFsEbJCKOIx8aLE14M8ETvUF8EXNgZtIwoonzSU5cf8+XR4lDAfivTnM/scP368403ejAmkjxCH3gvC/V5Y4zHyHjNCyvSND1PyUka8HXvssa5I8mNWYWbmBRnpEAyVK1d2tzAhAmPWI+MAMe/VQpj48VQZ3c8zEh6gj+cIIR9+JlzGGfxACOKJ5dlidiv9ySQQnlHyefDBB90yM/wBwUQT+saP0fLZEg7neSZ9tGcPkcW4NsrguUXwYf55JXzOc40hotLm4cPyCHfGfaU1JrjcGEzAwHg+mdiDkZ4ZmdSN3z14EUJFMMVicKBt3MfvnBehjN/0zwVtQrTjzSQNaXnGSMvvvv/jhfLoX8bzyURABHKOgNZRyzm2ByTn7F5HjZcQYoawVbSXJS8RXtBhT1HahiMAuNcLhvB1XgIMkEbQsUZbNMMLhOjJCUO8IMCitY3yEFl4DBFCadN4rwuCs0swXiuaIXzwuITDfj4dnhRm2DEOKG3ePk1Gn4hOllVAlERji9cTdrA9EIYXBsHMCx8G8TaENP8IL0bjy7OLRxhBHs0QLAgihF5WjeeKsv1Ejmj3789zjcjmjwi8qAjNrBq/13izuZfJN4hYmQiIwMFJQELt4OyXfa5Vdgu1fa5ILriR0FfjIAxM2PdACJFcgFhNFAEREIFcT2D36N9cj0EARCDrBAh94XGTSMs6O90hAiIgAiIQGwGNUYuNk1KJQFQCGYV8o96gkyIgAiIgAiKQBQISalmApaQiIAIiIAIiIAIiEE8CEmrxpK2yREAEREAEREAERCALBCTUsgBLSUUgqwS+/fbbVMtmZPV+pRcBERABEcjdBDSZIHf3v1qfwwRYokKTDXIYsrIXAREQgSQmIKGWxJ2bHU1jrScWivVrNbHmGOt+eWMtMBZMZS01FvUMrznFOlKs18SG3WxDw0KZbOjMoqDky/ZNrFNFfqTjO+nC+bNAK2uRsfehX0Wdsll/zS+sy8rt5MdCqux84HdE8HXcl08W7mWtKvKmLBZhRXD5NbdYJ4vrtJv13/x32ue386H9LHK7Zs2aqFWgziyMSv4sOMqiwOxk4Nf8QuSx1hXfWSw2LPhYf42FYOkXJjTAiM3Q2QCdfS6pP9fIgwVp/QKrUSuikyIgAiIgAgctAQm1g7ZrDnzF2ArIb8Hka8PehX6F/X79+ll4k3KEBCu2s1I6e1/6rWXYFJxdAvzG5OyRyNY3CB2MLYhYyZ8FRjE24GaVfXYPYGV5b+whydZFCCPWMGNVfowFZ9lJgNXTEX5s5+RnY7JiO9v6kMZvw+PzS++T9vmV4Js2bWqsEs9m7iwKyiKjrAzvt2FCmA4YMCCygTblIrhYxZ29HjHqVKtWrVTFsQk4e4RS57BxfsKECdapUye3jZC/Th4wo90IPEKqGOKVvTERZhg7PyCsEb3U1zOlb9ilwHNxifVDBERABETgoCegMWoHfRcduAp6kYboQlTgXVq0aJGrEAu9ItJYGZ3td9j/D68Y+2tiX3zxhfMScXz22We7PRI5h0cKj9kzzzzDJect8nsy8p0dABB2iDVEGtsRsV4Z+4Titerfvz/J3P6j3rvFVkxsi4PXifr5zcZJx96jCES/nQ/nMjO2dPIeRLxd7OeJV8uLJrZn8mWznRMbVyPYEFPs74ixvyfpwh5GXy7bInXs2NHlR1sRX95bhqeMdiN4MeoCA8qGM15DdmlA3GKVA28ZXk2ELXXCM+frgEhj4208mvQN2wHJREAEREAEEouAPGqJ1V9xrS0hRDwzbKyN4GCrGYQF9sADD7jPUqVKRfY55ASCAEGF94t9O/EuEerEMxW2efPmWatWrdz2UYTw/B6TCBS2PPKbfrPqP/+8SPJ7R7I1D+IN8YFH6z//+U84+8gxgg8hR5pYjY23EYx+o3lEIHuBeg8ggpUNu9konu2vYMQ1wpZ+j0va0LlzZ7cPIuHHsPk9Fdmknb0XMe5DEFJWt27d3LmxY8c6gcwXRB9ePQQnG2vjrcOrh8BjY/W0njL2YuUa3ku8jexFiaeN/VdlIiACIiACiUNAQi1x+iruNSVsiNBCIODlwXtD+I1z3hBh33//vf/qwm2MYwub98KFz3GMuCI/BAr7LuINwvsTNsSK3wMU75bf9Dqcxm/2HT7nj9kHc8aMGc7z58/F8uk9YYgwQov8Y/ycN0KPeLDYGNtviI0wi8W8x488veFlJNzpPXWcZ69ObwhgzLPw5xkPl1ak+Wu+HL8PqBe7/ro+RUAEREAEDn4CCn0e/H10wGrYo0cPF7bEe4NnBvPeoXfeecd9Z7A7HjEG9uPtadOmjTvPeChCdRjHQ4cOjeThTgY/Ro8e7UQGIg3r0qWL++QH3jKMECshPMq55pprXBiU84wjq1+/PofOu0X+pE1rjE27/vrrnfcr7bWMvuMdw2Dw0UcfOY8eXrNwCJUxehhtRyyGN17nPup0+OGHu3s5fvbZZ53nzbND/A4fPtx5xyiP8CVtos4Y4/oIKZMeTyLhV0LGjEd76aWXXBo2ZSdvH0rmpB8/x/ZWeNtuuukml5a8meAgEwEREAERSBwCEmqJ01cHpKaIMMZQIQwIpfkJAgMHDnSCAhGFeCEEideHcCeCggH8eOAwBMNpp51mLVq0cN/DP3zIEqFDKNAbgo/wJh4thBZjs7Zv326E9DDCmYznwgg/kn94YoO7EPzwHjhmpGbFmMjAOLUyZco4bx+hTyzcBsam+bFsDz/8cKrsGddHnfACYhwzXg6e1IkJCeTJJAMmHtCWcePGuUkCfMIFrx4zZRnTxsQAysCDVqNGjYgoJX/y9vwpy4dWEZaXXHKJm5XL+WLFikVCzHyXiYAIiIAIHPwE8gTjcXa1HVnS+l8lzXbwd1fmNWxwYs3ME8WYgrAe47EQQoTROE5rCAWuMyYrbVgubdr0vqekpLhlOxAjaQ0hWKVKFbc8R7TradNH+84sSQbg74sx3o5QLuIzmiGGqH94SZFo6dI7x70Y4+KiGd5GBFvakHC0tDonAiIgAiKQfAQk1JKsT7NTqCUZGjVHBERABERABBKOgNxoCddlqrAIiIAIiIAIiEBuISChllt6Wu0UAREQAREQARFIOAISagnXZaqwCIiACIiACIhAbiEgoZZbelrtFAEREAEREAERSDgCEmoJ12WqsAiIgAiIgAiIQG4hIKGWW3pa7RQBERABERABEUg4AhJqCddlqrAIiIAIiIAIiEBuISChllt6Wu0UAREQAREQARFIOAISagnXZRlX+MhixTNOoKsiIAIiIAIiIAIJQ0BCLWG6KraKNmx0TmwJlUoEREAEREAEROCgJyChdtB3UdYqeNe9D1mVatWzdpNSi4AIiIAIiIAIHJQEJNQOym7Z90oVDDYg7z/0XWvSvIUpDLrvHHWnCIiACIiACBwMBA49GCqhOmQvgUKBWHugc8/szVS5iYAIiIAIiIAIxJ2APGpxR64CRUAEREAEREAERCA2AhJqsXFSKhEQAREQAREQARGIOwEJtbgjV4EiIAIiIAIiIAIiEBsBCbXYOCmVCIiACIiACIiACMSdgIRa3JGrQBEQAREQAREQARGIjYCEWmyclEoEREAEREAEREAE4k5AQi3uyFWgCIiACIiACIiACMRGQEItNk5KJQIiIAIiIAIiIAJxJyChFnfkKlAEREAEREAEREAEYiMgoRYbJ6USAREQAREQAREQgbgTkFCLO3IVKAIiIAIiIAIiIAKxEZBQi42TUomACIiACIiACIhA3Ank+Kbs48aOs/HjJ6Rq2KGHHmoVK1awlle2NDYQl4mACIiACIiACIiACOxNIMeF2vz5C2z8Z5/vXXJwZuz/xtjLQwZavnz5ol7XSREQAREQAREQARHIzQRyXKh5uOddeIFdf8N1tmvnTps9a4499fiTtnzZcvv2q2/sjIYNXLK1v/5q8+bMs4KHF7LatWtZgYIF/e22a9eu4L7Z9ttvv9txxx1rhYI02Pp164J/G61U6ZJBGvKebVWrVbfSKaUi93KwcP5CW7x4iRUpWsTq1KkVfBZ11//Y/oetWrXKChYoYEWPLGY/TJ/uvH1lypVNdf+mjRtt6vfTrXKVSnZUpaMsT548kesZ1ZtEPy1fYYsWLrI6x9SxUqVKRu7TgQiIgAiIgAiIgAhkRCBuQu2Iww+3ikdVdHWpEIQ9X3jueftt02+248+/3LkRH46wZ/7TJ1LXwkUK2+O9nrQ6dWvb9GnTreujjwWCbH3kerv2d1irIHT63jvv25uvvWHValS3RQsWRq53uPsua96iue3Y8ad179LVvhj/ReTaYYEo69z1UTv9jPq2ZPGP1u7W2wKhV8o2BfXZvm2bS3f2eefaI10edsfdunS3z8eMjdxP2iGvD3FCMqN6b/59s3W4o4MtWbQ4cu+ZjRpa1x5dI991IAIiIAIiIAIiIALpEYjbZIL58+bbW2+8Hfx7y7o91sOJNATTifWOtxUrVkZE2j9uusEuvORid/2xRzo7T9rAlwY6kYY4u/f++4z7Bg0YaFs2b4m0C5HW7PLmVuPoo925Z/v0tTVrfrVh73/gRBrCj7zrNzjDibHHuz+e6v41v6yxSpUrB3lc7u5HmOGt+37KVCfSEIJPPt3LGpzZwEj77tvvZlrvEcNHOJF2/kUX2mM9u1mlKpVtYiAYZ06fEam3DkRABERABERABEQgPQJx86jNnjUrCEvOSlWPdne2cyHI8eN2e7vwuJUNQo4pKSn26cejnCBijNvWbVvdfcM/+NDOCITWPfd1DMKfx1i+/Pkj+V3S9FK765673PcWl13hhN3c2XNswue7JzL846YbrUWrK5zwa35pMycEp0/9wYqXKO7uKVa8mL0w4HkX0pwzZ47NnzvX5s6eH8kfITgiKL923bp2w803WsnAq+a9dOnVe+OGje7+ryZPtrx581qz5s3slNNPtWLFjozkqwMREAEREAEREAERSI9A3IQanqzmVzS3bdu327jPxjkv1Qv9XrCmzZoaY7wwxqw92eOJVHXdtHGTtWl3mz3RvaetXLEiCHW+667XCQTTM889E0lbrlz5yHHVqtVsyrrvbEMglNas+cWdr1qtivtkbBnXp0+bZmt+/SUi1EqVTomMOytUaPfYuF27/grCo6dbo3POdhMiJk2cZPx7dchQ6/RAp0zrTXunBh65BfPnO+GJ+EQQPtOvrxU6SrNdIx2mAxEQAREQAREQgagE4ibU8JKdctoprhJ169ZxQo3xYGtW/+I8aFyoVaeOPd//OZdmXhAq/SsYv1aufDnnubqlza0udPjdN9/am6+/6bxz33z5tUvLj8mBgLrm+qtt519/2fz589z5lJTShoAjVDln1twgzHqiuz438JZhZcv+PWEAj1c0++GHmVbvpHpOUK5bu85Gf/KpUYdXh75qLVu1dLdEq3e1atVs0hdfWJNAiCISF8xb4MKwiNHhw4bbnXfdGa04nRMBERABERABERCBCIG4CbVIicGBDzdyblsg1k46uZ67PHf2bOv9VO/g3HYbO/p/boD/a2+/YR+8974tXfKjXdzkEqtRo4YVCcabrQnuq1S1is0KZnlihFW7du4WTChY4MKajEk77vhjbf369c579vJL/W3JkiW2MLiOQGRCwAn1TrDFC5e4+9P7QfiyT6/egWAs70RXSpkUl7R4seKZ1nvmjFn24QfDgnJOtLManWXFi5dwXkM+ZSIgAiIgAiIgAiKQGYEDItSoFCFAZnF++8131qJ1C+v+eHd7Mliy478jRro6c/2RxzoHa6wdam3vaOcmG4wa+bGN2tOille2svKBt83b0bVq2ZeTJjsRxmSDhzs/4mZlXnDRBbZs6TI3MxTxh6WUKWNde3bNdP22PHkOsYZn/R367P/8i+5+RF679u2sdCDaMqp366tbG5Mopn0/1f3jZkK2LVq1cPnohwiIgAiIgAiIgAhkRCDP6tWrd7UdWdL6XxU99JfRzdl97c8//7QVP62wQ4IwZPlgCY/wWmWUhfdrx44dwYSDlMg6aANeHOBEWJvb21rLQPCtDGaQEi5l94Owbdu61Zb+uNyKFi1sKWXL7JV3OG20Y5YSWRoIvqLBOmxMeAjnn1m9V/+8OhjPttZKlizhxF20/HVOBERABERABERABNISSK1m0l6N83fET6XKldIttWr13RMC0kvA/SxGG81YPLdm7d1Ld0S7ntk5QqnHHFs3arLM6k241IdMo2agkyIgAiIgAiIgAiIQhcCBd6NFqVRWTqUEEwIIJ5bWiv9Zwaa0IiACIiACIiACCUDgoAp9JgAvVVEEREAEREAEREAE4kYg4T1qcSOlgkRABERABERABEQgzgQk1OIMXMWJgAiIgAiIgAiIQKwEJNRiJaV0IiACIiACIiACIhBnAhJqcQau4kRABERABERABEQgVgISarGSUjoREAEREAEREAERiDMBCbU4A1dxIiACIiACIiACIhArAQm1WEkpnQiIgAiIgAiIgAjEmYCEWpyBqzgREAEREAEREAERiJWAhFqspJROBERABERABERABOJMQEItzsBVnAiIgAiIgAiIgAjESkBCLVZSSicCIiACIiACIiACcSYgoRZn4CpOBERABERABERABGIlIKEWKymlEwEREAEREAEREIE4E5BQizNwFScCIiACIiACIiACsRKQUIuVlNKJgAiIgAiIgAiIQJwJSKjFGbiKEwEREAEREAEREIFYCUioxUpK6URABERABERABEQgzgQk1OIMXMWJgAiIgAiIgAiIQKwEJNRiJaV0IiACIiACIiACIhBnAhJqcQau4kRABERABERABEQgVgKHxpowO9ItXrjEFiyYb5t/32xVq1ezo4+uYYUOL5QdWdvC+Qvt982bLSWltJUtVzZb8lQmIiACIiACIiACInAgCcRFqG3auNF6P9Xbvhj/xV5tvf+RB+2CC8/f63xWTzz5+JO2aMFCa3llK7u9/e1ZvT1p0m/f9ofBYteuXZE25cuXz6rXqG5XtLzcDj00Ll0eKfuLCRPtow9H2JmNzrLLmjWJnE/vYMeOP23b1i2WP38BO6xAfsvq/enlq/MiIAIiIAIikIgE4vLW7v5YD/vum28dn2LFi1mRokVt6ZIf3fcnuvW0XTt32oUXX5iI/A66Ov/xxzYbN/azveo15tPRNnb0GOv5Vm852wAACvpJREFUVA8rUbLkXtdz6sSqlStd31eoUCGmIt5/9z3r//xLdu0/rrN/tvmnZfX+mApRIhEQAREQARFIEAI5LtTwonmRdt6FF9j9D95neQ85xIUqH7r/QVvzyxr74N0PUgm1aVOn2/Sp02z16tVWoUJFO+W0k61GECYN2+xZc2zKt1MsT548dlajM8OXIsfbtm61sWM+d6KweMkSdsIJx1utOrUi15P9YPBrg10TV/y0yp59pq8tmD/fhgx61f59393u/JYtW2zurLm2ffsfAZejrVjx4qmQjP98gtU5po6VKpVa2P3+2282f+4COzTfoe6699L9vHKVbdmyzY6qXNFWrlhpf/75pzU8q6GVLVvWylco77x8Sxb9GHj18lrFSkfZ7Fmzg3NmtWrXdJ4++uu3Tb9F6kY54ft95Xbs2OHuXbVilZUJwtx16tS2/Ifld5d/+Xm1bd22zcqUKRs8W6ttdfD9uBNPsHxBXWUiIAIiIAIikGgEcvztNXnSlxEm7e+604k0TlQ/urrddfddNnHiJHcd0VCoUCF7od8L9u5b70Tu4eDll/rbHXe1txatrnDn3wmuvxik8zZowMv+MPL50/IVdu/dHYMX9c+Rcxzc2q6NXX3t1anOJesXxBBC9qjKlWzd+nXW+8le9r/Ro51QmzVzlj143wMRYQSDu++9x5oG4UnGEHa4o4MtWbTYoTmzUUPr2qOrO/76q2+sy8OdbXsghrDDChSwm265yVpf1dqe7PmUTZ82zU486SSbOmWK/eOmG9wYRPqq+RWX2+0dbrdbbrzZ3VOiRIlAzK1weVSpVtX6PPu0fTLqU3vztTfcuWHvfWDr129wIs7f3+HfHZzwuv/e+yMeWRJXPKqi9ez1hJUvX86e7tXHvvn6ayNPX3/q+Mxzfa1mzaNd3vohAiIgAiIgAolCIMdnfS5fusyxqFO3rhUuUjgVlzMaNrD7HrjP/UOkff/t9xGRVqlKZbvq2musVOlS7p7n+v6fLV+23PCYhEXauRecH3iCiqXKly99ez/jRBplXnP9dXbyqae4NANe6G/z5szfK32yn6hZa7dIQWCtX7fOHu/2uBNp5190oRNatL9Pr95BqHGVjRg+womcx3p2M/phYuAVnTl9hhNnPbt2d594R5tcdpk7pj8Qd94QafQbQjGaUYeChQrapZftHrOGoHrl5SF2ev3TrfG557hbGpzZICLMw3n07d3XiTSEGKKbT56Lp596OpzM1b9l61au/pT3ychPUl3XFxEQAREQARFIBAI57lFbs+YXx6FIkSKZ8vjvfz92afCADBo6yHmDWrZuYS2btXDnP/n4UyseEmWvBKG9SoG3iJDbNa2vieRPCG3Kd9+57y1bt7ZLm15ifwbhshuuu9EJC7xKNWvnLu9KwUAIe9uwcVPEm0U4OO8hQSgy8EoheCaMn2AbN2x0SSdPnGzNmjezU04/1YoVO9LmzZ3vxB0i7IGH73f9U6lKpeDcJtsSMPfWpNll1uHu9i6cifczmj0ReMBKBOHoWrVrO0/ftGlT7a57OgQh7upujF3lqlWs7jF1Dc+fN0KeX32520P70CMPBzOHq1iDBmfYjUG/Ig7xynrrEHhrm7dobt8EHsD7O3aymTNn+Ev6FAEREAEREIGEIZDjQq1UqdJuHNq69eszhbJs6VKX5uSTT3IigC/FSxSPiIifli+zbYF3BMNThkjDGKeE58dPUCDs6e2VlwcG3pqB/qv7XL0qdTg01cUk/bJ44SLXMjybXohxotcTT6Vq8aZAxDW/onkgfKbapx+Pcv/wWD7Tr6+tW7vOpS1Ttlykf3w4OpxJ/fr1M51dSr9iVapUDn6aMTM4M/Plk45xcFiFin9PUvh1za/uHD/KBWFQrFDBgu5TP0RABERABEQgEQnkuFCrcFSFYOD3rGDw+Vxb++uvqWYc+vFoeNA+HDksGKN2uGPI2CRvLDOxYcPu7wUKFgoEwu4rf/yxw3b+9Zcb80aadWvX+luCpR3yRY4bBuOrqlStGvnOQeXKlVN9T/YvDNAf9PIg18xjjz/OygRrzXkb/vEIJ3oRt5sCz1jZsilOpDVp1tT+CiYDDHv/A+dpGz5suF15zVXutp9XrXQTAxj/1qNrT2PQf8dOHX2Wdtiegf2RE1EOpn431eqdUs/mzJ7jrpYqnRIlVepTeOC8zZ+3wOrUrR1MkNgtQDmfklLGX44IycgJHYiACIiACIhAAhLIcaF20SUX2+hgkDjWvUsPe7TrI24w+aj/fhIZj3ZCMCsPsVa9RjWbMX26E3aLg3FLVYPxR18G4Tc/E5C1wEiHMe7os7Hj7LwLzrXxn42PpOFauQrl+XB2WIGCduM/b3QzEAe8OMC2bt3mFtrdczmpP2658RbbGSx94j2NeCEvvvQiSylbJjLYvssjj1m16lXto+EfOaYvDxloM2fMsg8/GBaEL+8KQs0lnFDjk9mfNY4+2s0efei+h+yQIGQ6KZgMUq58eRfGzArMXsHEhtp160SWEjkrWGcNOySYEYx99eVXQeizjjv2P5hdekGwjAvP0wP3drIzgxmlEyfsXpuPsW2suyYTAREQAREQgWQikONC7YQTj7ezGje2CePGuRmBLS7bPd7MQ0R4+QVqrwxmDjLbD7vlhn9aSpkykVmbiIyml11qOwPv2cBgFijijYHt/xcsO+GFnM+TF/oVrVoEy368b6wftiyY0MBSDevX7Q6/Mu4tN5if9Qi7Y4491m6+9WY7as8A/85dO1u3Lt3c2C7Gd2H/CmZ9Io5bX93a5s+bb8/26evOEy5tEfDEbmt3mz3WuUtkrBhh0Ue6Puqu5cm7x93pvmX8o3RKSkSk4fX0+Z98ysnOw8fixaM/HeNmfYZzuqP9HS50+3Ug5EaN3D2m8aSTT7Z/BTNCsfTqkDdP3nA2OhYBERABERCBhCCQJ1irbFfbkSWt/1U59yJjPa2hg1+11wYPTQWFGXv33NfRhbD8henTplvXRx+LiCrOM9C9c7cuTkTwffbM2fbIgw9H0tSqU8fyBmE4Qqytr77S2t7R1v4I1gYjtDp82Ifc4gxR+GCwEwLCQGYufMk6Y5uDrbcQcOxgEDY4lwzCjaXLpA5L0p+I30MD75dfAiR8X3rH3HdB4/N3e1THjLJfVq9x658deWTRVLeQjgkKBYPxZQXSGWPGmLafflpp5YI12o4sfmSq+/VFBERABERABJKFQFyEmoflXvA/Lre1a3+1isEgcEJwjHNKa4w5WxnM5Px1zRorG3jV0goF0pPXj4t/tMOPODzDvT0ZP7U0EBWFjzjChUT94qxpy9T3nCeQVqjlfIkqQQREQAREQAQSm0COhz7DeBBJLKnAv4wM8cbipfxLz8iLRXMzsyMKF3bLPGSWTtfjQ4Awqh9nGJ8SVYoIiIAIiIAIJC6BuAq1xMWkmmcHAcR1v5f6ZUdWykMEREAEREAEcgWBnBuYlivwqZEiIAIiIAIiIAIikHMEJNRyjq1yFgEREAEREAEREIH9IiChtl/4dLMIiIAIiIAIiIAI5BwBCbWcY6ucRUAEREAEREAERGC/CEio7Rc+3SwCIiACIiACIiACOUdAQi3n2CpnERABERABERABEdgvAhJq+4VPN4uACIiACIiACIhAzhGQUMs5tspZBERABERABERABPaLgITafuHTzSIgAiIgAiIgAiKQcwQk1HKOrXIWAREQAREQAREQgf0iIKG2X/h0swiIgAiIgAiIgAjkHIH/B2Spom9tHVXHAAAAAElFTkSuQmCC;" vertex="1" parent="1">
          <mxGeometry x="60" y="20" width="618" height="674" as="geometry" />
        </mxCell>
      </root>
    </mxGraphModel>
  </diagram>
</mxfile>
